<svg width="72" height="72" viewBox="0 0 72 72" fill="none" xmlns="http://www.w3.org/2000/svg">
<path fill-rule="evenodd" clip-rule="evenodd" d="M39 36C45.6274 36 51 30.6274 51 24C51 17.3726 45.6274 12 39 12C32.3726 12 27 17.3726 27 24C27 26.1857 27.5844 28.235 28.6054 30H3C1.34315 30 0 31.3431 0 33C0 34.6569 1.34315 36 3 36H39ZM69 39C69 43.9706 64.9706 48 60 48H56.4879C56.8195 48.9383 57 49.9481 57 51C57 55.9706 52.9706 60 48 60C43.0294 60 39 55.9706 39 51C39 49.9481 39.1805 48.9383 39.5121 48H3C1.34315 48 0 46.6569 0 45C0 43.3431 1.34315 42 3 42H48H51.5121C51.1805 41.0617 51 40.0519 51 39C51 34.0294 55.0294 30 60 30C64.9706 30 69 34.0294 69 39Z" fill="#C4C4C4"/>
<path fill-rule="evenodd" clip-rule="evenodd" d="M39 36C45.6274 36 51 30.6274 51 24C51 17.3726 45.6274 12 39 12C32.3726 12 27 17.3726 27 24C27 26.1857 27.5844 28.235 28.6054 30H3C1.34315 30 0 31.3431 0 33C0 34.6569 1.34315 36 3 36H39ZM69 39C69 43.9706 64.9706 48 60 48H56.4879C56.8195 48.9383 57 49.9481 57 51C57 55.9706 52.9706 60 48 60C43.0294 60 39 55.9706 39 51C39 49.9481 39.1805 48.9383 39.5121 48H3C1.34315 48 0 46.6569 0 45C0 43.3431 1.34315 42 3 42H48H51.5121C51.1805 41.0617 51 40.0519 51 39C51 34.0294 55.0294 30 60 30C64.9706 30 69 34.0294 69 39Z" fill="url(#paint0_linear_537_34756)"/>
<path opacity="0.9" fill-rule="evenodd" clip-rule="evenodd" d="M48 55.4897C45.5204 55.4897 43.5103 53.4796 43.5103 51C43.5103 49.8468 43.945 48.7951 44.6596 48H39.5121C39.1805 48.9383 39 49.9481 39 51C39 55.9706 43.0294 60 48 60C52.9706 60 57 55.9706 57 51C57 49.9481 56.8195 48.9383 56.4879 48H51.3405C52.0551 48.7951 52.4898 49.8468 52.4898 51C52.4898 53.4796 50.4797 55.4897 48 55.4897Z" fill="url(#paint1_linear_537_34756)"/>
<path opacity="0.9" fill-rule="evenodd" clip-rule="evenodd" d="M69 39C69 40.0519 68.8195 41.0617 68.4879 42H63.3404C64.055 41.2049 64.4898 40.1532 64.4898 39C64.4898 36.5203 62.4797 34.5102 60 34.5102C57.5204 34.5102 55.5103 36.5203 55.5103 39C55.5103 40.1532 55.945 41.2049 56.6596 42H51.5121C51.1805 41.0617 51 40.0519 51 39C51 34.0294 55.0294 30 60 30C64.9706 30 69 34.0294 69 39Z" fill="url(#paint2_linear_537_34756)"/>
<path opacity="0.9" fill-rule="evenodd" clip-rule="evenodd" d="M51 24C51 26.1857 50.4156 28.235 49.3946 30H39C42.3137 30 45 27.3137 45 24C45 20.6863 42.3137 18 39 18C35.6863 18 33 20.6863 33 24C33 27.3137 35.6863 30 39 30H28.6054C27.5844 28.235 27 26.1857 27 24C27 17.3726 32.3726 12 39 12C45.6274 12 51 17.3726 51 24Z" fill="url(#paint3_linear_537_34756)"/>
<path fill-rule="evenodd" clip-rule="evenodd" d="M12.0018 3C12.5817 3 13.0518 3.47011 13.0518 4.05001V5.55723L13.2802 5.32889C13.6902 4.91883 14.3551 4.91883 14.7651 5.32889C15.1752 5.73895 15.1752 6.40378 14.7651 6.81383L13.0518 8.52712V11.3265L15.476 9.92686L16.1032 7.58643C16.2533 7.02628 16.829 6.69386 17.3892 6.84396C17.9493 6.99405 18.2817 7.56981 18.1316 8.12995L18.048 8.44192L19.3527 7.68869C19.8549 7.39874 20.4971 7.57081 20.787 8.07302C21.077 8.57524 20.9049 9.21741 20.4027 9.50737L19.0972 10.2611L19.4105 10.345C19.9707 10.4951 20.3031 11.0709 20.153 11.631C20.0029 12.1912 19.4271 12.5236 18.867 12.3735L16.5252 11.746L14.0999 13.1463L16.5244 14.5461L18.8659 13.9187C19.4261 13.7686 20.0018 14.101 20.1519 14.6611C20.302 15.2213 19.9696 15.797 19.4094 15.9471L19.0964 16.031L20.4021 16.7848C20.9043 17.0748 21.0764 17.7169 20.7864 18.2191C20.4965 18.7214 19.8543 18.8934 19.3521 18.6035L18.0469 17.8499L18.1306 18.1622C18.2806 18.7224 17.9482 19.2981 17.3881 19.4482C16.8279 19.5983 16.2522 19.2659 16.1021 18.7057L15.4749 16.365L13.0518 14.966V17.765L14.7651 19.4783C15.1752 19.8884 15.1752 20.5532 14.7651 20.9633C14.3551 21.3733 13.6902 21.3733 13.2802 20.9633L13.0518 20.7349V22.2422C13.0518 22.8221 12.5817 23.2922 12.0018 23.2922C11.4219 23.2922 10.9518 22.8221 10.9518 22.2422V20.7339L10.7224 20.9633C10.3124 21.3733 9.64752 21.3733 9.23747 20.9633C8.82741 20.5532 8.82741 19.8884 9.23747 19.4783L10.9518 17.764V14.9638L8.52594 16.3644L7.89858 18.7058C7.74849 19.2659 7.17273 19.5983 6.61258 19.4482C6.05244 19.2981 5.72002 18.7224 5.87011 18.1622L5.95395 17.8493L4.64783 18.6034C4.14561 18.8934 3.50344 18.7213 3.21348 18.2191C2.92353 17.7169 3.0956 17.0747 3.59781 16.7848L4.90363 16.0308L4.59124 15.9471C4.03109 15.7971 3.69867 15.2213 3.84876 14.6611C3.99886 14.101 4.57462 13.7686 5.13476 13.9187L7.47562 14.5459L9.89988 13.1463L7.47519 11.7464L5.13473 12.3735C4.57458 12.5236 3.99882 12.1912 3.84873 11.631C3.69864 11.0709 4.03105 10.4951 4.5912 10.345L4.9032 10.2614L3.5972 9.50741C3.09499 9.21746 2.92292 8.57528 3.21287 8.07306C3.50282 7.57085 4.145 7.39878 4.64722 7.68873L5.95402 8.44321L5.87008 8.12994C5.71999 7.5698 6.0524 6.99404 6.61255 6.84394C7.17269 6.69385 7.74845 7.02627 7.89855 7.58642L8.52601 9.92816L10.9518 11.3287V8.52816L9.23747 6.81383C8.82741 6.40378 8.82741 5.73895 9.23747 5.32889C9.64752 4.91883 10.3124 4.91883 10.7224 5.32889L10.9518 5.55828V4.05001C10.9518 3.47011 11.4219 3 12.0018 3Z" fill="url(#paint4_linear_537_34756)"/>
<path fill-rule="evenodd" clip-rule="evenodd" d="M20.9298 51C21.5097 51 21.9798 51.4701 21.9798 52.05V53.5572L22.2081 53.3289C22.6182 52.9188 23.283 52.9188 23.6931 53.3289C24.1031 53.7389 24.1031 54.4038 23.6931 54.8138L21.9798 56.5271V59.3265L24.404 57.9269L25.0311 55.5864C25.1812 55.0263 25.757 54.6939 26.3171 54.844C26.8773 54.994 27.2097 55.5698 27.0596 56.13L26.976 56.4419L28.2806 55.6887C28.7829 55.3987 29.425 55.5708 29.715 56.073C30.0049 56.5752 29.8329 57.2174 29.3307 57.5074L28.0252 58.2611L28.3385 58.345C28.8986 58.4951 29.2311 59.0709 29.081 59.631C28.9309 60.1912 28.3551 60.5236 27.795 60.3735L25.4532 59.746L23.0279 61.1463L25.4524 62.5461L27.7939 61.9187C28.354 61.7686 28.9298 62.101 29.0799 62.6611C29.23 63.2213 28.8976 63.797 28.3374 63.9471L28.0244 64.031L29.33 64.7848C29.8323 65.0748 30.0043 65.7169 29.7144 66.2191C29.4244 66.7214 28.7823 66.8934 28.28 66.6035L26.9749 65.8499L27.0585 66.1622C27.2086 66.7224 26.8762 67.2981 26.3161 67.4482C25.7559 67.5983 25.1802 67.2659 25.0301 66.7057L24.4029 64.365L21.9798 62.966V65.765L23.6931 67.4783C24.1031 67.8884 24.1031 68.5532 23.6931 68.9633C23.283 69.3733 22.6182 69.3733 22.2081 68.9633L21.9798 68.7349V70.2422C21.9798 70.8221 21.5097 71.2922 20.9298 71.2922C20.3499 71.2922 19.8798 70.8221 19.8798 70.2422V68.7339L19.6504 68.9633C19.2403 69.3733 18.5755 69.3733 18.1654 68.9633C17.7554 68.5532 17.7554 67.8884 18.1654 67.4783L19.8798 65.764V62.9638L17.4539 64.3644L16.8266 66.7058C16.6765 67.2659 16.1007 67.5983 15.5406 67.4482C14.9804 67.2981 14.648 66.7224 14.7981 66.1622L14.8819 65.8493L13.5758 66.6034C13.0736 66.8934 12.4314 66.7213 12.1415 66.2191C11.8515 65.7169 12.0236 65.0747 12.5258 64.7848L13.8316 64.0308L13.5192 63.9471C12.9591 63.7971 12.6267 63.2213 12.7767 62.6611C12.9268 62.101 13.5026 61.7686 14.0627 61.9187L16.4036 62.5459L18.8279 61.1463L16.4032 59.7464L14.0627 60.3735C13.5026 60.5236 12.9268 60.1912 12.7767 59.631C12.6266 59.0709 12.959 58.4951 13.5192 58.345L13.8312 58.2614L12.5252 57.5074C12.023 57.2175 11.8509 56.5753 12.1409 56.0731C12.4308 55.5709 13.073 55.3988 13.5752 55.6887L14.882 56.4432L14.7981 56.1299C14.648 55.5698 14.9804 54.994 15.5405 54.8439C16.1007 54.6939 16.6764 55.0263 16.8265 55.5864L17.454 57.9282L19.8798 59.3287V56.5282L18.1654 54.8138C17.7554 54.4038 17.7554 53.7389 18.1654 53.3289C18.5755 52.9188 19.2403 52.9188 19.6504 53.3289L19.8798 53.5583V52.05C19.8798 51.4701 20.3499 51 20.9298 51Z" fill="url(#paint5_linear_537_34756)"/>
<defs>
<linearGradient id="paint0_linear_537_34756" x1="51.753" y1="56.8338" x2="32.581" y2="9.09902" gradientUnits="userSpaceOnUse">
<stop stop-color="#0066FF"/>
<stop offset="1" stop-color="#65ACFF"/>
</linearGradient>
<linearGradient id="paint1_linear_537_34756" x1="49.5" y1="49.5" x2="34.5" y2="60" gradientUnits="userSpaceOnUse">
<stop stop-color="white" stop-opacity="0"/>
<stop offset="1" stop-color="white"/>
</linearGradient>
<linearGradient id="paint2_linear_537_34756" x1="60" y1="40.5" x2="51" y2="24" gradientUnits="userSpaceOnUse">
<stop stop-color="white" stop-opacity="0"/>
<stop offset="1" stop-color="white"/>
</linearGradient>
<linearGradient id="paint3_linear_537_34756" x1="42" y1="28.5" x2="33" y2="12" gradientUnits="userSpaceOnUse">
<stop stop-color="white" stop-opacity="0"/>
<stop offset="1" stop-color="white"/>
</linearGradient>
<linearGradient id="paint4_linear_537_34756" x1="11.9999" y1="3" x2="11.9999" y2="23.2922" gradientUnits="userSpaceOnUse">
<stop stop-color="#1A70F0"/>
<stop offset="1" stop-color="#2D94DE"/>
</linearGradient>
<linearGradient id="paint5_linear_537_34756" x1="20.9279" y1="51" x2="20.9279" y2="71.2922" gradientUnits="userSpaceOnUse">
<stop stop-color="#1A70F0"/>
<stop offset="1" stop-color="#2D94DE"/>
</linearGradient>
</defs>
</svg>
