<svg width="72" height="72" viewBox="0 0 72 72" fill="none" xmlns="http://www.w3.org/2000/svg">
<path fill-rule="evenodd" clip-rule="evenodd" d="M13.5 54H34.5H36H55.5C64.6127 54 72 46.6127 72 37.5C72 28.3873 64.6127 21 55.5 21C55.1382 21 54.7791 21.0116 54.4231 21.0346C50.6566 13.879 43.1481 9 34.5 9C23.6003 9 14.5107 16.7504 12.4418 27.0409C5.48057 27.5806 0 33.4003 0 40.5C0 47.9558 6.04416 54 13.5 54Z" fill="#E7F1FF"/>
<path fill-rule="evenodd" clip-rule="evenodd" d="M13.5 54H34.5H36H55.5C64.6127 54 72 46.6127 72 37.5C72 28.3873 64.6127 21 55.5 21C55.1382 21 54.7791 21.0116 54.4231 21.0346C50.6566 13.879 43.1481 9 34.5 9C23.6003 9 14.5107 16.7504 12.4418 27.0409C5.48057 27.5806 0 33.4003 0 40.5C0 47.9558 6.04416 54 13.5 54Z" fill="url(#paint0_linear_537_34875)"/>
<path fill-rule="evenodd" clip-rule="evenodd" d="M13.5 54H34.5H36H55.5C64.6127 54 72 46.6127 72 37.5C72 28.3873 64.6127 21 55.5 21C55.1382 21 54.7791 21.0116 54.4231 21.0346C50.6566 13.879 43.1481 9 34.5 9C23.6003 9 14.5107 16.7504 12.4418 27.0409C5.48057 27.5806 0 33.4003 0 40.5C0 47.9558 6.04416 54 13.5 54Z" fill="url(#paint1_linear_537_34875)"/>
<path d="M0 40.5C0 33.0442 6.04416 27 13.5 27H18C27.9411 27 36 35.0589 36 45V54H13.5C6.04416 54 0 47.9558 0 40.5Z" fill="url(#paint2_radial_537_34875)"/>
<path d="M12 31.5C12 19.0736 22.0736 9 34.5 9C46.9264 9 57 19.0736 57 31.5C57 43.9264 46.9264 54 34.5 54C22.0736 54 12 43.9264 12 31.5Z" fill="url(#paint3_radial_537_34875)"/>
<circle cx="55.5" cy="37.5" r="16.5" fill="url(#paint4_radial_537_34875)"/>
<path fill-rule="evenodd" clip-rule="evenodd" d="M45 61.5V41.1004C45 39.2252 47.2709 38.2902 48.5912 39.6217L62.8413 53.9929C64.7903 55.8992 66 58.5583 66 61.5C66 67.299 61.299 72 55.5 72C49.701 72 45 67.299 45 61.5Z" fill="#C4C4C4"/>
<path fill-rule="evenodd" clip-rule="evenodd" d="M45 61.5V41.1004C45 39.2252 47.2709 38.2902 48.5912 39.6217L62.8413 53.9929C64.7903 55.8992 66 58.5583 66 61.5C66 67.299 61.299 72 55.5 72C49.701 72 45 67.299 45 61.5Z" fill="url(#paint5_linear_537_34875)"/>
<path fill-rule="evenodd" clip-rule="evenodd" d="M20.0302 38.9096L15.232 53.304C15.1564 53.531 15.1371 53.7694 15.1715 54H32.8285C32.7963 53.7844 32.7171 53.5757 32.5931 53.3896L22.7013 38.5519C22.0089 37.5133 20.4249 37.7254 20.0302 38.9096Z" fill="url(#paint6_linear_537_34875)"/>
<path fill-rule="evenodd" clip-rule="evenodd" d="M20.0302 38.9096L15.232 53.304C15.1564 53.531 15.1371 53.7694 15.1715 54H32.8285C32.7963 53.7844 32.7171 53.5757 32.5931 53.3896L22.7013 38.5519C22.0089 37.5133 20.4249 37.7254 20.0302 38.9096Z" fill="url(#paint7_linear_537_34875)"/>
<path fill-rule="evenodd" clip-rule="evenodd" d="M20.0302 38.9096L15.232 53.304C15.1564 53.531 15.1371 53.7694 15.1715 54H32.8285C32.7963 53.7844 32.7171 53.5757 32.5931 53.3896L22.7013 38.5519C22.0089 37.5133 20.4249 37.7254 20.0302 38.9096Z" fill="url(#paint8_linear_537_34875)"/>
<path fill-rule="evenodd" clip-rule="evenodd" d="M15.1714 54C15.2036 54.2156 15.2828 54.4243 15.4068 54.6104L25.2987 69.4481C25.991 70.4867 27.575 70.2746 27.9698 69.0904L32.7679 54.696C32.8436 54.469 32.8629 54.2306 32.8284 54H15.1714Z" fill="url(#paint9_linear_537_34875)"/>
<path fill-rule="evenodd" clip-rule="evenodd" d="M15.1714 54C15.2036 54.2156 15.2828 54.4243 15.4068 54.6104L25.2987 69.4481C25.991 70.4867 27.575 70.2746 27.9698 69.0904L32.7679 54.696C32.8436 54.469 32.8629 54.2306 32.8284 54H15.1714Z" fill="url(#paint10_linear_537_34875)"/>
<path fill-rule="evenodd" clip-rule="evenodd" d="M15.1714 54C15.2036 54.2156 15.2828 54.4243 15.4068 54.6104L25.2987 69.4481C25.991 70.4867 27.575 70.2746 27.9698 69.0904L32.7679 54.696C32.8436 54.469 32.8629 54.2306 32.8284 54H15.1714Z" fill="url(#paint11_linear_537_34875)"/>
<defs>
<linearGradient id="paint0_linear_537_34875" x1="22.5" y1="19.5" x2="36" y2="54" gradientUnits="userSpaceOnUse">
<stop stop-color="#C6D8F5"/>
<stop offset="1" stop-color="#89AFD1" stop-opacity="0"/>
</linearGradient>
<linearGradient id="paint1_linear_537_34875" x1="32.0998" y1="55.5925" x2="31.1538" y2="9" gradientUnits="userSpaceOnUse">
<stop stop-color="#547DDA"/>
<stop offset="0.257422" stop-color="#93C2FF" stop-opacity="0"/>
</linearGradient>
<radialGradient id="paint2_radial_537_34875" cx="0" cy="0" r="1" gradientUnits="userSpaceOnUse" gradientTransform="translate(19.5 54) rotate(-127.875) scale(28.5044 32.9871)">
<stop offset="0.683784" stop-color="#8FABDD" stop-opacity="0"/>
<stop offset="1" stop-color="#5582D3"/>
</radialGradient>
<radialGradient id="paint3_radial_537_34875" cx="0" cy="0" r="1" gradientUnits="userSpaceOnUse" gradientTransform="translate(34.5 49.5) rotate(-90) scale(40.5)">
<stop offset="0.598765" stop-color="#C7DFFF" stop-opacity="0"/>
<stop offset="1" stop-color="#6B97E6"/>
</radialGradient>
<radialGradient id="paint4_radial_537_34875" cx="0" cy="0" r="1" gradientUnits="userSpaceOnUse" gradientTransform="translate(46.7 49.6) rotate(-56.3099) scale(31.7288)">
<stop offset="0.47771" stop-color="#8FABDD" stop-opacity="0"/>
<stop offset="1" stop-color="#5582D3"/>
</radialGradient>
<linearGradient id="paint5_linear_537_34875" x1="60.7509" y1="69.8232" x2="41.7826" y2="48.9185" gradientUnits="userSpaceOnUse">
<stop stop-color="#0066FF"/>
<stop offset="1" stop-color="#65ACFF"/>
</linearGradient>
<linearGradient id="paint6_linear_537_34875" x1="19.4848" y1="40.5246" x2="22.4702" y2="54.0042" gradientUnits="userSpaceOnUse">
<stop stop-color="white"/>
<stop offset="1" stop-color="#DBEEFF"/>
</linearGradient>
<linearGradient id="paint7_linear_537_34875" x1="26.8725" y1="53.1055" x2="21.0415" y2="40.0497" gradientUnits="userSpaceOnUse">
<stop stop-color="#5672FA"/>
<stop offset="1" stop-color="#869AFF"/>
</linearGradient>
<linearGradient id="paint8_linear_537_34875" x1="26.3001" y1="51.4432" x2="22.1641" y2="40.698" gradientUnits="userSpaceOnUse">
<stop stop-color="#1431BF"/>
<stop offset="1" stop-color="#3F5EFF"/>
</linearGradient>
<linearGradient id="paint9_linear_537_34875" x1="21.0035" y1="54" x2="22.4959" y2="67.5608" gradientUnits="userSpaceOnUse">
<stop stop-color="#50E6FF"/>
<stop offset="1" stop-color="#3CCBF4"/>
</linearGradient>
<linearGradient id="paint10_linear_537_34875" x1="26.3165" y1="67.5597" x2="22.1804" y2="56.8144" gradientUnits="userSpaceOnUse">
<stop stop-color="#0078D4"/>
<stop offset="1" stop-color="#1493DF"/>
</linearGradient>
<linearGradient id="paint11_linear_537_34875" x1="26.8888" y1="69.222" x2="21.0578" y2="56.1661" gradientUnits="userSpaceOnUse">
<stop stop-color="#4D6BFF"/>
<stop offset="1" stop-color="#28AFEA"/>
</linearGradient>
</defs>
</svg>
