<svg width="72" height="72" viewBox="0 0 72 72" fill="none" xmlns="http://www.w3.org/2000/svg">
<circle cx="54" cy="24" r="18" fill="url(#paint0_linear_537_34877)"/>
<path fill-rule="evenodd" clip-rule="evenodd" d="M13.5 66H34.5H36H55.5C64.6127 66 72 58.6127 72 49.5C72 40.3873 64.6127 33 55.5 33C55.1382 33 54.7791 33.0116 54.4231 33.0346C50.6566 25.879 43.1481 21 34.5 21C23.6003 21 14.5107 28.7504 12.4418 39.0409C5.48057 39.5806 0 45.4003 0 52.5C0 59.9558 6.04416 66 13.5 66Z" fill="#E7F1FF"/>
<path fill-rule="evenodd" clip-rule="evenodd" d="M13.5 66H34.5H36H55.5C64.6127 66 72 58.6127 72 49.5C72 40.3873 64.6127 33 55.5 33C55.1382 33 54.7791 33.0116 54.4231 33.0346C50.6566 25.879 43.1481 21 34.5 21C23.6003 21 14.5107 28.7504 12.4418 39.0409C5.48057 39.5806 0 45.4003 0 52.5C0 59.9558 6.04416 66 13.5 66Z" fill="url(#paint1_linear_537_34877)"/>
<path fill-rule="evenodd" clip-rule="evenodd" d="M13.5 66H34.5H36H55.5C64.6127 66 72 58.6127 72 49.5C72 40.3873 64.6127 33 55.5 33C55.1382 33 54.7791 33.0116 54.4231 33.0346C50.6566 25.879 43.1481 21 34.5 21C23.6003 21 14.5107 28.7504 12.4418 39.0409C5.48057 39.5806 0 45.4003 0 52.5C0 59.9558 6.04416 66 13.5 66Z" fill="url(#paint2_linear_537_34877)"/>
<path d="M0 52.5C0 45.0442 6.04416 39 13.5 39H18C27.9411 39 36 47.0589 36 57V66H13.5C6.04416 66 0 59.9558 0 52.5Z" fill="url(#paint3_radial_537_34877)"/>
<path d="M12 43.5C12 31.0736 22.0736 21 34.5 21C46.9264 21 57 31.0736 57 43.5C57 55.9264 46.9264 66 34.5 66C22.0736 66 12 55.9264 12 43.5Z" fill="url(#paint4_radial_537_34877)"/>
<circle cx="55.5" cy="49.5" r="16.5" fill="url(#paint5_radial_537_34877)"/>
<circle cx="46.5" cy="60" r="7.5" fill="#C4C4C4"/>
<circle cx="46.5" cy="60" r="7.5" fill="url(#paint6_linear_537_34877)"/>
<circle cx="28.5" cy="43.5" r="7.5" fill="#C4C4C4"/>
<circle cx="28.5" cy="43.5" r="7.5" fill="url(#paint7_linear_537_34877)"/>
<circle cx="22.5" cy="64.5" r="7.5" fill="#C4C4C4"/>
<circle cx="22.5" cy="64.5" r="7.5" fill="url(#paint8_linear_537_34877)"/>
<defs>
<linearGradient id="paint0_linear_537_34877" x1="62.1" y1="31.8" x2="32.7478" y2="-4.02444" gradientUnits="userSpaceOnUse">
<stop stop-color="#EF6D0F"/>
<stop offset="0.56298" stop-color="#EEB82E"/>
<stop offset="1" stop-color="#FEB649" stop-opacity="0.78"/>
</linearGradient>
<linearGradient id="paint1_linear_537_34877" x1="22.5" y1="31.5" x2="36" y2="66" gradientUnits="userSpaceOnUse">
<stop stop-color="#C6D8F5"/>
<stop offset="1" stop-color="#89AFD1" stop-opacity="0"/>
</linearGradient>
<linearGradient id="paint2_linear_537_34877" x1="32.0998" y1="67.5925" x2="31.1538" y2="21" gradientUnits="userSpaceOnUse">
<stop stop-color="#547DDA"/>
<stop offset="0.257422" stop-color="#93C2FF" stop-opacity="0"/>
</linearGradient>
<radialGradient id="paint3_radial_537_34877" cx="0" cy="0" r="1" gradientUnits="userSpaceOnUse" gradientTransform="translate(19.5 66) rotate(-127.875) scale(28.5044 32.9871)">
<stop offset="0.683784" stop-color="#8FABDD" stop-opacity="0"/>
<stop offset="1" stop-color="#5582D3"/>
</radialGradient>
<radialGradient id="paint4_radial_537_34877" cx="0" cy="0" r="1" gradientUnits="userSpaceOnUse" gradientTransform="translate(34.5 61.5) rotate(-90) scale(40.5)">
<stop offset="0.598765" stop-color="#C7DFFF" stop-opacity="0"/>
<stop offset="1" stop-color="#6B97E6"/>
</radialGradient>
<radialGradient id="paint5_radial_537_34877" cx="0" cy="0" r="1" gradientUnits="userSpaceOnUse" gradientTransform="translate(46.7 61.6) rotate(-56.3099) scale(31.7288)">
<stop offset="0.47771" stop-color="#8FABDD" stop-opacity="0"/>
<stop offset="1" stop-color="#5582D3"/>
</radialGradient>
<linearGradient id="paint6_linear_537_34877" x1="50.2506" y1="66.5106" x2="42.7494" y2="53.518" gradientUnits="userSpaceOnUse">
<stop stop-color="#0066FF"/>
<stop offset="1" stop-color="#65ACFF"/>
</linearGradient>
<linearGradient id="paint7_linear_537_34877" x1="32.2506" y1="50.0106" x2="24.7494" y2="37.018" gradientUnits="userSpaceOnUse">
<stop stop-color="#0066FF"/>
<stop offset="1" stop-color="#65ACFF"/>
</linearGradient>
<linearGradient id="paint8_linear_537_34877" x1="26.2506" y1="71.0106" x2="18.7494" y2="58.018" gradientUnits="userSpaceOnUse">
<stop stop-color="#0066FF"/>
<stop offset="1" stop-color="#65ACFF"/>
</linearGradient>
</defs>
</svg>
