<svg width="72" height="72" viewBox="0 0 72 72" fill="none" xmlns="http://www.w3.org/2000/svg">
<path fill-rule="evenodd" clip-rule="evenodd" d="M8.2359 26.8351C18.6619 26.8351 27.1138 18.3528 27.1138 7.88941C27.1138 6.39574 26.9416 4.94245 26.616 3.54844C26.2216 1.86005 27.7281 0.167891 29.262 0.976064C35.903 4.47485 40.4327 11.4627 40.4327 19.5124C40.4327 31.0672 31.0992 40.4342 19.5858 40.4342C11.4129 40.4342 4.33852 35.7143 0.921325 28.8423C0.148874 27.2889 1.87751 25.819 3.55824 26.249C5.05408 26.6317 6.62132 26.8351 8.2359 26.8351Z" fill="url(#paint0_linear_537_34880)"/>
<path fill-rule="evenodd" clip-rule="evenodd" d="M13.5 69H34.5H36H55.5C64.6127 69 72 61.6127 72 52.5C72 43.3873 64.6127 36 55.5 36C55.1382 36 54.7791 36.0116 54.4231 36.0346C50.6566 28.879 43.1481 24 34.5 24C23.6003 24 14.5107 31.7504 12.4418 42.0409C5.48057 42.5806 0 48.4003 0 55.5C0 62.9558 6.04416 69 13.5 69Z" fill="#E7F1FF"/>
<path fill-rule="evenodd" clip-rule="evenodd" d="M13.5 69H34.5H36H55.5C64.6127 69 72 61.6127 72 52.5C72 43.3873 64.6127 36 55.5 36C55.1382 36 54.7791 36.0116 54.4231 36.0346C50.6566 28.879 43.1481 24 34.5 24C23.6003 24 14.5107 31.7504 12.4418 42.0409C5.48057 42.5806 0 48.4003 0 55.5C0 62.9558 6.04416 69 13.5 69Z" fill="url(#paint1_linear_537_34880)"/>
<path fill-rule="evenodd" clip-rule="evenodd" d="M13.5 69H34.5H36H55.5C64.6127 69 72 61.6127 72 52.5C72 43.3873 64.6127 36 55.5 36C55.1382 36 54.7791 36.0116 54.4231 36.0346C50.6566 28.879 43.1481 24 34.5 24C23.6003 24 14.5107 31.7504 12.4418 42.0409C5.48057 42.5806 0 48.4003 0 55.5C0 62.9558 6.04416 69 13.5 69Z" fill="url(#paint2_linear_537_34880)"/>
<path d="M0 55.5C0 48.0442 6.04416 42 13.5 42H18C27.9411 42 36 50.0589 36 60V69H13.5C6.04416 69 0 62.9558 0 55.5Z" fill="url(#paint3_radial_537_34880)"/>
<path d="M12 46.5C12 34.0736 22.0736 24 34.5 24C46.9264 24 57 34.0736 57 46.5C57 58.9264 46.9264 69 34.5 69C22.0736 69 12 58.9264 12 46.5Z" fill="url(#paint4_radial_537_34880)"/>
<circle cx="55.5" cy="52.5" r="16.5" fill="url(#paint5_radial_537_34880)"/>
<circle cx="46.5" cy="60" r="7.5" fill="#C4C4C4"/>
<circle cx="46.5" cy="60" r="7.5" fill="url(#paint6_linear_537_34880)"/>
<circle cx="22.5" cy="64.5" r="7.5" fill="#C4C4C4"/>
<circle cx="22.5" cy="64.5" r="7.5" fill="url(#paint7_linear_537_34880)"/>
<circle cx="28.5" cy="43.5" r="7.5" fill="#C4C4C4"/>
<circle cx="28.5" cy="43.5" r="7.5" fill="url(#paint8_linear_537_34880)"/>
<defs>
<linearGradient id="paint0_linear_537_34880" x1="37.351" y1="38.7646" x2="39.0285" y2="-0.616234" gradientUnits="userSpaceOnUse">
<stop stop-color="#EE7F18"/>
<stop offset="0.56298" stop-color="#EEB82E"/>
<stop offset="1" stop-color="#FEB649" stop-opacity="0.78"/>
</linearGradient>
<linearGradient id="paint1_linear_537_34880" x1="22.5" y1="34.5" x2="36" y2="69" gradientUnits="userSpaceOnUse">
<stop stop-color="#C6D8F5"/>
<stop offset="1" stop-color="#89AFD1" stop-opacity="0"/>
</linearGradient>
<linearGradient id="paint2_linear_537_34880" x1="32.0998" y1="70.5925" x2="31.1538" y2="24" gradientUnits="userSpaceOnUse">
<stop stop-color="#547DDA"/>
<stop offset="0.257422" stop-color="#93C2FF" stop-opacity="0"/>
</linearGradient>
<radialGradient id="paint3_radial_537_34880" cx="0" cy="0" r="1" gradientUnits="userSpaceOnUse" gradientTransform="translate(19.5 69) rotate(-127.875) scale(28.5044 32.9871)">
<stop offset="0.683784" stop-color="#8FABDD" stop-opacity="0"/>
<stop offset="1" stop-color="#5582D3"/>
</radialGradient>
<radialGradient id="paint4_radial_537_34880" cx="0" cy="0" r="1" gradientUnits="userSpaceOnUse" gradientTransform="translate(34.5 64.5) rotate(-90) scale(40.5)">
<stop offset="0.598765" stop-color="#C7DFFF" stop-opacity="0"/>
<stop offset="1" stop-color="#6B97E6"/>
</radialGradient>
<radialGradient id="paint5_radial_537_34880" cx="0" cy="0" r="1" gradientUnits="userSpaceOnUse" gradientTransform="translate(46.7 64.6) rotate(-56.3099) scale(31.7288)">
<stop offset="0.47771" stop-color="#8FABDD" stop-opacity="0"/>
<stop offset="1" stop-color="#5582D3"/>
</radialGradient>
<linearGradient id="paint6_linear_537_34880" x1="50.2506" y1="66.5106" x2="42.7494" y2="53.518" gradientUnits="userSpaceOnUse">
<stop stop-color="#0066FF"/>
<stop offset="1" stop-color="#65ACFF"/>
</linearGradient>
<linearGradient id="paint7_linear_537_34880" x1="26.2506" y1="71.0106" x2="18.7494" y2="58.018" gradientUnits="userSpaceOnUse">
<stop stop-color="#0066FF"/>
<stop offset="1" stop-color="#65ACFF"/>
</linearGradient>
<linearGradient id="paint8_linear_537_34880" x1="32.2506" y1="50.0106" x2="24.7494" y2="37.018" gradientUnits="userSpaceOnUse">
<stop stop-color="#0066FF"/>
<stop offset="1" stop-color="#65ACFF"/>
</linearGradient>
</defs>
</svg>
