<?xml version="1.0" encoding="UTF-8"?>
<!-- Generator: visioncortex VTracer 0.6.12 -->
<svg version="1.1" xmlns="http://www.w3.org/2000/svg" width="300" height="303">
<path d="M0 0 C20.835920936207174 5.093225117739529 38.93382983459014 15.527953137522715 54.31640625 30.33984375 C55.51660492748749 31.32896454146723 56.72398104178751 32.30950457536182 57.94140625 33.27734375 C62.73536839008335 37.365306715059205 66.48994529093375 42.365444503213865 70.31640625 47.33984375 C70.71762695312498 47.8607861328125 71.11884765625001 48.381728515625 71.5322265625 48.91845703125 C76.80449829746317 55.83438774633471 81.44231179452686 63.0013268214161 85.69140625 70.58984375 C86.09609130859371 71.30986572265626 86.50077636718754 72.0298876953125 86.917724609375 72.771728515625 C92.16043093305103 82.37152674337672 94.91640216080833 90.31721182211693 94.881591796875 101.344482421875 C94.8875058746338 101.92325637817382 94.8875058746338 101.92325637817382 94.91743469238281 104.85220336914063 C94.95015668819616 108.6542693783489 94.95327892782848 112.45561524403676 94.953125 116.2578125 C94.96083690773048 118.2464303283352 94.96855861652097 120.23504835092322 94.97745257616043 122.22366124391556 C95.00473575548409 128.47151741264156 95.01018212604805 134.71913786954994 95.002685546875 140.967041015625 C94.99545851329208 147.37258688697978 95.02880490607618 153.77702848447632 95.08174294233322 160.18233507871628 C95.12579260484233 165.7156943899597 95.14221588999669 171.24870053989724 95.13770705461502 176.78223210573196 C95.13540549980473 180.0721711839266 95.14653669130831 183.3610299195662 95.17877769470215 186.6508388519287 C95.30671491696353 201.23957284117463 95.16085653089084 212.7371109092647 87.31640625 225.33984375 C86.36707444435456 227.1879804875191 85.42740821241512 229.04116552017 84.50390625 230.90234375 C78.4635360794532 241.69789894842407 70.87724754895015 251.43874643757806 62.31640625 260.33984375 C61.84895996093752 260.838388671875 61.381513671874984 261.33693359375 60.89990234375 261.8505859375 C43.99743126194656 279.84124587251563 18.27441931916411 299.4505453541546 -7.24462890625 301.646240234375 C-10.5572362350498 301.70372818081455 -13.868561268321855 301.75655314561186 -17.181640625 301.765380859375 C-19.3110401498829 301.7773575095953 -21.437609516756254 301.826699402025 -23.56640625 301.876953125 C-24.930975598538566 301.88641109124933 -26.295562526005995 301.8936491252542 -27.66015625 301.8984375 C-28.888149414062497 301.9118920898438 -30.116142578124993 301.9253466796875 -31.38134765625 301.939208984375 C-35.56990552741627 301.1789761310767 -36.80293028817425 299.36213071569665 -39.68359375 296.33984375 C-42.17895507812506 295.772216796875 -42.17895507812506 295.772216796875 -44.765625 295.8515625 C-45.69697265625001 295.86767578125 -46.628320312499994 295.8837890625 -47.587890625 295.900390625 C-48.54759765624999 295.94228515625 -49.50730468750001 295.9841796875 -50.49609375 296.02734375 C-51.47513671875001 296.04990234375 -52.45417968749999 296.0724609375 -53.462890625 296.095703125 C-55.87136829736062 296.15444648286245 -58.27668452605812 296.23652245852185 -60.68359375 296.33984375 C-60.68359375 296.00984375 -60.68359375 295.67984375 -60.68359375 295.33984375 C-58.10106482135893 294.83534972673056 -55.517706723234596 294.33610073966963 -52.93359375 293.83984375 C-52.203984375000005 293.6967578125 -51.47437500000001 293.553671875 -50.72265625 293.40625 C-47.29015843270972 292.7509549621537 -44.19189884218895 292.33984375 -40.68359375 292.33984375 C-40.63654296875001 291.9002734375 -40.63654296875001 291.9002734375 -40.3984375 289.67578125 C-38.01339659210933 278.54559034651015 -27.337702112905646 271.03625027363665 -18.35546875 265.1640625 C-16.57448627057238 264.0239563632808 -14.789612297609466 262.8903495241381 -13.001953125 261.7607421875 C12.319600753434003 245.69815302626154 30.962614218212025 224.60116478829994 43.31640625 197.33984375 C43.7998046875 196.2737890625 44.283203125 195.207734375 44.78125 194.109375 C49.93628863671671 181.74668355814742 52.836742115874245 167.72872958081535 53.31640625 154.33984375 C53.336386718749964 153.8951171875 53.336386718749964 153.8951171875 53.4375 151.64453125 C54.22466116000362 117.6576905769034 41.53949424639717 85.2378544029911 18.32421875 60.5234375 C16.316406250000057 58.33984375000007 16.316406250000057 58.33984375000007 14.2734375 55.7578125 C12.57008649399728 53.653273033501634 10.932069997543863 51.96163339713085 8.87890625 50.21484375 C8.189257812499989 49.624453125 7.499609375000006 49.0340625 6.7890625 48.42578125 C5.973085937500002 47.737421875 5.1571093750000045 47.0490625 4.31640625 46.33984375 C3.273327743289485 45.45716093467425 2.2303666054779967 44.57433941101029 1.1875 43.69140625 C0.9120837402343795 43.4585693359375 0.9120837402343795 43.4585693359375 -0.481689453125 42.2802734375 C-1.6207581753957072 41.3162072401973 -2.75860856128827 40.350699785583636 -3.895263671875 39.3837890625 C-6.232339776270237 37.39776714101015 -8.568516134460054 35.43026187649567 -10.98046875 33.53515625 C-17.45347431728959 28.330859773899167 -24.490682434769468 20.2973194168123 -26.4609375 12.109375 C-27.68359375 9.33984375 -27.68359375 9.33984375 -31.1328125 7.73046875 C-32.53854448766768 7.3250455754228945 -33.951974399043536 6.945583316786198 -35.37109375 6.58984375 C-36.066542968750014 6.3951953125 -36.7619921875 6.200546875 -37.478515625 6 C-38.8621547516247 5.615009841518061 -40.248748420379286 5.240470048753187 -41.63818359375 4.876953125 C-44.66800883449079 4.08134372781335 -47.67375964313817 3.2076858253730016 -50.68359375 2.33984375 C-50.68359375 2.00984375 -50.68359375 1.6798437499999999 -50.68359375 1.33984375 C-48.43350598344807 1.4843165983988258 -46.18352872686424 1.6305106440801458 -43.93359375 1.77734375 C-43.25562744140626 1.8188354492187502 -42.577661132812494 1.8603271484375 -41.879150390625 1.903076171875 C-38.64128152343807 2.1084562934775475 -35.44814366311016 2.369108732551279 -32.2265625 2.76953125 C-24.289204664828674 3.7479728447758385 -24.289204664828674 3.7479728447758385 -20.80859375 1.40234375 C-14.671734955089278 -2.647983054641088 -6.972011999539717 -1.2494910158241896 0 0 Z " fill="#FEFEFE" transform="translate(205.68359375,1.66015625)"/>
<path d="M0 0 C0.7631250000000023 0.49499999999999744 1.5262500000000045 0.990000000000002 2.3125 1.5 C5 3 5 3 8 3 C14.970577786513388 9.137139138125924 22.66858704010326 18.629549294904137 24 28 C24.659999999999968 28 25.319999999999993 28 26 28 C26 28.989999999999995 26 29.980000000000004 26 31 C26.659999999999968 31 27.319999999999993 31 28 31 C29.14785375567169 33.43656684950682 30.29335401769515 35.87419280874752 31.4375 38.3125 C31.76298828124999 39.00279296875 32.08847656249998 39.6930859375 32.423828125 40.404296875 C33.754874850991314 43.244778032527904 35.00707934262209 46.02123802786636 36 49 C36.65999999999997 48.67 37.31999999999999 48.34 38 48 C40.125 52.625 40.125 52.625 39 56 C38.64254945058423 61.42483774995728 39.138557090896086 66.63991078779782 40 72 C40.22069265726259 73.56080228690509 40.42853857440423 75.12346293649074 40.625 76.6875 C40.72039062499999 77.4132421875 40.815781249999986 78.138984375 40.9140625 78.88671875 C41.03904710494538 81.96020380797518 40.36683925230085 84.2663214953983 39 87 C40.31999999999999 87 41.639999999999986 87 43 87 C45.777973249384445 101.04668731745215 43.873378827522004 115.15352902066138 41 129 C43.53452263673978 118.63254088862999 44.4270132684552 108.94686765669078 44.28125 98.29931640625 C44.24964829234068 95.97412200988165 44.24021401994696 93.6496084438815 44.234375 91.32421875 C44.225217469482175 89.82030430583495 44.21484571911685 88.31639665219285 44.203125 86.8125 C44.19887512207032 86.1301025390625 44.19462524414064 85.44770507812501 44.19024658203125 84.74462890625 C44.12623079611825 80.40175504431221 43.69190962467263 76.276251067115 43 72 C42.34000000000003 72 41.68000000000001 72 41 72 C41.329999999999984 69.03 41.65999999999997 66.06 42 63 C42.65999999999997 64.32 43.31999999999999 65.64 44 67 C44.65999999999997 67.66 45.31999999999999 68.32 46 69 C46.042543562981166 70.99954746011413 46.04080782932505 73.00041636307311 46 75 C46.329999999999984 75.99000000000001 46.65999999999997 76.98000000000002 47 78 C48.11511998637036 81.56789271410037 48.129233684401186 84.901058544482 48.1328125 88.62890625 C48.13410156250001 89.91087890624999 48.135390625000014 91.19285156249998 48.13671875 92.513671875 C48.13462402343748 93.17810302734375 48.13252929687502 93.8425341796875 48.13037109375 94.527099609375 C48.12500881991804 96.55915765197227 48.130332513615485 98.59099558234303 48.13671875 100.623046875 C48.13542968749999 101.90373046874998 48.134140624999986 103.1844140625 48.1328125 104.50390625 C48.13168457031247 105.67767822265625 48.130556640625 106.85145019531251 48.12939453125 108.060791015625 C48 111 48 111 47 114 C46.69996736084204 116.57111303278396 46.493385868749215 119.14293256038906 46.28125 121.72265625 C46 124 46 124 45 126 C44.85562500000003 127.11374999999998 44.71125000000001 128.2275 44.5625 129.375 C43.96859644568508 133.20237846114063 42.905977190390786 135.5078022746505 40.9375 138.75 C39.79870678880468 141.48310370686875 39.64640447785581 144.12692281214308 39.34375 147.05078125 C38.86025625240461 149.79241056875102 37.51761954420692 151.6932182928055 36 154 C35.71125000000001 154.9075 35.422500000000014 155.815 35.125 156.75 C33.60261428971796 161.148003163037 31.338591190134764 164.98991574768561 29 169 C28.52562499999999 169.825 28.051249999999982 170.65 27.5625 171.5 C22.56910645118637 179.48942967810183 17.069033560926187 186.7845934331211 11 194 C10.340000000000032 193.67 9.680000000000007 193.34 9 193 C8.912343749999991 193.574921875 8.82468750000001 194.14984375 8.734375 194.7421875 C5.37968396631797 205.05607801844798 -11.240210841895987 214.26082779296632 -20 220 C-20.288749999999993 219.81437499999998 -20.288749999999993 219.81437499999998 -21.75 218.875 C-23.99999999999997 218 -23.99999999999997 218 -25.8125 218.75 C-26.53437500000001 219.16250000000002 -27.256249999999994 219.575 -28 220 C-30.324360203750444 220.6973080611251 -32.65673705571618 221.36912151500053 -35 222 C-34.62293675823426 219.66320017274126 -34.354910440603504 218.33596859124543 -32.609375 216.68359375 C-31.995781249999993 216.27238281250004 -31.382187499999986 215.86117187499997 -30.75 215.4375 C-26.761006440592638 212.60473645781212 -22.99220258128429 209.58425644743056 -19.25 206.4375 C-18.695380859375007 205.97851318359375 -18.140761718750014 205.5195263671875 -17.5693359375 205.046630859375 C-15.015110496549596 202.89251595955233 -12.821884018178395 200.77674082968224 -10.734375 198.16015625 C-10.162031249999984 197.4473046875 -9.589687499999997 196.734453125 -9 196 C-8.340000000000003 196 -7.680000000000007 196 -7 196 C-6.775703125000007 195.471484375 -6.551406250000014 194.94296875 -6.3203125 194.3984375 C-4.54295230076832 191.16974175346675 -2.2054466301588036 188.4610203580069 0.125 185.625 C8.13200703613964 175.64713852261679 14.016205867458325 164.78478395962026 19 153 C19.17337890624998 152.61392578125 19.17337890624998 152.61392578125 20.05078125 150.66015625 C27.185964088052515 134.1032261894997 29.364806488616125 116.06156839075771 29.2607421875 98.1865234375 C29.25000820979301 96.00167106604997 29.260717946305476 93.81764045383196 29.2734375 91.6328125 C29.293266789267307 72.71620286889652 26.10136534621472 54.193855176274866 18 37 C17.716406249999977 36.39188476562501 17.43281250000001 35.78376953125 17.140625 35.1572265625 C5.792075643737434 11.005493875284444 5.792075643737434 11.005493875284444 -2 4 C-1.3400000000000034 2.6799999999999997 -0.6800000000000068 1.3599999999999994 0 0 Z " fill="#F3EED2" transform="translate(246,54)"/>
<path d="M0 0 C0.7631250000000023 0.49499999999999744 1.5262500000000045 0.990000000000002 2.3125 1.5 C5 3 5 3 8 3 C14.970577786513388 9.137139138125924 22.66858704010326 18.629549294904137 24 28 C24.660000000000025 28 25.319999999999993 28 26 28 C26 28.989999999999995 26 29.980000000000004 26 31 C26.660000000000025 31 27.319999999999993 31 28 31 C29.14785375567169 33.43656684950682 30.29335401769515 35.87419280874754 31.4375 38.3125 C31.76298828124999 39.00279296875 32.08847656249998 39.6930859375 32.423828125 40.404296875 C33.754874850991314 43.244778032527904 35.00707934262209 46.02123802786633 36 49 C36.65999999999997 48.67 37.31999999999999 48.34 38 48 C40.125 52.625 40.125 52.625 39 56 C38.64254945058423 61.42483774995728 39.138557090896086 66.63991078779782 40 72 C40.91561693756614 77.87980515328627 40.958711040632636 83.12221870079594 40.15625 89.03125 C40.10468750000001 89.6809375 40.05312500000002 90.330625 40 91 C40.329999999999984 91.32999999999998 40.65999999999997 91.66 41 92 C42.56002671299194 101.67216562055017 41.64882605641981 111.27759109303253 41 121 C40.670000000000016 120.00999999999999 40.34000000000003 119.01999999999998 40 118 C39.34000000000003 118.16499999999999 39.34000000000003 118.16499999999999 36 119 C35 112.25 35 112.25 35 110 C34.553603373053875 107.44916213173636 34.16108068112186 105.32216136224378 33 103 C32.34000000000003 103.99000000000001 31.680000000000007 104.98000000000002 31 106 C30.99009033203123 105.56393432617188 30.99009033203123 105.56393432617188 30.93994140625 103.357177734375 C30.861425642324377 100.09356806645019 30.774720308925453 96.83038246172305 30.6826171875 93.567138671875 C30.644547066448638 92.15999601962437 30.609657551205885 90.7527633139762 30.578125 89.345458984375 C30.531992202501556 87.31201176963819 30.474084319874237 85.27917293369171 30.4140625 83.24609375 C30.38264160156251 82.02591552734376 30.351220703125023 80.80573730468751 30.31884765625 79.548583984375 C29.982786385528755 75.80842275165423 29.118976255428038 72.57758303138952 28 69 C27.616487480048647 67.45746171552759 27.24393148238562 65.91212122748126 26.88671875 64.36328125 C24.64280072254809 54.855883883791634 22.25694536119653 45.83867129490939 18 37 C17.71785644531252 36.39768554687501 17.435712890624984 35.79537109374999 17.14501953125 35.1748046875 C5.7945338877206325 11.007703968455445 5.7945338877206325 11.007703968455445 -2 4 C-1.3400000000000034 2.6799999999999997 -0.6800000000000068 1.3599999999999994 0 0 Z M35 86 C35.329999999999984 88.63999999999999 35.65999999999997 91.28 36 94 C36.99000000000001 93.67000000000002 37.98000000000002 93.34 39 93 C38.398162511795476 90.9795455753133 37.726939039378465 88.97888960719692 37 87 C36.34000000000003 86.67000000000002 35.68000000000001 86.34 35 86 Z " fill="#F2EBC7" transform="translate(246,54)"/>
<path d="M0 0 C1.3199999999999932 0.3300000000000125 2.6399999999999864 0.6599999999999966 4 1 C1.8685764582575644 7.394270625227364 -0.14988925677482712 13.428276815234568 -3.375 19.375 C-3.9808593750000227 20.496484374999994 -4.586718749999989 21.61796874999999 -5.2109375 22.7734375 C-10.87618318106712 32.990670977208424 -17.481377815820792 42.061193625475795 -25 51 C-25.329999999999984 50.83500000000001 -25.329999999999984 50.83500000000001 -27 50 C-27.08765625000001 50.574921875 -27.17531249999999 51.14984375 -27.265625 51.7421875 C-30.62031603368203 62.05607801844792 -47.24021084189599 71.26082779296632 -56 77 C-56.28874999999999 76.81437499999998 -56.28874999999999 76.81437499999998 -57.75 75.875 C-60 75 -60 75 -61.8125 75.75 C-62.53437500000001 76.16250000000002 -63.256249999999994 76.57499999999999 -64 77 C-66.32436020375044 77.69730806112511 -68.65673705571618 78.36912151500053 -71 79 C-70.62293675823423 76.6632001727412 -70.35491044060353 75.33596859124549 -68.609375 73.68359375 C-67.99578125 73.27238281249998 -67.38218749999999 72.86117187499997 -66.75 72.4375 C-62.76100644059261 69.60473645781212 -58.99220258128429 66.5842564474305 -55.25 63.4375 C-54.69538085937501 62.97851318359375 -54.140761718750014 62.519526367187495 -53.5693359375 62.046630859375 C-51.015110496549596 59.89251595955233 -48.821884018178395 57.77674082968224 -46.734375 55.16015625 C-46.162031249999984 54.44730468750001 -45.5896875 53.734453125000016 -45 53 C-44.34 53 -43.68000000000001 53 -43 53 C-42.814374999999984 52.44312500000001 -42.62875 51.88624999999999 -42.4375 51.3125 C-40.33639285900745 47.93245807753371 -37.293340058780586 46.148596188081456 -34 44 C-33.34 45.31999999999999 -32.68000000000001 46.639999999999986 -32 48 C-31.33613281250001 47.2639453125 -30.672265624999994 46.527890625 -29.98828125 45.76953125 C-29.10527343749999 44.79371093750001 -28.222265625000006 43.81789062499999 -27.3125 42.8125 C-26.4423828125 41.84957031249999 -25.572265625 40.886640624999984 -24.67578125 39.89453125 C-22.936935507498106 38.013531694972414 -21.14777529246186 36.17741789098494 -19.3046875 34.3984375 C-17.201027493647928 32.20920488322005 -16.02648686232817 30.553247632417794 -14.8125 27.8125 C-13.685722027996462 25.304819662307068 -12.980121695772368 23.980121695772397 -11 22 C-10.223898750712124 19.752717811127923 -9.603633532766537 17.484370809574045 -8.9765625 15.19140625 C-8 13 -8 13 -6.0390625 11.5390625 C-3.445628880735228 9.581566626455299 -2.8506507585436225 7.839289585994976 -1.75 4.8125 C-1.4148437499999886 3.911445312500007 -1.0796874999999773 3.0103906250000136 -0.734375 2.08203125 C-0.6132031249999841 1.7384960937500011 -0.6132031249999841 1.7384960937500011 0 0 Z " fill="#F7F4E6" transform="translate(282,197)"/>
<path d="M0 0 C3.083135100761126 1.1989969836293248 6.062794921016689 2.4770047738605 9 4 C9 4.66 9 5.32 9 6 C9.928124999999994 5.938124999999999 10.856249999999989 5.876249999999999 11.8125 5.8125 C15 6 15 6 16.75 7.375 C17.162499999999994 7.911250000000003 17.57499999999999 8.447499999999998 18 9 C20 11 20 11 21.875 11.75 C24.34753805695408 13.204434151149457 25.254826083925053 14.89015302490293 26.7421875 17.28515625 C30.021385469627944 21.755864040890273 34.70235261885907 25.26709538678692 39.375 28.1875 C42.02670162336159 30.01843683517825 42.881871803781564 31.052207482696886 44 34 C44.329999999999984 34.33 44.65999999999997 34.66 45 35 C46.91383504906685 37.3922938113336 48.018309364689344 39.05492809406795 49 42 C49.65999999999997 42 50.31999999999999 42 51 42 C51.2475 42.845625 51.495000000000005 43.69125 51.75 44.5625 C53.139736269248374 48.384274740433 54.91120837667836 51.518680627797295 57 55 C57.65999999999997 55 58.31999999999999 55 59 55 C59.181757812499995 55.6148828125 59.36351562499999 56.229765625 59.55078125 56.86328125 C59.80214843750002 57.6715234375 60.05351562499999 58.479765625 60.3125 59.3125 C60.55613281249998 60.1130078125 60.79976562500002 60.913515625 61.05078125 61.73828125 C62 64 62 64 63.5625 65.375 C65.80043852365031 67.90484354847425 65.52396468464661 70.3840866298617 65.6875 73.6875 C65.7532421875 74.8669921875 65.81898437500001 76.046484375 65.88671875 77.26171875 C65.90541015625001 77.71353515625 65.90541015625001 77.71353515625 66 80 C63.64338796149718 76.46508194224575 62.06493187459898 72.8222824190477 60.375 68.9375 C60.050156249999986 68.20466796875 59.72531249999997 67.4718359375 59.390625 66.716796875 C57 61.24748883928571 57 61.24748883928571 57 59 C56.34000000000003 59 55.68000000000001 59 55 59 C55 58.00999999999999 55 57.02000000000001 55 56 C54.34000000000003 56 53.68000000000001 56 53 56 C52.75507812500001 55.42894531249999 52.51015625000002 54.85789062500001 52.2578125 54.26953125 C48.306928724079 45.70020057739893 42.688220225147575 37.68822022514756 36 31 C35.00999999999999 31 34.02000000000001 31 33 31 C32.00999999999999 30.340000000000003 31.02000000000001 29.68 30 29 C29.340000000000003 29.659999999999997 28.680000000000007 30.32 28 31 C27.00999999999999 30.340000000000003 26.02000000000001 29.68 25 29 C25 28.340000000000003 25 27.68 25 27 C24.340000000000003 27 23.680000000000007 27 23 27 C21.41406249999997 25.39062499999998 21.41406249999997 25.39062499999998 19.625 23.25 C17.662422732889638 20.930962978738066 15.741170503641285 18.74780715739407 13.5625 16.625 C12 15 12 15 12 13 C11.729296874999989 12.964550781249997 11.729296874999989 12.964550781249997 10.359375 12.78515625 C7.038674633482941 11.680088743923953 4.9125543522836495 9.68799236919213 2.25 7.4375 C1.2651562499999898 6.611210937499997 0.28031250000000796 5.784921875000002 -0.734375 4.93359375 C-1.4820312500000057 4.295507812499999 -2.2296875000000114 3.6574218750000007 -3 3 C-2.009999999999991 2.009999999999998 -1.0200000000000102 1.0199999999999996 0 0 Z " fill="#F8F6E9" transform="translate(217,26)"/>
<path d="M0 0 C0.660000000000025 0.3300000000000125 1.3199999999999932 0.6599999999999966 2 1 C1.670000000000016 3.6399999999999864 1.339999999999975 6.280000000000001 1 9 C0.339999999999975 9 -0.3199999999999932 9 -1 9 C-1.0631640624999932 9.284238281249998 -1.0631640624999932 9.284238281249998 -1.3828125 10.72265625 C-2.716144964750299 15.642484268667232 -4.994092812376721 20.336384266623043 -7.625 24.6875 C-9 27 -9 27 -10.0625 30.1875 C-11 33 -11 33 -13 35 C-13.495000000000005 36.175625 -13.990000000000009 37.35124999999999 -14.5 38.5625 C-16 42 -16 42 -18 43 C-21.076923076923094 38.69230769230768 -21.076923076923094 38.69230769230768 -20.6875 35.1875 C-20.460624999999993 34.46562499999999 -20.233749999999986 33.743750000000006 -20 33 C-19.00999999999999 33 -18.019999999999982 33 -17 33 C-16.752499999999998 32.25749999999999 -16.504999999999995 31.514999999999986 -16.25 30.75 C-14.895349605408683 27.769769131899153 -13.489845904371236 26.100807481813234 -11 24 C-10.339999999999975 24 -9.680000000000007 24 -9 24 C-9 23.340000000000003 -9 22.680000000000007 -9 22 C-9.990000000000009 22 -10.980000000000018 22 -12 22 C-13.176648711325413 18.470053866023818 -13.198506028864642 15.705445872139563 -13 12 C-12.339999999999975 11.009999999999991 -11.680000000000007 10.02000000000001 -11 9 C-11 8.340000000000003 -11 7.680000000000007 -11 7 C-9.680000000000007 7 -8.360000000000014 7 -7 7 C-5.293190528170385 5.374467169686085 -3.6233980501949077 3.708840052836706 -2 2 C-1.339999999999975 2 -0.6800000000000068 2 0 2 C0 1.3400000000000034 0 0.6800000000000068 0 0 Z M-19 38 C-18 40 -18 40 -18 40 Z " fill="#F3ECC8" transform="translate(282,187)"/>
<path d="M0 0 C0.3299999999999841 0.6599999999999966 0.660000000000025 1.3199999999999932 1 2 C1.990000000000009 1.6700000000000017 2.980000000000018 1.3400000000000034 4 1 C3.9883984374999955 1.529804687500004 3.9883984374999955 1.529804687500004 3.9296875 4.2109375 C3.9109305567354795 5.598951301575511 3.892730275674978 6.98697270429966 3.875 8.375 C3.858242187500025 9.073671875000002 3.841484374999993 9.772343750000005 3.82421875 10.4921875 C3.8065573330770803 12.328974859984157 3.89696739469656 14.166019625598551 4 16 C4.660000000000025 16.659999999999997 5.319999999999993 17.319999999999993 6 18 C7.511729430178889 25.799410781631195 7.285449452472278 33.772220703564756 7.3125 41.6875 C7.31578308105469 42.467463378906245 7.3190661621093795 43.24742675781249 7.32244873046875 44.051025390625 C7.362537061518935 73.45619440772163 7.362537061518935 73.45619440772163 1 83 C1.5959149981948713 77.76404783139444 2.4693054857478387 72.72216686195355 3.5625 67.5625 C5.791130422211722 56.15870475627878 5.271836132487067 44.563490866565616 5 33 C3.680000000000007 33 2.3600000000000136 33 1 33 C1.0837890624999886 32.419921875 1.1675781249999773 31.83984375 1.25390625 31.2421875 C1.8658925663892774 26.547710186938104 2.0152858406289624 22.670314866893307 1 18 C-0.06545767889900844 11.962406486239075 -0.0994094074767986 6.108155814962743 0 0 Z " fill="#F7F3DD" transform="translate(284,108)"/>
<path d="M0 0 C6.439158892566979 2.1106981643093548 6.439158892566979 2.1106981643093548 8.9609375 6.109375 C9.427578125000025 7.310781250000005 9.894218749999993 8.512187499999996 10.375 9.75 C10.857109374999993 10.941093749999993 11.339218749999986 12.1321875 11.8359375 13.359375 C12.999481408094027 16.9983780951128 13.583242280113723 20.220104401031364 14 24 C12.666666666666686 24 11.333333333333314 24 10 24 C9.690625000000011 22.906875 9.381250000000023 21.81375 9.0625 20.6875 C8.416621033527974 18.445920057538245 7.7376882998785845 16.213064899635796 7 14 C6.339999999999975 14 5.680000000000007 14 5 14 C5.329999999999984 15.319999999999993 5.660000000000025 16.64 6 18 C4.680000000000007 18.33 3.3600000000000136 18.659999999999997 2 19 C1.339999999999975 17.019999999999996 0.6800000000000068 15.039999999999992 0 13 C0.660000000000025 13 1.3199999999999932 13 2 13 C0.9981459488626001 10.76509480900117 0.18883270191889778 9.174307109463598 -1.625 7.5 C-3 6 -3 6 -3 2 C-2.339999999999975 2 -1.6800000000000068 2 -1 2 C-0.6700000000000159 1.3400000000000034 -0.339999999999975 0.6800000000000068 0 0 Z " fill="#F0E8BC" transform="translate(269,86)"/>
<path d="M0 0 C0.9900000000000091 0.3300000000000125 1.9800000000000182 0.6599999999999966 3 1 C2.339999999999975 1.6599999999999966 1.6800000000000068 2.319999999999993 1 3 C0.855624999999975 3.4434374999999875 0.855624999999975 3.4434374999999875 0.125 5.6875 C-0.9624983136052947 8.889578367837885 -2.3328897485359903 11.385678802184202 -4.0546875 14.26171875 C-5.3925250957579465 16.721792014926763 -6.135282499930383 19.344081964071904 -7 22 C-7.660000000000025 22.659999999999997 -8.319999999999993 23.319999999999993 -9 24 C-9.495000000000005 25.175624999999997 -9.990000000000009 26.351249999999993 -10.5 27.5625 C-12 31 -12 31 -14 32 C-17.076923076923094 27.69230769230768 -17.076923076923094 27.69230769230768 -16.6875 24.1875 C-16.460624999999993 23.46562499999999 -16.233749999999986 22.743750000000006 -16 22 C-15.009999999999991 22 -14.019999999999982 22 -13 22 C-12.752499999999998 21.257499999999993 -12.504999999999995 20.514999999999986 -12.25 19.75 C-10.895349605408683 16.769769131899153 -9.489845904371236 15.100807481813234 -7 13 C-6.339999999999975 13 -5.680000000000007 13 -5 13 C-4.670000000000016 10.360000000000014 -4.339999999999975 7.719999999999999 -4 5 C-3.339999999999975 5 -2.680000000000007 5 -2 5 C-1.339999999999975 3.3499999999999943 -0.6800000000000068 1.6999999999999886 0 0 Z M-15 27 C-14 29 -14 29 -14 29 Z " fill="#EDE4AF" transform="translate(278,198)"/>
<path d="M0 0 C0.9900000000000091 0 1.9800000000000182 0 3 0 C3.329999999999984 1.6500000000000057 3.660000000000025 3.299999999999997 4 5 C4.660000000000025 5 5.319999999999993 5 6 5 C6 5.989999999999995 6 6.980000000000004 6 8 C6.660000000000025 8 7.319999999999993 8 8 8 C8.329999999999984 9.319999999999993 8.660000000000025 10.64 9 12 C8.009999999999991 12.659999999999997 7.019999999999982 13.319999999999993 6 14 C5.339999999999975 12.680000000000007 4.680000000000007 11.36 4 10 C3.339999999999975 10.659999999999997 2.680000000000007 11.319999999999993 2 12 C1.339999999999975 11.670000000000002 0.6800000000000068 11.340000000000003 0 11 C0.8125 13.4375 0.8125 13.4375 2 16 C2.990000000000009 16.33 3.980000000000018 16.659999999999997 5 17 C5.204436997580444 20.679865956447998 4.74565111471577 22.783603457925253 3 26 C-0.016510829739388555 19.32137823673932 -2.575342941797203 13.360722342181887 -3 6 C-2.339999999999975 6.329999999999998 -1.6800000000000068 6.659999999999997 -1 7 C-1 6.340000000000003 -1 5.680000000000007 -1 5 C-3 3.375 -3 3.375 -5 2 C-4.360625000000027 1.8556250000000034 -3.7212499999999977 1.7112500000000068 -3.0625 1.5625 C-1 1 -1 1 0 0 Z " fill="#F5F0D4" transform="translate(266,77)"/>
<path d="M0 0 C5.4782709786717305 5.478270978671702 3.286857480793742 18.18422483806387 3.3125 25.6875 C3.3157830810546898 26.467463378906245 3.3190661621093795 27.24742675781249 3.32244873046875 28.051025390625 C3.3625370615189354 57.456194407721625 3.3625370615189354 57.456194407721625 -3 67 C-2.410946973969658 61.85144999363851 -1.569453865953733 56.88705859395043 -0.5 51.8125 C1.9783830306744221 39.077401163873475 1.761169825566128 25.929817012584266 2 13 C1.339999999999975 13 0.6800000000000068 13 0 13 C0 8.710000000000008 0 4.4199999999999875 0 0 Z " fill="#FEFDFB" transform="translate(288,124)"/>
<path d="M0 0 C0.3299999999999841 0 0.660000000000025 0 1 0 C1.9581171156445407 4.893864396862369 2.193593106978824 9.609086525827536 2.28125 14.57421875 C2.299659423828132 15.379867706298825 2.3180688476562636 16.18551666259765 2.3370361328125 17.015579223632813 C2.4152850587124135 20.441980903264778 2.483592076536752 23.868560605088305 2.55224609375 27.295166015625 C2.603984394920019 29.80494828568348 2.66119828514519 32.314564142736 2.71875 34.82421875 C2.7323254394531205 35.599242401123036 2.745900878906241 36.3742660522461 2.7598876953125 37.17277526855469 C2.833726869744737 40.358112738842806 2.9858035736984903 42.95741072109553 4 46 C3.0625 49.1875 3.0625 49.1875 2 52 C1.339999999999975 52 0.6800000000000068 52 0 52 C0 53.650000000000006 0 55.30000000000001 0 57 C-0.3299999999999841 57 -0.660000000000025 57 -1 57 C-0.9285375976562591 56.2489599609375 -0.8570751953125182 55.497919921874995 -0.783447265625 54.72412109375 C0.17226522878081596 43.354063802225255 0.11255724635969955 32.02671845385322 0.0625 20.625 C0.05747236246389775 18.617188622672842 0.05291170277280344 16.609376019342903 0.048828125 14.6015625 C0.03792864978157695 9.73434413811745 0.020734505799055114 4.867185992033342 0 0 Z " fill="#EBEBE9" transform="translate(275,124)"/>
<path d="M0 0 C3.083135100761126 1.1989969836293248 6.062794921016689 2.4770047738605 9 4 C9 4.66 9 5.32 9 6 C9.990000000000009 6.329999999999998 10.97999999999999 6.659999999999997 12 7 C11.340000000000003 7 10.680000000000007 7 10 7 C10.330000000000013 8.649999999999999 10.659999999999997 10.299999999999997 11 12 C7.047948196698172 11.418272748579405 4.779049472986571 9.448422589449393 1.75 6.9375 C0.8579687499999977 6.204023437499998 -0.03406250000000455 5.470546875 -0.953125 4.71484375 C-1.6285937499999932 4.1489453125 -2.3040624999999864 3.583046875000001 -3 3 C-2.009999999999991 2.009999999999998 -1.0200000000000102 1.0199999999999996 0 0 Z " fill="#F4F2E8" transform="translate(217,26)"/>
<path d="M0 0 C0.660000000000025 0.3300000000000125 1.3199999999999932 0.6599999999999966 2 1 C1.670000000000016 3.6399999999999864 1.339999999999975 6.280000000000001 1 9 C0.339999999999975 9 -0.3199999999999932 9 -1 9 C-1 9.659999999999997 -1 10.319999999999993 -1 11 C-3.3100000000000023 11.330000000000013 -5.6200000000000045 11.659999999999997 -8 12 C-6.53172205438068 5.515105740181269 -6.53172205438068 5.515105740181269 -4 3.0625 C-2 2 -2 2 0 2 C0 1.3400000000000034 0 0.6800000000000068 0 0 Z " fill="#F0E7B9" transform="translate(282,187)"/>
<path d="M0 0 C0 0.660000000000025 0 1.3199999999999932 0 2 C0.9487499999999898 1.670000000000016 1.897500000000008 1.339999999999975 2.875 1 C6 0 6 0 8 0 C8 0.9900000000000091 8 1.9800000000000182 8 3 C7.257499999999993 3.1031249999999773 6.514999999999986 3.2062500000000114 5.75 3.3125 C3 4 3 4 1 5.625 C-1 7 -1 7 -3.75 6.6875 C-4.492500000000007 6.460624999999993 -5.235000000000014 6.233749999999986 -6 6 C-6 5.339999999999975 -6 4.680000000000007 -6 4 C-6.659999999999997 3.670000000000016 -7.319999999999993 3.339999999999975 -8 3 C-2.25 0 -2.25 0 0 0 Z " fill="#F5F3E9" transform="translate(205,278)"/>
<path d="M0 0 C0.3299999999999841 0 0.660000000000025 0 1 0 C1.195044576478665 2.1034807401774174 1.380784964522661 4.207825854914205 1.5625 6.3125 C1.666914062499984 7.4842578125000045 1.771328125000025 8.656015625000009 1.87890625 9.86328125 C2 13 2 13 1 16 C0.855624999999975 17.299374999999998 0.7112500000000068 18.598749999999995 0.5625 19.9375 C0.20259993273060672 22.996650571789644 -0.23309583071943507 25.401611515763904 -2 28 C-2.660000000000025 28.329999999999984 -3.319999999999993 28.659999999999997 -4 29 C-3.22918461055599 22.653869415062815 -2.349498447279302 16.327261954808677 -1.4375 10 C-1.2989257812499773 9.034492187500007 -1.1603515625000114 8.068984375000014 -1.017578125 7.07421875 C-0.6790295030705238 4.716052486905198 -0.3398231820874571 2.3579828702511634 0 0 Z " fill="#EEE9CB" transform="translate(291,159)"/>
<path d="M0 0 C0.9900000000000091 0.3300000000000125 1.9800000000000182 0.6599999999999966 3 1 C2.339999999999975 1.6599999999999966 1.6800000000000068 2.319999999999993 1 3 C0.7112500000000068 3.8868750000000034 0.42250000000001364 4.773750000000007 0.125 5.6875 C-1.176141729928645 9.518639538123153 -2.937529488978214 12.519581012650718 -5 16 C-5.68023669552673 17.32646155627711 -6.354922611269615 18.65608877347833 -7 20 C-7 17.689999999999998 -7 15.379999999999995 -7 13 C-6.339999999999975 13 -5.680000000000007 13 -5 13 C-4.670000000000016 10.360000000000014 -4.339999999999975 7.719999999999999 -4 5 C-3.339999999999975 5 -2.680000000000007 5 -2 5 C-1.339999999999975 3.3499999999999943 -0.6800000000000068 1.6999999999999886 0 0 Z " fill="#E9DC99" transform="translate(278,198)"/>
<path d="M0 0 C1.3199999999999932 0.3299999999999841 2.6399999999999864 0.660000000000025 4 1 C2.7794614076585162 4.661615777024508 1.6321769607301064 5.162704743199242 -1.5625 7.1875 C-2.3887890624999955 7.717304687500018 -3.215078124999991 8.24710937499998 -4.06640625 8.79296875 C-4.704492187499994 9.191289062500005 -5.342578124999989 9.589609375000009 -6 10 C-7.319999999999993 9.339999999999975 -8.639999999999986 8.680000000000007 -10 8 C-9.722851562500011 7.836933593750018 -9.722851562500011 7.836933593750018 -8.3203125 7.01171875 C-7.9580859374999875 6.793222656250009 -7.9580859374999875 6.793222656250009 -6.125 5.6875 C-5.405703125000002 5.258242187500002 -4.6864062500000045 4.8289843750000045 -3.9453125 4.38671875 C-2 3 -2 3 0 0 Z " fill="#F3F0E2" transform="translate(232,264)"/>
<path d="M0 0 C0.9900000000000091 0.3299999999999983 1.9799999999999898 0.6599999999999966 3 1 C3 1.6599999999999966 3 2.3200000000000003 3 3 C3.3093749999999886 3.041249999999998 3.3093749999999886 3.041249999999998 4.875 3.25 C7 4 7 4 8.125 6 C8.413749999999993 6.659999999999997 8.702499999999986 7.32 9 8 C9.659999999999997 8.329999999999998 10.319999999999993 8.659999999999997 11 9 C10.340000000000003 10.32 9.680000000000007 11.64 9 13 C8.669999999999987 12.009999999999998 8.340000000000003 11.019999999999996 8 10 C7.340000000000003 10 6.680000000000007 10 6 10 C4.2734375 8.25 4.2734375 8.25 2.375 6 C1.7433593750000114 5.2575 1.1117187499999943 4.515000000000001 0.4609375 3.75 C-0.02117187499999318 3.1724999999999994 -0.5032812499999864 2.594999999999999 -1 2 C-0.6699999999999875 1.3400000000000034 -0.3400000000000034 0.6799999999999997 0 0 Z " fill="#F0EDDD" transform="translate(234,43)"/>
<path d="M0 0 C0.660000000000025 1.3199999999999932 1.3199999999999932 2.6400000000000006 2 4 C2.660000000000025 4.659999999999997 3.319999999999993 5.319999999999993 4 6 C4.042543562981166 7.99954746011413 4.040807829325047 10.0004163630731 4 12 C4.329999999999984 12.990000000000009 4.660000000000025 13.97999999999999 5 15 C4.915385075565609 16.733241194059616 4.763956453307003 18.4639281217068 4.5625 20.1875 C4.460664062499973 21.088554687499993 4.358828125000002 21.989609374999986 4.25390625 22.91796875 C4.170117187500011 23.605039062499998 4.086328125000023 24.292109374999995 4 25 C3.670000000000016 25 3.339999999999975 25 3 25 C2.339999999999975 19.72 1.6800000000000068 14.439999999999998 1 9 C0.339999999999975 9 -0.3199999999999932 9 -1 9 C-0.6700000000000159 6.030000000000001 -0.339999999999975 3.0600000000000023 0 0 Z " fill="#F0EBCD" transform="translate(288,117)"/>
<path d="M0 0 C6.072934755643757 0.2381543041428955 6.072934755643757 0.2381543041428955 8.578125 2.296875 C10.872071426696266 4.959962230992247 12 6.426109541611169 12 10 C11.339999999999975 10 10.680000000000007 10 10 10 C9.339999999999975 8.680000000000007 8.680000000000007 7.359999999999999 8 6 C7.670000000000016 6.165000000000006 7.670000000000016 6.165000000000006 6 7 C3.9588021178671795 5.384051676644859 1.959270628643111 3.7143618000627043 0 2 C0 1.3400000000000034 0 0.6799999999999997 0 0 Z " fill="#EFE6B7" transform="translate(251,61)"/>
<path d="M0 0 C5.302527476031173 2.575513345500859 8.686736018582764 6.51375798747484 10.7578125 12.01171875 C11.232086120954193 13.658316603031139 11.624668998943008 15.328070995291569 12 17 C9.418030693722756 14.591741166927946 7.45251257777295 11.956632536110192 5.4375 9.0625 C4.838085937500011 8.207851562499997 4.238671874999994 7.353203125 3.62109375 6.47265625 C2.2351278324107966 4.358640766062727 1.0666163307560055 2.287122579879778 0 0 Z " fill="#EDEBE0" transform="translate(244,56)"/>
<path d="M0 0 C2 1 2 1 3.5 3.5625 C3.9950000000000045 4.366874999999993 4.490000000000009 5.171250000000001 5 6 C5.660000000000025 6 6.319999999999993 6 7 6 C7.204436997580444 9.679865956447998 6.74565111471577 11.783603457925253 5 15 C4.16013916494029 13.065320576380344 3.328319733325941 11.127148708871601 2.5 9.1875 C2.0359374999999886 8.108554687500003 1.5718749999999773 7.029609375000007 1.09375 5.91796875 C0 3 0 3 0 0 Z " fill="#EAE6D3" transform="translate(264,88)"/>
<path d="M0 0 C0.9900000000000091 0 1.9800000000000182 0 3 0 C4.255415570389573 3.7662467111686624 3.370619583610619 5.371889337501301 2 9 C1.339999999999975 9 0.6800000000000068 9 0 9 C0 10.650000000000006 0 12.300000000000011 0 14 C-0.3299999999999841 14 -0.660000000000025 14 -1 14 C-0.6700000000000159 9.379999999999995 -0.339999999999975 4.759999999999991 0 0 Z " fill="#F6F5EC" transform="translate(275,167)"/>
<path d="M0 0 C-0.3299999999999841 0.9900000000000091 -0.660000000000025 1.9799999999999898 -1 3 C-1.660000000000025 3 -2.319999999999993 3 -3 3 C-2.814374999999984 3.5981250000000102 -2.628750000000025 4.196249999999992 -2.4375 4.8125 C-2 7 -2 7 -3 10 C-5.783918302052825 8.608040848973587 -5.978989974163142 6.844242214831297 -7 4 C-2.25 0 -2.25 0 0 0 Z " fill="#FBF9F0" transform="translate(265,232)"/>
<path d="M0 0 C0.9900000000000091 0.3300000000000125 1.9800000000000182 0.6599999999999966 3 1 C0.25 6.75 0.25 6.75 -2 9 C-2.6974858324629167 10.317473239096614 -3.369599568548665 11.649141932604266 -4 13 C-4 11.02000000000001 -4 9.039999999999992 -4 7 C-3.339999999999975 7 -2.680000000000007 7 -2 7 C-2 5.349999999999994 -2 3.6999999999999886 -2 2 C-1.339999999999975 2 -0.6800000000000068 2 0 2 C0 1.3400000000000034 0 0.6800000000000068 0 0 Z " fill="#F4F0DA" transform="translate(277,174)"/>
<path d="M0 0 C0.3299999999999841 0 0.660000000000025 0 1 0 C1.1015279860611713 6.768532404076893 1.0302694402236057 13.303248638546705 0 20 C-0.3299999999999841 20 -0.660000000000025 20 -1 20 C-1.2237059602459226 17.793170932709245 -1.4283039100324117 15.584400266380072 -1.625 13.375 C-1.7410156249999886 12.145234375000001 -1.8570312499999773 10.915468750000002 -1.9765625 9.6484375 C-2.0003416347398684 5.946818858828038 -1.3744197639477989 3.409820025061407 0 0 Z " fill="#F9F5E3" transform="translate(289,154)"/>
<path d="M0 0 C0.3299999999999841 0.6599999999999966 0.660000000000025 1.3199999999999932 1 2 C1.990000000000009 1.6700000000000017 2.980000000000018 1.3400000000000034 4 1 C4 5.290000000000006 4 9.579999999999998 4 14 C2.309425253358768 10.618850506717536 1.5418453296664438 8.370017503903398 0.875 4.75 C0.7074218750000227 3.8579687499999977 0.5398437499999886 2.9659374999999955 0.3671875 2.046875 C0.30660156250002046 1.7091406250000034 0.30660156250002046 1.7091406250000034 0 0 Z " fill="#F9F7EB" transform="translate(284,108)"/>
<path d="M0 0 C1.3199999999999932 0.6599999999999966 2.6399999999999864 1.3199999999999932 4 2 C3.4265506271360664 4.867246864319725 3.1385484961317616 5.861451503868267 1 8 C0.009999999999990905 8 -0.9800000000000182 8 -2 8 C-1.125 2.25 -1.125 2.25 0 0 Z " fill="#F2ECC9" transform="translate(274,210)"/>
<path d="M0 0 C0.660000000000025 0 1.3199999999999932 0 2 0 C2 0.6599999999999966 2 1.3199999999999932 2 2 C2.804374999999993 2.2475000000000023 3.6087499999999864 2.4950000000000045 4.4375 2.75 C7 4 7 4 7.8125 6.125 C7.874374999999986 6.743750000000006 7.936249999999973 7.362499999999997 8 8 C7.339999999999975 8 6.680000000000007 8 6 8 C5.670000000000016 7.340000000000003 5.339999999999975 6.680000000000007 5 6 C4.339999999999975 6.659999999999997 3.680000000000007 7.319999999999993 3 8 C0 2.25 0 2.25 0 0 Z " fill="#E5DFC1" transform="translate(259,78)"/>
<path d="M0 0 C5.75 1.75 5.75 1.75 8 4 C7.6699999999999875 4.990000000000002 7.340000000000003 5.98 7 7 C4 6 4 6 2 4 C1.009999999999991 3.34 0.020000000000010232 2.6799999999999997 -1 2 C-0.6699999999999875 1.3399999999999999 -0.3400000000000034 0.6799999999999997 0 0 Z " fill="#F4F2E4" transform="translate(207,21)"/>
<path d="M0 0 C0.6599999999999966 0.9900000000000091 1.3199999999999932 1.9799999999999898 2 3 C1.009999999999991 3.8249999999999886 1.009999999999991 3.8249999999999886 -4 8 C-4.659999999999997 7.340000000000003 -5.319999999999993 6.680000000000007 -6 6 C-4.02000000000001 4.02000000000001 -2.039999999999992 2.039999999999992 0 0 Z " fill="#F3F1E4" transform="translate(253,247)"/>
<path d="M0 0 C0.9900000000000091 0.3300000000000125 1.9799999999999898 0.6599999999999966 3 1 C0.6899999999999977 3.6399999999999864 -1.6200000000000045 6.280000000000001 -4 9 C-4.659999999999997 8.669999999999987 -5.319999999999993 8.340000000000003 -6 8 C-5.6875 6.0625 -5.6875 6.0625 -5 4 C-4.009999999999991 3.6699999999999875 -3.0200000000000102 3.3400000000000034 -2 3 C-1.3400000000000034 2.009999999999991 -0.6800000000000068 1.0200000000000102 0 0 Z " fill="#FCFAF1" transform="translate(251,246)"/>
<path d="M0 0 C0.6599999999999966 0.3299999999999841 1.3199999999999932 0.660000000000025 2 1 C1.6699999999999875 1.990000000000009 1.3400000000000034 2.980000000000018 1 4 C-2.0625 5.1875 -2.0625 5.1875 -5 6 C-5.659999999999997 5.339999999999975 -6.319999999999993 4.680000000000007 -7 4 C-1.7265625 0.77734375 -1.7265625 0.77734375 0 0 Z " fill="#F1EEDB" transform="translate(220,273)"/>
<path d="M0 0 C0.660000000000025 0.6599999999999966 1.3199999999999932 1.3199999999999932 2 2 C1.875 4 1.875 4 1 6 C-1.0625 7.25 -1.0625 7.25 -3 8 C-1.125 1.125 -1.125 1.125 0 0 Z " fill="#F2F0E3" transform="translate(263,212)"/>
<path d="M0 0 C0.9900000000000091 0.3299999999999983 1.9800000000000182 0.6599999999999966 3 1 C3.809674382535661 3.914827777128366 4.218459932182327 5.461132167283623 3.0625 8.3125 C2.7118750000000205 8.869375000000005 2.361249999999984 9.426249999999996 2 10 C0.3964489852243105 6.4922321551781295 -0.22036864061226424 3.856451210714411 0 0 Z " fill="#E8E5D1" transform="translate(270,103)"/>
<path d="M0 0 C0.660000000000025 0.16499999999999204 0.660000000000025 0.16499999999999204 4 1 C3.670000000000016 2.6500000000000057 3.339999999999975 4.300000000000011 3 6 C1.6800000000000068 5.6699999999999875 0.36000000000001364 5.340000000000003 -1 5 C-0.6700000000000159 3.3499999999999943 -0.339999999999975 1.6999999999999886 0 0 Z " fill="#F7F6ED" transform="translate(282,197)"/>
<path d="M0 0 C0 0.9900000000000091 0 1.9800000000000182 0 3 C-5.625 4.125 -5.625 4.125 -9 3 C-2.25 0 -2.25 0 0 0 Z " fill="#F0ECD6" transform="translate(213,278)"/>
<path d="M0 0 C3.1611577555191275 1.3698350273916233 3.992709197315321 1.9890637959729744 6 5 C3 5 3 5 0.8125 3 C0.21437499999998977 2.3400000000000034 -0.38374999999999204 1.6799999999999997 -1 1 C-0.6699999999999875 0.6700000000000017 -0.3400000000000034 0.3400000000000034 0 0 Z " fill="#F6F3E5" transform="translate(237,37)"/>
</svg>
