<?xml version="1.0" encoding="UTF-8"?>
<!-- Generator: visioncortex VTracer 0.6.12 -->
<svg version="1.1" xmlns="http://www.w3.org/2000/svg" width="300" height="303">
<path d="M0 0 C0.3584399414062318 0.15122314453125085 0.3584399414062318 0.15122314453125085 2.17236328125 0.91650390625 C15.636667358905555 6.79969950129372 28.200855099702608 14.280875908321956 39.125 24.125 C39.97191406249999 24.84171875 40.81882812499998 25.558437499999997 41.69140625 26.296875 C47.94508774953897 31.68172441334348 53.108761638748035 37.58564926360424 58.125 44.125 C58.79273437500001 44.9770703125 59.46046875000002 45.829140625 60.1484375 46.70703125 C84.03176696561178 78.18960190921551 93.9933948757199 117.32397600761485 89.30224609375 156.4287109375 C83.86728631573664 195.6739225072511 63.651720466039706 231.00268756644837 32.125 255.125 C15.591993073593983 267.5689984527766 -9.413841894484335 282.1888074060924 -30.875 281.125 C-31.86500000000001 280.795 -32.85499999999999 280.465 -33.875 280.125 C-32.69092586933067 273.54681038517043 -30.11931559055097 271.06873566154036 -24.875 267.125 C-22.386516831646162 265.4679683450993 -19.82682582557257 263.9522342744065 -17.25 262.4375 C-9.438490680678001 257.67795441890024 -2.5810126596269924 252.3303238583535 4.125 246.125 C4.694604492187494 245.604541015625 5.264208984374989 245.08408203124998 5.85107421875 244.5478515625 C26.736688761145786 225.26970914626378 41.56773725463103 199.8469221202764 48.9375 172.4375 C49.13247070312502 171.71457763671876 49.32744140624999 170.9916552734375 49.5283203125 170.246826171875 C52.46960578183172 158.58154275184026 53.49412520906043 146.87873538925118 53.4375 134.875 C53.43186035156248 133.60793212890624 53.42622070312501 132.3408642578125 53.42041015625 131.035400390625 C52.90882184912914 91.32145858883305 35.78146515169408 56.82821384707097 9.125 28.125 C8.574570312499986 27.5204296875 8.024140625000001 26.915859374999997 7.45703125 26.29296875 C2.877479339632856 21.464651056847487 -2.385594810897686 17.53806807101799 -7.69140625 13.5546875 C-8.753781793410695 12.746337029009123 -9.81497934018401 11.936436060297801 -10.875 11.125 C-11.42091796874999 10.713225097656249 -11.966835937500008 10.301450195312498 -12.529296875 9.877197265625 C-15.791884653745399 7.315229298340952 -17.748787161297145 5.181010007426583 -19.25 1.3125 C-19.408554687499986 0.9174023437500001 -19.408554687499986 0.9174023437500001 -20.2109375 -1.08203125 C-20.430078124999994 -1.673710937500001 -20.64921874999999 -2.265390625 -20.875 -2.875 C-13.703012824366567 -5.0098325667824675 -6.670948905388116 -2.855263636240414 0 0 Z " fill="#F5EFD1" transform="translate(207.875,14.875)"/>
<path d="M0 0 C0.3584399414062318 0.15122314453125085 0.3584399414062318 0.15122314453125085 2.17236328125 0.91650390625 C15.636667358905555 6.79969950129372 28.200855099702608 14.280875908321956 39.125 24.125 C39.97191406249999 24.84171875 40.81882812499998 25.558437499999997 41.69140625 26.296875 C47.94508774953897 31.68172441334348 53.108761638748035 37.58564926360424 58.125 44.125 C58.79273437500001 44.9770703125 59.46046875000002 45.829140625 60.1484375 46.70703125 C84.03176696561178 78.18960190921551 93.9933948757199 117.32397600761485 89.30224609375 156.4287109375 C83.86728631573664 195.6739225072511 63.651720466039706 231.00268756644837 32.125 255.125 C15.591993073593983 267.5689984527766 -9.413841894484335 282.1888074060924 -30.875 281.125 C-31.86500000000001 280.795 -32.85499999999999 280.465 -33.875 280.125 C-32.69092586933067 273.54681038517043 -30.11931559055097 271.06873566154036 -24.875 267.125 C-22.386516831646162 265.4679683450993 -19.82682582557257 263.9522342744065 -17.25 262.4375 C-9.438490680678001 257.67795441890024 -2.5810126596269924 252.3303238583535 4.125 246.125 C4.694604492187494 245.604541015625 5.264208984374989 245.08408203124998 5.85107421875 244.5478515625 C26.736688761145786 225.26970914626378 41.56773725463103 199.8469221202764 48.9375 172.4375 C49.13247070312502 171.71457763671876 49.32744140624999 170.9916552734375 49.5283203125 170.246826171875 C52.46960578183172 158.58154275184026 53.49412520906043 146.87873538925118 53.4375 134.875 C53.43186035156248 133.60793212890624 53.42622070312501 132.3408642578125 53.42041015625 131.035400390625 C52.90882184912914 91.32145858883305 35.78146515169408 56.82821384707097 9.125 28.125 C8.574570312499986 27.5204296875 8.024140625000001 26.915859374999997 7.45703125 26.29296875 C2.877479339632856 21.464651056847487 -2.385594810897686 17.53806807101799 -7.69140625 13.5546875 C-8.753781793410695 12.746337029009123 -9.81497934018401 11.936436060297801 -10.875 11.125 C-11.42091796874999 10.713225097656249 -11.966835937500008 10.301450195312498 -12.529296875 9.877197265625 C-15.791884653745399 7.315229298340952 -17.748787161297145 5.181010007426583 -19.25 1.3125 C-19.408554687499986 0.9174023437500001 -19.408554687499986 0.9174023437500001 -20.2109375 -1.08203125 C-20.430078124999994 -1.673710937500001 -20.64921874999999 -2.265390625 -20.875 -2.875 C-13.703012824366567 -5.0098325667824675 -6.670948905388116 -2.855263636240414 0 0 Z M-0.875 6.125 C-0.875 6.785 -0.875 7.445 -0.875 8.125 C-2.194999999999993 7.795000000000002 -3.5149999999999864 7.465 -4.875 7.125 C-1.5902974549271391 10.51919262990863 1.8319715248855744 13.744077347000655 5.3125 16.9375 C6.172304687500002 17.727695312500003 7.0321093750000045 18.517890625 7.91796875 19.33203125 C10.125 21.125 10.125 21.125 12.125 21.125 C12.784999999999997 22.445 13.444999999999993 23.765 14.125 25.125 C14.784999999999997 25.125 15.444999999999993 25.125 16.125 25.125 C16.393124999999998 25.715390624999998 16.661249999999995 26.305781249999995 16.9375 26.9140625 C18.135720580561582 29.14496002828242 19.395089953889027 30.66197057600708 21.125 32.5 C31.135339170613975 43.8133378643096 38.207146785382776 56.285378436270946 44.932861328125 69.751220703125 C45.69330803160972 71.265417569392 46.467823343523435 72.77268624371975 47.260498046875 74.270263671875 C49.56026478843472 78.65869717894837 51.03765063726087 82.83423970272443 52.1875 87.6875 C52.26891235351559 88.028779296875 52.26891235351559 88.028779296875 52.680908203125 89.755859375 C55.751741480031285 102.82681687670197 58.30184491793784 115.6318309650378 58.22265625 129.09375 C58.22124130249023 130.0146643066406 58.219826354980455 130.93557861328125 58.21836853027344 131.8843994140625 C58.21281407338694 134.79796733944227 58.200270248847914 137.71145567793974 58.1875 140.625 C58.182479106657354 142.61197804927602 58.177917234699805 144.59895731467944 58.173828125 146.5859375 C58.16285960072531 151.43232188211783 58.14562682772623 156.27864749176956 58.125 161.125 C59.44499999999999 161.125 60.764999999999986 161.125 62.125 161.125 C62.49423076923074 167.64807692307693 62.49423076923074 167.64807692307693 60.625 170.0625 C60.129999999999995 170.413125 59.63499999999999 170.76375 59.125 171.125 C58.46500000000003 169.145 57.80500000000001 167.165 57.125 165.125 C55.51607021151182 168.05338685352456 54.72332814657756 170.67251945357603 54.0625 173.9375 C48.3216203977359 197.35800385003273 36.856819720683035 218.94132784087202 21.125 237.125 C20.881931152343753 237.40722412109375 20.881931152343753 237.40722412109375 19.65185546875 238.83544921875 C8.9587538805539 251.12328884908015 -3.247554945716246 260.3158958421027 -16.875 269.125 C-15.884999999999991 269.455 -14.89500000000001 269.785 -13.875 270.125 C-15.194999999999993 270.785 -16.514999999999986 271.445 -17.875 272.125 C-13.335891826358363 273.6380360578805 -9.346505763187992 272.6155019210627 -4.875 271.125 C-3.884999999999991 270.465 -2.8950000000000102 269.805 -1.875 269.125 C-1.3903124999999932 268.9703125 -1.3903124999999932 268.9703125 1.0625 268.1875 C4.125 267.125 4.125 267.125 6.125 265.625 C8.125 264.125 8.125 264.125 10.80078125 263.31640625 C14.754684387703293 261.8993199315517 17.86286830929481 259.9210583840774 21.3125 257.5625 C21.969599609374995 257.1170483398438 22.62669921874999 256.67159667968747 23.3037109375 256.212646484375 C49.617240895807356 238.14372351373507 49.617240895807356 238.14372351373507 53.125 227.125 C53.78499999999997 227.125 54.44499999999999 227.125 55.125 227.125 C55.454999999999984 226.135 55.78499999999997 225.145 56.125 224.125 C55.46500000000003 223.135 54.80500000000001 222.145 54.125 221.125 C54.125 222.115 54.125 223.105 54.125 224.125 C53.13499999999999 224.455 52.14499999999998 224.785 51.125 225.125 C51.454999999999984 223.805 51.78499999999997 222.485 52.125 221.125 C53.44499999999999 221.125 54.764999999999986 221.125 56.125 221.125 C56.78499999999997 221.785 57.44499999999999 222.445 58.125 223.125 C71.28872119327019 205.39998939629575 71.28872119327019 205.39998939629575 72.6328125 196.921875 C73.125 194.12500000000003 73.125 194.12500000000003 76.125 191.125 C75.13499999999999 188.155 74.14499999999998 185.185 73.125 182.125 C73.78499999999997 182.125 74.445 182.125 75.125 182.125 C75.125 183.775 75.125 185.425 75.125 187.125 C76.11500000000001 186.795 77.10500000000002 186.465 78.125 186.125 C78.19718749999998 185.650625 78.19718749999998 185.650625 78.5625 183.25 C79.125 180.125 79.125 180.125 80.125 178.125 C80.26937499999997 177.135 80.41375 176.145 80.5625 175.125 C81.125 172.12500000000003 81.125 172.12500000000003 83.125 170.125 C83.1677210013209 168.4588809484842 83.16563832075786 166.79117115107175 83.125 165.125 C83.45499999999998 164.135 83.78499999999997 163.145 84.125 162.125 C84.3430330677304 160.5664673306677 84.528663558738 159.00317349243934 84.6875 157.4375 C84.72939453125002 157.03337890625 84.72939453125002 157.03337890625 84.94140625 154.98828125 C85.00199218749998 154.3733984375 85.06257812500002 153.758515625 85.125 153.125 C85.45499999999998 153.125 85.78499999999997 153.125 86.125 153.125 C85.79500000000002 143.555 85.46500000000003 133.985 85.125 124.125 C84.79500000000002 124.125 84.46500000000003 124.125 84.125 124.125 C83.79500000000002 126.10500000000002 83.46500000000003 128.08499999999998 83.125 130.125 C81.3251851730007 125.34306520860025 80.58961692217099 120.84990432579082 80.0625 115.8125 C79.25223214285711 108.25223214285714 79.25223214285711 108.25223214285714 78.125 107.125 C77.98384838741924 104.45441148997156 78.08252892661608 101.80067762318926 78.125 99.125 C78.78499999999997 99.785 79.445 100.445 80.125 101.125 C79.13456294864147 96.28871695134501 78.16801153996141 91.64881126705745 76.125 87.125 C75.79500000000002 87.785 75.79500000000002 87.785 74.125 91.125 C73.79500000000002 89.805 73.79500000000002 89.805 72.125 83.125 C72.45499999999998 83.455 72.78499999999997 83.785 73.125 84.125 C73.45499999999998 83.465 73.45499999999998 83.465 75.125 80.125 C74.67124999999999 79.568125 74.21749999999997 79.01125 73.75 78.4375 C72.06732003389197 76.0429169713078 71.12783281730322 73.86607636729548 70.125 71.125 C69.75374999999997 70.196875 69.3825 69.26875 69 68.3125 C68.71125 67.590625 68.42250000000001 66.86875 68.125 66.125 C67.13499999999999 66.785 66.14499999999998 67.445 65.125 68.125 C65.125 67.465 65.125 66.805 65.125 66.125 C63.48757551668456 61.26209613246516 60.711666402731 57.61303845191776 57.68359375 53.52734375 C56.216986986979805 51.266784453615486 55.70676339131683 49.701380732974656 55.125 47.125 C54.46500000000003 46.465 53.80500000000001 45.805 53.125 45.125 C52.125 44.125000000000014 52.125 44.125000000000014 50.25 41.0625 C49.548749999999984 40.093125 48.84749999999997 39.12375 48.125 38.125 C47.13499999999999 38.125 46.14499999999998 38.125 45.125 38.125 C43.15234375 36.515625 43.15234375 36.515625 41.0625 34.375 C40.3702734375 33.67890625 39.67804687500001 32.9828125 38.96484375 32.265625 C37.249957138237846 30.270385375274607 36.25401344919476 28.474982744930294 35.125 26.125 C33.375 25.125000000000014 33.375 25.125000000000014 31.125 24.125 C29.113175427208716 22.809576240867244 27.11100336645532 21.47909320440135 25.125 20.125 C24.465000000000003 20.455 23.805000000000007 20.784999999999997 23.125 21.125 C22.465000000000003 20.795 21.805000000000007 20.465000000000003 21.125 20.125 C21.454999999999984 19.465000000000003 21.784999999999997 18.805 22.125 18.125 C18.495000000000005 16.145 14.865000000000009 14.165 11.125 12.125 C11.125 12.785 11.125 13.445 11.125 14.125 C10.465000000000003 14.125 9.805000000000007 14.125 9.125 14.125 C9.454999999999984 13.134999999999998 9.784999999999997 12.145 10.125 11.125 C9.134999999999991 10.795000000000002 8.144999999999982 10.465 7.125 10.125 C7.125 10.785 7.125 11.445 7.125 12.125 C6.465000000000003 12.125 5.805000000000007 12.125 5.125 12.125 C5.454999999999984 11.134999999999998 5.784999999999997 10.145 6.125 9.125 C3.8149999999999977 8.134999999999998 1.5049999999999955 7.145 -0.875 6.125 Z " fill="#F9F8F7" transform="translate(207.875,14.875)"/>
<path d="M0 0 C2.815995737090361 1.1168424238301178 5.627620104747734 2.2429620565890147 8.4375 3.375 C9.239941406250011 3.692109375000001 10.042382812499994 4.009218750000002 10.869140625 4.3359375 C11.632910156250006 4.645312499999999 12.396679687500011 4.954687499999999 13.18359375 5.2734375 C13.89056396484375 5.556225585937501 14.5975341796875 5.839013671875001 15.325927734375 6.13037109375 C17 7 17 7 18 9 C17.00999999999999 9 16.02000000000001 9 15 9 C16.728880497533567 10.417015889397035 18.458117461894005 11.833596864431023 20.1875 13.25 C21.150429687500008 14.03890625 22.113359375000016 14.8278125 23.10546875 15.640625 C24.938298388782016 17.13459139922313 26.78571569031311 18.610983629580737 28.65234375 20.0625 C30.810066324156452 21.84324941228219 32.57103541927984 23.620441812027906 34.375 25.75 C37.921316964285694 29.91406249999998 37.921316964285694 29.91406249999998 39.65234375 31.8046875 C50.30863320726749 43.48899546961565 57.774705097682784 56.544836214472184 64.807861328125 70.626220703125 C65.56830803160972 72.140417569392 66.34282334352343 73.64768624371975 67.135498046875 75.145263671875 C69.43526478843472 79.53369717894836 70.91265063726087 83.70923970272443 72.0625 88.5625 C72.14391235351559 88.903779296875 72.14391235351559 88.903779296875 72.555908203125 90.630859375 C75.90839602053563 104.9006753613941 78.17563913602032 118.56486323894345 78.13037109375 133.243896484375 C78.12503910474032 135.2974393425125 78.13032680274637 137.35076089771255 78.13671875 139.404296875 C78.14014963122071 146.986887460921 77.87097132035672 154.46381649117293 77 162 C78.32 162 79.63999999999999 162 81 162 C81.8125 165.25000000000003 81.8125 165.25000000000003 82 169 C79.5625 171.4375 79.5625 171.4375 77 173 C76.67000000000002 171.02 76.34000000000003 169.04 76 167 C75.81566406249999 167.8159765625 75.63132812499998 168.631953125 75.44140625 169.47265625 C69.2227231412486 194.87252192530028 58.13088559006604 218.18261283553326 41 238 C40.52449707031249 238.5538134765625 40.048994140624984 239.107626953125 39.55908203125 239.67822265625 C29.123748902435864 251.7104093009334 17.471696304805477 261.5286089903115 4 270 C6.310000000000002 269.67 8.620000000000005 269.34 11 269 C8.348028152821684 271.6519718471783 5.4464323363205835 272.5845010047255 2 274 C1.3400000000000034 274.33 0.6800000000000068 274.66 0 275 C-1.4310848442574127 275.3598798822494 -2.8698631756721227 275.6896512377916 -4.3125 276 C-5.111718749999994 276.172734375 -5.910937499999989 276.34546875 -6.734375 276.5234375 C-9.153138349829163 277.03221185979163 -11.573318461505949 277.53031970222696 -14 278 C-11.854965162497024 270.49237806873964 -4.748132091108062 267.1174765356657 1.5625 263.375 C9.387396711646204 258.5876235241549 16.274855402492904 253.22302735469475 23 247 C23.569604492187494 246.479541015625 24.13920898437499 245.95908203124998 24.72607421875 245.4228515625 C45.611688761145786 226.14470914626378 60.44273725463103 200.72192212027636 67.8125 173.3125 C68.00747070312502 172.58957763671876 68.20244140624999 171.8666552734375 68.4033203125 171.121826171875 C71.34460578183172 159.45654275184032 72.36912520906043 147.75373538925115 72.3125 135.75 C72.30686035156248 134.48293212890624 72.30122070312501 133.2158642578125 72.29541015625 131.910400390625 C71.78382184912914 92.19645858883305 54.65646515169408 57.70321384707097 28 29 C27.449570312499986 28.3954296875 26.899140625 27.790859374999997 26.33203125 27.16796875 C21.752479339632885 22.339651056847494 16.489405189102314 18.41306807101799 11.18359375 14.4296875 C1.3250495708852839 6.97514871265588 1.3250495708852839 6.97514871265588 0 3 C0 2.009999999999998 0 1.0199999999999996 0 0 Z " fill="#FEFEFE" transform="translate(189,14)"/>
<path d="M0 0 C0.3299999999999841 0 0.6599999999999966 0 1 0 C1.042543562981166 1.9995474601141439 1.040807829325047 4.0004163630731 1 6 C0.6700000000000159 6.3300000000000125 0.3400000000000034 6.659999999999997 0 7 C0.6599999999999966 7.3300000000000125 1.3199999999999932 7.659999999999997 2 8 C2 8.659999999999997 2 9.319999999999993 2 10 C4.468000468606817 8.848266447983491 6.047835654825292 7.952164345174708 8 6 C8.990000000000009 6 9.980000000000018 6 11 6 C9.666666666666686 8.666666666666657 8.333333333333314 11.333333333333343 7 14 C10.043867244615058 14.0822666822869 12.07175348223791 13.976082172587354 15 13 C15.329999999999984 12.009999999999991 15.659999999999968 11.02000000000001 16 10 C16.625 11.875000000000028 16.625 11.875000000000028 17 14 C16.340000000000032 14.659999999999997 15.680000000000007 15.319999999999993 15 16 C14.670000000000016 16.495000000000005 14.670000000000016 16.495000000000005 13 19 C10.750377957934802 21.742106867490264 8.381311217316636 24.37201909483386 6 27 C5.435390624999997 27.63164062499999 4.870781249999993 28.263281250000006 4.2890625 28.9140625 C-6.0185776018471415 39.851864005453535 -20.027838332418924 49.51428551977523 -34 55 C-35.670165157525275 55.99414592709837 -37.33720673106944 56.993572495120986 -39 58 C-42 59 -42 59 -44.5625 59.4375 C-47 60 -47 60 -49 62 C-51.68839384593255 62.26991906083663 -54.29141936369015 62.08737356891322 -57 62 C-55 60 -55 60 -53 59 C-53.99000000000001 58.670000000000016 -54.97999999999999 58.34000000000003 -56 58 C-55.091210937499994 57.42894531249999 -54.18242187499999 56.85789062499998 -53.24609375 56.26953125 C-30.84091980187523 41.923599186774936 -12.903266531953136 23.36041618581089 0 0 Z " fill="#F8F5E3" transform="translate(247,226)"/>
<path d="M0 0 C0.8249999999999886 0.16500000000000625 0.8249999999999886 0.16500000000000625 5 1 C5.660000000000025 5.289999999999992 6.319999999999993 9.580000000000013 7 14 C6.339999999999975 14 5.680000000000007 14 5 14 C5.216562500000009 15.180781249999995 5.433125000000018 16.36156249999999 5.65625 17.578125 C5.937682300916265 19.135383731736766 6.218922233113744 20.692677237522133 6.5 22.25 C6.643085937500018 23.027304687499992 6.7861718749999795 23.804609374999984 6.93359375 24.60546875 C7.068945312499977 25.35957031250001 7.204296875000011 26.113671874999994 7.34375 26.890625 C7.469433593750011 27.581884765625006 7.595117187500023 28.27314453125001 7.724609375 28.9853515625 C8 31 8 31 8 35 C8.660000000000025 35 9.319999999999993 35 10 35 C10 30.710000000000008 10 26.420000000000016 10 22 C10.329999999999984 22 10.660000000000025 22 11 22 C11.329999999999984 20.02000000000001 11.660000000000025 18.039999999999992 12 16 C12.329999999999984 16 12.660000000000025 16 13 16 C13.167803948801748 20.07485824879396 13.328343176133046 24.14993160344997 13.482177734375 28.225341796875 C13.535522218630604 29.611487681072504 13.590845593593656 30.997558890185616 13.648193359375 32.383544921875 C13.73031420992993 34.37658226012522 13.804712149618808 36.36993308642596 13.87890625 38.36328125 C13.926037597656261 39.56251220703126 13.973168945312523 40.761743164062494 14.021728515625 41.997314453125 C14 45 14 45 13 48 C12.703460913716299 50.31053371396072 12.494543151387916 52.62184322865659 12.28125 54.94140625 C12 57 12 57 11 59 C10.670000000000016 59.99000000000001 10.339999999999975 60.97999999999999 10 62 C9.64937500000002 62.78375 9.298749999999984 63.567499999999995 8.9375 64.375 C8 67 8 67 8 69.5625 C8 72.30538698568057 7.37076000823447 73.6616446918353 6 76 C5.670000000000016 76.66 5.339999999999975 77.32 5 78 C4.670000000000016 78.16499999999999 4.670000000000016 78.16499999999999 3 79 C3 77.35 3 75.69999999999999 3 74 C2.339999999999975 74 1.6800000000000068 74 1 74 C1.329999999999984 74.928125 1.660000000000025 75.85624999999999 2 76.8125 C3 80 3 80 3 83 C2.670000000000016 83.16499999999999 2.670000000000016 83.16499999999999 1 84 C1 82.68 1 81.36000000000001 1 80 C0.009999999999990905 80 -0.9800000000000182 80 -2 80 C-2.082499999999982 80.66 -2.1650000000000205 81.32 -2.25 82 C-3.0623795218204464 85.24951808728176 -4.339864338955124 87.7917103897164 -5.89453125 90.73828125 C-7.499656787404831 94.0222660067399 -8.678405492965624 97.44754441274907 -9.875 100.8984375 C-11.221883997761552 103.41449163470736 -12.374745295485809 104.00459092453838 -15 105 C-14.611842633254241 101.60362304097441 -14.066314339212795 100.0819177131452 -11.875 97.375 C-11.565625000000011 96.983125 -11.565625000000011 96.983125 -10 95 C-10.329999999999984 94.00999999999999 -10.660000000000025 93.01999999999998 -11 92 C-10.339999999999975 92 -9.680000000000007 92 -9 92 C-9 91.00999999999999 -9 90.01999999999998 -9 89 C-8.339999999999975 89 -7.680000000000007 89 -7 89 C-7 87.35 -7 85.69999999999999 -7 84 C-7.329999999999984 84 -7.660000000000025 84 -8 84 C-8.28321416346131 79.9260731871334 -7.539285868404136 77.60727465920633 -5.5625 74.0625 C-3.5953719173660375 70.34496133536118 -2.335842604274319 67.25400632080803 -2 63 C-3.319999999999993 63.99000000000001 -4.639999999999986 64.98000000000002 -6 66 C-6.397128536021 62.52512530981642 -6.251615382178898 61.32466500926307 -4.0625 58.5 C-3.3818749999999795 57.67500000000001 -2.701250000000016 56.849999999999994 -2 56 C-0.9529864692497654 52.61734090065312 -0.8648258713961354 51.40552238581154 -2 48 C-1.7628124999999955 47.65968750000002 -1.7628124999999955 47.65968750000002 -0.5625 45.9375 C1.700954315052627 41.68220588770109 1.247774793253086 37.72607476019738 1 33 C0.339999999999975 32.670000000000016 -0.3199999999999932 32.34 -1 32 C-1 31.340000000000003 -1 30.680000000000007 -1 30 C-1.660000000000025 30 -2.319999999999993 30 -3 30 C-3.329999999999984 29.00999999999999 -3.660000000000025 28.02000000000001 -4 27 C-4.660000000000025 27.329999999999984 -4.660000000000025 27.329999999999984 -8 29 C-8 28.00999999999999 -8 27.02000000000001 -8 26 C-7.339999999999975 26 -6.680000000000007 26 -6 26 C-6.1875 24.125 -6.1875 24.125 -7 22 C-9.5625 20.75 -9.5625 20.75 -12 20 C-10.375 14.25 -10.375 14.25 -7 12 C-6.009999999999991 12.330000000000013 -5.019999999999982 12.659999999999997 -4 13 C-3.670000000000016 12.009999999999991 -3.339999999999975 11.02000000000001 -3 10 C-2.339999999999975 10 -1.6800000000000068 10 -1 10 C-1.0116015625000045 9.361914062500006 -1.023203125000009 8.723828125000011 -1.03515625 8.06640625 C-1.044179687499991 7.2401171875000045 -1.0532031249999818 6.413828125000009 -1.0625 5.5625 C-1.0741015625000045 4.738789062500004 -1.085703125000009 3.9150781249999937 -1.09765625 3.06640625 C-1 1 -1 1 0 0 Z " fill="#F2EBC4" transform="translate(280,123)"/>
<path d="M0 0 C1.1550000000000011 0.495000000000001 1.1550000000000011 0.495000000000001 7 3 C6.6699999999999875 3.990000000000002 6.340000000000003 4.98 6 6 C6.659999999999997 6 7.319999999999993 6 8 6 C8.330000000000013 5.34 8.659999999999997 4.68 9 4 C9.659999999999997 4.66 10.319999999999993 5.32 11 6 C10.669999999999987 6.66 10.340000000000003 7.32 10 8 C10.659999999999997 8 11.319999999999993 8 12 8 C12.329999999999984 7.34 12.659999999999997 6.68 13 6 C14.674276146816169 6.9238416595825 16.33928003330226 7.864505685676715 18 8.8125 C18.928124999999994 9.334570312499999 19.85624999999999 9.856640625 20.8125 10.39453125 C21.53437500000001 10.9243359375 22.256249999999994 11.454140625 23 12 C23 12.990000000000002 23 13.980000000000004 23 15 C23.329999999999984 14.670000000000002 23.659999999999997 14.340000000000003 24 14 C26.666666666666657 15.333333333333329 29.333333333333343 16.66666666666667 32 18 C32.66 18.247500000000002 33.31999999999999 18.495000000000005 34 18.75 C36.89412652411514 20.558829077571964 38.12443168963236 23.159853701443275 40 26 C42.1826619947777 28.498046640812085 44.386340875351095 30.95030908554216 47 33 C47.99000000000001 33 48.97999999999999 33 50 33 C51.625 35.43749999999996 51.625 35.43749999999996 53 38 C53.329999999999984 38.33 53.65999999999997 38.66 54 39 C55.48457249907233 40.87185228143901 56.82305081811171 42.63494267880705 57.8671875 44.7890625 C59.79021598578095 48.542283613627575 62.27473763405658 51.952869010620645 64.63671875 55.44140625 C65.0866015625 56.285742187500006 65.53648437499999 57.130078125 66 58 C65.67000000000002 58.99000000000001 65.34000000000003 59.97999999999999 65 61 C65.65999999999997 61.33 66.32 61.66 67 62 C67.32999999999998 61.67 67.32999999999998 61.67 69 60 C70.00525542393655 62.51313855984142 71.00743312966108 65.02031722107371 71.9375 67.5625 C73.01549585025089 70.03554930351675 74.30144289170408 71.91540718527318 76 74 C75.67000000000002 74.66 75.67000000000002 74.66 74 78 C73.34000000000003 76.02 72.68 74.04 72 72 C71.00999999999999 72 70.01999999999998 72 69 72 C69 71.34 69 70.68 69 70 C68.505 70.16499999999999 68.505 70.16499999999999 66 71 C65.40187500000002 70.05125 64.80374999999998 69.1025 64.1875 68.125 C62 65 62 65 59 63 C57.64748502877109 61.68612831366332 56.310546234014225 60.35573748346302 55 59 C55.16500000000002 58.67 55.16500000000002 58.67 56 57 C56.65999999999997 57.66 57.31999999999999 58.31999999999999 58 59 C58.16500000000002 58.67 58.16500000000002 58.67 59 57 C59.65999999999997 57 60.31999999999999 57 61 57 C58.25 51.125 58.25 51.125 56 50 C55 48 54 46 53 44 C50.39902317962634 42.699511589813156 47.86044937891302 42.43528577505198 45 42 C46.0991881639292 42.98475213590368 47.204560199325556 43.96260473025541 48.3125 44.9375 C48.61994140625001 45.21013671874999 48.61994140625001 45.21013671874999 50.17578125 46.58984375 C52 48 52 48 55 49 C55.16500000000002 49.989999999999995 55.16500000000002 49.989999999999995 56 55 C55.17500000000001 55.16499999999999 55.17500000000001 55.16499999999999 51 56 C51 55.34 51 54.68000000000001 51 54 C50.34000000000003 54 49.68000000000001 54 49 54 C49.329999999999984 54.99000000000001 49.65999999999997 55.97999999999999 50 57 C48.349999999999994 56.67 46.69999999999999 56.34 45 56 C45 53.69 45 51.379999999999995 45 49 C44.34 49 43.68000000000001 49 43 49 C39.10878661087867 42.59832635983265 39.10878661087867 42.59832635983265 38.5 39.25 C38 37 38 37 35.9375 35.1875 C35.298125 34.795625 34.65875 34.40375 34 34 C34 34.66 34 35.32 34 36 C30.440844621716707 35.7358930638023 29.191197605307735 35.195008853254066 26.6484375 32.6015625 C25.89820312500001 31.619296875000003 25.14796874999999 30.63703125 24.375 29.625 C20.106672932330838 24.103853383458656 20.106672932330838 24.103853383458656 18.2265625 22.2734375 C17 21 17 21 17 19 C15.680000000000007 18.340000000000003 14.360000000000014 17.68 13 17 C13 16.340000000000003 13 15.68 13 15 C12.432812500000011 14.749921874999998 11.865624999999994 14.499843749999997 11.28125 14.2421875 C8.665374893461717 12.817789753631544 6.704518127012591 11.12567569746006 4.5 9.125 C3.7471874999999955 8.446953125 2.994374999999991 7.768906250000001 2.21875 7.0703125 C0.09747471046435408 5.090953515045953 -1.9625506618634745 3.065232738202024 -4 1 C-2.680000000000007 1.3299999999999983 -1.3600000000000136 1.6600000000000001 0 2 C0 1.3399999999999999 0 0.6799999999999997 0 0 Z " fill="#F6F4E6" transform="translate(207,21)"/>
<path d="M0 0 C2.4680004686068173 1.1517335520165162 4.047835654825292 2.0478356548252847 6 4 C5.9793750000000045 4.783749999999998 5.958750000000009 5.567500000000003 5.9375 6.375 C6.013677297783914 9.574446506924843 7.004803503380572 10.589137566584853 9 13 C9 13.659999999999997 9 14.319999999999993 9 15 C9.659999999999997 15 10.319999999999993 15 11 15 C11.330000000000013 17.310000000000002 11.659999999999997 19.620000000000005 12 22 C12.990000000000009 22 13.97999999999999 22 15 22 C15 21.340000000000003 15 20.680000000000007 15 20 C15.660000000000025 20 16.319999999999993 20 17 20 C17 20.659999999999997 17 21.319999999999993 17 22 C18.649999999999977 21.67 20.30000000000001 21.340000000000003 22 21 C21.3125 18.125 21.3125 18.125 20 15 C18.352396197322207 14.287522679923114 16.68236470959755 13.625996171013043 15 13 C13.127103657081989 11.116924872609616 11.614203185905694 9.121524187190332 10 7 C17.333333333333314 7.366666666666667 17.333333333333314 7.366666666666667 20.5 10.375 C22 13 22 13 22 16 C22.99000000000001 16.33 23.980000000000018 16.659999999999997 25 17 C27 20 27 20 27 23 C26.339999999999975 23 25.680000000000007 23 25 23 C24.670000000000016 23.989999999999995 24.339999999999975 24.980000000000004 24 26 C23.670000000000016 26 23.339999999999975 26 23 26 C23.235253906250023 26.193359375 23.235253906250023 26.193359375 24.42578125 27.171875 C27.7235653458863 29.930269978753756 30.454507519473168 32.51669450033165 33 36 C33.65999999999997 36 34.31999999999999 36 35 36 C35 36.66 35 37.31999999999999 35 38 C35.65999999999997 38 36.31999999999999 38 37 38 C39.660380989164594 43.562614795525974 40.96232948774616 48.93267947540977 42 55 C41.34000000000003 55 40.68000000000001 55 40 55 C40.17531250000002 55.3815625 40.17531250000002 55.3815625 41.0625 57.3125 C42 60 42 60 41 63 C40.00999999999999 62.67 39.01999999999998 62.34 38 62 C38 61.34 38 60.68000000000001 38 60 C37.00999999999999 60 36.01999999999998 60 35 60 C35 59.34 35 58.68000000000001 35 58 C32.125 58.25 32.125 58.25 29 59 C27.625 61.0625 27.625 61.0625 27 63 C23.495403057168346 61.40120866740243 22.211685015904095 60.50906728900202 20.70703125 56.890625 C20.559433593749986 56.289921875000005 20.559433593749986 56.289921875000005 19.8125 53.25 C19.50957031249999 52.05890625000001 19.206640624999977 50.8678125 18.89453125 49.640625 C18.32997434103106 47.34295233991676 17.76722827927182 45.04483328390843 17.20703125 42.74609375 C15.532594099771075 37.54937780479118 13.238127214110733 32.72791658294719 10.875 27.8125 C10.387976074218756 26.793254394531246 9.900952148437511 25.774008789062492 9.399169921875 24.723876953125 C6.171146749919899 18.090524860304328 2.7118196353160613 11.981155210804616 -1.63671875 6.01171875 C-3 4 -3 4 -3 2 C-2.009999999999991 2 -1.0200000000000102 2 0 2 C0 1.3400000000000034 0 0.6799999999999997 0 0 Z " fill="#F3ECC7" transform="translate(241,55)"/>
<path d="M0 0 C0.7218750000000114 0.7837499999999977 1.4437499999999943 1.5675000000000026 2.1875 2.375 C4.871882401058286 4.880423574321078 6.564733266156281 5.915178926154617 10 7 C10.990000000000009 7.329999999999998 11.97999999999999 7.659999999999997 13 8 C13 8.990000000000002 13 9.980000000000004 13 11 C13.907499999999999 11.226875 14.814999999999998 11.45375 15.75 11.6875 C19.47517445875266 13.191897377573184 20.834426023680237 14.668347728738823 23 18 C23 18.659999999999997 23 19.32 23 20 C21.019999999999982 19.67 19.039999999999992 19.340000000000003 17 19 C18.0991881639292 19.984752135903683 19.204560199325556 20.962604730255407 20.3125 21.9375 C20.619941406250007 22.210136718749993 20.619941406250007 22.210136718749993 22.17578125 23.58984375 C24 25 24 25 27 26 C27.329999999999984 27.980000000000004 27.660000000000025 29.960000000000008 28 32 C27.17500000000001 32.16499999999999 27.17500000000001 32.16499999999999 23 33 C23 32.34 23 31.680000000000007 23 31 C22.339999999999975 31 21.680000000000007 31 21 31 C21.329999999999984 31.989999999999995 21.660000000000025 32.97999999999999 22 34 C20.349999999999994 33.67 18.69999999999999 33.34 17 33 C17 30.689999999999998 17 28.379999999999995 17 26 C16.340000000000003 26 15.680000000000007 26 15 26 C11.108786610878667 19.59832635983264 11.108786610878667 19.59832635983264 10.5 16.25 C10 14 10 14 7.9375 12.1875 C7.298124999999999 11.795625000000001 6.658749999999998 11.403750000000002 6 11 C6 11.659999999999997 6 12.32 6 13 C2.9684631391628216 12.672266285314898 1.3842689651827698 12.358651034170592 -0.875 10.25 C-2.3065992471860284 7.3868015056279575 -1.7971599638496514 6.029207862628624 -1 3 C-1.3300000000000125 2.3400000000000034 -1.6599999999999966 1.6799999999999997 -2 1 C-1.3400000000000034 0.6700000000000017 -0.6800000000000068 0.3400000000000034 0 0 Z " fill="#F5F0D4" transform="translate(235,44)"/>
<path d="M0 0 C2.4680004686068173 1.1517335520165162 4.047835654825292 2.0478356548252847 6 4 C5.9793750000000045 4.783749999999998 5.958750000000009 5.567500000000003 5.9375 6.375 C6.013677297783914 9.574446506924843 7.004803503380572 10.589137566584853 9 13 C9 13.659999999999997 9 14.319999999999993 9 15 C9.659999999999997 15 10.319999999999993 15 11 15 C11.330000000000013 17.310000000000002 11.659999999999997 19.620000000000005 12 22 C12.59812500000001 22.041250000000005 13.196249999999992 22.082499999999996 13.8125 22.125 C16 23 16 23 17.75 26.0625 C18.162500000000023 27.031875 18.57499999999999 28.00125 19 29 C18.670000000000016 28.010000000000005 18.339999999999975 27.019999999999996 18 26 C19.319999999999993 26.659999999999997 20.639999999999986 27.319999999999993 22 28 C22 30.310000000000002 22 32.620000000000005 22 35 C22.660000000000025 35 23.319999999999993 35 24 35 C24 35.66 24 36.31999999999999 24 37 C23.339999999999975 37 22.680000000000007 37 22 37 C22.329999999999984 38.97999999999999 22.660000000000025 40.96000000000001 23 43 C23.660000000000025 43 24.319999999999993 43 25 43 C25 43.99000000000001 25 44.97999999999999 25 46 C23.845000000000027 45.83500000000001 23.845000000000027 45.83500000000001 18 45 C17.775703125000007 44.239453125 17.551406250000014 43.478906249999994 17.3203125 42.6953125 C15.497816094165216 37.59447936414284 13.204569404398711 32.76161580090067 10.875 27.875 C10.387976074218756 26.85124267578125 9.900952148437511 25.8274853515625 9.399169921875 24.772705078125 C6.17370397476725 18.11499220582799 2.72417479853695 11.99811570540642 -1.63671875 6.01171875 C-3 4 -3 4 -3 2 C-2.009999999999991 2 -1.0200000000000102 2 0 2 C0 1.3400000000000034 0 0.6799999999999997 0 0 Z " fill="#F2ECCD" transform="translate(241,55)"/>
<path d="M0 0 C1.4729027691738565 1.8746035244031134 2.8268751623460844 3.6436578453670023 3.87109375 5.79296875 C5.790708537083674 9.545848870077066 8.27580710298264 12.954448566930282 10.63671875 16.44140625 C11.086601562499993 17.285742187500006 11.536484374999986 18.130078124999997 12 19 C11.670000000000016 19.989999999999995 11.339999999999975 20.980000000000004 11 22 C11.660000000000025 22.33 12.319999999999993 22.659999999999997 13 23 C13.660000000000025 22.340000000000003 14.319999999999993 21.680000000000007 15 21 C16.005255423936603 23.51313855984145 17.00743312966108 26.020317221073682 17.9375 28.5625 C19.015495850250886 31.035549303516746 20.301442891704085 32.915407185273196 22 35 C21.339999999999975 36.31999999999999 20.680000000000007 37.64 20 39 C19.339999999999975 37.02000000000001 18.680000000000007 35.03999999999999 18 33 C17.00999999999999 33 16.019999999999982 33 15 33 C15 32.34 15 31.680000000000007 15 31 C14.009999999999991 31.33 13.019999999999982 31.659999999999997 12 32 C11.700937500000009 31.52562499999999 11.700937500000009 31.52562499999999 10.1875 29.125 C8 26 8 26 5 24 C3.6474850287710865 22.686128313663332 2.3105462340142253 21.355737483463017 1 20 C1.329999999999984 19.340000000000003 1.660000000000025 18.680000000000007 2 18 C2.660000000000025 18.659999999999997 3.319999999999993 19.319999999999993 4 20 C4.329999999999984 19.340000000000003 4.660000000000025 18.680000000000007 5 18 C5.660000000000025 18 6.319999999999993 18 7 18 C4.25 12.125 4.25 12.125 2 11 C0.38932097455250414 8.03635059317665 -0.9329095652616957 5.201271304214856 -2 2 C-1.339999999999975 2 -0.6800000000000068 2 0 2 C0 1.3400000000000034 0 0.6799999999999997 0 0 Z " fill="#F1EFDF" transform="translate(261,60)"/>
<path d="M0 0 C0.9900000000000091 0 1.9800000000000182 0 3 0 C3.6546288995933196 13.825762359410902 -4.185312132635715 24.289443756254286 -12 35 C-12.990000000000009 34.00999999999999 -13.980000000000018 33.02000000000001 -15 32 C-14.012545033757874 29.11992301512717 -13.078807668295553 27.09180852599806 -11.08203125 24.765625 C-8.69016830860835 21.588441205430968 -7.660644755909345 18.71189058341659 -6.4375 14.9375 C-5.0581002940284066 10.699803198375832 -3.813970344699726 7.454227642229711 -1 4 C-0.3125 1.75 -0.3125 1.75 0 0 Z " fill="#EFEEE6" transform="translate(278,203)"/>
<path d="M0 0 C0.3299999999999841 0 0.660000000000025 0 1 0 C1 2.969999999999999 1 5.939999999999998 1 9 C0.009999999999990905 9.330000000000013 -0.9800000000000182 9.659999999999997 -2 10 C-1.670000000000016 10.928124999999994 -1.339999999999975 11.856249999999989 -1 12.8125 C0 16 0 16 0 19 C-0.660000000000025 19.329999999999984 -1.3199999999999932 19.659999999999997 -2 20 C-2 18.680000000000007 -2 17.360000000000014 -2 16 C-2.990000000000009 16 -3.980000000000018 16 -5 16 C-5.082499999999982 16.659999999999997 -5.1650000000000205 17.319999999999993 -5.25 18 C-6.062379521820446 21.24951808728173 -7.339864338955124 23.791710389716428 -8.89453125 26.73828125 C-10.499656787404831 30.022266006739898 -11.678405492965624 33.44754441274907 -12.875 36.8984375 C-14.221883997761552 39.41449163470736 -15.374745295485809 40.00459092453838 -18 41 C-17.61184263325424 37.603623040974384 -17.066314339212795 36.08191771314526 -14.875 33.375 C-14.256250000000023 32.59125 -13.637499999999989 31.807500000000005 -13 31 C-13.329999999999984 30.00999999999999 -13.660000000000025 29.02000000000001 -14 28 C-13.339999999999975 28 -12.680000000000007 28 -12 28 C-12 27.00999999999999 -12 26.02000000000001 -12 25 C-11.339999999999975 25 -10.680000000000007 25 -10 25 C-10 23.349999999999994 -10 21.69999999999999 -10 20 C-10.329999999999984 20 -10.660000000000025 20 -11 20 C-11.432006792039147 15.247925287569103 -9.984890832743872 12.217893019580771 -8 8 C-7.009999999999991 8 -6.019999999999982 8 -5 8 C-4.670000000000016 8.659999999999997 -4.339999999999975 9.319999999999993 -4 10 C-3.670000000000016 7.689999999999998 -3.339999999999975 5.3799999999999955 -3 3 C-2.339999999999975 3 -1.6800000000000068 3 -1 3 C-0.6700000000000159 2.009999999999991 -0.339999999999975 1.0200000000000102 0 0 Z " fill="#EFE7BD" transform="translate(283,187)"/>
<path d="M0 0 C0.3299999999999841 0 0.660000000000025 0 1 0 C1.1678039488017475 4.074858248793959 1.3283431761330462 8.149931603449971 1.482177734375 12.225341796875 C1.5355222186306037 13.611487681072504 1.5908455935936558 14.997558890185616 1.648193359375 16.383544921875 C1.7303142099299293 18.37658226012522 1.8047121496188083 20.36993308642596 1.87890625 22.36328125 C1.9260375976562614 23.56251220703126 1.9731689453125227 24.761743164062494 2.021728515625 25.997314453125 C2 29 2 29 1 32 C0.7034609137162988 34.31053371396072 0.4945431513879157 36.62184322865659 0.28125 38.94140625 C0 41 0 41 -1 43 C-1.329999999999984 43.99000000000001 -1.660000000000025 44.97999999999999 -2 46 C-2.6599679040238016 47.66933058076603 -3.3255886901856684 49.33645210245791 -4 51 C-5.098953975376958 47.36375522853206 -4.6857384983442785 44.52268220004089 -4.1875 40.7734375 C-3.8802461846062215 36.2286414806336 -4.40134489021159 31.75897271374535 -4.84375 27.234375 C-4.9883039049109925 24.242109168342154 -4.7379323198496195 21.88661760411759 -4 19 C-3.339999999999975 19 -2.680000000000007 19 -2 19 C-2 14.710000000000008 -2 10.419999999999987 -2 6 C-1.670000000000016 6 -1.339999999999975 6 -1 6 C-0.6700000000000159 4.02000000000001 -0.339999999999975 2.039999999999992 0 0 Z " fill="#E6E3D5" transform="translate(292,139)"/>
<path d="M0 0 C1.6666666666666856 1.6666666666666714 3.3333333333333144 3.3333333333333286 5 5 C5.660000000000025 5 6.319999999999993 5 7 5 C7 5.659999999999997 7 6.319999999999993 7 7 C7.660000000000025 7 8.319999999999993 7 9 7 C11.660380989164594 12.562614795525974 12.96232948774616 17.93267947540977 14 24 C11 21 8 18 5 15 C4.670000000000016 15.659999999999997 4.339999999999975 16.319999999999993 4 17 C4 16.340000000000003 4 15.680000000000007 4 15 C2.3500000000000227 15.329999999999998 0.6999999999999886 15.659999999999997 -1 16 C-1.329999999999984 14.680000000000007 -1.660000000000025 13.36 -2 12 C-1.339999999999975 12 -0.6800000000000068 12 0 12 C0 12.659999999999997 0 13.319999999999993 0 14 C0.9900000000000091 14 1.9800000000000182 14 3 14 C2.339999999999975 12.349999999999994 1.6800000000000068 10.700000000000003 1 9 C0.339999999999975 9 -0.3199999999999932 9 -1 9 C-1 8.340000000000003 -1 7.680000000000007 -1 7 C-1.660000000000025 7 -2.319999999999993 7 -3 7 C-3 5.349999999999994 -3 3.700000000000003 -3 2 C-2.339999999999975 2 -1.6800000000000068 2 -1 2 C-1 2.6599999999999966 -1 3.319999999999993 -1 4 C-0.339999999999975 4 0.3199999999999932 4 1 4 C0.6700000000000159 2.680000000000007 0.339999999999975 1.3599999999999994 0 0 Z " fill="#F0E8BB" transform="translate(269,86)"/>
<path d="M0 0 C2.875 0.5 2.875 0.5 6 2 C7.182758523547136 4.683109613602284 7.527117563761578 7.068128895321792 8 10 C9.319999999999993 7.689999999999998 10.639999999999986 5.3799999999999955 12 3 C13.39353608709473 7.180608261284249 11.752282934797961 9.07488622605257 10 13 C10 13.990000000000009 10 14.97999999999999 10 16 C8.680000000000007 16 7.360000000000014 16 6 16 C5.670000000000016 16.659999999999997 5.339999999999975 17.319999999999993 5 18 C4.670000000000016 15.689999999999998 4.339999999999975 13.379999999999995 4 11 C2.680000000000007 11 1.3600000000000136 11 0 11 C0 7.3700000000000045 0 3.740000000000009 0 0 Z " fill="#F9F6E7" transform="translate(266,165)"/>
<path d="M0 0 C0.9900000000000091 0 1.9799999999999898 0 3 0 C3.990000000000009 1.980000000000004 4.980000000000018 3.9599999999999937 6 6 C5.670000000000016 5.010000000000005 5.339999999999975 4.019999999999996 5 3 C6.319999999999993 3.6599999999999966 7.639999999999986 4.319999999999993 9 5 C9 7.310000000000002 9 9.620000000000005 9 12 C9.660000000000025 12 10.319999999999993 12 11 12 C11 12.659999999999997 11 13.319999999999993 11 14 C10.339999999999975 14 9.680000000000007 14 9 14 C9.329999999999984 15.980000000000004 9.660000000000025 17.960000000000008 10 20 C10.660000000000025 20 11.319999999999993 20 12 20 C12 20.989999999999995 12 21.980000000000004 12 23 C9.689999999999998 22.67 7.3799999999999955 22.340000000000003 5 22 C4.670000000000016 19.689999999999998 4.339999999999975 17.379999999999995 4 15 C5.319999999999993 14.670000000000002 6.639999999999986 14.340000000000003 8 14 C7.339999999999975 12.019999999999996 6.680000000000007 10.039999999999992 6 8 C5.339999999999975 8 4.680000000000007 8 4 8 C4.660000000000025 9.319999999999993 5.319999999999993 10.64 6 12 C3 11 3 11 1 8 C0.46083854021637194 5.339797703143063 0.26629902007292117 2.707373370741408 0 0 Z " fill="#EEE5B2" transform="translate(254,78)"/>
<path d="M0 0 C0.660000000000025 0.3300000000000125 1.3199999999999932 0.6599999999999966 2 1 C2.625 3.5625 2.625 3.5625 3 6 C3.990000000000009 5.340000000000003 4.980000000000018 4.680000000000007 6 4 C5.670000000000016 6.639999999999986 5.339999999999975 9.280000000000001 5 12 C5.660000000000025 12 6.319999999999993 12 7 12 C6.339999999999975 13.650000000000006 5.680000000000007 15.300000000000011 5 17 C3.680000000000007 17 2.3600000000000136 17 1 17 C0.6700000000000159 16.340000000000003 0.339999999999975 15.680000000000007 0 15 C-1.3199999999999932 16.97999999999999 -2.6399999999999864 18.960000000000008 -4 21 C-5 19 -5 19 -4.51171875 17.1875 C-4.239726562499982 16.46562499999999 -3.9677343750000205 15.743750000000006 -3.6875 15 C-1.9424315015961042 10.07698565817256 -0.9111829554647102 5.134783949030492 0 0 Z " fill="#FAF8ED" transform="translate(264,180)"/>
<path d="M0 0 C1.3199999999999932 0.3299999999999841 2.6399999999999864 0.660000000000025 4 1 C2.839111326156228 4.482666021531315 2.202351315391013 4.7874368541317835 -0.82421875 6.62890625 C-1.215126953125008 6.867705078125027 -1.215126953125008 6.867705078125027 -3.193359375 8.076171875 C-4.016425781250007 8.566660156250009 -4.839492187500014 9.057148437500018 -5.6875 9.5625 C-6.49123046874999 10.056855468749973 -7.294960937500008 10.551210937500002 -8.123046875 11.060546875 C-12.3191202177795 13.596031912051558 -16.23084652166264 15.697920940486256 -21 17 C-21 16.00999999999999 -21 15.019999999999982 -21 14 C-20.030624999999986 13.731875000000002 -19.06125 13.463750000000005 -18.0625 13.1875 C-17.051874999999995 12.795624999999973 -16.04124999999999 12.403750000000002 -15 12 C-14.669999999999987 11.009999999999991 -14.340000000000003 10.019999999999982 -14 9 C-12 8.333333333333314 -10 7.666666666666686 -8 7 C-7.6699999999999875 6.009999999999991 -7.340000000000003 5.019999999999982 -7 4 C-6.216250000000002 3.8968750000000227 -5.4325000000000045 3.7937499999999886 -4.625 3.6875 C-2 3 -2 3 0 0 Z " fill="#E9E8E1" transform="translate(233,264)"/>
<path d="M0 0 C-3.855247758757855 4.900259971754451 -7.636238899184377 8.761502731582993 -13 12 C-13.990000000000009 11.670000000000016 -14.97999999999999 11.339999999999975 -16 11 C-16 9.680000000000007 -16 8.360000000000014 -16 7 C-13.8125 5.5 -13.8125 5.5 -11 4 C-10.597812500000003 3.6390625000000227 -10.597812500000003 3.6390625000000227 -8.5625 1.8125 C-5.466846252064158 -0.377108748539996 -3.710430481205549 -0.3451563238330664 0 0 Z " fill="#EDECE7" transform="translate(251,254)"/>
<path d="M0 0 C0.660000000000025 0 1.3199999999999932 0 2 0 C1.6917018180557761 3.853727274303111 1.3724161529466414 6.447796738734269 -0.8125 9.6875 C-3.468533703248511 13.709493893490617 -4.624331194648448 17.69246051392932 -5.97265625 22.29296875 C-6.986880807228829 24.96543117646229 -7.73939208847753 26.291332721420673 -10 28 C-10.660000000000025 28 -11.319999999999993 28 -12 28 C-11.611842633254241 24.603623040974384 -11.066314339212795 23.08191771314523 -8.875 20.375 C-8.256250000000023 19.591250000000002 -7.637499999999989 18.807500000000005 -7 18 C-7.329999999999984 17.00999999999999 -7.660000000000025 16.02000000000001 -8 15 C-7.339999999999975 15 -6.680000000000007 15 -6 15 C-6 14.009999999999991 -6 13.02000000000001 -6 12 C-5.339999999999975 12 -4.680000000000007 12 -4 12 C-3.7950390624999955 11.301328124999998 -3.590078124999991 10.602656249999995 -3.37890625 9.8828125 C-3.1094921874999955 8.972734374999987 -2.840078124999991 8.062656250000003 -2.5625 7.125 C-2.295664062500009 6.220078124999986 -2.028828125000018 5.315156250000001 -1.75390625 4.3828125 C-1 2 -1 2 0 0 Z " fill="#E8DB96" transform="translate(277,200)"/>
<path d="M0 0 C0.660000000000025 1.3199999999999932 1.3199999999999932 2.6399999999999864 2 4 C1.339999999999975 4.659999999999997 0.6800000000000068 5.319999999999993 0 6 C-0.3299999999999841 6.4950000000000045 -0.3299999999999841 6.4950000000000045 -2 9 C-3.1474815540537975 10.391050751848212 -4.315747518491662 11.765116853861173 -5.5 13.125 C-6.108437500000008 13.828828125000001 -6.7168749999999875 14.532656250000002 -7.34375 15.2578125 C-9 17 -9 17 -11 18 C-11.659999999999997 17.340000000000003 -12.319999999999993 16.680000000000007 -13 16 C-11.546820612925558 12.609248096826292 -9.5869968810878 10.5869968810878 -7 8 C-6.6699999999999875 7.009999999999991 -6.340000000000003 6.02000000000001 -6 5 C-3 3 -3 3 0 3 C0 2.009999999999991 0 1.0200000000000102 0 0 Z " fill="#EDECE5" transform="translate(262,236)"/>
<path d="M0 0 C2.4680004686068173 1.1517335520165162 4.047835654825292 2.0478356548252847 6 4 C6.338709677419359 10.322580645161281 6.338709677419359 10.322580645161281 5 13 C4.340000000000003 13 3.680000000000007 13 3 13 C1.4921875 11.1015625 1.4921875 11.1015625 -0.125 8.625 C-0.6638281250000091 7.812890625000001 -1.2026562499999898 7.000781250000003 -1.7578125 6.1640625 C-3 4 -3 4 -3 2 C-2.009999999999991 2 -1.0200000000000102 2 0 2 C0 1.3400000000000034 0 0.6799999999999997 0 0 Z " fill="#F3ECC8" transform="translate(241,55)"/>
<path d="M0 0 C0.3299999999999841 0.9900000000000091 0.660000000000025 1.9799999999999898 1 3 C0.339999999999975 3 -0.3199999999999932 3 -1 3 C-0.339999999999975 4.319999999999993 0.3199999999999932 5.639999999999986 1 7 C0.009999999999990905 7.3300000000000125 -0.9800000000000182 7.659999999999997 -2 8 C-3.125 10.375 -3.125 10.375 -4 13 C-4.329999999999984 13.990000000000009 -4.660000000000025 14.97999999999999 -5 16 C-6.319999999999993 15.669999999999987 -7.639999999999986 15.340000000000003 -9 15 C-7.431817280932648 9.547000999606723 -5.961897833387127 5.235132166724213 -2 1 C-1.339999999999975 1.3300000000000125 -0.6800000000000068 1.6599999999999966 0 2 C0 1.3400000000000034 0 0.6800000000000068 0 0 Z " fill="#F1EAC0" transform="translate(270,212)"/>
<path d="M0 0 C0.3299999999999841 0 0.660000000000025 0 1 0 C0.8584586394702001 2.562802081082509 0.7119143819971328 5.1251548520190795 0.5625 7.6875 C0.5428417968749955 8.04811523437499 0.5428417968749955 8.04811523437499 0.443359375 9.873046875 C-0.140625 19.7109375 -0.140625 19.7109375 -3 24 C-3.660000000000025 24.329999999999984 -4.319999999999993 24.659999999999997 -5 25 C-4.220956719817764 10.218678815489739 -4.220956719817764 10.218678815489739 -2 4 C-1.339999999999975 4 -0.6800000000000068 4 0 4 C0 2.680000000000007 0 1.3600000000000136 0 0 Z " fill="#EFEDE1" transform="translate(288,177)"/>
<path d="M0 0 C0.9900000000000091 0 1.9799999999999898 0 3 0 C3.990000000000009 1.980000000000004 4.980000000000018 3.9599999999999937 6 6 C5.670000000000016 5.010000000000005 5.339999999999975 4.019999999999996 5 3 C6.319999999999993 3.6599999999999966 7.639999999999986 4.319999999999993 9 5 C8.670000000000016 6.650000000000006 8.339999999999975 8.299999999999997 8 10 C7.339999999999975 10 6.680000000000007 10 6 10 C6 9.340000000000003 6 8.680000000000007 6 8 C5.339999999999975 8 4.680000000000007 8 4 8 C4.660000000000025 9.319999999999993 5.319999999999993 10.64 6 12 C3 11 3 11 1 8 C0.46083854021637194 5.339797703143063 0.26629902007292117 2.707373370741408 0 0 Z " fill="#E8DB94" transform="translate(254,78)"/>
<path d="M0 0 C1.1550000000000011 0.495000000000001 1.1550000000000011 0.495000000000001 7 3 C6.6699999999999875 3.990000000000002 6.340000000000003 4.98 6 6 C6.659999999999997 6 7.319999999999993 6 8 6 C8.330000000000013 5.34 8.659999999999997 4.68 9 4 C9.659999999999997 4.66 10.319999999999993 5.32 11 6 C10.669999999999987 6.66 10.340000000000003 7.32 10 8 C6.51527716658444 8.426700755112108 3.981315497384884 8.647895560049488 0.9765625 6.6640625 C-0.7489674662647019 5.163907876267828 -2.400597676384365 3.633432160288301 -4 2 C-3.3400000000000034 1.6700000000000017 -2.680000000000007 1.3399999999999999 -2 1 C-1.3400000000000034 1.3299999999999983 -0.6800000000000068 1.6600000000000001 0 2 C0 1.3399999999999999 0 0.6799999999999997 0 0 Z " fill="#F2F0E7" transform="translate(207,21)"/>
<path d="M0 0 C2 1.5625 2 1.5625 4 4 C4.375 7.625 4.375 7.625 4 11 C3.3400000000000034 11.659999999999997 2.680000000000007 12.32 2 13 C-0.0625 10.8125 -0.0625 10.8125 -2 8 C-1.6875 5.3125 -1.6875 5.3125 -1 3 C-1.3300000000000125 2.3400000000000034 -1.6599999999999966 1.6799999999999997 -2 1 C-1.3400000000000034 0.6700000000000017 -0.6800000000000068 0.3400000000000034 0 0 Z " fill="#F6F1D6" transform="translate(235,44)"/>
<path d="M0 0 C0.660000000000025 0.3300000000000125 1.3199999999999932 0.6599999999999966 2 1 C2 1.6599999999999966 2 2.319999999999993 2 3 C2.660000000000025 3 3.319999999999993 3 4 3 C3.339999999999975 4.650000000000006 2.680000000000007 6.300000000000011 2 8 C0.6800000000000068 8 -0.6399999999999864 8 -2 8 C-2.6875 6.25 -2.6875 6.25 -3 4 C-1.5625 1.75 -1.5625 1.75 0 0 Z M-5 5 C-4.339999999999975 5.3300000000000125 -3.680000000000007 5.659999999999997 -3 6 C-3.660000000000025 6.990000000000009 -3.660000000000025 6.990000000000009 -7 12 C-7.329999999999984 11.340000000000003 -7.660000000000025 10.680000000000007 -8 10 C-6.5625 7.375 -6.5625 7.375 -5 5 Z " fill="#F8F4E0" transform="translate(267,189)"/>
<path d="M0 0 C0.660000000000025 0 1.3199999999999932 0 2 0 C1.4235751605485234 3.890867666297339 -0.28168186828514763 6.206173031293048 -3 9 C-5.75 9.8125 -5.75 9.8125 -8 10 C-7.6699999999999875 8.349999999999994 -7.340000000000003 6.699999999999989 -7 5 C-6.030624999999986 4.731875000000002 -5.061249999999973 4.4637500000000045 -4.0625 4.1875 C-3.0518749999999955 3.795625000000001 -2.041249999999991 3.4037500000000023 -1 3 C-0.6700000000000159 2.009999999999991 -0.339999999999975 1.0200000000000102 0 0 Z " fill="#F8F4DF" transform="translate(263,215)"/>
<path d="M0 0 C2.125 0.9375 2.125 0.9375 4 2 C0.2941134566204653 6.058828118939459 -3.650142821004067 6.42680101653616 -9 7 C-9.990000000000009 6.670000000000016 -10.97999999999999 6.339999999999975 -12 6 C-10.349999999999994 5.5049999999999955 -10.349999999999994 5.5049999999999955 -2 3 C-2 2.339999999999975 -2 1.6800000000000068 -2 1 C-1.3400000000000034 0.6700000000000159 -0.6800000000000068 0.339999999999975 0 0 Z " fill="#E2E0D5" transform="translate(202,281)"/>
<path d="M0 0 C2.727272727272748 4.0909090909090935 2.727272727272748 4.0909090909090935 3 7 C1.5625 8.75 1.5625 8.75 0 10 C-1.3199999999999932 9.340000000000003 -2.6399999999999864 8.680000000000007 -4 8 C-2.25 2.25 -2.25 2.25 0 0 Z " fill="#F0E7BA" transform="translate(272,135)"/>
<path d="M0 0 C0.660000000000025 0.3299999999999983 1.3199999999999932 0.6599999999999966 2 1 C2 2.319999999999993 2 3.6400000000000006 2 5 C1.339999999999975 5 0.6800000000000068 5 0 5 C0 5.659999999999997 0 6.319999999999993 0 7 C0.9900000000000091 6.670000000000002 1.9800000000000182 6.340000000000003 3 6 C3.329999999999984 6.989999999999995 3.660000000000025 7.980000000000004 4 9 C-0.03174805634802169 8.725108087067184 -1.5689463114716204 8.465084242885908 -4.375 5.4375 C-4.643124999999998 5.035312500000003 -4.643124999999998 5.035312500000003 -6 3 C-5.670000000000016 2.3400000000000034 -5.339999999999975 1.6800000000000068 -5 1 C-4.339999999999975 1.6599999999999966 -3.680000000000007 2.319999999999993 -3 3 C-2.009999999999991 2.010000000000005 -1.0199999999999818 1.019999999999996 0 0 Z " fill="#F5F0D4" transform="translate(268,77)"/>
<path d="M0 0 C0.9900000000000091 0.3299999999999983 1.9800000000000182 0.6599999999999966 3 1 C4.2232907363784875 4.669872209135448 3.8802100551503145 7.339678220957239 3.5625 11.1875 C3.4606640624999727 12.459804687499997 3.3588281250000023 13.732109374999993 3.25390625 15.04296875 C3.1701171875000114 16.01878906249999 3.0863281250000227 16.99460937500001 3 18 C2.670000000000016 18 2.339999999999975 18 2 18 C1.339999999999975 12.060000000000002 0.6800000000000068 6.1200000000000045 0 0 Z " fill="#F5F3E3" transform="translate(264,116)"/>
<path d="M0 0 C-0.47932469600198147 4.313922264017862 -1.7457984993990294 6.165695467218484 -5 9 C-6.1875 6.75 -6.1875 6.75 -7 4 C-5.094437383611137 0.08301017742283534 -4.5155278194423545 0 0 0 Z " fill="#EFEFE9" transform="translate(270,229)"/>
<path d="M0 0 C2 3 2 3 2.9375 5.4375 C3.998028955596965 7.995246304675021 5.258712728370085 9.862965621181488 7 12 C6.339999999999975 13.319999999999993 5.680000000000007 14.64 5 16 C3.964558256559826 14.091185655571195 2.9470991540854357 12.172607956299345 1.9375 10.25 C1.3690234375000045 9.182656250000008 0.8005468750000091 8.115312500000002 0.21484375 7.015625 C-1.0104480564306186 3.9740646316256374 -1.2534860717932474 2.9510643518789124 0 0 Z " fill="#E6E5DA" transform="translate(276,83)"/>
<path d="M0 0 C3.5171630303051984 3.517163030305227 3.546761634446284 5.1956733251304 4 10 C3.339999999999975 10.330000000000013 3.339999999999975 10.330000000000013 0 12 C0 8.039999999999992 0 4.0800000000000125 0 0 Z " fill="#F5F3E4" transform="translate(267,146)"/>
<path d="M0 0 C3.35620271167258 1.3887735358645088 5.072987282930512 2.916779652688817 7 6 C7 6.659999999999997 7 7.319999999999993 7 8 C7.659999999999997 8.329999999999998 8.319999999999993 8.659999999999997 9 9 C8.669999999999987 9.659999999999997 8.340000000000003 10.319999999999993 8 11 C7.340000000000003 11 6.680000000000007 11 6 11 C4.4921875 9.1015625 4.4921875 9.1015625 2.875 6.625 C2.336171874999991 5.812890625000001 1.7973437500000102 5.000781250000003 1.2421875 4.1640625 C0 2 0 2 0 0 Z " fill="#E1D594" transform="translate(238,57)"/>
<path d="M0 0 C0.6599999999999966 0.3299999999999841 1.3199999999999932 0.660000000000025 2 1 C1.6699999999999875 2.6499999999999773 1.3400000000000034 4.300000000000011 1 6 C-0.6500000000000057 6.329999999999984 -2.3000000000000114 6.660000000000025 -4 7 C-4.3300000000000125 5.680000000000007 -4.659999999999997 4.360000000000014 -5 3 C-2.625 1.4375 -2.625 1.4375 0 0 Z " fill="#F3F2EE" transform="translate(239,259)"/>
<path d="M0 0 C0.9900000000000091 0 1.9800000000000182 0 3 0 C2.3900910929902466 3.5578019575569897 1.4216319017540968 6.682858895907032 0 10 C-0.9900000000000091 9.669999999999987 -1.9800000000000182 9.340000000000003 -3 9 C-2.009999999999991 6.030000000000001 -1.0199999999999818 3.0600000000000023 0 0 Z " fill="#F9F6E4" transform="translate(278,203)"/>
<path d="M0 0 C2.6399999999999864 0.3299999999999983 5.279999999999973 0.6599999999999966 8 1 C8 3 8 5 8 7 C4.204786899512413 5.509023424808447 2.3895726919165554 3.2429915104581966 0 0 Z " fill="#EEE5B3" transform="translate(251,62)"/>
<path d="M0 0 C0.3299999999999841 0.6599999999999966 0.660000000000025 1.3199999999999932 1 2 C2.9788896071968907 2.7269390393784647 4.979545575313296 3.398162511795448 7 4 C7 4.989999999999995 7 5.980000000000004 7 7 C4.689999999999998 6.670000000000002 2.3799999999999955 6.340000000000003 0 6 C0 4.019999999999996 0 2.0400000000000063 0 0 Z " fill="#E7DB97" transform="translate(259,94)"/>
<path d="M0 0 C2.175530600634204 2.175530600634204 2.718795529744682 3.5597389151927814 3.6875 6.4375 C3.959492187500018 7.219960937500005 4.2314843749999795 8.002421874999996 4.51171875 8.80859375 C5 11 5 11 4 14 C3.670000000000016 12.349999999999994 3.339999999999975 10.700000000000003 3 9 C2.339999999999975 9 1.6800000000000068 9 1 9 C0.6700000000000159 6.030000000000001 0.339999999999975 3.0600000000000023 0 0 Z " fill="#E2E0D2" transform="translate(283,102)"/>
<path d="M0 0 C1.2500905400825673 2.5001810801650777 0.8673344913093501 3.3393527822137514 0.1875 6 C0.016054687500002274 6.7012499999999875 -0.15539062499999545 7.402500000000003 -0.33203125 8.125 C-1 10 -1 10 -3 12 C-4.3255411788741185 8.023376463377673 -3.3476599443336568 5.901120891492127 -2 2 C-1.339999999999975 1.3400000000000034 -0.6800000000000068 0.6800000000000068 0 0 Z " fill="#E3E1D7" transform="translate(280,207)"/>
<path d="M0 0 C2 0 2 0 3.6875 1.25 C4.120625000000018 1.8275000000000006 4.5537499999999795 2.405000000000001 5 3 C4.6875 5 4.6875 5 4 7 C4 7.989999999999995 4 8.980000000000004 4 10 C1.8090234843166968 6.665905302221034 0.5654583696236841 3.958208587365874 0 0 Z " fill="#F0E7B9" transform="translate(256,75)"/>
<path d="M0 0 C1.5 1.375 1.5 1.375 3 3 C3 3.6599999999999966 3 4.319999999999993 3 5 C3.6599999999999966 5 4.319999999999993 5 5 5 C5.3300000000000125 5.989999999999995 5.659999999999997 6.980000000000004 6 8 C4.349999999999994 7.670000000000002 2.6999999999999886 7.340000000000003 1 7 C0.3400000000000034 5.019999999999996 -0.3199999999999932 3.0400000000000063 -1 1 C-0.6699999999999875 0.6700000000000017 -0.3400000000000034 0.3400000000000034 0 0 Z " fill="#F0E7B9" transform="translate(247,65)"/>
<path d="M0 0 C0.9900000000000091 0 1.9800000000000182 0 3 0 C1.375 5.75 1.375 5.75 -2 8 C-1.125 2.25 -1.125 2.25 0 0 Z " fill="#F2EBC4" transform="translate(274,211)"/>
<path d="M0 0 C0.9900000000000091 0.3299999999999983 1.9799999999999898 0.6599999999999966 3 1 C3 1.9899999999999949 3 2.980000000000004 3 4 C3.990000000000009 4 4.97999999999999 4 6 4 C5.6699999999999875 5.650000000000006 5.340000000000003 7.299999999999997 5 9 C2.675277951711024 6.146932031645335 1.2491741996839494 3.4592516298939984 0 0 Z " fill="#F4F0DB" transform="translate(245,68)"/>
<path d="M0 0 C1 3 1 3 0 6 C0.660000000000025 6 1.3199999999999932 6 2 6 C2 6.659999999999997 2 7.319999999999993 2 8 C0.6800000000000068 7.340000000000003 -0.6399999999999864 6.680000000000007 -2 6 C-2 4.349999999999994 -2 2.6999999999999886 -2 1 C-1.339999999999975 0.6699999999999875 -0.6800000000000068 0.3400000000000034 0 0 Z " fill="#F8F6EB" transform="translate(283,196)"/>
<path d="M0 0 C0.3299999999999841 0.6599999999999966 0.660000000000025 1.3199999999999932 1 2 C1.660000000000025 2.3299999999999983 2.319999999999993 2.6599999999999966 3 3 C3.329999999999984 3.989999999999995 3.660000000000025 4.980000000000004 4 6 C2.3500000000000227 5.670000000000002 0.6999999999999886 5.340000000000003 -1 5 C-1.329999999999984 3.680000000000007 -1.660000000000025 2.3599999999999994 -2 1 C-1.339999999999975 0.6700000000000017 -0.6800000000000068 0.3400000000000034 0 0 Z " fill="#EDE5B9" transform="translate(261,99)"/>
<path d="M0 0 C3.1611577555191275 1.3698350273916233 3.992709197315321 1.9890637959729744 6 5 C3 5 3 5 0.8125 3 C0.21437499999998977 2.3400000000000034 -0.38374999999999204 1.6799999999999997 -1 1 C-0.6699999999999875 0.6700000000000017 -0.3400000000000034 0.3400000000000034 0 0 Z " fill="#EBEAE3" transform="translate(239,39)"/>
<path d="M0 0 C3 1 3 1 4 3 C4.039992002399174 4.999600119960007 4.043467990818442 7.000472422352175 4 9 C2 6 2 6 2 3 C1.339999999999975 3 0.6800000000000068 3 0 3 C0 2.010000000000005 0 1.019999999999996 0 0 Z " fill="#EDE2AB" transform="translate(275,94)"/>
<path d="M0 0 C2 1 2 1 4 4 C4.659999999999997 4 5.319999999999993 4 6 4 C5.340000000000003 5.32 4.680000000000007 6.640000000000001 4 8 C0 3.375 0 3.375 0 0 Z " fill="#ECE5C0" transform="translate(233,49)"/>
</svg>
