<?xml version="1.0" encoding="UTF-8"?>
<!-- Generator: visioncortex VTracer 0.6.12 -->
<svg version="1.1" xmlns="http://www.w3.org/2000/svg" width="300" height="303">
<path d="M0 0 C11.030361013072536 5.643283721235758 21.31960202270102 12.046190006418136 30.75 20.125 C31.582734375 20.823671875000002 32.41546875 21.522343749999997 33.2734375 22.2421875 C39.53306718674179 27.654359629152147 44.71989949233347 33.5675780654602 49.75 40.125 C50.41773437500001 40.9770703125 51.08546875000002 41.829140625 51.7734375 42.70703125 C75.65676696561172 74.1896019092155 85.6183948757199 113.32397600761485 80.92724609375 152.4287109375 C75.49228631573664 191.67392250725106 55.276720466039706 227.00268756644837 23.75 251.125 C6.782234913638433 263.8962305100727 -23.83055745929039 281.7380977923051 -46.0078125 278.75390625 C-48.25000000000003 278.125 -48.25000000000003 278.125 -50.25 277.125 C-49.08735663736772 271.19551885057535 -47.23852588064523 268.67950439190065 -42.25 265.125 C-40.090039692765714 263.8480589615739 -37.90070495464889 262.6197566443721 -35.6875 261.4375 C-24.3719146706064 255.1837531746218 -14.639485964936256 246.97794390979703 -5.25 238.125 C-4.513945312499999 237.45339843750003 -3.7778906249999977 236.781796875 -3.01953125 236.08984375 C18.653304044700093 215.5677784709477 31.463346137798 186.862068028932 37.75 158.125 C37.996210937499995 157.018984375 38.24242187499999 155.91296875 38.49609375 154.7734375 C45.08184460785441 118.16574652461622 35.683610357589885 79.22836778809176 15.5625 48.3125 C14.31783471299127 46.564403021701125 13.048264994009457 44.83366694459508 11.75 43.125 C11.10546875 42.2729296875 10.4609375 41.420859375 9.796875 40.54296875 C-0.9783132115785804 26.73460747886287 -12.784633636251414 15.039222174030293 -27.412109375 5.41064453125 C-32.68440537774259 1.8556176097331303 -36.33658110608448 -1.3735609066571506 -38 -7.75 C-38.04124999999999 -8.100625 -38.04124999999999 -8.100625 -38.25 -9.875 C-26.331653167458228 -13.847782277513922 -10.53402567874906 -5.235068317059058 0 0 Z " fill="#FBFBFA" transform="translate(216.25,18.875)"/>
<path d="M0 0 C0.6599999999999966 0.3299999999999983 1.3199999999999932 0.6599999999999966 2 1 C1.6699999999999875 2.3200000000000003 1.3400000000000034 3.6400000000000006 1 5 C1.990000000000009 5.659999999999997 2.9799999999999898 6.32 4 7 C5.125 3.25 5.125 3.25 4 1 C4.990000000000009 0.6700000000000017 5.97999999999999 0.3400000000000034 7 0 C7.680624999999992 0.9487499999999969 8.361250000000013 1.8975000000000009 9.0625 2.875 C11.986679813655854 6.437793795948508 14.549529897069647 7.127358803346986 19 8 C19 8.990000000000002 19 9.980000000000004 19 11 C19.88945312499999 11.217851562500002 20.778906250000006 11.435703125000003 21.6953125 11.66015625 C25.663698289905966 13.269088077349586 27.239531119547166 15.09657732831485 29.875 18.4375 C30.26558593750002 18.921542968750003 30.26558593750002 18.921542968750003 32.2421875 21.37109375 C34 24 34 24 34 27 C34.99000000000001 27.33 35.98000000000002 27.659999999999997 37 28 C39 31 39 31 39 34 C38.34000000000003 34 37.68000000000001 34 37 34 C36.670000000000016 34.99000000000001 36.34000000000003 35.97999999999999 36 37 C35.670000000000016 37 35.34000000000003 37 35 37 C35.47050781249999 37.38671875 35.94101562499998 37.7734375 36.42578125 38.171875 C39.7235653458863 40.93026997875374 42.45450751947311 43.51669450033165 45 47 C45.65999999999997 47 46.31999999999999 47 47 47 C47 47.66 47 48.31999999999999 47 49 C47.65999999999997 49 48.31999999999999 49 49 49 C51.02055843067848 53.39251832756187 52.40895234516745 57.15340923037316 53 62 C53.65999999999997 60.68000000000001 54.31999999999999 59.36 55 58 C55.698769304692405 59.76641682602498 56.38366583411971 61.538326637648396 57.0625 63.3125 C57.44535156249998 64.2986328125 57.828203125000016 65.284765625 58.22265625 66.30078125 C59 69 59 69 58 72 C57.670000000000016 71.34 57.34000000000003 70.68 57 70 C56.979375000000005 71.299375 56.95875000000001 72.59875 56.9375 73.9375 C56.925898437499995 74.6683984375 56.91429687499999 75.399296875 56.90234375 76.15234375 C57 78 57 78 58 79 C58.449400487437 82.27420355132669 58.818207228981805 85.54747604044343 59.162109375 88.833984375 C59.64933953265012 93.12398649479724 60.467711455832216 96.92885679687635 62 101 C62.329999999999984 99.01999999999998 62.65999999999997 97.04000000000002 63 95 C63.329999999999984 95 63.65999999999997 95 64 95 C64.16780394880175 99.07485824879393 64.32834317613305 103.14993160344997 64.482177734375 107.225341796875 C64.5355222186306 108.6114876810725 64.59084559359366 109.99755889018562 64.648193359375 111.383544921875 C64.73031420992993 113.37658226012522 64.80471214961881 115.36993308642596 64.87890625 117.36328125 C64.9024719238281 117.96289672851563 64.9024719238281 117.96289672851563 65.021728515625 120.997314453125 C65 124 65 124 64 127 C63.7034609137163 129.31053371396064 63.494543151387916 131.62184322865664 63.28125 133.94140625 C63 136 63 136 62 138 C61.670000000000016 138.99 61.34000000000003 139.98 61 141 C60.82468749999998 141.391875 60.82468749999998 141.391875 59.9375 143.375 C59 146 59 146 59 148.5625 C59 151.3053869856806 58.37076000823447 152.6616446918353 57 155 C56.670000000000016 155.66 56.34000000000003 156.32 56 157 C55.34000000000003 157.33 54.68000000000001 157.66 54 158 C54 156.35 54 154.7 54 153 C53.34000000000003 153 52.68000000000001 153 52 153 C52.329999999999984 153.928125 52.65999999999997 154.85625 53 155.8125 C54 159 54 159 54 162 C53.34000000000003 162.33 52.68000000000001 162.66 52 163 C52 161.68 52 160.36 52 159 C51.00999999999999 159 50.01999999999998 159 49 159 C48.91750000000002 159.66 48.83499999999998 160.32 48.75 161 C47.937620478179554 164.24951808728176 46.660135661044876 166.79171038971643 45.10546875 169.73828125 C43.50034321259517 173.02226600673995 42.321594507034376 176.44754441274904 41.125 179.8984375 C39.77811600223845 182.41449163470736 38.62525470451419 183.00459092453838 36 184 C36.38815736674576 180.60362304097436 36.933685660787205 179.08191771314523 39.125 176.375 C39.74374999999998 175.59125 40.36250000000001 174.8075 41 174 C40.670000000000016 173.01 40.34000000000003 172.02 40 171 C40.65999999999997 171 41.31999999999999 171 42 171 C42 170.01 42 169.02 42 168 C42.65999999999997 168 43.31999999999999 168 44 168 C44 166.35 44 164.7 44 163 C43.670000000000016 163 43.34000000000003 163 43 163 C42.7289797320131 158.92737110808847 43.47271499280134 156.37529907023216 45.3125 152.75 C45.7417578125 151.87859375 46.171015624999995 151.0071875 46.61328125 150.109375 C48 148 48 148 51 147 C51 146.01 51 145.02 51 144 C49 143 49 143 47 143 C46.34000000000003 143.66 45.68000000000001 144.32 45 145 C44.602871463979 141.5251253098164 44.7483846178211 140.32466500926307 46.9375 137.5 C47.61812500000002 136.675 48.298749999999984 135.85 49 135 C50.047013530750235 131.61734090065315 50.135174128603865 130.40552238581154 49 127 C49.495000000000005 126.236875 49.99000000000001 125.47375 50.5 124.6875 C52.38033396259772 121.31856831701248 51.93522973672077 119.65589806172662 51 116 C50.34000000000003 116 49.68000000000001 116 49 116 C49.329999999999984 113.69 49.65999999999997 111.38 50 109 C49.34000000000003 109 48.68000000000001 109 48 109 C47.670000000000016 108.00999999999999 47.34000000000003 107.01999999999998 47 106 C46.34000000000003 106.32999999999998 46.34000000000003 106.32999999999998 43 108 C42.670000000000016 106.68 42.34000000000003 105.36000000000001 42 104 C41.34000000000003 104 40.68000000000001 104 40 104 C40 103.34 40 102.68 40 102 C39.00999999999999 102.99000000000001 38.01999999999998 103.98000000000002 37 105 C36.00999999999999 104.67000000000002 35.01999999999998 104.34 34 104 C33.899775390624995 103.27111572265625 33.79955078124999 102.5422314453125 33.6962890625 101.791259765625 C29.225455532110345 69.61088939410715 22.804230010618255 38.05567115480147 1.6171875 12.25 C0 10 0 10 0 7 C-0.9900000000000091 6.670000000000002 -1.9799999999999898 6.340000000000003 -3 6 C-3 3 -3 3 -1.5 1.3125 C-1.2524999999999977 1.095937499999998 -1.2524999999999977 1.095937499999998 0 0 Z " fill="#F2EBC5" transform="translate(229,44)"/>
<path d="M0 0 C0.3299999999999841 0 0.6599999999999682 0 1 0 C1.0489843750000318 0.6380859374999943 1.0979687500000068 1.2761718749999886 1.1484375 1.93359375 C1.1858203125000273 2.3467382812499977 1.1858203125000273 2.3467382812499977 1.375 4.4375 C1.4098046875000136 4.849355468749991 1.4098046875000136 4.849355468749991 1.5859375 6.93359375 C1.6542578124999636 7.274550781250014 1.6542578124999636 7.274550781250014 2 9 C2.329999999999984 9.164999999999992 2.329999999999984 9.164999999999992 4 10 C4.329999999999984 9.009999999999991 4.659999999999968 8.02000000000001 5 7 C5.659999999999968 7 6.319999999999993 7 7 7 C7 7.659999999999997 7 8.319999999999993 7 9 C7.659999999999968 9 8.319999999999993 9 9 9 C9.164999999999964 9.659999999999997 9.164999999999964 9.659999999999997 10 13 C11.319999999999993 12.009999999999991 12.639999999999986 11.02000000000001 14 10 C14.164999999999964 10.659999999999997 14.164999999999964 10.659999999999997 15 14 C15.659999999999968 14 16.319999999999993 14 17 14 C17.164999999999964 14.495000000000005 17.164999999999964 14.495000000000005 18 17 C17.340000000000032 17 16.680000000000007 17 16 17 C16.47437500000001 17.536249999999995 16.948750000000018 18.07249999999999 17.4375 18.625 C19.357840643041982 21.543917777423758 19.857611799801475 23.511489095135687 20 27 C19 28.666666666666657 18 30.333333333333343 17 32 C17.16500000000002 32.99000000000001 17.329999999999984 33.97999999999999 17.5 35 C18 38 18 38 16.6875 40.75 C15 43 15 43 13 45 C13 45.99000000000001 13 46.97999999999999 13 48 C14.319999999999993 47.34 15.639999999999986 46.68000000000001 17 46 C17.75 48.75000000000003 17.75 48.75000000000003 18 52 C16.690260024501526 53.35651640319486 15.351978584453263 54.68557637622598 14 56 C12.774339888695067 58.93647735000147 11.863250775381346 61.93938361455696 11 65 C11.329999999999984 65 11.659999999999968 65 12 65 C12.125 70.75 12.125 70.75 11 73 C10.340000000000032 73 9.680000000000007 73 9 73 C9 73.99000000000001 9 74.98000000000002 9 76 C8.340000000000032 76 7.680000000000007 76 7 76 C7.659999999999968 77.32 8.319999999999993 78.63999999999999 9 80 C8.504999999999995 80.16499999999999 8.504999999999995 80.16499999999999 6 81 C4.875 83.37500000000006 4.875 83.37500000000006 4 86 C3.8350000000000364 86.495 3.8350000000000364 86.495 3 89 C7.2708196858417296 86.5245567426013 8.101890782363796 83.6564293214762 9.5625 79.0625 C10.937088366093803 74.77648840604849 12.148578447173065 71.48418082999916 15 68 C15.6875 65.74999999999994 15.6875 65.74999999999994 16 64 C16.99000000000001 64 17.980000000000018 64 19 64 C19.531769798974267 75.23097815433675 14.761640463853041 82.82793396865412 9 92 C8.009999999999991 92 7.019999999999982 92 6 92 C6 91.34 6 90.68 6 90 C5.009999999999991 90.99000000000001 4.019999999999982 91.98000000000002 3 93 C3.659999999999968 93 4.319999999999993 93 5 93 C5.329999999999984 93.99000000000001 5.659999999999968 94.98000000000002 6 96 C5.009999999999991 96.99000000000001 4.019999999999982 97.98000000000002 3 99 C2.340000000000032 98.00999999999999 1.6800000000000068 97.01999999999998 1 96 C0.34000000000003183 96.32999999999998 0.34000000000003183 96.32999999999998 -3 98 C-3 98.66 -3 99.32 -3 100 C-2.009999999999991 100 -1.0199999999999818 100 0 100 C0.16499999999996362 99.505 0.16499999999996362 99.505 1 97 C1.625 98.875 1.625 98.875 2 101 C1.3400000000000318 101.66 0.6800000000000068 102.32 0 103 C-0.6599999999999682 103.99000000000001 -1.3199999999999932 104.98000000000002 -2 106 C-4.249622042065198 108.74210686749024 -6.618688782683421 111.37201909483389 -9 114 C-9.282304687500016 114.3158203125 -9.282304687500016 114.3158203125 -10.7109375 115.9140625 C-14.926497658025568 120.38734249301405 -19.574934040039068 124.10056501856297 -24.5 127.75 C-25.116816406249995 128.20995361328124 -25.73363281249999 128.6699072265625 -26.369140625 129.143798828125 C-30.71270333927339 132.29196446488254 -35.1512960483511 134.70437467775912 -40 137 C-40.329999999999984 136.67000000000002 -40.329999999999984 136.67000000000002 -42 135 C-39.4721199282333 132.2012756348297 -37.795888664675175 130.54226980923931 -34 130 C-34 129.34000000000003 -34 128.68 -34 128 C-34.329999999999984 128.65999999999997 -34.66 129.32 -35 130 C-38.875 129.125 -38.875 129.125 -40 128 C-40 128.90750000000003 -40 129.815 -40 130.75 C-41 134 -41 134 -42.84765625 135.2890625 C-44.87305825656682 136.282116746606 -46.89684537871227 137.18556654756514 -49 138 C-47.349999999999994 137.66999999999996 -45.69999999999999 137.34000000000003 -44 137 C-45.37909662254316 140.4084408754046 -46.60563494108382 141.66737534555966 -49.9375 143.1875 C-50.62714843750001 143.5110546875 -51.316796874999994 143.834609375 -52.02734375 144.16796875 C-55.85555214325518 145.78263882477893 -59.69476267650353 146.58659350000664 -63.74609375 147.40234375 C-66.03895904912775 148.01033056242034 -67.90578657960305 148.9017606903651 -70 150 C-71.33333333333334 150.33333333333337 -72.66666666666666 150.66666666666663 -74 151 C-74.61875 151.37125000000003 -75.23750000000001 151.7425 -75.875 152.125 C-78.82595011807155 153.34009710744124 -80.94861675191066 152.6934961927476 -84 152 C-81 150 -81 150 -78 149 C-78.99000000000001 148.66999999999996 -79.97999999999999 148.34000000000003 -81 148 C-80.1401953125 147.46632812500002 -79.280390625 146.93265625000004 -78.39453125 146.3828125 C-71.3378087284938 141.95074845479758 -64.58331135944036 137.32944173555995 -58.089111328125 132.10009765625 C-54.198901376887164 129 -54.198901376887164 129 -52 129 C-51.896874999999994 128.7215625 -51.896874999999994 128.7215625 -51.375 127.3125 C-49.87273743590811 124.78596750584546 -48.10099818589097 123.46572185672875 -45.828125 121.65625 C-41.70620926573531 117.92186480485418 -38.417400094938984 113.36793522068359 -35 109 C-34.24203125 108.04609375000001 -33.48406249999999 107.0921875 -32.703125 106.109375 C-27.023308676628346 98.78437050020344 -22.410346904093217 91.12369075522346 -18 83 C-17.340000000000003 83 -16.680000000000007 83 -16 83 C-15.879230957031268 82.4745458984375 -15.75846191406248 81.949091796875 -15.634033203125 81.40771484375 C-14.316626358387822 76.40491688348891 -12.542195818438472 71.53201612702725 -10.871826171875 66.6376953125 C-10.417254842245086 65.30073989278219 -9.966377906624018 63.9625224093229 -9.519287109375 62.623046875 C-8.869028285720503 60.67538857618979 -8.207248486825677 58.73197714416693 -7.54296875 56.7890625 C-7.347152099609389 56.21003173828126 -7.347152099609389 56.21003173828126 -6.356201171875 53.27978515625 C-4.9339980522566975 49.84038340846388 -3.0980293841057573 47.06198883085702 -1 44 C-0.25 41.125 -0.25 41.125 0 39 C0.6599999999999682 39 1.3199999999999932 39 2 39 C2.990000000000009 41.639999999999986 3.980000000000018 44.28 5 47 C8 44 8 44 8.1875 40.3125 C8.125625000000014 39.219375000000014 8.063750000000027 38.12625 8 37 C6.680000000000007 37 5.360000000000014 37 4 37 C4.329999999999984 34.69 4.659999999999968 32.379999999999995 5 30 C4.009999999999991 30 3.019999999999982 30 2 30 C1.3400000000000318 29.670000000000016 0.6800000000000068 29.340000000000003 0 29 C-0.16499999999996362 29.495000000000005 -0.16499999999996362 29.495000000000005 -1 32 C-0.6700000000000159 21.439999999999998 -0.34000000000003183 10.879999999999995 0 0 Z M14 14 C15 16 15 16 15 16 Z " fill="#F6F2DC" transform="translate(262,139)"/>
<path d="M0 0 C2.1508144912304203 0.7568234579712012 4.295568188275638 1.5308908674116743 6.4375 2.3125 C7.632460937500014 2.7417578124999995 8.827421874999999 3.171015624999999 10.05859375 3.61328125 C10.54392578125001 3.8420898437499993 10.54392578125001 3.8420898437499993 13 5 C13.329999999999984 5.990000000000002 13.659999999999997 6.98 14 8 C16.08203125 9.656250000000007 16.08203125 9.656250000000007 18.8125 11.5 C28.864906278524245 18.60195976041193 40.15451891393823 27.731778370907335 47 38 C47.68062499999999 38.309375 48.361249999999984 38.61875 49.0625 38.9375 C49.701875 39.288125 50.34125 39.63875 51 40 C51.06123046875001 40.2823046875 51.06123046875001 40.2823046875 51.37109375 41.7109375 C52.2502635393721 44.910897106037545 54.03306675370436 47.020529747644304 56 49.6875 C75.32335409911991 76.85537320178315 83.52576699554515 108.88934615037637 83.125 141.9375 C83.11493003346612 143.4108010714316 83.10581141946011 144.88410896033503 83.09765625 146.357421875 C83.07600686510807 149.90509384230515 83.04170886957127 153.45250022423417 83 157 C86.75 158.125 86.75 158.125 89 157 C88.125 162.75 88.125 162.75 87 165 C88.32 165 89.63999999999999 165 91 165 C91.8125 168.25 91.8125 168.25 92 172 C89.56250000000006 174.43749999999997 89.56250000000006 174.43749999999997 87 176 C86.67000000000002 174.515 86.67000000000002 174.515 85 167 C84.34000000000003 167 83.68 167 83 167 C83.08249999999998 167.70125 83.16500000000002 168.4025 83.25 169.125 C83 172.00000000000003 83 172.00000000000003 81.234375 174.4765625 C78.11968620745876 178.96099707243204 76.69483446061344 184.10591259415372 75 189.25 C72.54148991033867 196.5967196038708 69.96333131715733 203.83992951692176 67 211 C66.34 211 65.68 211 65 211 C64.88205078125 211.42087890624998 64.88205078125 211.42087890624998 64.28515625 213.55078125 C62.801474988381926 217.5328194080813 60.823095816493606 220.69661580900205 58.4375 224.1875 C57.99639892578125 224.84097412109375 57.5552978515625 225.4944482421875 57.100830078125 226.167724609375 C53.06118176718866 232.06949417137724 48.63791037277764 237.5554965189132 44 243 C43.020040462601685 244.22853463956764 42.04071730323051 245.4575776596809 41.0625 246.6875 C40.38187500000001 247.450625 39.701250000000016 248.21375 39 249 C38.34 249 37.68000000000001 249 37 249 C36.7433154296875 249.591357421875 36.486630859375 250.18271484374998 36.22216796875 250.7919921875 C32.458201559296555 257.592094506137 24.072667914492513 262.308163804959 17.875 266.75 C17.102851562500007 267.3133203125 16.330703125000014 267.876640625 15.53515625 268.45703125 C11.484503539592737 271.37598541780625 7.549414023065395 273.9360485901748 3 276 C4.319999999999993 276.33 5.639999999999986 276.66 7 277 C1.5427294411849743 279.7892716189499 -2.9410575677952977 281.1344367953993 -9 282 C-9.990000000000009 282.33 -10.97999999999999 282.66 -12 283 C-11.786574338520523 279.2650509241094 -11.15469064704314 278.14303743729545 -8.35546875 275.5546875 C-5.246011922207913 273.07201809278337 -1.9494620942942618 271.18853073634955 1.5625 269.3125 C12.878085329393627 263.0587531746218 22.610514035063744 254.85294390979703 32 246 C32.7360546875 245.32839843750003 33.472109375 244.656796875 34.23046875 243.96484375 C55.90330404470012 223.4427784709477 68.713346137798 194.73706802893201 75 166 C75.2462109375 164.893984375 75.49242187499999 163.78796875 75.74609375 162.6484375 C82.3318446078544 126.04074652461625 72.93361035758988 87.10336778809175 52.8125 56.1875 C51.56783471299124 54.439403021701125 50.29826499400946 52.70866694459508 49 51 C48.35546875 50.1479296875 47.7109375 49.295859375 47.046875 48.41796875 C36.27168678842139 34.60960747886286 24.465366363748586 22.914222174030293 9.837890625 13.28564453125 C5.416548717851953 10.304402677422804 2.5112860576112155 7.747183043630603 0 3 C0 2.01 0 1.0199999999999996 0 0 Z " fill="#FEFEFE" transform="translate(179,11)"/>
<path d="M0 0 C0.6599999999999966 0.3299999999999983 1.3199999999999932 0.6599999999999966 2 1 C1.6699999999999875 2.3200000000000003 1.3400000000000034 3.6400000000000006 1 5 C1.990000000000009 5.659999999999997 2.9799999999999898 6.32 4 7 C5.125 3.25 5.125 3.25 4 1 C4.990000000000009 0.6700000000000017 5.97999999999999 0.3400000000000034 7 0 C7.680624999999992 0.9487499999999969 8.361250000000013 1.8975000000000009 9.0625 2.875 C11.986679813655854 6.437793795948508 14.549529897069647 7.127358803346986 19 8 C19 8.990000000000002 19 9.980000000000004 19 11 C19.453750000000014 11.113437500000003 19.453750000000014 11.113437500000003 21.75 11.6875 C25.475174458752633 13.191897377573184 26.834426023680237 14.668347728738823 29 18 C29 18.659999999999997 29 19.32 29 20 C27.019999999999982 19.67 25.039999999999992 19.340000000000003 23 19 C24.0991881639292 19.984752135903683 25.204560199325556 20.962604730255407 26.3125 21.9375 C26.619941406250007 22.210136718749993 26.619941406250007 22.210136718749993 28.17578125 23.58984375 C30 25 30 25 33 26 C33.16500000000002 26.99000000000001 33.16500000000002 26.99000000000001 34 32 C33.17500000000001 32.16499999999999 33.17500000000001 32.16499999999999 29 33 C29 32.34 29 31.680000000000007 29 31 C28.339999999999975 31 27.680000000000007 31 27 31 C28.319999999999993 33.97 29.639999999999986 36.94 31 40 C30.670000000000016 39.00999999999999 30.340000000000032 38.02000000000001 30 37 C31.319999999999993 37.66 32.639999999999986 38.31999999999999 34 39 C34 41.31 34 43.620000000000005 34 46 C34.65999999999997 46 35.31999999999999 46 36 46 C36 46.66 36 47.31999999999999 36 48 C35.34000000000003 48 34.68000000000001 48 34 48 C34.16500000000002 48.989999999999995 34.16500000000002 48.989999999999995 35 54 C35.65999999999997 54 36.31999999999999 54 37 54 C37 54.99000000000001 37 55.97999999999999 37 57 C34.69 56.67 32.379999999999995 56.34 30 56 C30 58.64 30 61.28 30 64 C30.99000000000001 64 31.980000000000018 64 33 64 C32.670000000000016 67.3 32.34000000000003 70.6 32 74 C31.340000000000032 74 30.680000000000007 74 30 74 C29.810024414062468 73.32235595703125 29.620048828124993 72.6447119140625 29.42431640625 71.946533203125 C23.39640707589902 50.73079653627245 16.268239227734 29.463608352696937 1.7734375 12.375 C0 10 0 10 0 7 C-0.9900000000000091 6.670000000000002 -1.9799999999999898 6.340000000000003 -3 6 C-3 3 -3 3 -1.5 1.3125 C-1.2524999999999977 1.095937499999998 -1.2524999999999977 1.095937499999998 0 0 Z " fill="#F5F0D3" transform="translate(229,44)"/>
<path d="M0 0 C6.715391726030617 1.2997532372962493 12.720191126649382 3.299288877014142 19 6 C18.670000000000016 6.164999999999999 18.670000000000016 6.164999999999999 17 7 C17 7.66 17 8.32 17 9 C17.99000000000001 9 18.97999999999999 9 20 9 C20.329999999999984 8.34 20.659999999999997 7.68 21 7 C22.97999999999999 7.990000000000002 24.960000000000008 8.98 27 10 C26.670000000000016 10.990000000000002 26.340000000000003 11.98 26 13 C26.659999999999997 13 27.319999999999993 13 28 13 C28.329999999999984 12.34 28.659999999999997 11.68 29 11 C29.659999999999997 11.66 30.319999999999993 12.32 31 13 C30.670000000000016 13.66 30.340000000000003 14.32 30 15 C30.659999999999997 15 31.319999999999993 15 32 15 C32.329999999999984 14.34 32.66 13.68 33 13 C34.67427614681617 13.9238416595825 36.33928003330226 14.864505685676715 38 15.8125 C38.928124999999994 16.3345703125 39.85624999999999 16.856640625 40.8125 17.39453125 C41.53437500000001 17.9243359375 42.256249999999994 18.454140625 43 19 C43 19.989999999999995 43 20.980000000000004 43 22 C43.16499999999999 21.835 43.16499999999999 21.835 44 21 C46.66666666666666 22.33333333333333 49.33333333333334 23.66666666666667 52 25 C52.66 25.247500000000002 53.31999999999999 25.495000000000005 54 25.75 C56.894126524115165 27.55882907757197 58.12443168963236 30.159853701443275 60 33 C62.182661994777675 35.49804664081206 64.38634087535112 37.95030908554219 67 40 C67.99000000000001 40 68.98000000000002 40 70 40 C71.625 42.4375 71.625 42.4375 73 45 C73.32999999999998 45.33 73.65999999999997 45.66 74 46 C75.46394982974948 47.84584978533632 76.80168993114285 49.59881050586046 77.84765625 51.71484375 C79.41296569753388 54.81893197646545 81.19827744267695 57.77976897252901 83 60.75 C83.35578125 61.3519921875 83.71156250000001 61.953984375000005 84.078125 62.57421875 C84.99618130989188 64.08490096142657 85.9924619299224 65.54746594897149 87 67 C87.65999999999997 67 88.32 67 89 67 C90.00525542393655 69.51313855984144 91.00743312966108 72.0203172210737 91.9375 74.5625 C93.01549585025089 77.03554930351673 94.30144289170408 78.91540718527321 96 81 C95.67000000000002 81.66 95.67000000000002 81.66 94 85 C93.34000000000003 83.02 92.68 81.04 92 79 C91.00999999999999 79 90.01999999999998 79 89 79 C89 78.34 89 77.68 89 77 C88.505 77.16499999999999 88.505 77.16499999999999 86 78 C85.40187500000002 77.05125 84.80374999999998 76.1025 84.1875 75.125 C82 71.99999999999999 82 71.99999999999999 79 70 C77.64748502877109 68.68612831366333 76.31054623401428 67.35573748346302 75 66 C75.32999999999998 65.34 75.65999999999997 64.68 76 64 C76.65999999999997 64.66 77.32 65.32 78 66 C78.32999999999998 65.34 78.65999999999997 64.68 79 64 C79.65999999999997 64 80.32 64 81 64 C78.25 58.125 78.25 58.125 76 57 C75.80406249999999 56.57718750000001 75.80406249999999 56.57718750000001 74.8125 54.4375 C71.86937872684507 48.855718275050975 68.4359943256722 44.0629793421115 62.5625 41.5 C61.716875000000016 41.335 60.87125 41.17 60 41 C60 40.01 60 39.02 60 38 C59.113125 37.95875 58.22624999999999 37.9175 57.3125 37.875 C52.78370473055256 36.678714457127086 51.70356507535081 34.737281133573184 49 31 C48.670000000000016 31.165 48.670000000000016 31.165 47 32 C47.66 32.66 48.31999999999999 33.32 49 34 C48.00999999999999 34 47.02000000000001 34 46 34 C46 34.99 46 35.98 46 37 C44.68000000000001 36.34 43.360000000000014 35.68 42 35 C42.66 34.67 43.31999999999999 34.34 44 34 C43.670000000000016 33.01 43.34 32.02 43 31 C39.125 32.74999999999999 39.125 32.74999999999999 38 35 C37.44312500000001 34.3709375 36.88624999999999 33.741875 36.3125 33.09375 C26.744364301405284 22.36192212184647 16.988174193751547 12.992116129167705 5 5 C5 4.009999999999998 5 3.0199999999999996 5 2 C3.3499999999999943 1.67 1.6999999999999886 1.3399999999999999 0 1 C0 0.6699999999999999 0 0.33999999999999986 0 0 Z " fill="#F5F3E4" transform="translate(187,14)"/>
<path d="M0 0 C2.175530600634204 2.175530600634204 2.718795529744682 3.5597389151927814 3.6875 6.4375 C3.959492187500018 7.219960937500005 4.2314843749999795 8.002421874999996 4.51171875 8.80859375 C5 11 5 11 4 14 C3.670000000000016 13.340000000000003 3.339999999999975 12.680000000000007 3 12 C2.9793750000000045 13.299374999999998 2.958750000000009 14.598749999999995 2.9375 15.9375 C2.9258984374999955 16.668398437500002 2.914296874999991 17.399296875000005 2.90234375 18.15234375 C3 20 3 20 4 21 C4.375149180646986 23.646560235345532 4.706197103110412 26.28179725233423 5 28.9375 C5.867039106145228 36.73407821229051 5.867039106145228 36.73407821229051 7 39 C7.071948685882205 41.883703330159165 7.092917080927748 44.74239663823121 7.0625 47.625 C7.0579882812500045 48.42679687500001 7.053476562500009 49.228593750000016 7.048828125 50.0546875 C7.037031681186761 52.036490060624146 7.019096050318524 54.01825433361259 7 56 C6.339999999999975 56 5.680000000000007 56 5 56 C4.670000000000016 56.99000000000001 4.339999999999975 57.97999999999999 4 59 C3.9394140625000205 57.94039062499999 3.878828124999984 56.880781249999984 3.81640625 55.7890625 C3.7319987337951375 54.40102778907601 3.6473508345331993 53.01300768131907 3.5625 51.625 C3.523183593749991 50.926328125 3.483867187499982 50.227656249999995 3.443359375 49.5078125 C3.11328125 44.2265625 3.11328125 44.2265625 2 42 C1.875 38.4375 1.875 38.4375 2 35 C2.329999999999984 34.670000000000016 2.660000000000025 34.34 3 34 C2.7467255119627225 31.97089289468974 2.4226993196593867 29.9503785510378 2.0625 27.9375 C1.8678515624999932 26.83277343750001 1.6732031249999864 25.728046875000004 1.47265625 24.58984375 C1.3166796875000273 23.735195312499997 1.1607031249999977 22.880546874999993 1 22 C-0.3199999999999932 22 -1.6399999999999864 22 -3 22 C-3.329999999999984 24.97 -3.660000000000025 27.939999999999998 -4 31 C-4.660000000000025 31 -5.319999999999993 31 -6 31 C-6.329999999999984 32.31999999999999 -6.660000000000025 33.639999999999986 -7 35 C-7.990000000000009 34.670000000000016 -8.980000000000018 34.34 -10 34 C-10 32.68000000000001 -10 31.360000000000014 -10 30 C-10.660000000000025 29.670000000000016 -11.319999999999993 29.340000000000003 -12 29 C-12.726939039378465 27.02111039280308 -13.398162511795476 25.020454424686704 -14 23 C-15.319999999999993 23.989999999999995 -16.639999999999986 24.980000000000004 -18 26 C-21 24 -21 24 -21.75 20.5 C-22 17 -22 17 -21 15 C-19.019999999999982 15 -17.04000000000002 15 -15 15 C-14.670000000000016 13.349999999999994 -14.339999999999975 11.700000000000003 -14 10 C-11.689999999999998 10.329999999999998 -9.379999999999995 10.659999999999997 -7 11 C-7 11.659999999999997 -7 12.319999999999993 -7 13 C-6.009999999999991 13 -5.019999999999982 13 -4 13 C-2.3125 14.5 -2.3125 14.5 -1 16 C-1.329999999999984 13.36 -1.660000000000025 10.719999999999999 -2 8 C-1.339999999999975 8 -0.6800000000000068 8 0 8 C0 5.359999999999999 0 2.719999999999999 0 0 Z " fill="#F4EECE" transform="translate(283,102)"/>
<path d="M0 0 C0.9900000000000091 0 1.9800000000000182 0 3 0 C3.531769798974267 11.230978154336754 -1.2383595361469588 18.827933968654122 -7 28 C-7.990000000000009 28 -8.980000000000018 28 -10 28 C-10 27.340000000000003 -10 26.680000000000007 -10 26 C-10.990000000000009 26.99000000000001 -11.980000000000018 27.97999999999999 -13 29 C-12.339999999999975 29 -11.680000000000007 29 -11 29 C-10.670000000000016 29.99000000000001 -10.339999999999975 30.97999999999999 -10 32 C-10.990000000000009 32.99000000000001 -11.980000000000018 33.97999999999999 -13 35 C-13.660000000000025 34.00999999999999 -14.319999999999993 33.02000000000001 -15 32 C-16.9375 32.75 -16.9375 32.75 -19 34 C-19.75 36.125 -19.75 36.125 -20 38 C-21.649999999999977 38 -23.30000000000001 38 -25 38 C-23.46395303810695 34.85808575976421 -21.942688411007282 31.914032616510895 -20 29 C-22.629012878190167 30.522060087373234 -24.843659638126212 31.843659638126212 -27 34 C-27.99000000000001 33.670000000000016 -28.97999999999999 33.34 -30 33 C-29.00999999999999 32.00999999999999 -28.02000000000001 31.02000000000001 -27 30 C-27.99000000000001 30 -28.97999999999999 30 -30 30 C-30 28.02000000000001 -30 26.039999999999992 -30 24 C-28.02000000000001 23.00999999999999 -26.039999999999992 22.02000000000001 -24 21 C-24 21.659999999999997 -24 22.319999999999993 -24 23 C-24.659999999999997 23 -25.319999999999993 23 -26 23 C-26 23.659999999999997 -26 24.319999999999993 -26 25 C-19.064735364127955 21.070016706339175 -14.929983293660825 16.935264635872045 -11 10 C-10.009999999999991 10.330000000000013 -9.019999999999982 10.659999999999997 -8 11 C-7.670000000000016 10.340000000000003 -7.339999999999975 9.680000000000007 -7 9 C-7 9.990000000000009 -7 10.97999999999999 -7 12 C-7.660000000000025 12 -8.319999999999993 12 -9 12 C-8.339999999999975 13.319999999999993 -7.680000000000007 14.639999999999986 -7 16 C-7.990000000000009 16.329999999999984 -8.980000000000018 16.659999999999997 -10 17 C-11.125 19.375 -11.125 19.375 -12 22 C-12.329999999999984 22.99000000000001 -12.660000000000025 23.97999999999999 -13 25 C-8.72918031415827 22.524556742601277 -7.898109217636204 19.656429321476196 -6.4375 15.0625 C-5.062911633906197 10.776488406048458 -3.8514215528269347 7.48418082999919 -1 4 C-0.3125 1.75 -0.3125 1.75 0 0 Z " fill="#F5EFD1" transform="translate(278,203)"/>
<path d="M0 0 C0.9900000000000091 0 1.9799999999999898 0 3 0 C3.990000000000009 1.980000000000004 4.980000000000018 3.9599999999999937 6 6 C5.670000000000016 5.010000000000005 5.339999999999975 4.019999999999996 5 3 C6.319999999999993 3.6599999999999966 7.639999999999986 4.319999999999993 9 5 C9 7.310000000000002 9 9.620000000000005 9 12 C9.660000000000025 12 10.319999999999993 12 11 12 C11 12.659999999999997 11 13.319999999999993 11 14 C10.339999999999975 14 9.680000000000007 14 9 14 C9.329999999999984 15.980000000000004 9.660000000000025 17.960000000000008 10 20 C10.660000000000025 20 11.319999999999993 20 12 20 C12 20.989999999999995 12 21.980000000000004 12 23 C9.689999999999998 22.67 7.3799999999999955 22.340000000000003 5 22 C5 24.64 5 27.28 5 30 C5.990000000000009 30 6.980000000000018 30 8 30 C7.8349999999999795 31.650000000000006 7.8349999999999795 31.650000000000006 7 40 C6.339999999999975 40 5.680000000000007 40 5 40 C4.773366699218741 39.24904052734375 4.546733398437482 38.4980810546875 4.313232421875 37.724365234375 C3.2754621939636195 34.29414179687133 2.2315379354675997 30.865820716290287 1.1875 27.4375 C0.8310742187499898 26.25607421875 0.47464843750000796 25.074648437500002 0.107421875 23.857421875 C-2.8996466178711273 14.00858286623857 -2.8996466178711273 14.00858286623857 -4.76171875 9.84765625 C-6 7 -6 7 -6 4 C-4.02000000000001 4.659999999999997 -2.039999999999992 5.319999999999993 0 6 C0 4.019999999999996 0 2.0400000000000063 0 0 Z " fill="#F0E7BA" transform="translate(254,78)"/>
<path d="M0 0 C0.660000000000025 0 1.3199999999999932 0 2 0 C2.990000000000009 2.6399999999999864 3.980000000000018 5.280000000000001 5 8 C5.990000000000009 7.340000000000003 6.980000000000018 6.680000000000007 8 6 C7.670000000000016 8.639999999999986 7.339999999999975 11.280000000000001 7 14 C7.660000000000025 14 8.319999999999993 14 9 14 C8.339999999999975 15.650000000000006 7.680000000000007 17.30000000000001 7 19 C5.680000000000007 19 4.360000000000014 19 3 19 C2.670000000000016 18.340000000000003 2.339999999999975 17.680000000000007 2 17 C-2 21.375 -2 21.375 -2 24.625 C-2 25.408749999999998 -2 26.192499999999995 -2 27 C-4 28.8125 -4 28.8125 -6 30 C-5.670000000000016 30.659999999999997 -5.339999999999975 31.319999999999993 -5 32 C-5 35 -5 35 -7 38 C-8.324677463590149 38.683704497336834 -9.658636326130676 39.349641855093665 -11 40 C-11.536249999999995 40.536249999999995 -12.072499999999991 41.07249999999999 -12.625 41.625 C-12.851875000000007 41.85187500000001 -12.851875000000007 41.85187500000001 -14 43 C-14.659999999999997 43 -15.319999999999993 43 -16 43 C-13.593390263018563 35.69532236884157 -11.075669671543267 28.434227376206735 -8.5 21.1875 C-8.30470703124999 20.62836914062501 -8.30470703124999 20.62836914062501 -7.31640625 17.798828125 C-6.933554687499992 16.72439453125 -6.5507031250000125 15.649960937499998 -6.15625 14.54296875 C-5.8140039062499795 13.573835449218763 -5.471757812500016 12.604702148437497 -5.119140625 11.606201171875 C-4.018983754430849 9.044208459543967 -2.6928466172120693 7.194419930113497 -1 5 C-0.3125 2.25 -0.3125 2.25 0 0 Z " fill="#FAF7E9" transform="translate(262,178)"/>
<path d="M0 0 C0.6599999999999966 0.3299999999999983 1.3199999999999932 0.6599999999999966 2 1 C1.6699999999999875 2.3200000000000003 1.3400000000000034 3.6400000000000006 1 5 C1.990000000000009 5.659999999999997 2.9799999999999898 6.32 4 7 C4 6.340000000000003 4 5.68 4 5 C5.319999999999993 5.659999999999997 6.639999999999986 6.32 8 7 C8 7.659999999999997 8 8.32 8 9 C8.659999999999997 9 9.319999999999993 9 10 9 C10.330000000000013 9.990000000000002 10.659999999999997 10.980000000000004 11 12 C12.319999999999993 12 13.639999999999986 12 15 12 C16.75 13.1875 16.75 13.1875 18 15 C18 16.66666666666667 18 18.33333333333333 18 20 C19.5 22.1875 19.5 22.1875 21 24 C21 24.659999999999997 21 25.319999999999993 21 26 C21.659999999999997 26 22.319999999999993 26 23 26 C23.93065132678413 28.60582371499558 24.149174067863783 29.64198223712694 23.0625 32.25 C22.88718750000001 32.53874999999999 22.88718750000001 32.53874999999999 22 34 C21.340000000000003 34 20.680000000000007 34 20 34 C19.670000000000016 34.66 19.340000000000003 35.31999999999999 19 36 C18.340000000000003 35.00999999999999 17.680000000000007 34.02000000000001 17 33 C16.340000000000003 33 15.680000000000007 33 15 33 C14.503710937499989 32.09378906250001 14.007421875000006 31.187578125 13.49609375 30.25390625 C9.837976067380794 23.66657799726366 6.1757067338969875 17.519854066580635 1.25 11.76953125 C0 10 0 10 0 7 C-0.9900000000000091 6.670000000000002 -1.9799999999999898 6.340000000000003 -3 6 C-3 3 -3 3 -1.5 1.3125 C-1.2524999999999977 1.095937499999998 -1.2524999999999977 1.095937499999998 0 0 Z " fill="#F1EAC1" transform="translate(229,44)"/>
<path d="M0 0 C0.3299999999999841 0.6599999999999966 0.660000000000025 1.3199999999999932 1 2 C1.990000000000009 2.3300000000000125 2.980000000000018 2.6599999999999966 4 3 C3.670000000000016 6.300000000000011 3.339999999999975 9.599999999999994 3 13 C2.009999999999991 13.330000000000013 1.0199999999999818 13.659999999999997 0 14 C0.3299999999999841 14.928124999999994 0.660000000000025 15.856249999999989 1 16.8125 C2 20 2 20 2 23 C1.339999999999975 23.329999999999984 0.6800000000000068 23.659999999999997 0 24 C0 22.680000000000007 0 21.360000000000014 0 20 C-0.9900000000000091 20 -1.9800000000000182 20 -3 20 C-3.082499999999982 20.659999999999997 -3.1650000000000205 21.319999999999993 -3.25 22 C-4.062379521820446 25.24951808728173 -5.339864338955124 27.791710389716428 -6.89453125 30.73828125 C-8.499656787404831 34.0222660067399 -9.678405492965624 37.44754441274907 -10.875 40.8984375 C-12.221883997761552 43.41449163470736 -13.374745295485809 44.00459092453838 -16 45 C-15.611842633254241 41.603623040974384 -15.066314339212795 40.08191771314523 -12.875 37.375 C-12.256250000000023 36.59125 -11.637499999999989 35.807500000000005 -11 35 C-11.16500000000002 34.504999999999995 -11.16500000000002 34.504999999999995 -12 32 C-11.339999999999975 32 -10.680000000000007 32 -10 32 C-10 31.00999999999999 -10 30.02000000000001 -10 29 C-9.339999999999975 29 -8.680000000000007 29 -8 29 C-8 27.349999999999994 -8 25.69999999999999 -8 24 C-8.329999999999984 24 -8.660000000000025 24 -9 24 C-9.271020267986898 19.92737110808835 -8.527285007198657 17.375299070232188 -6.6875 13.75 C-6.258242187500002 12.878593749999993 -5.8289843750000045 12.007187499999986 -5.38671875 11.109375 C-4 9 -4 9 -1 8 C-1 7.009999999999991 -1 6.02000000000001 -1 5 C-1.660000000000025 4.6699999999999875 -2.319999999999993 4.340000000000003 -3 4 C-2.009999999999991 2.680000000000007 -1.0199999999999818 1.3600000000000136 0 0 Z " fill="#F0E8BF" transform="translate(281,183)"/>
<path d="M0 0 C0.9900000000000091 0 1.9800000000000182 0 3 0 C3.531769798974267 11.230978154336754 -1.2383595361469588 18.827933968654122 -7 28 C-7.990000000000009 28 -8.980000000000018 28 -10 28 C-10 27.340000000000003 -10 26.680000000000007 -10 26 C-10.990000000000009 26.99000000000001 -11.980000000000018 27.97999999999999 -13 29 C-12.339999999999975 29 -11.680000000000007 29 -11 29 C-10.670000000000016 29.99000000000001 -10.339999999999975 30.97999999999999 -10 32 C-10.990000000000009 32.99000000000001 -11.980000000000018 33.97999999999999 -13 35 C-13.660000000000025 34.00999999999999 -14.319999999999993 33.02000000000001 -15 32 C-15.990000000000009 32 -16.980000000000018 32 -18 32 C-18 30.680000000000007 -18 29.360000000000014 -18 28 C-17.339999999999975 28 -16.680000000000007 28 -16 28 C-15.670000000000016 27.00999999999999 -15.339999999999975 26.02000000000001 -15 25 C-14.196914062500014 24.703515624999994 -13.393828125000027 24.40703124999999 -12.56640625 24.1015625 C-10 23 -10 23 -8.77734375 20.8984375 C-8.500195312500011 20.065703125 -8.223046875000023 19.232968749999998 -7.9375 18.375 C-6.743574821209506 15.025242312138346 -5.506866055897262 11.84886413042824 -3.875 8.6875 C-2.4105027522439855 5.844991562426287 -1.1243064123449358 2.9981504329198003 0 0 Z " fill="#F0EEE0" transform="translate(278,203)"/>
<path d="M0 0 C4.061465961086583 1.3538219870288657 5.054216382279208 4.026579493103796 7.0625 7.5625 C8.318811357393884 9.763926323506666 9.608814775579788 11.87630111176614 11 14 C11.660000000000025 14 12.319999999999993 14 13 14 C14.005255423936603 16.513138559841465 15.00743312966108 19.020317221073668 15.9375 21.5625 C17.015495850250886 24.035549303516746 18.301442891704085 25.915407185273196 20 28 C19.339999999999975 29.319999999999993 18.680000000000007 30.64 18 32 C17.339999999999975 30.019999999999996 16.680000000000007 28.039999999999992 16 26 C15.009999999999991 26 14.019999999999982 26 13 26 C13 25.340000000000003 13 24.680000000000007 13 24 C12.009999999999991 24.33 11.019999999999982 24.659999999999997 10 25 C9.700937500000009 24.52562499999999 9.700937500000009 24.52562499999999 8.1875 22.125 C6 19 6 19 3 17 C1.6474850287710865 15.686128313663332 0.3105462340142253 14.355737483463017 -1 13 C-0.6700000000000159 12.340000000000003 -0.339999999999975 11.680000000000007 0 11 C0.660000000000025 11.659999999999997 1.3199999999999932 12.319999999999993 2 13 C2.329999999999984 12.340000000000003 2.660000000000025 11.680000000000007 3 11 C3.660000000000025 11 4.319999999999993 11 5 11 C2.25 5.125 2.25 5.125 0 4 C0 2.680000000000007 0 1.3599999999999994 0 0 Z " fill="#F3F1E5" transform="translate(263,67)"/>
<path d="M0 0 C0.3299999999999841 0 0.660000000000025 0 1 0 C1.1678039488017475 4.074858248793959 1.3283431761330462 8.149931603449971 1.482177734375 12.225341796875 C1.5355222186306037 13.611487681072504 1.5908455935936558 14.997558890185616 1.648193359375 16.383544921875 C1.7303142099299293 18.37658226012522 1.8047121496188083 20.36993308642596 1.87890625 22.36328125 C1.9260375976562614 23.56251220703126 1.9731689453125227 24.761743164062494 2.021728515625 25.997314453125 C2 29 2 29 1 32 C0.7034609137162988 34.31053371396072 0.4945431513879157 36.62184322865659 0.28125 38.94140625 C0 41 0 41 -1 43 C-1.329999999999984 43.99000000000001 -1.660000000000025 44.97999999999999 -2 46 C-2.6599679040238016 47.66933058076603 -3.3255886901856684 49.33645210245791 -4 51 C-5.098953975376958 47.36375522853206 -4.6857384983442785 44.52268220004089 -4.1875 40.7734375 C-3.8802461846062215 36.2286414806336 -4.40134489021159 31.75897271374535 -4.84375 27.234375 C-4.9883039049109925 24.242109168342154 -4.7379323198496195 21.88661760411759 -4 19 C-3.339999999999975 19 -2.680000000000007 19 -2 19 C-2 14.710000000000008 -2 10.419999999999987 -2 6 C-1.670000000000016 6 -1.339999999999975 6 -1 6 C-0.6700000000000159 4.02000000000001 -0.339999999999975 2.039999999999992 0 0 Z " fill="#E6E3D5" transform="translate(292,139)"/>
<path d="M0 0 C1.6666666666666856 1.6666666666666714 3.3333333333333144 3.3333333333333286 5 5 C5.660000000000025 5 6.319999999999993 5 7 5 C7 5.659999999999997 7 6.319999999999993 7 7 C7.660000000000025 7 8.319999999999993 7 9 7 C11.660380989164594 12.562614795525974 12.96232948774616 17.93267947540977 14 24 C11 21 8 18 5 15 C4.670000000000016 15.659999999999997 4.339999999999975 16.319999999999993 4 17 C4 16.340000000000003 4 15.680000000000007 4 15 C2.3500000000000227 15.329999999999998 0.6999999999999886 15.659999999999997 -1 16 C-1.329999999999984 14.680000000000007 -1.660000000000025 13.36 -2 12 C-1.339999999999975 12 -0.6800000000000068 12 0 12 C0 12.659999999999997 0 13.319999999999993 0 14 C0.9900000000000091 14 1.9800000000000182 14 3 14 C2.339999999999975 12.349999999999994 1.6800000000000068 10.700000000000003 1 9 C0.339999999999975 9 -0.3199999999999932 9 -1 9 C-1 8.340000000000003 -1 7.680000000000007 -1 7 C-1.660000000000025 7 -2.319999999999993 7 -3 7 C-3 5.349999999999994 -3 3.700000000000003 -3 2 C-2.339999999999975 2 -1.6800000000000068 2 -1 2 C-1 2.6599999999999966 -1 3.319999999999993 -1 4 C-0.339999999999975 4 0.3199999999999932 4 1 4 C0.6700000000000159 2.680000000000007 0.339999999999975 1.3599999999999994 0 0 Z " fill="#F0E8BB" transform="translate(269,86)"/>
<path d="M0 0 C-3.9818352125569447 5.033135700990499 -8.154936578339658 8.97034418232181 -13.375 12.6875 C-13.996328124999991 13.147050781250016 -14.61765625000001 13.606601562499975 -15.2578125 14.080078125 C-19.636126268843327 17.250737166280146 -24.11464765203587 19.687311028181057 -29 22 C-29.659999999999997 21.339999999999975 -30.319999999999993 20.680000000000007 -31 20 C-27.491566265060243 16.115662650602417 -27.491566265060243 16.115662650602417 -24.875 15.5 C-24.256249999999994 15.33499999999998 -23.63749999999999 15.170000000000016 -23 15 C-22.711250000000007 14.339999999999975 -22.422500000000014 13.680000000000007 -22.125 13 C-21.753749999999997 12.339999999999975 -21.382499999999993 11.680000000000007 -21 11 C-19 10.666666666666686 -17 10.333333333333314 -15 10 C-14.29325371171538 8.687471178900012 -13.631463903466795 7.3503612704905095 -13 6 C-9.146362367288987 1.6696236910773337 -6.04640777043042 -0.8848401615263981 0 0 Z " fill="#EDECE7" transform="translate(251,254)"/>
<path d="M0 0 C0.660000000000025 0.3299999999999983 1.3199999999999932 0.6599999999999966 2 1 C2 2.319999999999993 2 3.6400000000000006 2 5 C2.660000000000025 5 3.319999999999993 5 4 5 C4 5.989999999999995 4 6.980000000000004 4 8 C1.6899999999999977 7.670000000000002 -0.6200000000000045 7.340000000000003 -3 7 C-3 9.64 -3 12.280000000000001 -3 15 C-2.009999999999991 15 -1.0199999999999818 15 0 15 C-0.3299999999999841 18.299999999999997 -0.660000000000025 21.599999999999994 -1 25 C-1.660000000000025 25 -2.319999999999993 25 -3 25 C-4.009064607706023 21.75274421456298 -5.005651217671186 18.501789261129332 -6 15.25 C-6.14308593749999 14.789804687499995 -6.14308593749999 14.789804687499995 -6.8671875 12.4609375 C-7.137890625000011 11.571484374999997 -7.408593749999994 10.682031249999994 -7.6875 9.765625 C-7.938867187499994 8.948681640624997 -8.190234374999989 8.131738281249994 -8.44921875 7.2900390625 C-9 5 -9 5 -9 1 C-7.680000000000007 1.3299999999999983 -6.360000000000014 1.6599999999999966 -5 2 C-5 2.989999999999995 -5 3.980000000000004 -5 5 C-4.339999999999975 5 -3.680000000000007 5 -3 5 C-3 3.680000000000007 -3 2.3599999999999994 -3 1 C-2.009999999999991 0.6700000000000017 -1.0199999999999818 0.3400000000000034 0 0 Z " fill="#EAE0AD" transform="translate(262,93)"/>
<path d="M0 0 C0.30937499999998863 0.24750000000000227 0.30937499999998863 0.24750000000000227 1.875 1.5 C4 3 4 3 6 3 C6.329999999999984 4.319999999999993 6.660000000000025 5.640000000000001 7 7 C6.339999999999975 7 5.680000000000007 7 5 7 C5 6.340000000000003 5 5.680000000000007 5 5 C4.339999999999975 5 3.680000000000007 5 3 5 C3.329999999999984 5.989999999999995 3.660000000000025 6.980000000000004 4 8 C3.670000000000016 8.659999999999997 3.339999999999975 9.319999999999993 3 10 C3.660000000000025 10 4.319999999999993 10 5 10 C5 10.659999999999997 5 11.319999999999993 5 12 C5.990000000000009 11.670000000000002 6.980000000000018 11.340000000000003 8 11 C8.329999999999984 12.980000000000004 8.660000000000025 14.960000000000008 9 17 C8.009999999999991 17 7.019999999999982 17 6 17 C6 16.340000000000003 6 15.680000000000007 6 15 C5.339999999999975 15 4.680000000000007 15 4 15 C4.247500000000002 15.381562500000001 4.247500000000002 15.381562500000001 5.5 17.3125 C7 20 7 20 7 23 C8.319999999999993 22.67 9.639999999999986 22.340000000000003 11 22 C10.009999999999991 22.989999999999995 9.019999999999982 23.980000000000004 8 25 C7.009999999999991 24.340000000000003 6.019999999999982 23.680000000000007 5 23 C4.670000000000016 23.989999999999995 4.339999999999975 24.980000000000004 4 26 C3.009999999999991 25.67 2.019999999999982 25.340000000000003 1 25 C1 24.340000000000003 1 23.680000000000007 1 23 C0.339999999999975 22.67 -0.3199999999999932 22.340000000000003 -1 22 C-0.009999999999990905 22 0.9800000000000182 22 2 22 C2 21.340000000000003 2 20.680000000000007 2 20 C1.339999999999975 19.67 0.6800000000000068 19.340000000000003 0 19 C0.9900000000000091 18.67 1.9800000000000182 18.340000000000003 3 18 C3 17.010000000000005 3 16.019999999999996 3 15 C2.009999999999991 15.329999999999998 1.0199999999999818 15.659999999999997 0 16 C0 13.689999999999998 0 11.379999999999995 0 9 C0.660000000000025 9 1.3199999999999932 9 2 9 C2 8.340000000000003 2 7.680000000000007 2 7 C1.339999999999975 7 0.6800000000000068 7 0 7 C0 6.010000000000005 0 5.019999999999996 0 4 C-0.660000000000025 3.6700000000000017 -1.3199999999999932 3.3400000000000034 -2 3 C-1.339999999999975 3 -0.6800000000000068 3 0 3 C0 2.010000000000005 0 1.019999999999996 0 0 Z " fill="#F4EDCC" transform="translate(263,83)"/>
<path d="M0 0 C1.6499999999999773 0.3300000000000125 3.3000000000000114 0.6599999999999966 5 1 C5.660000000000025 3.6399999999999864 6.319999999999993 6.280000000000001 7 9 C8.319999999999993 6.689999999999998 9.639999999999986 4.3799999999999955 11 2 C12.39353608709473 6.180608261284249 10.752282934797961 8.07488622605257 9 12 C9 12.990000000000009 9 13.97999999999999 9 15 C7.680000000000007 15 6.360000000000014 15 5 15 C4.670000000000016 15.659999999999997 4.339999999999975 16.319999999999993 4 17 C3.670000000000016 14.689999999999998 3.339999999999975 12.379999999999995 3 10 C1.6800000000000068 10 0.36000000000001364 10 -1 10 C-0.6700000000000159 6.699999999999989 -0.339999999999975 3.4000000000000057 0 0 Z " fill="#F9F6E6" transform="translate(267,166)"/>
<path d="M0 0 C1.6500000000000057 0 3.3000000000000114 0 5 0 C5 0.990000000000002 5 1.9799999999999969 5 3 C5.990000000000009 2.6700000000000017 6.97999999999999 2.3400000000000034 8 2 C12 6.625 12 6.625 12 10 C11.340000000000003 10 10.680000000000007 10 10 10 C10.330000000000013 10.495000000000005 10.330000000000013 10.495000000000005 12 13 C12.125 16.1875 12.125 16.1875 12 19 C11.340000000000003 19 10.680000000000007 19 10 19 C8.70425128967591 16.773120239698812 7.413326921838461 14.543668250450366 6.125 12.3125 C5.760195312500002 11.68666015625 5.3953906250000045 11.060820312499999 5.01953125 10.416015625 C3.0625880327546326 7.018050584146678 1.3439226089946033 3.6993238131799018 0 0 Z " fill="#DDCF81" transform="translate(234,58)"/>
<path d="M0 0 C0.3299999999999841 0.9900000000000091 0.660000000000025 1.9799999999999898 1 3 C0.339999999999975 3 -0.3199999999999932 3 -1 3 C-0.339999999999975 4.319999999999993 0.3199999999999932 5.639999999999986 1 7 C0.009999999999990905 7.3300000000000125 -0.9800000000000182 7.659999999999997 -2 8 C-3.125 10.375 -3.125 10.375 -4 13 C-5.133049917568542 16.399149752705654 -6.125184746921661 17.0525445059792 -9 19 C-11.01571417402863 14.880931905245887 -11.01571417402863 14.880931905245887 -11 12 C-8.62705639188772 7.801189119939664 -5.394451825638441 4.394451825638413 -2 1 C-1.339999999999975 1.3300000000000125 -0.6800000000000068 1.6599999999999966 0 2 C0 1.3400000000000034 0 0.6800000000000068 0 0 Z " fill="#F2EAC2" transform="translate(270,212)"/>
<path d="M0 0 C0.660000000000025 0 1.3199999999999932 0 2 0 C1.6917018180557761 3.853727274303111 1.3724161529466414 6.447796738734269 -0.8125 9.6875 C-3.468533703248511 13.709493893490617 -4.624331194648448 17.69246051392932 -5.97265625 22.29296875 C-6.986880807228829 24.96543117646229 -7.73939208847753 26.291332721420673 -10 28 C-10.660000000000025 28 -11.319999999999993 28 -12 28 C-11.611842633254241 24.603623040974384 -11.066314339212795 23.08191771314523 -8.875 20.375 C-8.256250000000023 19.591250000000002 -7.637499999999989 18.807500000000005 -7 18 C-7.329999999999984 17.00999999999999 -7.660000000000025 16.02000000000001 -8 15 C-7.339999999999975 15 -6.680000000000007 15 -6 15 C-6 14.009999999999991 -6 13.02000000000001 -6 12 C-5.339999999999975 12 -4.680000000000007 12 -4 12 C-3.7950390624999955 11.301328124999998 -3.590078124999991 10.602656249999995 -3.37890625 9.8828125 C-3.1094921874999955 8.972734374999987 -2.840078124999991 8.062656250000003 -2.5625 7.125 C-2.295664062500009 6.220078124999986 -2.028828125000018 5.315156250000001 -1.75390625 4.3828125 C-1 2 -1 2 0 0 Z " fill="#E8DB96" transform="translate(277,200)"/>
<path d="M0 0 C0.660000000000025 1.3199999999999932 1.3199999999999932 2.6399999999999864 2 4 C1.339999999999975 4.659999999999997 0.6800000000000068 5.319999999999993 0 6 C-0.3299999999999841 6.4950000000000045 -0.3299999999999841 6.4950000000000045 -2 9 C-3.1474815540537975 10.391050751848212 -4.315747518491662 11.765116853861173 -5.5 13.125 C-6.108437500000008 13.828828125000001 -6.7168749999999875 14.532656250000002 -7.34375 15.2578125 C-9 17 -9 17 -11 18 C-11.659999999999997 17.340000000000003 -12.319999999999993 16.680000000000007 -13 16 C-11.546820612925558 12.609248096826292 -9.5869968810878 10.5869968810878 -7 8 C-6.6699999999999875 7.009999999999991 -6.340000000000003 6.02000000000001 -6 5 C-3 3 -3 3 0 3 C0 2.009999999999991 0 1.0200000000000102 0 0 Z " fill="#EDECE5" transform="translate(262,236)"/>
<path d="M0 0 C0.660000000000025 0.3299999999999983 1.3199999999999932 0.6599999999999966 2 1 C2 2.319999999999993 2 3.6400000000000006 2 5 C1.339999999999975 5 0.6800000000000068 5 0 5 C0 5.659999999999997 0 6.319999999999993 0 7 C0.9900000000000091 6.670000000000002 1.9800000000000182 6.340000000000003 3 6 C3.990000000000009 6.989999999999995 4.980000000000018 7.980000000000004 6 9 C5.670000000000016 9.659999999999997 5.339999999999975 10.319999999999993 5 11 C6.319999999999993 11.329999999999998 7.639999999999986 11.659999999999997 9 12 C9.329999999999984 13.319999999999993 9.660000000000025 14.64 10 16 C9.339999999999975 16 8.680000000000007 16 8 16 C8 15.340000000000003 8 14.680000000000007 8 14 C7.009999999999991 14.329999999999998 6.019999999999982 14.659999999999997 5 15 C4.700937500000009 14.525625000000005 4.700937500000009 14.525625000000005 3.1875 12.125 C1 9 1 9 -2 7 C-3.3525149712289135 5.686128313663332 -4.689453765985775 4.355737483463017 -6 3 C-5.670000000000016 2.3400000000000034 -5.339999999999975 1.6800000000000068 -5 1 C-4.339999999999975 1.6599999999999966 -3.680000000000007 2.319999999999993 -3 3 C-2.009999999999991 2.010000000000005 -1.0199999999999818 1.019999999999996 0 0 Z " fill="#F6F0D4" transform="translate(268,77)"/>
<path d="M0 0 C0.6599999999999966 0.3299999999999841 1.3199999999999932 0.660000000000025 2 1 C1.6699999999999875 1.660000000000025 1.3400000000000034 2.319999999999993 1 3 C4.960000000000008 2.339999999999975 8.920000000000016 1.6800000000000068 13 1 C10.761343503936985 3.2386564960630153 8.934294672643802 3.899639497758585 6 5 C5.6699999999999875 5.1650000000000205 5.6699999999999875 5.1650000000000205 4 6 C3.3812499999999943 6.144375000000025 2.7624999999999886 6.288749999999993 2.125 6.4375 C0 7 0 7 -1.875 8.125 C-4.825950118071603 9.340097107441238 -6.948616751910606 8.693496192747602 -10 8 C-7 6 -7 6 -4 5 C-4.990000000000009 4.670000000000016 -5.97999999999999 4.339999999999975 -7 4 C-1.7265625 0.77734375 -1.7265625 0.77734375 0 0 Z " fill="#E4E1D3" transform="translate(188,283)"/>
<path d="M0 0 C0.3299999999999841 0 0.660000000000025 0 1 0 C0.8584586394702001 2.562802081082509 0.7119143819971328 5.1251548520190795 0.5625 7.6875 C0.5428417968749955 8.04811523437499 0.5428417968749955 8.04811523437499 0.443359375 9.873046875 C-0.140625 19.7109375 -0.140625 19.7109375 -3 24 C-3.660000000000025 24.329999999999984 -4.319999999999993 24.659999999999997 -5 25 C-4.220956719817764 10.218678815489739 -4.220956719817764 10.218678815489739 -2 4 C-1.339999999999975 4 -0.6800000000000068 4 0 4 C0 2.680000000000007 0 1.3600000000000136 0 0 Z " fill="#EFEDE1" transform="translate(288,177)"/>
<path d="M0 0 C1.9799999999999898 0.6600000000000001 3.960000000000008 1.3200000000000003 6 2 C6.3300000000000125 1.3399999999999999 6.659999999999997 0.6799999999999997 7 0 C8.97999999999999 0.9899999999999984 10.960000000000008 1.9800000000000004 13 3 C12.669999999999987 3.990000000000002 12.340000000000003 4.98 12 6 C10.396672092200788 6.081219237355683 8.792159736327477 6.139291338393594 7.1875 6.1875 C6.294179687499991 6.222304687499999 5.40085937500001 6.257109374999999 4.48046875 6.29296875 C1.583524854099096 5.950810022137688 0.7744497215398098 5.246064265470654 -1 3 C-0.6699999999999875 2.009999999999998 -0.3400000000000034 1.0199999999999996 0 0 Z " fill="#F6F4EA" transform="translate(201,21)"/>
<path d="M0 0 C1.6499999999999773 0 3.3000000000000114 0 5 0 C5.329999999999984 2.969999999999999 5.660000000000025 5.939999999999998 6 9 C5.009999999999991 9.659999999999997 4.019999999999982 10.319999999999993 3 11 C0 9 0 9 -0.75 5.5 C-1 2 -1 2 0 0 Z " fill="#F8F4DF" transform="translate(262,117)"/>
<path d="M0 0 C0.8249999999999886 0.3299999999999983 0.8249999999999886 0.3299999999999983 5 2 C5 2.6599999999999966 5 3.319999999999993 5 4 C5.659999999999997 4 6.319999999999993 4 7 4 C10 9.625 10 9.625 10 13 C9.339999999999975 13 8.680000000000007 13 8 13 C7.670000000000016 12.010000000000005 7.339999999999975 11.019999999999996 7 10 C5.680000000000007 10 4.360000000000014 10 3 10 C0 3.375 0 3.375 0 0 Z " fill="#F4EED2" transform="translate(249,85)"/>
<path d="M0 0 C0.9900000000000091 0 1.9799999999999898 0 3 0 C3.990000000000009 1.980000000000004 4.980000000000018 3.9599999999999937 6 6 C5.670000000000016 5.010000000000005 5.339999999999975 4.019999999999996 5 3 C6.319999999999993 3.6599999999999966 7.639999999999986 4.319999999999993 9 5 C8.670000000000016 6.650000000000006 8.339999999999975 8.299999999999997 8 10 C7.339999999999975 10 6.680000000000007 10 6 10 C6 9.340000000000003 6 8.680000000000007 6 8 C5.339999999999975 8 4.680000000000007 8 4 8 C4.660000000000025 9.319999999999993 5.319999999999993 10.64 6 12 C3 11 3 11 1 8 C0.46083854021637194 5.339797703143063 0.26629902007292117 2.707373370741408 0 0 Z " fill="#E8DB94" transform="translate(254,78)"/>
<path d="M0 0 C0.6599999999999966 0.3299999999999983 1.3199999999999932 0.6599999999999966 2 1 C1.6699999999999875 2.3200000000000003 1.3400000000000034 3.6400000000000006 1 5 C1.990000000000009 5.659999999999997 2.9799999999999898 6.32 4 7 C4 6.340000000000003 4 5.68 4 5 C5.319999999999993 5.659999999999997 6.639999999999986 6.32 8 7 C7.009999999999991 7.659999999999997 6.02000000000001 8.32 5 9 C5.659999999999997 10.32 6.319999999999993 11.64 7 13 C4.0625 12.25 4.0625 12.25 1 11 C0.3125 8.9375 0.3125 8.9375 0 7 C-0.9900000000000091 6.670000000000002 -1.9799999999999898 6.340000000000003 -3 6 C-3 3 -3 3 -1.5 1.3125 C-1.2524999999999977 1.095937499999998 -1.2524999999999977 1.095937499999998 0 0 Z " fill="#F2ECC9" transform="translate(229,44)"/>
<path d="M0 0 C0.3299999999999841 0.6599999999999966 0.660000000000025 1.3199999999999932 1 2 C1.990000000000009 2 2.980000000000018 2 4 2 C3.670000000000016 7.939999999999998 3.339999999999975 13.879999999999995 3 20 C2.339999999999975 20 1.6800000000000068 20 1 20 C0.11978631077425916 13.288370619653818 -0.11381955458676885 6.765940189324624 0 0 Z " fill="#F0E7BA" transform="translate(262,128)"/>
<path d="M0 0 C1.6500000000000057 0 3.3000000000000114 0 5 0 C5 0.990000000000002 5 1.9799999999999969 5 3 C5.990000000000009 2.6700000000000017 6.97999999999999 2.3400000000000034 8 2 C8.659999999999997 3.3200000000000003 9.319999999999993 4.640000000000001 10 6 C8.680000000000007 6 7.360000000000014 6 6 6 C6.659999999999997 7.319999999999993 7.319999999999993 8.64 8 10 C3.9788135812885344 7.93506643363466 1.9866500223526486 6.077860572197537 0 2 C0 1.3400000000000034 0 0.6799999999999997 0 0 Z " fill="#DCCC6F" transform="translate(234,58)"/>
<path d="M0 0 C0.660000000000025 0 1.3199999999999932 0 2 0 C1.4235751605485234 3.890867666297339 -0.28168186828514763 6.206173031293048 -3 9 C-5.75 9.8125 -5.75 9.8125 -8 10 C-7.6699999999999875 8.349999999999994 -7.340000000000003 6.699999999999989 -7 5 C-6.030624999999986 4.731875000000002 -5.061249999999973 4.4637500000000045 -4.0625 4.1875 C-3.0518749999999955 3.795625000000001 -2.041249999999991 3.4037500000000023 -1 3 C-0.6700000000000159 2.009999999999991 -0.339999999999975 1.0200000000000102 0 0 Z " fill="#F8F4DF" transform="translate(263,215)"/>
<path d="M0 0 C2.727272727272748 4.0909090909090935 2.727272727272748 4.0909090909090935 3 7 C1.5625 8.75 1.5625 8.75 0 10 C-1.3199999999999932 9.340000000000003 -2.6399999999999864 8.680000000000007 -4 8 C-2.25 2.25 -2.25 2.25 0 0 Z " fill="#F0E7BA" transform="translate(272,135)"/>
<path d="M0 0 C2.8125 0.0625 2.8125 0.0625 6 1 C7.4926041009860285 3.2744443443596722 8.142420105142577 5.37961698793567 9 8 C8.009999999999991 8.329999999999998 7.02000000000001 8.659999999999997 6 9 C6 8.009999999999998 6 7.019999999999996 6 6 C4.02000000000001 6.329999999999998 2.039999999999992 6.659999999999997 0 7 C-0.3300000000000125 5.68 -0.6599999999999966 4.359999999999999 -1 3 C-0.009999999999990905 3 0.9799999999999898 3 2 3 C1.3400000000000034 2.009999999999998 0.6800000000000068 1.0200000000000031 0 0 Z " fill="#E9DEA1" transform="translate(233,52)"/>
<path d="M0 0 C0.660000000000025 1.3199999999999932 1.3199999999999932 2.6399999999999864 2 4 C2.660000000000025 4 3.319999999999993 4 4 4 C3.339999999999975 5.650000000000006 2.680000000000007 7.300000000000011 2 9 C0.6800000000000068 9 -0.6399999999999864 9 -2 9 C-2.6875 7.3125 -2.6875 7.3125 -3 5 C-1.5625 2.25 -1.5625 2.25 0 0 Z " fill="#F8F4DF" transform="translate(267,188)"/>
<path d="M0 0 C0.660000000000025 0.3299999999999983 1.3199999999999932 0.6599999999999966 2 1 C2 2.319999999999993 2 3.6400000000000006 2 5 C2.660000000000025 5 3.319999999999993 5 4 5 C4 5.989999999999995 4 6.980000000000004 4 8 C1.6899999999999977 7.670000000000002 -0.6200000000000045 7.340000000000003 -3 7 C-3 5.019999999999996 -3 3.0400000000000063 -3 1 C-2.009999999999991 0.6700000000000017 -1.0199999999999818 0.3400000000000034 0 0 Z " fill="#E9DD9A" transform="translate(262,93)"/>
<path d="M0 0 C3.2569647921345393 0.41755958873519816 4.63443290623411 0.6344329062341032 7 3 C7.625 5.125 7.625 5.125 8 7 C1.353846153846149 5.523076923076921 1.353846153846149 5.523076923076921 -0.4375 2.875 C-0.6231249999999875 2.2562500000000014 -0.8087500000000034 1.6374999999999993 -1 1 C-0.6699999999999875 0.6700000000000017 -0.3400000000000034 0.33999999999999986 0 0 Z " fill="#F3EECE" transform="translate(209,28)"/>
<path d="M0 0 C2 3 2 3 2.9375 5.4375 C3.998028955596965 7.995246304675021 5.258712728370085 9.862965621181488 7 12 C6.339999999999975 13.319999999999993 5.680000000000007 14.64 5 16 C3.964558256559826 14.091185655571195 2.9470991540854357 12.172607956299345 1.9375 10.25 C1.3690234375000045 9.182656250000008 0.8005468750000091 8.115312500000002 0.21484375 7.015625 C-1.0104480564306186 3.9740646316256374 -1.2534860717932474 2.9510643518789124 0 0 Z " fill="#E6E5DA" transform="translate(276,83)"/>
<path d="M0 0 C0.9900000000000091 0 1.9800000000000182 0 3 0 C2.3900910929902466 3.5578019575569897 1.4216319017540968 6.682858895907032 0 10 C-0.9900000000000091 9.669999999999987 -1.9800000000000182 9.340000000000003 -3 9 C-2.009999999999991 6.030000000000001 -1.0199999999999818 3.0600000000000023 0 0 Z " fill="#F9F6E4" transform="translate(278,203)"/>
<path d="M0 0 C1.3199999999999932 0.6599999999999966 2.6399999999999864 1.3199999999999932 4 2 C4 2.990000000000009 4 3.9799999999999898 4 5 C3.6081249999999727 5.0721875000000125 3.6081249999999727 5.0721875000000125 1.625 5.4375 C-1 6 -1 6 -3 7 C-2.25 2.25 -2.25 2.25 0 0 Z " fill="#F8F6EC" transform="translate(261,234)"/>
<path d="M0 0 C2.6399999999999864 0.3299999999999983 5.279999999999973 0.6599999999999966 8 1 C8 3 8 5 8 7 C4.204786899512413 5.509023424808447 2.3895726919165554 3.2429915104581966 0 0 Z " fill="#EEE5B3" transform="translate(251,62)"/>
<path d="M0 0 C2.175530600634204 2.175530600634204 2.718795529744682 3.5597389151927814 3.6875 6.4375 C3.959492187500018 7.219960937500005 4.2314843749999795 8.002421874999996 4.51171875 8.80859375 C5 11 5 11 4 14 C3.670000000000016 12.349999999999994 3.339999999999975 10.700000000000003 3 9 C2.339999999999975 9 1.6800000000000068 9 1 9 C0.6700000000000159 6.030000000000001 0.339999999999975 3.0600000000000023 0 0 Z " fill="#E2E0D2" transform="translate(283,102)"/>
<path d="M0 0 C3.9999628569465244 1.3333209523155176 4.837823368252316 3.495782700271022 7 7 C6.670000000000016 7.659999999999997 6.339999999999975 8.319999999999993 6 9 C1.3125 5.484375 1.3125 5.484375 0 4 C0 2.680000000000007 0 1.3599999999999994 0 0 Z " fill="#EDEBDF" transform="translate(263,67)"/>
<path d="M0 0 C1.3199999999999932 0 2.6399999999999864 0 4 0 C4 1.3199999999999932 4 2.6400000000000006 4 4 C4.990000000000009 4 5.97999999999999 4 7 4 C7 5.319999999999993 7 6.640000000000001 7 8 C6.340000000000003 8 5.680000000000007 8 5 8 C0 2.5238095238095184 0 2.5238095238095184 0 0 Z " fill="#F6F0D4" transform="translate(244,68)"/>
<path d="M0 0 C1.2500905400825673 2.5001810801650777 0.8673344913093501 3.3393527822137514 0.1875 6 C0.016054687500002274 6.7012499999999875 -0.15539062499999545 7.402500000000003 -0.33203125 8.125 C-1 10 -1 10 -3 12 C-4.3255411788741185 8.023376463377673 -3.3476599443336568 5.901120891492127 -2 2 C-1.339999999999975 1.3400000000000034 -0.6800000000000068 0.6800000000000068 0 0 Z " fill="#E3E1D7" transform="translate(280,207)"/>
<path d="M0 0 C-6.363636363636374 5 -6.363636363636374 5 -11 5 C-11 4.339999999999975 -11 3.680000000000007 -11 3 C-7.142434934601027 0.8469404286145163 -4.4487021499365085 -0.39253254264144744 0 0 Z " fill="#5C5B57" transform="translate(177,291)"/>
<path d="M0 0 C2 0 2 0 3.6875 1.25 C4.120625000000018 1.8275000000000006 4.5537499999999795 2.405000000000001 5 3 C4.6875 5 4.6875 5 4 7 C4 7.989999999999995 4 8.980000000000004 4 10 C1.8090234843166968 6.665905302221034 0.5654583696236841 3.958208587365874 0 0 Z " fill="#F0E7B9" transform="translate(256,75)"/>
<path d="M0 0 C1.9799999999999898 0 3.960000000000008 0 6 0 C6.3300000000000125 1.6500000000000057 6.659999999999997 3.299999999999997 7 5 C6.340000000000003 5 5.680000000000007 5 5 5 C4.6699999999999875 5.659999999999997 4.340000000000003 6.319999999999993 4 7 C1.125 2.25 1.125 2.25 0 0 Z " fill="#E4D685" transform="translate(239,63)"/>
<path d="M0 0 C0.9900000000000091 0 1.9800000000000182 0 3 0 C1.375 5.75 1.375 5.75 -2 8 C-1.125 2.25 -1.125 2.25 0 0 Z " fill="#F2EBC4" transform="translate(274,211)"/>
<path d="M0 0 C1.3199999999999932 0.3299999999999841 2.6399999999999864 0.660000000000025 4 1 C3.6699999999999875 1.990000000000009 3.3400000000000034 2.980000000000018 3 4 C2.009999999999991 4.329999999999984 1.0200000000000102 4.660000000000025 0 5 C-0.6599999999999966 4.339999999999975 -1.3199999999999932 3.680000000000007 -2 3 C-1.3400000000000034 2.009999999999991 -0.6800000000000068 1.0199999999999818 0 0 Z " fill="#E9E8E0" transform="translate(233,264)"/>
<path d="M0 0 C0.9900000000000091 0 1.9800000000000182 0 3 0 C3.329999999999984 0.9900000000000091 3.660000000000025 1.9799999999999898 4 3 C3.009999999999991 3.990000000000009 2.019999999999982 4.97999999999999 1 6 C0.339999999999975 4.349999999999994 -0.3199999999999932 2.6999999999999886 -1 1 C-0.6700000000000159 0.6699999999999875 -0.339999999999975 0.3400000000000034 0 0 Z " fill="#ECEBE3" transform="translate(264,232)"/>
<path d="M0 0 C1 3 1 3 0 6 C0.660000000000025 6 1.3199999999999932 6 2 6 C2 6.659999999999997 2 7.319999999999993 2 8 C0.6800000000000068 7.340000000000003 -0.6399999999999864 6.680000000000007 -2 6 C-2 4.349999999999994 -2 2.6999999999999886 -2 1 C-1.339999999999975 0.6699999999999875 -0.6800000000000068 0.3400000000000034 0 0 Z " fill="#F8F6EB" transform="translate(283,196)"/>
<path d="M0 0 C0.9900000000000091 0 1.9800000000000182 0 3 0 C3 0.6599999999999966 3 1.3199999999999932 3 2 C3.660000000000025 2.3299999999999983 4.319999999999993 2.6599999999999966 5 3 C4.339999999999975 3 3.680000000000007 3 3 3 C3.329999999999984 4.319999999999993 3.660000000000025 5.640000000000001 4 7 C3.009999999999991 6.670000000000002 2.019999999999982 6.340000000000003 1 6 C1 5.340000000000003 1 4.680000000000007 1 4 C0.339999999999975 3.6700000000000017 -0.3199999999999932 3.3400000000000034 -1 3 C-0.009999999999990905 3 0.9800000000000182 3 2 3 C2 2.3400000000000034 2 1.6800000000000068 2 1 C1.339999999999975 0.6700000000000017 0.6800000000000068 0.3400000000000034 0 0 Z " fill="#F6F0D5" transform="translate(263,102)"/>
<path d="M0 0 C3.1611577555191275 1.3698350273916233 3.992709197315321 1.9890637959729744 6 5 C3 5 3 5 0.8125 3 C0.21437499999998977 2.3400000000000034 -0.38374999999999204 1.6799999999999997 -1 1 C-0.6699999999999875 0.6700000000000017 -0.3400000000000034 0.3400000000000034 0 0 Z " fill="#EBEAE3" transform="translate(239,39)"/>
<path d="M0 0 C3 1 3 1 4 3 C4.039992002399174 4.999600119960007 4.043467990818442 7.000472422352175 4 9 C2 6 2 6 2 3 C1.339999999999975 3 0.6800000000000068 3 0 3 C0 2.010000000000005 0 1.019999999999996 0 0 Z " fill="#EDE2AB" transform="translate(275,94)"/>
</svg>
