<?xml version="1.0" encoding="UTF-8"?>
<!-- Generator: visioncortex VTracer 0.6.12 -->
<svg version="1.1" xmlns="http://www.w3.org/2000/svg" width="300" height="303">
<path d="M0 0 C-0.1917591125198186 8.001584786053883 -0.1917591125198186 8.001584786053883 -3.125 11.625 C-4.073750000000004 12.408749999999998 -5.022499999999994 13.192500000000003 -6 14 C-11.914295617532431 19.53177898555272 -17.02206067200396 25.62201523600507 -22 32 C-22.783749999999998 32.9938671875 -23.567499999999995 33.987734375 -24.375 35.01171875 C-49.71990493955481 68.18297493248713 -61.19780145537076 111.79930281671713 -56.17724609375 153.129638671875 C-50.838318597730414 191.48486545552842 -32.74484121076546 231.31543135131705 -2.0625 256.0625 C2.787582582038169 260.17377071918287 4.413615020097069 264.965080915614 6 271 C-1.1785509417677247 273.39285031392257 -7.16306135924907 270.77372343237795 -13.625 267.5625 C-37.319823292475675 255.3525400550556 -57.835990386888156 237.69184376590232 -72 215 C-72.372216796875 214.4091259765625 -72.74443359375 213.818251953125 -73.1279296875 213.20947265625 C-94.3702221570226 178.9737063189674 -99.86889843027106 137.31737135347726 -90.75 98.3125 C-81.2120728332582 59.62443730811799 -57.77154208031139 28.1258469462664 -24 7 C-9.527407426201009 -1.6489743622270971 -9.527407426201009 -1.6489743622270971 0 0 Z " fill="#FAFAF8" transform="translate(96,16)"/>
<path d="M0 0 C0.6600000000000001 0 1.3200000000000003 0 2 0 C2 1.6500000000000057 2 3.299999999999997 2 5 C2.3299999999999983 4.340000000000003 2.66 3.680000000000007 3 3 C3.66 3 4.32 3 5 3 C6.125 7.75 6.125 7.75 5 10 C4.930039862571931 11.707027353244996 4.915598461891996 13.416680027575609 4.9375 15.125 C4.946523437500005 16.035078125 4.955546874999996 16.945156249999997 4.96484375 17.8828125 C4.9764453125000045 18.581484375000002 4.988046874999995 19.280156250000005 5 20 C5.989999999999995 20.33 6.980000000000004 20.659999999999997 8 21 C8.659999999999997 20.67 9.32 20.340000000000003 10 20 C9.544375203024664 24.467777135389227 9.058251123394783 28.88712061042088 8.24609375 33.3046875 C2.4641270664617885 65.30221758526704 5.376583123384428 100.77747145505236 18.7646484375 130.62255859375 C20.304567318820837 134.07242125961693 21 136.1436883799012 21 140 C20.340000000000003 140 19.68 140 19 140 C19 139.34 19 138.68 19 138 C18.340000000000003 138 17.68 138 17 138 C16.67 137.01 16.340000000000003 136.02 16 135 C15.009999999999998 134.67 14.020000000000003 134.34 13 134 C12.312499999999993 131.93749999999997 12.312499999999993 131.93749999999997 12 130 C11.340000000000003 130 10.68 130 10 130 C9.938125 129.38125 9.876249999999999 128.7625 9.8125 128.125 C9.544375000000002 127.42374999999998 9.276250000000005 126.7225 9 126 C7.347955442333216 125.29788106299162 5.680762311646006 124.63028586686727 4 124 C3.6700000000000017 123.00999999999999 3.34 122.01999999999998 3 121 C2.5874999999999986 120.5875 2.5874999999999986 120.5875 0.5 118.5 C-1.9999999999999964 116 -1.9999999999999964 116 -3 113 C-2.34 113 -1.6799999999999997 113 -1 113 C-1.3299999999999983 111.35 -1.6600000000000001 109.69999999999999 -2 108 C-2.990000000000002 107.67000000000002 -3.9800000000000004 107.34 -5 107 C-8.19861236304692 104.56905460408433 -8.762175898961381 101.71347230311585 -10 98 C-10.5014453125 97.53980468750001 -11.002890625 97.07960937500002 -11.51953125 96.60546875 C-13.447150719529592 94.5150951300088 -13.484446808068121 93.11463404865992 -13.6875 90.3125 C-13.7532421875 89.50425781249999 -13.818984375 88.696015625 -13.88671875 87.86328125 C-13.90541015625 87.55583984375 -13.90541015625 87.55583984375 -14 86 C-14.66 86 -15.32 86 -16 86 C-16.09765625 79.84765625 -16.09765625 79.84765625 -16 78 C-15.835 77.83500000000001 -15.835 77.83500000000001 -15 77 C-14.927734983795647 75.14712498452042 -14.916187802019307 73.29166122432025 -14.9375 71.4375 C-14.9465234375 70.42558593749999 -14.955546875 69.413671875 -14.96484375 68.37109375 C-14.976445312500001 67.58863281250001 -14.988046875 66.80617187500002 -15 66 C-15.66 66 -16.32 66 -17 66 C-16.67 68.63999999999999 -16.34 71.28 -16 74 C-16.66 74 -17.32 74 -18 74 C-18.049391149728734 69.90661348325085 -18.085715006984294 65.81334201602195 -18.10986328125 61.7197265625 C-18.11992877440147 60.32679218766771 -18.133582336985793 58.933878976313935 -18.15087890625 57.541015625 C-18.175102201652912 55.54045640466546 -18.18540813687938 53.53974385036463 -18.1953125 51.5390625 C-18.2057861328125 50.3345947265625 -18.216259765625 49.130126953125 -18.22705078125 47.88916015625 C-18 45 -18 45 -16 43 C-15.76953125 40.06640625 -15.76953125 40.06640625 -15.8125 36.5625 C-15.8189453125 35.408789062500006 -15.825390625 34.255078125 -15.83203125 33.06640625 C-16 30 -16 30 -17 27 C-14.999999999999998 24 -14.999999999999998 24 -13 23 C-12.140624999999996 21.3203125 -12.140624999999996 21.3203125 -11.25 19.125 C-8.875341384802844 13.539155302888517 -5.966154950818794 8.28964299562685 -3 3 C-2.34 3 -1.6799999999999997 3 -1 3 C-0.6700000000000017 2.010000000000005 -0.33999999999999986 1.019999999999996 0 0 Z " fill="#E4DBA7" transform="translate(28,85)"/>
<path d="M0 0 C0.3299999999999983 0 0.6599999999999966 0 1 0 C0.6319702602230564 7.237918215613384 0.6319702602230564 7.237918215613384 -2.125 10.5625 C-3.0737499999999898 11.366875 -4.022500000000008 12.17125 -5 13 C-10.908039559091932 18.54062416362602 -16.020554474585083 24.620085420562134 -21 31 C-21.783749999999998 31.9938671875 -22.567499999999995 32.987734375 -23.375 34.01171875 C-48.7199049395548 67.18297493248711 -60.19780145537076 110.79930281671713 -55.17724609375 152.129638671875 C-49.7586042496452 191.0575388812303 -31.415313368687066 229.67884853854574 -1 255.3125 C2.8209577622008197 258.59934538683945 4.661887726262407 261.1254481456702 6 266 C5.670000000000002 266.99 5.340000000000003 267.98 5 269 C3.3728484391367886 268.0453243609696 1.7483465373719866 267.0861315192939 0.125 266.125 C-0.7799218749999994 265.591328125 -1.6848437499999989 265.05765625 -2.6171875 264.5078125 C-4.999999999999943 263.00000000000006 -4.999999999999943 263.00000000000006 -7 261 C-7 260.34 -7 259.68 -7 259 C-8.249999999999872 257.5705566406251 -8.249999999999872 257.5705566406251 -10 255.91015625 C-10.3182373046875 255.60279541015626 -10.3182373046875 255.60279541015626 -11.9287109375 254.04736328125 C-12.270473632812497 253.71986083984376 -12.270473632812497 253.71986083984376 -14 252.0625 C-19.515825084024584 246.69305543135704 -24.258597011220004 241.429439699083 -28.484375 234.9765625 C-30 233 -30 233 -33 232 C-33 232.66 -33 233.32 -33 234 C-32.34 234 -31.68 234 -31 234 C-31 234.66 -31 235.32 -31 236 C-30.340000000000003 236 -29.680000000000007 236 -29 236 C-29.33 236.99 -29.659999999999997 237.98 -30 239 C-31.65 239 -33.3 239 -35 239 C-34.34 240.32 -33.68 241.64 -33 243 C-34.65 242.66999999999996 -36.3 242.34000000000003 -38 242 C-38 241.01 -38 240.01999999999998 -38 239 C-37.34 239 -36.68 239 -36 239 C-36 238.34 -36 237.68 -36 237 C-36.66 237 -37.32 237 -38 237 C-38.66 236.01 -39.32 235.02 -40 234 C-40.989999999999995 233.67 -41.980000000000004 233.34 -43 233 C-42.835 233.66 -42.835 233.66 -42 237 C-44.500000000000014 235.625 -44.500000000000014 235.625 -47 234 C-47 233.34 -47 232.68 -47 232 C-47.66 232 -48.32 232 -49 232 C-49.33 231.01 -49.66 230.02 -50 229 C-44.249999999999886 230.87500000000006 -44.249999999999886 230.87500000000006 -42 232 C-41.34 230.35 -40.68 228.7 -40 227 C-39.010000000000005 227 -38.019999999999996 227 -37 227 C-37 227.66 -37 228.32 -37 229 C-35.68 229.33 -34.36 229.66 -33 230 C-33.31638427734375 229.44352783203124 -33.6327685546875 228.8870556640625 -33.958740234375 228.313720703125 C-58.68039863139762 184.58021721582563 -70.00024143793027 137.69616228072948 -56.7421875 88.08154296875 C-53.295097017134246 75.83233799275577 -48.64251733480355 64.38906943851663 -43 53 C-42.498554687500004 51.9584375 -41.997109375 50.916875000000005 -41.48046875 49.84375 C-36.34272466722166 39.775548339223995 -29.092694572858363 30.757646350524645 -22 22 C-24.310000000000002 21.340000000000003 -26.620000000000005 20.68 -29 20 C-26.040456593222785 15.793949394801842 -22.847228638958654 13.438920720064623 -18.375 11.0625 C-17.12842263723084 10.375877277960768 -15.882332298525512 9.688369647441494 -14.63671875 9 C-14.023608398437503 8.66484375 -13.410498046875006 8.329687499999999 -12.77880859375 7.984375 C-10.214927641422662 6.565548757921512 -7.699702356877282 5.070546436451586 -5.1875 3.5625 C-4.397304687499997 3.0894140625000013 -3.607109374999993 2.616328124999999 -2.79296875 2.12890625 C-1 1.000000000000007 -1 1.000000000000007 0 0 Z " fill="#FEFEFE" transform="translate(95,17)"/>
<path d="M0 0 C0.9900000000000002 0.3299999999999983 1.9800000000000004 0.6599999999999966 3 1 C3.053919926401605 2.7913397771200152 3.092755714561111 4.583138994896061 3.125 6.375 C3.148203125 7.372734374999993 3.1714062500000004 8.37046875 3.1953125 9.3984375 C3 12 3 12 1 14 C0.68115234375 16.88916015625 0.68115234375 16.88916015625 0.5859375 20.5390625 C0.5472656249999996 21.84101562500001 0.5085937499999993 23.142968749999994 0.46875 24.484375 C0.4372923677128373 25.86457861659926 0.40604508995510713 27.244787042412497 0.375 28.625 C0.3368206624750467 30.013045406627526 0.29776895050300567 31.401067112854633 0.2578125 32.7890625 C0.16327057363242936 36.192571849232536 0.07772102971150474 39.596071649952165 0 43 C0.6600000000000001 43 1.3200000000000003 43 2 43 C1.67 40.360000000000014 1.3399999999999999 37.72 1 35 C1.6600000000000001 35 2.3200000000000003 35 3 35 C3.1940163318791868 36.811814053087176 3.380043745982759 38.62448532400589 3.5625 40.4375 C3.6669140625 41.4468359375 3.771328125 42.456171874999995 3.87890625 43.49609375 C3.898886718749999 43.90923828125 3.898886718749999 43.90923828125 4 46 C3.835000000000001 46.16499999999999 3.835000000000001 46.16499999999999 3 47 C2.769249179288897 48.34747084193026 2.588469372241569 49.70377564982587 2.4375 51.0625 C2.293125 52.361875 2.1487499999999997 53.661249999999995 2 55 C2.66 55 3.3200000000000003 55 4 55 C4.33 56.815 4.33 56.815 6 66 C6.990000000000002 66.32999999999998 7.98 66.66 9 67 C9.329999999999998 68.98000000000002 9.66 70.95999999999998 10 73 C10.990000000000002 73.32999999999998 11.98 73.66 13 74 C17 78.34285714285716 17 78.34285714285716 17 82 C16.34 82 15.68 82 15 82 C15.66 82.78375 16.32 83.5675 17 84.375 C19 87 19 87 19 89 C19.494999999999997 89.16499999999999 19.494999999999997 89.16499999999999 22 90 C22.33 90.99000000000001 22.659999999999997 91.98000000000002 23 93 C25.562499999999957 94.1875 25.562499999999957 94.1875 28 95 C28 96.32 28 97.63999999999999 28 99 C28.659999999999997 99 29.32 99 30 99 C30.33 100.32 30.659999999999997 101.63999999999999 31 103 C32.32 103.32999999999998 33.64 103.66 35 104 C35 104.99000000000001 35 105.98000000000002 35 107 C35.66 107 36.32 107 37 107 C37 107.66 37 108.32 37 109 C37.66 109 38.32 109 39 109 C39.33 108.34 39.66 107.68 40 107 C40.25692626953125 107.48879638671875 40.5138525390625 107.9775927734375 40.778564453125 108.481201171875 C41.9550605655235 110.71741761779111 43.13376116447683 112.95246496768243 44.3125 115.1875 C44.71662109375 115.95642578125 45.1207421875 116.72535156250001 45.537109375 117.517578125 C47.22100478339263 120.70739625634536 48.9075012533779 123.84905977947722 50.79296875 126.92578125 C52 129 52 129 52 131 C50.68 130.67 49.36 130.34 48 130 C48 129.34 48 128.68 48 128 C47.01 128 46.02 128 45 128 C44.34 129.65 43.68 131.3 43 133 C37.934528221983086 131.70418163818172 35.60125897577514 129.69602894882186 32 126 C29.68750000000003 125.1875 29.68750000000003 125.1875 28 125 C27.896875 124.360625 27.793750000000003 123.72125 27.6875 123.0625 C27.460625 122.38187499999998 27.23375 121.70125000000002 27 121 C26.505000000000003 120.83500000000001 26.505000000000003 120.83500000000001 24 120 C24.165 119.505 24.165 119.505 25 117 C24.010000000000005 117 23.019999999999996 117 22 117 C22 116.00999999999999 22 115.01999999999998 22 114 C21.34 114 20.68 114 20 114 C20 113.00999999999999 20 112.01999999999998 20 111 C19.34 111 18.68 111 18 111 C10.271186440677965 97.60338983050849 10.271186440677965 97.60338983050849 9.6875 92 C9.109971677123067 87.16976311775656 7.061950582104309 82.84616504412296 5.2734375 78.359375 C2.886236717630723 72.06185146368841 1.27386720966431 65.60523738344457 0 59 C0 60.97999999999999 0 62.96000000000001 0 65 C-0.33000000000000007 65 -0.6600000000000001 65 -1 65 C-2.228993463031414 58.93184477628239 -3.275602138772281 53.201048122376335 -3 47 C-2.67 47 -2.34 47 -2 47 C-2 42.05000000000001 -2 37.099999999999994 -2 32 C-2.33 35.629999999999995 -2.66 39.25999999999999 -3 43 C-3.33 43 -3.66 43 -4 43 C-4.476197545184546 28.55534112940211 -3.6812049972492265 14.04612882508357 0 0 Z " fill="#F9F6E9" transform="translate(10,116)"/>
<path d="M0 0 C0.3299999999999983 0 0.6600000000000001 0 1 0 C0.6700000000000017 2.6400000000000006 0.33999999999999986 5.280000000000001 0 8 C0.6600000000000001 8 1.3200000000000003 8 2 8 C2.3299999999999983 6.680000000000007 2.66 5.359999999999999 3 4 C3.66 4 4.32 4 5 4 C5 9 5 14 5 19 C5.989999999999998 19.33 6.98 19.659999999999997 8 20 C7.010000000000002 20.33 6.02 20.659999999999997 5 21 C5.66 22.980000000000004 6.32 24.960000000000008 7 27 C6.34 27 5.68 27 5 27 C5.206250000000001 27.94874999999999 5.412500000000001 28.897500000000008 5.625 29.875 C6.35715457058809 34.759373642142464 5.153629509165896 39.2615382970624 4 44 C5.32 44.329999999999984 6.640000000000001 44.66 8 45 C8.329999999999998 46.650000000000006 8.66 48.30000000000001 9 50 C9.66 50 10.32 50 11 50 C11.621236748259243 57.07766152481065 12.12091383110171 64.06458904480874 11.9375 71.171875 C12 73 12 73 13 74 C12.670000000000002 74.99000000000001 12.340000000000003 75.98000000000002 12 77 C10.350000000000001 77 8.7 77 7 77 C7 76.00999999999999 7 75.01999999999998 7 74 C5.350000000000001 74 3.6999999999999993 74 2 74 C2 75.65 2 77.30000000000001 2 79 C0.6799999999999997 78.67000000000002 -0.6400000000000006 78.34 -2 78 C-2 78.99000000000001 -2 79.98000000000002 -2 81 C-2.990000000000002 81 -3.9800000000000004 81 -5 81 C-7 73.375 -7 73.375 -7 70 C-7.66 70 -8.32 70 -9 70 C-9.09765625 63.84765625 -9.09765625 63.84765625 -9 62 C-8.835 61.83500000000001 -8.835 61.83500000000001 -8 61 C-7.927734983795647 59.14712498452039 -7.916187802019307 57.29166122432025 -7.9375 55.4375 C-7.9465234375 54.42558593749999 -7.955546875 53.413671875000006 -7.96484375 52.37109375 C-7.976445312500001 51.58863281250001 -7.988046875 50.80617187499999 -8 50 C-8.66 50 -9.32 50 -10 50 C-9.67 52.639999999999986 -9.34 55.28 -9 58 C-9.66 58 -10.32 58 -11 58 C-11.049391149728734 53.90661348325088 -11.085715006984298 49.81334201602195 -11.10986328125 45.7197265625 C-11.119928774401469 44.32679218766771 -11.133582336985793 42.933878976313935 -11.15087890625 41.541015625 C-11.17510220165291 39.54045640466546 -11.185408136879383 37.53974385036463 -11.1953125 35.5390625 C-11.2057861328125 34.3345947265625 -11.216259765625 33.130126953125 -11.22705078125 31.88916015625 C-11 29 -11 29 -9 27 C-8.503140369651053 23.89002675818621 -8.165720422003227 20.8077132114245 -7.876953125 17.673828125 C-7.404616576331813 13.371735776319497 -6.463374019517147 10.541866127564461 -4 7 C-3.2664807088231242 5.7316740015436665 -2.5367331230468366 4.461151354323746 -1.8125 3.1875 C-1.2143750000000004 2.1356250000000045 -0.6162500000000009 1.0837499999999949 0 0 Z " fill="#DDCB65" transform="translate(21,101)"/>
<path d="M0 0 C0.9281249999999943 0.20624999999999716 1.8562500000000028 0.4125000000000014 2.8125 0.625 C2.0287500000000023 1.65625 1.2450000000000045 2.6875 0.4375 3.75 C-0.7711157109586821 5.374789988788791 -1.9794041485126996 6.999823437880174 -3.1875 8.625 C-3.9609375 9.643359375000003 -4.734375 10.661718749999999 -5.53125 11.7109375 C-18.09423719706217 28.507425464797734 -27.670838773703906 49.11183026390525 -32.1875 69.625 C-35.29301665708096 69.625 -36.540110836501526 69.08562850399916 -39.1875 67.625 C-39.29227512266356 61.83908489291218 -39.18000545098773 56.331906343179426 -38.1875 50.625 C-38.8475 50.625 -39.5075 50.625 -40.1875 50.625 C-40.5175 51.61500000000001 -40.8475 52.60499999999999 -41.1875 53.625 C-42.3125 49.875 -42.3125 49.875 -41.1875 47.625 C-45.26513770520938 50.49036703609309 -47.21427065308273 53.05541624924422 -49.1875 57.625 C-50.22374700357868 54.94440894882641 -50.298411918452985 53.896407988684956 -49.19140625 51.1875 C-48.95357421875 50.76468750000001 -48.95357421875 50.76468750000001 -47.75 48.625 C-45.76867988930255 45.083457785783295 -45.1875 43.822283128583194 -45.1875 39.625 C-44.5275 39.625 -43.8675 39.625 -43.1875 39.625 C-43.125625 38.94437500000001 -43.06375 38.26375 -43 37.5625 C-41.902111452202504 33.59321063488596 -39.69726024878071 30.838604451390793 -37.1875 27.625 C-35.8675 27.955 -34.5475 28.284999999999997 -33.1875 28.625 C-32.8575 27.965000000000003 -32.5275 27.305000000000007 -32.1875 26.625 C-31.527500000000003 26.625 -30.8675 26.625 -30.1875 26.625 C-30.1875 25.965000000000003 -30.1875 25.305 -30.1875 24.625 C-24.711309523809526 19.625 -24.711309523809526 19.625 -22.1875 19.625 C-22.084375 19.2640625 -22.084375 19.2640625 -21.5625 17.4375 C-19.735018372031718 13.699469397337595 -17.483111942486488 12.132530825804935 -14.1875 9.625 C-13.527500000000003 9.954999999999998 -12.8675 10.284999999999997 -12.1875 10.625 C-12.1875 9.965000000000003 -12.1875 9.305 -12.1875 8.625 C-11.527500000000003 8.625 -10.8675 8.625 -10.1875 8.625 C-10.1875 7.965000000000003 -10.1875 7.305 -10.1875 6.625 C-9.527500000000003 6.625 -8.8675 6.625 -8.1875 6.625 C-7.919375000000002 5.841250000000002 -7.651249999999997 5.057499999999997 -7.375 4.25 C-5.623768752256382 0.37885724182990543 -4.225697021501759 -0.49714082605903087 0 0 Z " fill="#F6F1D6" transform="translate(71.1875,37.375)"/>
<path d="M0 0 C1.3200000000000003 0 2.6400000000000006 0 4 0 C4.265546874999998 0.7102734375000068 4.531093749999997 1.4205468750000136 4.8046875 2.15234375 C5.157890625 3.0714453125000034 5.511093750000001 3.990546875000007 5.875 4.9375 C6.049023437499997 5.395761718750009 6.049023437499997 5.395761718750009 6.9296875 7.71484375 C8 10 8 10 10 11 C10.659999999999997 9.680000000000007 11.32 8.360000000000014 12 7 C12.329999999999998 7.990000000000009 12.659999999999997 8.97999999999999 13 10 C14.649999999999999 10 16.299999999999997 10 18 10 C18.33 9.340000000000003 18.659999999999997 8.680000000000007 19 8 C19.25692626953125 8.488796386718747 19.513852539062498 8.977592773437493 19.778564453125 9.481201171875 C20.955060565523517 11.717417617791142 22.133761164476823 13.952464967682403 23.3125 16.1875 C23.71662109375 16.956425781250005 24.1207421875 17.72535156250001 24.537109375 18.517578125 C26.22100478339261 21.707396256345334 27.907501253377923 24.849059779477273 29.79296875 27.92578125 C31 30 31 30 31 32 C29.68 31.670000000000016 28.36 31.340000000000003 27 31 C27 30.340000000000003 27 29.680000000000007 27 29 C26.009999999999998 29 25.019999999999996 29 24 29 C23.67 29.82499999999999 23.67 29.82499999999999 22 34 C16.934528221983108 32.70418163818172 14.601258975775124 30.696028948821834 11 27 C8.687500000000014 26.1875 8.687500000000014 26.1875 7 26 C6.948437499999997 25.680312500000014 6.948437499999997 25.680312500000014 6.6875 24.0625 C6.460625 23.381875000000008 6.233750000000001 22.701250000000016 6 22 C5.009999999999998 21.670000000000016 4.019999999999996 21.340000000000003 3 21 C3.3299999999999983 20.00999999999999 3.6599999999999966 19.02000000000001 4 18 C3.009999999999998 18 2.019999999999996 18 1 18 C1 17.00999999999999 1 16.02000000000001 1 15 C0.33999999999999986 15 -0.3200000000000003 15 -1 15 C-1 14.009999999999991 -1 13.02000000000001 -1 12 C-1.6600000000000001 12 -2.3200000000000003 12 -3 12 C-4.6875 9.625 -4.6875 9.625 -6 7 C-5.670000000000002 6.340000000000003 -5.34 5.680000000000007 -5 5 C-2 5 -2 5 1 6 C0.6700000000000017 4.02000000000001 0.33999999999999986 2.039999999999992 0 0 Z " fill="#F7F3DF" transform="translate(31,215)"/>
<path d="M0 0 C0.6600000000000001 0 1.3200000000000003 0 2 0 C2 1.6500000000000057 2 3.299999999999997 2 5 C2.3299999999999983 4.340000000000003 2.66 3.680000000000007 3 3 C3.66 3 4.32 3 5 3 C6.125 7.75 6.125 7.75 5 10 C4.930039862571931 11.707027353244996 4.915598461891996 13.416680027575609 4.9375 15.125 C4.946523437500005 16.035078125 4.955546874999996 16.945156249999997 4.96484375 17.8828125 C4.9764453125000045 18.581484375000002 4.988046874999995 19.280156250000005 5 20 C5.989999999999995 20.33 6.980000000000004 20.659999999999997 8 21 C8.659999999999997 20.67 9.32 20.340000000000003 10 20 C9.434249672567958 25.46891983184304 8.780641041056683 30.923913672609075 8.0625 36.375 C7.909101562499998 37.55835937500001 7.755703124999997 38.74171874999999 7.59765625 39.9609375 C7 43 7 43 5 46 C3.3500000000000014 45.670000000000016 1.6999999999999993 45.34 0 45 C-0.6600000000000001 45.99000000000001 -1.3200000000000003 46.97999999999999 -2 48 C-2 46.349999999999994 -2 44.69999999999999 -2 43 C-1.3399999999999999 43 -0.6799999999999997 43 0 43 C-0.6600000000000001 41.02000000000001 -1.3200000000000003 39.03999999999999 -2 37 C-2.66 37 -3.3200000000000003 37 -4 37 C-3.8466015624999983 36.47921875 -3.693203125 35.9584375 -3.53515625 35.421875 C-2.860174894092303 32.36721484917685 -2.655888820538628 29.36984029340894 -2.4375 26.25 C-2.3537109375000007 25.079531250000002 -2.2699218750000014 23.909062500000005 -2.18359375 22.703125 C-2.123007812499999 21.811093749999998 -2.0624218749999983 20.919062499999995 -2 20 C-2.66 20 -3.3200000000000003 20 -4 20 C-4.329999999999998 21.319999999999993 -4.66 22.64 -5 24 C-5.66 24 -6.32 24 -7 24 C-7 22.019999999999996 -7 20.039999999999992 -7 18 C-10.266609806555714 22.505668698697534 -12.184541722539587 26.735170995364797 -14 32 C-14.99 31.340000000000003 -15.98 30.680000000000007 -17 30 C-16.67 28.019999999999996 -16.34 26.039999999999992 -16 24 C-15.01 23.67 -14.02 23.340000000000003 -13 23 C-12.04296875 21.3203125 -12.04296875 21.3203125 -11.1875 19.125 C-8.866888070769871 13.517606972560657 -5.965256731125081 8.28804117050639 -3 3 C-2.34 3 -1.6799999999999997 3 -1 3 C-0.6700000000000017 2.010000000000005 -0.33999999999999986 1.019999999999996 0 0 Z " fill="#E7D98F" transform="translate(28,85)"/>
<path d="M0 0 C0.3299999999999983 0 0.6600000000000001 0 1 0 C0.6700000000000017 2.6400000000000006 0.33999999999999986 5.280000000000001 0 8 C0.6600000000000001 8 1.3200000000000003 8 2 8 C2.3299999999999983 6.680000000000007 2.66 5.359999999999999 3 4 C3.66 4 4.32 4 5 4 C5 9 5 14 5 19 C5.989999999999998 19.33 6.98 19.659999999999997 8 20 C7.401875 20.495000000000005 6.803750000000001 20.989999999999995 6.1875 21.5 C1.3482054914866168 27.030622295443862 0.6174906883913494 32.85982618330519 1 40 C0.00999999999999801 39.670000000000016 -0.9800000000000004 39.34 -2 39 C-2.3299999999999983 38.34 -2.66 37.68000000000001 -3 37 C-3.060585937500001 37.62648437499999 -3.1211718750000017 38.25296875000001 -3.18359375 38.8984375 C-3.2673828124999993 39.715703125000005 -3.3511718749999986 40.53296875000001 -3.4375 41.375 C-3.5187109375 42.187109375000006 -3.5999218749999997 42.99921875000001 -3.68359375 43.8359375 C-4 46 -4 46 -5 48 C-5.66 47.670000000000016 -6.32 47.34 -7 47 C-7.33 47.99000000000001 -7.66 48.97999999999999 -8 50 C-8.66 50 -9.32 50 -10 50 C-9.67 52.639999999999986 -9.34 55.28 -9 58 C-9.66 58 -10.32 58 -11 58 C-11.049391149728734 53.90661348325088 -11.085715006984298 49.81334201602195 -11.10986328125 45.7197265625 C-11.119928774401469 44.32679218766771 -11.133582336985793 42.933878976313935 -11.15087890625 41.541015625 C-11.17510220165291 39.54045640466546 -11.185408136879383 37.53974385036463 -11.1953125 35.5390625 C-11.2057861328125 34.3345947265625 -11.216259765625 33.130126953125 -11.22705078125 31.88916015625 C-11 29 -11 29 -9 27 C-8.503140369651053 23.89002675818621 -8.165720422003227 20.8077132114245 -7.876953125 17.673828125 C-7.404616576331813 13.371735776319497 -6.463374019517147 10.541866127564461 -4 7 C-3.2664807088231242 5.7316740015436665 -2.5367331230468366 4.461151354323746 -1.8125 3.1875 C-1.2143750000000004 2.1356250000000045 -0.6162500000000009 1.0837499999999949 0 0 Z " fill="#E1D177" transform="translate(21,101)"/>
<path d="M0 0 C2.875 0.6875 2.875 0.6875 6 2 C7.375 4.625 7.375 4.625 8 7 C8.659999999999997 7 9.32 7 10 7 C10.329999999999998 9.310000000000002 10.659999999999997 11.620000000000005 11 14 C11.659999999999997 14 12.32 14 13 14 C14.511108072824506 17.74561894646925 16.006933389289415 21.49715689740313 17.5 25.25 C17.929257812499998 26.3134765625 18.358515624999995 27.376953125 18.80078125 28.47265625 C19.206835937500003 29.497460937499994 19.612890625 30.52226562499999 20.03125 31.578125 C20.40830078125 32.520751953125 20.785351562499997 33.46337890625 21.173828125 34.4345703125 C22 37 22 37 22 41 C21.340000000000003 41 20.68 41 20 41 C20 40.34 20 39.68000000000001 20 39 C19.340000000000003 39 18.68 39 18 39 C17.67 38.00999999999999 17.340000000000003 37.02000000000001 17 36 C16.505000000000003 35.83500000000001 16.505000000000003 35.83500000000001 14 35 C13.3125 32.9375 13.3125 32.9375 13 31 C12.340000000000003 31 11.68 31 11 31 C10.938125 30.381249999999994 10.876249999999999 29.76249999999999 10.8125 29.125 C10.544375000000002 28.423749999999984 10.276249999999997 27.722499999999997 10 27 C8.347955442333216 26.29788106299162 6.680762311646006 25.63028586686724 5 25 C4.670000000000002 24.00999999999999 4.34 23.02000000000001 4 22 C3.1750000000000007 21.17500000000001 2.3500000000000014 20.349999999999994 1.5 19.5 C-1 17 -1 17 -2 14 C-1.3399999999999999 14 -0.6799999999999997 14 0 14 C-0.495000000000001 12.185000000000002 -0.495000000000001 12.185000000000002 -3 3 C-1.6799999999999997 3.3300000000000125 -0.35999999999999943 3.6599999999999966 1 4 C0.6700000000000017 2.680000000000007 0.33999999999999986 1.3600000000000136 0 0 Z " fill="#DFCD6B" transform="translate(27,184)"/>
<path d="M0 0 C1.875 0.25 1.875 0.25 4 1 C5.25 3.0625 5.25 3.0625 6 5 C6.659999999999997 5 7.32 5 8 5 C9.373107074381537 6.292336070006144 10.710348239561682 7.624371455532469 12 9 C12 8.009999999999991 12 7.02000000000001 12 6 C13.9375 6.3125 13.9375 6.3125 16 7 C16.33 7.990000000000009 16.659999999999997 8.97999999999999 17 10 C17.659999999999997 10 18.32 10 19 10 C19 10.659999999999997 19 11.319999999999993 19 12 C18.340000000000003 12.660000000000025 17.68 13.319999999999993 17 14 C17.989999999999995 14 18.980000000000004 14 20 14 C20 13.339999999999975 20 12.680000000000007 20 12 C20.804375 11.876249999999999 21.60875 11.752499999999998 22.4375 11.625 C23.283125 11.418749999999989 24.128749999999997 11.212500000000006 25 11 C25.33 10.340000000000003 25.659999999999997 9.680000000000007 26 9 C25.340000000000003 9 24.680000000000007 9 24 9 C24 8.340000000000003 24 7.680000000000007 24 7 C23.340000000000003 7 22.68 7 22 7 C22 6.340000000000003 22 5.680000000000007 22 5 C25.163238100568705 5.264795949595111 25.988210860580466 5.986157695850096 28.0859375 8.44921875 C28.46363281250001 8.983535156250014 28.46363281250001 8.983535156250014 30.375 11.6875 C36.13192739935769 19.584022169533853 42.9709111800135 26.24437717156917 50 33 C48.68000000000001 33.65999999999997 47.36 34.31999999999999 46 35 C45.34 34.34000000000003 44.68000000000001 33.68000000000001 44 33 C44.33 32.670000000000016 44.66 32.34000000000003 45 32 C42.69 30.680000000000007 40.379999999999995 29.360000000000014 38 28 C38 27.339999999999975 38 26.680000000000007 38 26 C36.02000000000001 26.99000000000001 34.03999999999999 27.980000000000018 32 29 C30.531213061930202 27.531213061930202 29.074589542481363 26.05023663570455 27.625 24.5625 C22.130634657131907 19.198952879581157 22.130634657131907 19.198952879581157 19.1796875 18.6796875 C16.158258045033335 17.737521325870603 14.49789482910927 16.021666061692088 12.1875 13.875 C11.3173828125 13.066757812499986 10.447265625 12.258515624999973 9.55078125 11.42578125 C8.7090234375 10.625273437499999 7.867265625000002 9.824765624999998 7 9 C6.271679687499997 8.312929687500002 5.543359375000001 7.6258593750000045 4.79296875 6.91796875 C1.2335396881749006 3.474529229904448 1.2335396881749006 3.474529229904448 0 2 C0 1.3400000000000034 0 0.6800000000000068 0 0 Z " fill="#F4F2E6" transform="translate(40,244)"/>
<path d="M0 0 C0.9900000000000091 0 1.9799999999999898 0 3 0 C1.6062000114540638 4.015299448868106 -0.2795254090007191 6.9436181996508 -2.9375 10.25 C-3.2823242187499986 10.685703125000003 -3.2823242187499986 10.685703125000003 -5.02734375 12.890625 C-7 15 -7 15 -10 16 C-10.329999999999998 16.659999999999997 -10.659999999999997 17.32 -11 18 C-11.329999999999998 18.659999999999997 -11.659999999999997 19.319999999999993 -12 20 C-12.989999999999995 20.33 -13.980000000000004 20.659999999999997 -15 21 C-15.144374999999997 21.618750000000006 -15.28875 22.237499999999997 -15.4375 22.875 C-16.195513131567715 25.73860516370027 -17.51696611793089 26.49513098056417 -20 28 C-20.659999999999997 28 -21.32 28 -22 28 C-22.082499999999996 28.742500000000007 -22.165 29.485 -22.25 30.25 C-23.160026036769523 33.5867621348216 -24.277981253022 34.900156966616976 -27 37 C-28.32 37 -29.64 37 -31 37 C-31 37.99000000000001 -31 38.97999999999999 -31 40 C-31.659999999999997 40 -32.32 40 -33 40 C-33.125 36.625 -33.125 36.625 -33 33 C-32.34 32.34 -31.68 31.680000000000007 -31 31 C-30.566875000000003 29.824375000000003 -30.13375 28.648750000000007 -29.6875 27.4375 C-28 24 -28 24 -25.3125 23.0625 C-24.549374999999998 23.041875000000005 -23.786249999999995 23.021249999999995 -23 23 C-23 22.340000000000003 -23 21.680000000000007 -23 21 C-22.009999999999998 21 -21.019999999999996 21 -20 21 C-20 20.010000000000005 -20 19.019999999999996 -20 18 C-19.009999999999998 18 -18.019999999999996 18 -17 18 C-16.773125 17.443124999999995 -16.54625 16.886250000000004 -16.3125 16.3125 C-15 14 -15 14 -12.4375 11.5 C-10.1362367290048 9.139729978466463 -9.353781360959609 8.184032248636463 -9 5 C-8.010000000000005 5.329999999999998 -7.019999999999996 5.659999999999997 -6 6 C-5.195625 5.195625 -4.391249999999999 4.391249999999999 -3.5625 3.5625 C-2.375 2.375 -1.1875 1.1875 0 0 Z " fill="#F2EBC8" transform="translate(64,46)"/>
<path d="M0 0 C0.9281249999999943 0.20624999999999716 1.8562500000000028 0.4125000000000014 2.8125 0.625 C-2.7220345345345436 8.803178178178179 -2.7220345345345436 8.803178178178179 -8.1875 10.625 C-10.999999999999993 13.25 -10.999999999999993 13.25 -13.1875 15.625 C-13.517499999999998 14.965000000000003 -13.847499999999997 14.305 -14.1875 13.625 C-14.847499999999997 13.625 -15.5075 13.625 -16.1875 13.625 C-16.2184375 13.985937499999999 -16.2184375 13.985937499999999 -16.375 15.8125 C-17.43760039144668 19.490732124238505 -19.411669730613625 21.052279262519946 -22.1875 23.625 C-22.847499999999997 24.614999999999995 -23.5075 25.605000000000004 -24.1875 26.625 C-25.177499999999995 26.625 -26.167500000000004 26.625 -27.1875 26.625 C-27.1875 27.614999999999995 -27.1875 28.605000000000004 -27.1875 29.625 C-28.177499999999995 29.625 -29.167500000000004 29.625 -30.1875 29.625 C-30.1875 30.284999999999997 -30.1875 30.944999999999993 -30.1875 31.625 C-30.950625000000002 31.851875000000007 -31.713750000000005 32.07875 -32.5 32.3125 C-35.746544530147496 33.898021747281334 -36.47552793782398 35.527145792252924 -38.1875 38.625 C-38.8475 38.625 -39.5075 38.625 -40.1875 38.625 C-40.455625 39.22312500000001 -40.723749999999995 39.82124999999999 -41 40.4375 C-42.17243466981142 42.59724807596841 -43.38119281770062 43.98290256154601 -45.1875 45.625 C-45.1875 43.64500000000001 -45.1875 41.66499999999999 -45.1875 39.625 C-44.5275 39.625 -43.8675 39.625 -43.1875 39.625 C-43.1565625 39.284687500000004 -43.1565625 39.284687500000004 -43 37.5625 C-41.902111452202504 33.59321063488596 -39.6972602487807 30.838604451390793 -37.1875 27.625 C-35.8675 27.955 -34.5475 28.284999999999997 -33.1875 28.625 C-32.8575 27.965000000000003 -32.5275 27.305000000000007 -32.1875 26.625 C-31.527500000000003 26.625 -30.8675 26.625 -30.1875 26.625 C-30.1875 25.965000000000003 -30.1875 25.305 -30.1875 24.625 C-24.711309523809526 19.625 -24.711309523809526 19.625 -22.1875 19.625 C-22.084375 19.2640625 -22.084375 19.2640625 -21.5625 17.4375 C-19.735018372031718 13.699469397337595 -17.483111942486488 12.132530825804935 -14.1875 9.625 C-13.527500000000003 9.954999999999998 -12.8675 10.284999999999997 -12.1875 10.625 C-12.1875 9.965000000000003 -12.1875 9.305 -12.1875 8.625 C-11.527500000000003 8.625 -10.8675 8.625 -10.1875 8.625 C-10.1875 7.965000000000003 -10.1875 7.305 -10.1875 6.625 C-9.527500000000003 6.625 -8.8675 6.625 -8.1875 6.625 C-7.919375000000002 5.841250000000002 -7.651249999999997 5.057499999999997 -7.375 4.25 C-5.623768752256382 0.37885724182990543 -4.225697021501759 -0.49714082605903087 0 0 Z " fill="#F7F4E3" transform="translate(71.1875,37.375)"/>
<path d="M0 0 C0.6600000000000001 0 1.3200000000000003 0 2 0 C2.6811620315717875 6.398057653692149 3.0999208444581683 12.665636538345211 2.9375 19.1015625 C3 21 3 21 4 22 C3.6700000000000017 22.99000000000001 3.3400000000000034 23.97999999999999 3 25 C1.3500000000000014 25 -0.3000000000000007 25 -2 25 C-2 24.00999999999999 -2 23.02000000000001 -2 22 C-3.6499999999999986 22 -5.300000000000001 22 -7 22 C-7 23.650000000000006 -7 25.30000000000001 -7 27 C-8.32 26.670000000000016 -9.64 26.340000000000003 -11 26 C-11 26.99000000000001 -11 27.97999999999999 -11 29 C-11.990000000000002 29 -12.98 29 -14 29 C-16 21.375 -16 21.375 -16 18 C-16.66 18 -17.32 18 -18 18 C-18 15.360000000000014 -18 12.719999999999999 -18 10 C-17.67 10.990000000000009 -17.34 11.97999999999999 -17 13 C-16.34 13 -15.68 13 -15 13 C-15 12.340000000000003 -15 11.680000000000007 -15 11 C-14.34 11 -13.68 11 -13 11 C-13.329999999999998 12.319999999999993 -13.66 13.639999999999986 -14 15 C-13.34 15 -12.68 15 -12 15 C-12 15.659999999999997 -12 16.319999999999993 -12 17 C-10.02 16.340000000000003 -8.04 15.680000000000007 -6 15 C-6 15.659999999999997 -6 16.319999999999993 -6 17 C-5.34 17 -4.68 17 -4 17 C-3.7318750000000023 16.360625 -3.4637499999999974 15.721249999999998 -3.1875 15.0625 C-2 13 -2 13 1 12 C0.6700000000000017 11.009999999999991 0.33999999999999986 10.02000000000001 0 9 C-0.990000000000002 8.835000000000008 -0.990000000000002 8.835000000000008 -6 8 C-6 7.340000000000003 -6 6.680000000000007 -6 6 C-5.009999999999998 5.6699999999999875 -4.02 5.340000000000003 -3 5 C-2.34 5.3300000000000125 -1.6799999999999997 5.659999999999997 -1 6 C-0.6700000000000017 4.02000000000001 -0.33999999999999986 2.039999999999992 0 0 Z " fill="#E2D27A" transform="translate(30,153)"/>
<path d="M0 0 C0.6600000000000001 0 1.3200000000000003 0 2 0 C2 1.6500000000000057 2 3.299999999999997 2 5 C2.3299999999999983 4.340000000000003 2.66 3.680000000000007 3 3 C3.66 3 4.32 3 5 3 C5.6875 5.25 5.6875 5.25 6 8 C5.767968750000001 8.288749999999993 5.767968750000001 8.288749999999993 4.59375 9.75 C2.5008644177571995 12.704661998460423 2.276644065759399 15.179661032620004 1.8125 18.75 C1.7332226562499997 19.335234375 1.7332226562499997 19.335234375 1.33203125 22.296875 C1.2224609374999993 23.188906250000002 1.1128906249999986 24.080937500000005 1 25 C0.010000000000001563 25.33 -0.9800000000000004 25.659999999999997 -2 26 C-2 24.019999999999996 -2 22.039999999999992 -2 20 C-2.66 20 -3.3200000000000003 20 -4 20 C-4.329999999999998 21.319999999999993 -4.66 22.64 -5 24 C-5.66 24 -6.32 24 -7 24 C-7 22.019999999999996 -7 20.039999999999992 -7 18 C-10.266609806555714 22.505668698697534 -12.184541722539587 26.735170995364797 -14 32 C-14.99 31.340000000000003 -15.98 30.680000000000007 -17 30 C-16.67 28.019999999999996 -16.34 26.039999999999992 -16 24 C-15.01 23.67 -14.02 23.340000000000003 -13 23 C-12.04296875 21.3203125 -12.04296875 21.3203125 -11.1875 19.125 C-8.866888070769871 13.517606972560657 -5.965256731125081 8.28804117050639 -3 3 C-2.34 3 -1.6799999999999997 3 -1 3 C-0.6700000000000017 2.010000000000005 -0.33999999999999986 1.019999999999996 0 0 Z " fill="#E9DD9C" transform="translate(28,85)"/>
<path d="M0 0 C2.5 2.3125 2.5 2.3125 5 5 C5 5.990000000000009 5 6.97999999999999 5 8 C4.34 8 3.6799999999999997 8 3 8 C3.66 8.783749999999998 4.32 9.567499999999995 5 10.375 C7 13 7 13 7 15 C7.990000000000002 15.330000000000013 8.98 15.659999999999997 10 16 C10.329999999999998 16.99000000000001 10.659999999999997 17.97999999999999 11 19 C13.5625 20.1875 13.5625 20.1875 16 21 C16 22.319999999999993 16 23.639999999999986 16 25 C16.659999999999997 25 17.32 25 18 25 C18.33 26.319999999999993 18.659999999999997 27.639999999999986 19 29 C20.32 29.329999999999984 21.64 29.659999999999997 23 30 C23 30.99000000000001 23 31.97999999999999 23 33 C23.659999999999997 33 24.32 33 25 33 C25 33.66 25 34.31999999999999 25 35 C24.174999999999997 35.16499999999999 24.174999999999997 35.16499999999999 20 36 C20 35.34 20 34.68000000000001 20 34 C19.67 34.66 19.340000000000003 35.31999999999999 19 36 C18.505000000000003 35.83500000000001 18.505000000000003 35.83500000000001 16 35 C14.253270149510918 31.50654029902182 13 28.931544322999798 13 25 C11.68 25 10.36 25 9 25 C9.329999999999998 26.97999999999999 9.66 28.960000000000008 10 31 C7.6690457154106895 30.064740564825286 6.292635547726249 29.511526937425486 5.0234375 27.29296875 C3.228668294657112 21.465374763976996 2.227266723453475 15.669810956700019 1.4296875 9.625 C1 7 1 7 0 6 C-0.04080782932503979 4.0004163630731 -0.042543562981151695 1.9995474601141439 0 0 Z " fill="#F6F0D4" transform="translate(22,190)"/>
<path d="M0 0 C0.9900000000000002 0.3299999999999983 1.9800000000000004 0.6599999999999966 3 1 C3.053919926401605 2.7913397771200152 3.092755714561111 4.583138994896061 3.125 6.375 C3.148203125 7.372734374999993 3.1714062500000004 8.37046875 3.1953125 9.3984375 C3 12 3 12 1 14 C0.68115234375 16.88916015625 0.68115234375 16.88916015625 0.5859375 20.5390625 C0.5472656249999996 21.84101562500001 0.5085937499999993 23.142968749999994 0.46875 24.484375 C0.4372923677128373 25.86457861659926 0.40604508995510713 27.244787042412497 0.375 28.625 C0.3368206624750467 30.013045406627526 0.29776895050300567 31.401067112854633 0.2578125 32.7890625 C0.16327057363242936 36.192571849232536 0.07772102971150474 39.596071649952165 0 43 C0.6600000000000001 43 1.3200000000000003 43 2 43 C1.67 40.360000000000014 1.3399999999999999 37.72 1 35 C1.6600000000000001 35 2.3200000000000003 35 3 35 C3.1940163318791868 36.811814053087176 3.380043745982759 38.62448532400589 3.5625 40.4375 C3.6669140625 41.4468359375 3.771328125 42.456171874999995 3.87890625 43.49609375 C3.898886718749999 43.90923828125 3.898886718749999 43.90923828125 4 46 C3.835000000000001 46.16499999999999 3.835000000000001 46.16499999999999 3 47 C2.769249179288897 48.34747084193026 2.588469372241569 49.70377564982587 2.4375 51.0625 C2.293125 52.361875 2.1487499999999997 53.661249999999995 2 55 C2.66 55 3.3200000000000003 55 4 55 C4.33 56.650000000000006 4.66 58.30000000000001 5 60 C4.01 59.670000000000016 3.0199999999999996 59.34 2 59 C2 58.00999999999999 2 57.02000000000001 2 56 C1.3399999999999999 56 0.6799999999999997 56 0 56 C0 58.97 0 61.94 0 65 C-0.33000000000000007 65 -0.6600000000000001 65 -1 65 C-2.228993463031414 58.93184477628239 -3.275602138772281 53.201048122376335 -3 47 C-2.67 47 -2.34 47 -2 47 C-2 42.05000000000001 -2 37.099999999999994 -2 32 C-2.33 35.629999999999995 -2.66 39.25999999999999 -3 43 C-3.33 43 -3.66 43 -4 43 C-4.476197545184546 28.55534112940211 -3.6812049972492265 14.04612882508357 0 0 Z " fill="#EEEAD2" transform="translate(10,116)"/>
<path d="M0 0 C9.272913681209104 0.9091091844322818 13.557457026616504 5.276829163163882 19.8125 11.6875 C20.50537109375 12.389394531249991 21.1982421875 13.091289062499982 21.912109375 13.814453125 C23.612710093434643 15.538510405068223 25.308446614013732 17.267072777667863 27 19 C26.340000000000003 19.329999999999984 26.340000000000003 19.329999999999984 23 21 C22.340000000000003 20.339999999999975 21.680000000000007 19.680000000000007 21 19 C21.33 18.670000000000016 21.659999999999997 18.339999999999975 22 18 C19.689999999999998 16.680000000000007 17.379999999999995 15.360000000000014 15 14 C15 13.339999999999975 15 12.680000000000007 15 12 C14.340000000000003 12 13.680000000000007 12 13 12 C13 11.339999999999975 13 10.680000000000007 13 10 C12.639062499999994 10.041249999999991 12.639062499999994 10.041249999999991 10.8125 10.25 C7.027445951371334 9.913550751233004 5.667234172019391 8.667234172019391 3 6 C1.1875 2.75 1.1875 2.75 0 0 Z " fill="#F4EFD5" transform="translate(63,258)"/>
<path d="M0 0 C0.990000000000002 0 1.980000000000004 0 3 0 C3 0.6599999999999966 3 1.3199999999999932 3 2 C4.649999999999999 2 6.299999999999997 2 8 2 C8.329999999999998 2.990000000000009 8.659999999999997 3.9799999999999898 9 5 C8.340000000000003 5 7.68 5 7 5 C7 5.659999999999997 7 6.319999999999993 7 7 C7.659999999999997 7 8.32 7 9 7 C9 7.659999999999997 9 8.319999999999993 9 9 C9.659999999999997 9 10.319999999999993 9 11 9 C10.670000000000002 9.990000000000009 10.340000000000003 10.97999999999999 10 12 C8.350000000000001 12 6.700000000000003 12 5 12 C5.659999999999997 13.319999999999993 6.32 14.639999999999986 7 16 C5.350000000000001 15.670000000000016 3.700000000000003 15.339999999999975 2 15 C2 14.009999999999991 2 13.019999999999982 2 12 C2.6599999999999966 12 3.3200000000000003 12 4 12 C4 11.340000000000003 4 10.680000000000007 4 10 C3.3400000000000034 10 2.6799999999999997 10 2 10 C1.3400000000000034 9.009999999999991 0.6799999999999997 8.02000000000001 0 7 C-0.990000000000002 6.6699999999999875 -1.980000000000004 6.340000000000003 -3 6 C-2.6700000000000017 7.319999999999993 -2.3400000000000034 8.639999999999986 -2 10 C-4.5 8.625 -4.5 8.625 -7 7 C-7 6.340000000000003 -7 5.680000000000007 -7 5 C-7.659999999999997 5 -8.32 5 -9 5 C-9.329999999999998 4.009999999999991 -9.659999999999997 3.0200000000000102 -10 2 C-4.25 3.875 -4.25 3.875 -2 5 C-1.3400000000000034 3.3499999999999943 -0.6799999999999997 1.6999999999999886 0 0 Z " fill="#FBF9EE" transform="translate(55,244)"/>
<path d="M0 0 C0 3.3227037348875115 -0.6913326621219227 4.81529094810287 -2.1171875 7.78125 C-2.559335937499995 8.705507812500002 -3.001484375000004 9.629765625000005 -3.45703125 10.58203125 C-3.9249609375000034 11.544960937500008 -4.392890625 12.507890625000002 -4.875 13.5 C-5.335195312499998 14.462929687500008 -5.795390624999996 15.425859375000002 -6.26953125 16.41796875 C-8.038923421592465 20.09522726313564 -9.733215416062748 23.59982312409413 -12 27 C-12 24.689999999999998 -12 22.379999999999995 -12 20 C-12.763125000000002 20.515625 -13.526249999999997 21.03125 -14.3125 21.5625 C-15.199375000000003 22.036874999999995 -16.08625 22.511250000000004 -17 23 C-17.990000000000002 22.67 -18.979999999999997 22.340000000000003 -20 22 C-18.73046875 20.53515625 -17.4609375 19.0703125 -16.19140625 17.60546875 C-15 16 -15 16 -14 13 C-10.555555555555557 10 -10.555555555555557 10 -8 10 C-7.908476562499999 9.407031250000003 -7.816953124999998 8.814062500000006 -7.72265625 8.203125 C-6.8276788717971755 5.47465342537086 -5.660936986829157 4.528749589463331 -3.4375 2.75 C-3.117167968749996 2.4896093750000006 -3.117167968749996 2.4896093750000006 -1.49609375 1.171875 C-1.0023828125000023 0.78515625 -0.5086718750000045 0.3984375 0 0 Z " fill="#F8F4E2" transform="translate(56,61)"/>
<path d="M0 0 C0.3299999999999983 1.3199999999999932 0.6600000000000001 2.6399999999999864 1 4 C1.6600000000000001 4 2.3200000000000003 4 3 4 C3 8.289999999999992 3 12.580000000000013 3 17 C1.6799999999999997 16.670000000000016 0.35999999999999943 16.340000000000003 -1 16 C-0.33999999999999986 16.99000000000001 0.3200000000000003 17.97999999999999 1 19 C1 19.99000000000001 1 20.97999999999999 1 22 C-2.1332812160810235 20.95557292797298 -3.0419692235610754 20.55395318665947 -5 18 C-7.241379310344829 11.724137931034477 -7.241379310344829 11.724137931034477 -6 8 C-5.34 8.164999999999992 -5.34 8.164999999999992 -2 9 C-2 7.349999999999994 -2 5.699999999999989 -2 4 C-1.3399999999999999 4 -0.6799999999999997 4 0 4 C0 2.680000000000007 0 1.3600000000000136 0 0 Z " fill="#E5D687" transform="translate(25,171)"/>
<path d="M0 0 C3.6723070496037415 3.079999460957964 4.568023654518061 5.248260199698677 5 10 C5.990000000000002 10.330000000000013 6.98 10.659999999999997 8 11 C8.329999999999998 12.97999999999999 8.66 14.960000000000008 9 17 C9.66 17 10.32 17 11 17 C11.329999999999998 19.639999999999986 11.66 22.28 12 25 C11.009999999999998 25 10.02 25 9 25 C7.621317192562081 23.370647591209718 6.287259070875862 21.702503932448735 5 20 C4.34 19.670000000000016 3.6799999999999997 19.340000000000003 3 19 C0.5945845199059683 12.721644916635313 -0.3781750634186096 6.681092787062113 0 0 Z " fill="#F9F5E3" transform="translate(11,172)"/>
<path d="M0 0 C0.33000000000000007 0 0.6600000000000001 0 1 0 C1 5.610000000000014 1 11.219999999999999 1 17 C1.6600000000000001 17 2.3200000000000003 17 3 17 C2.67 14.360000000000014 2.34 11.719999999999999 2 9 C2.66 9 3.3200000000000003 9 4 9 C4.194016331879187 10.811814053087176 4.380043745982759 12.624485324005889 4.5625 14.4375 C4.6669140625 15.446835937499998 4.771328125 16.456171874999995 4.87890625 17.49609375 C4.9188671875 18.322382812499995 4.958828125 19.14867187499999 5 20 C4.67 20.329999999999984 4.34 20.659999999999997 4 21 C3.769249179288897 22.34747084193026 3.588469372241569 23.70377564982587 3.4375 25.0625 C3.293125 26.361874999999998 3.1487499999999997 27.661249999999995 3 29 C3.66 29 4.32 29 5 29 C5.33 30.650000000000006 5.66 32.30000000000001 6 34 C5.01 33.670000000000016 4.02 33.34 3 33 C3 32.00999999999999 3 31.02000000000001 3 30 C2.34 30 1.6799999999999997 30 1 30 C1 32.97 1 35.94 1 39 C0.6699999999999999 39 0.33999999999999986 39 0 39 C-1.2289934630314123 32.93184477628239 -2.275602138772281 27.201048122376335 -2 21 C-1.67 21 -1.3399999999999999 21 -1 21 C-0.6699999999999999 14.069999999999993 -0.33999999999999986 7.139999999999986 0 0 Z " fill="#E9E1B2" transform="translate(9,142)"/>
<path d="M0 0 C0.6600000000000001 0 1.3200000000000003 0 2 0 C2 1.6500000000000057 2 3.299999999999997 2 5 C2.3299999999999983 4.340000000000003 2.66 3.680000000000007 3 3 C3.66 3 4.32 3 5 3 C5.8125 5 5.8125 5 6 8 C4.5883242791288765 10.849688675340587 2.8511523929113096 13.418635244486993 1 16 C0.00999999999999801 15.670000000000002 -0.9800000000000004 15.340000000000003 -2 15 C-1.3399999999999999 15 -0.6799999999999997 15 0 15 C-0.6600000000000001 14.340000000000003 -1.3200000000000003 13.680000000000007 -2 13 C-2.990000000000002 13.989999999999995 -3.9800000000000004 14.980000000000004 -5 16 C-4.670000000000002 12.039999999999992 -4.34 8.079999999999998 -4 4 C-3.0100000000000016 3.6700000000000017 -2.0199999999999996 3.3400000000000034 -1 3 C-0.6700000000000017 2.010000000000005 -0.33999999999999986 1.019999999999996 0 0 Z " fill="#EBE0A4" transform="translate(28,85)"/>
<path d="M0 0 C1.3200000000000003 0.3300000000000125 2.6400000000000006 0.6599999999999966 4 1 C4 2.319999999999993 4 3.6399999999999864 4 5 C4.659999999999997 5 5.32 5 6 5 C6.329999999999998 6.319999999999993 6.659999999999997 7.639999999999986 7 9 C8.32 9.330000000000013 9.64 9.659999999999997 11 10 C11 10.990000000000009 11 11.97999999999999 11 13 C11.659999999999997 13 12.32 13 13 13 C13 13.659999999999997 13 14.319999999999993 13 15 C11.350000000000001 15.330000000000013 9.700000000000003 15.659999999999997 8 16 C8 15.340000000000003 8 14.680000000000007 8 14 C7.670000000000002 14.659999999999997 7.340000000000003 15.319999999999993 7 16 C4 15 4 15 2.375 11.9375 C0.8130318691717164 7.995779376653246 0.36920155249924136 4.208897698491313 0 0 Z " fill="#F5EFD0" transform="translate(34,210)"/>
<path d="M0 0 C3.6114883458299367 0.8828082623139721 5.552159730610541 1.4510345084903236 7.9375 4.375 C9.080851854693549 7.199751641007595 9.129104829477626 8.228560873100378 8 11 C6.350000000000001 10.669999999999987 4.699999999999999 10.340000000000003 3 10 C3 10.659999999999997 3 11.319999999999993 3 12 C2.34 12 1.6799999999999997 12 1 12 C-3 5.25 -3 5.25 -3 3 C-1.6799999999999997 3.3300000000000125 -0.35999999999999943 3.6599999999999966 1 4 C0.6700000000000017 2.680000000000007 0.33999999999999986 1.3600000000000136 0 0 Z " fill="#D8C34C" transform="translate(27,184)"/>
<path d="M0 0 C0.3299999999999983 0 0.6599999999999966 0 1 0 C1.0812192373556826 1.603327907799212 1.1392913383935976 3.207840263672523 1.1875 4.8125 C1.2223046874999994 5.705820312499995 1.2571093749999989 6.599140625000004 1.29296875 7.51953125 C1 10 1 10 -0.26171875 11.82421875 C-2 13 -2 13 -6 13 C-6 13.989999999999995 -6 14.980000000000004 -6 16 C-6.659999999999997 16 -7.32 16 -8 16 C-8.364764267990076 9.677419354838705 -8.364764267990076 9.677419354838705 -6.6875 6.5625 C-5 5 -5 5 -2 5 C-1.8556250000000034 4.360624999999999 -1.7112499999999997 3.7212499999999977 -1.5625 3.0625 C-1 1 -1 1 0 0 Z " fill="#EFE7B8" transform="translate(39,70)"/>
<path d="M0 0 C0 0.9899999999999949 0 1.980000000000004 0 3 C-0.3299999999999983 3.3299999999999983 -0.6599999999999966 3.6599999999999966 -1 4 C-1.3676073110469034 6.328179636630395 -1.702415808962506 8.661838498991116 -2 11 C-1.3399999999999999 11 -0.6799999999999997 11 0 11 C0 11.659999999999997 0 12.319999999999993 0 13 C-0.6599999999999966 13 -1.3200000000000003 13 -2 13 C-2.3299999999999983 13.989999999999995 -2.66 14.980000000000004 -3 16 C-4.125 12.25 -4.125 12.25 -3 10 C-7.0776377052093835 12.865367036093076 -9.026770653082728 15.430416249244217 -11 20 C-11.790489597028305 17.695260850222667 -12.121343315386653 16.396335634022634 -11.3984375 14.03515625 C-9.109381456866366 9.623044411135552 -6.746535419510348 6.362275376483652 -3 3 C-2.4018750000000004 2.401875000000004 -1.8037500000000009 1.8037499999999937 -1.1875 1.1875 C-0.7956250000000011 0.7956250000000011 -0.4037500000000023 0.4037500000000023 0 0 Z " fill="#F2EBC6" transform="translate(33,75)"/>
<path d="M0 0 C0.4021874999999966 0.010312499999997726 0.4021874999999966 0.010312499999997726 2.4375 0.0625 C3.1127822279463473 1.642178068945924 3.77739693821767 3.2264190321063495 4.4375 4.8125 C4.808750000000003 5.6942187500000045 5.18 6.575937500000009 5.5625 7.484375 C6.4375 10.0625 6.4375 10.0625 6.4375 14.0625 C5.777500000000003 14.0625 5.1175 14.0625 4.4375 14.0625 C4.4375 13.402500000000003 4.4375 12.742500000000007 4.4375 12.0625 C3.7775000000000034 12.0625 3.1174999999999997 12.0625 2.4375 12.0625 C2.1075000000000017 11.072499999999991 1.7775000000000034 10.08250000000001 1.4375 9.0625 C0.447499999999998 8.732499999999987 -0.542500000000004 8.402500000000003 -1.5625 8.0625 C-2.25 6 -2.25 6 -2.5625 4.0625 C-3.2224999999999966 4.0625 -3.8825000000000003 4.0625 -4.5625 4.0625 C-3.2346311475409806 0.07889344262295594 -3.2346311475409806 0.07889344262295594 0 0 Z " fill="#EBE1AC" transform="translate(42.5625,210.9375)"/>
<path d="M0 0 C0.990000000000002 0 1.980000000000004 0 3 0 C4.32 6.27000000000001 5.640000000000001 12.539999999999992 7 19 C6.340000000000003 19 5.68 19 5 19 C4.670000000000002 16.689999999999998 4.340000000000003 14.379999999999995 4 12 C3.3400000000000034 12 2.6799999999999997 12 2 12 C1.7524999999999977 11.381249999999994 1.5050000000000026 10.762499999999989 1.25 10.125 C-0.2062863928910943 7.649313132085155 -1.3781250617355312 7.048749975305782 -4 6 C-4 4.349999999999994 -4 2.6999999999999886 -4 1 C-2.6799999999999997 1.3300000000000125 -1.3599999999999994 1.6599999999999966 0 2 C0 1.3400000000000034 0 0.6800000000000068 0 0 Z " fill="#DFD492" transform="translate(33,179)"/>
<path d="M0 0 C1.5 1.375 1.5 1.375 3 3 C3 3.6599999999999966 3 4.319999999999993 3 5 C2.6700000000000017 5.164999999999992 2.6700000000000017 5.164999999999992 1 6 C0.375 8.0625 0.375 8.0625 0 10 C-0.6600000000000001 10 -1.3200000000000003 10 -2 10 C-1.6700000000000017 12.969999999999999 -1.3399999999999999 15.939999999999998 -1 19 C-4 16 -4 16 -4.4375 13.4375 C-3.8213243302820565 8.59611973793045 -1.9655465155049399 4.440029182345981 0 0 Z M-7 14 C-5.624371455532454 15.289651760438318 -4.292336070006151 16.626892925618478 -3 18 C-3 18.659999999999997 -3 19.319999999999993 -3 20 C-4.649999999999999 20 -6.300000000000001 20 -8 20 C-8.329999999999998 20.659999999999997 -8.66 21.319999999999993 -9 22 C-8.125 15.125 -8.125 15.125 -7 14 Z " fill="#DAC758" transform="translate(25,123)"/>
<path d="M0 0 C0.6600000000000001 0 1.3200000000000003 0 2 0 C2.2764871418597323 2.4162571962524453 2.521783368174411 4.829113768281445 2.75 7.25 C2.8312109375000034 7.931914062499999 2.9124218749999997 8.613828124999998 2.99609375 9.31640625 C3.314234436620204 12.957349663542345 3.3386654639401527 14.576001505775707 1.015625 17.484375 C0.350468750000001 17.984531250000003 -0.314687499999998 18.484687500000007 -1 19 C-1.6600000000000001 18.340000000000003 -2.3200000000000003 17.680000000000007 -3 17 C-2.8125 14.9375 -2.8125 14.9375 -2 13 C-1.009999999999998 12.669999999999987 -0.019999999999999574 12.340000000000003 1 12 C0.6700000000000017 11.009999999999991 0.33999999999999986 10.02000000000001 0 9 C-0.990000000000002 8.835000000000008 -0.990000000000002 8.835000000000008 -6 8 C-6 7.340000000000003 -6 6.680000000000007 -6 6 C-5.010000000000002 5.6699999999999875 -4.02 5.340000000000003 -3 5 C-2.34 5.3300000000000125 -1.6799999999999997 5.659999999999997 -1 6 C-0.6700000000000017 4.02000000000001 -0.33999999999999986 2.039999999999992 0 0 Z " fill="#E3D582" transform="translate(30,153)"/>
<path d="M0 0 C0.6600000000000001 0.6599999999999966 1.3200000000000003 1.3199999999999932 2 2 C1.9765625 4.609375 1.9765625 4.609375 1.625 7.75 C1.180491911429895 11.86428416862563 0.9380266999342055 15.860183555604891 1 20 C1.9900000000000002 18.680000000000007 2.9800000000000004 17.360000000000014 4 16 C3.67 17.650000000000006 3.34 19.30000000000001 3 21 C2.01 21.329999999999984 1.0199999999999996 21.659999999999997 0 22 C0.33000000000000007 24.639999999999986 0.6600000000000001 27.28 1 30 C0.33999999999999986 30 -0.3200000000000003 30 -1 30 C-1.0246574558371755 25.888274402782343 -1.042839585862497 21.776577223316508 -1.054931640625 17.664794921875 C-1.0599707955846167 16.265047716802258 -1.0668021647065515 14.86530579878172 -1.075439453125 13.465576171875 C-1.087523197179415 11.457542233420838 -1.092698066851634 9.44947042508852 -1.09765625 7.44140625 C-1.1028930664062493 6.231701660156261 -1.1081298828125004 5.021997070312494 -1.113525390625 3.775634765625 C-1 1 -1 1 0 0 Z " fill="#E3D481" transform="translate(11,129)"/>
<path d="M0 0 C0.25 5.625 0.25 5.625 -2 9 C-3.6499999999999986 8.669999999999987 -5.300000000000001 8.340000000000003 -7 8 C-7.66 8.990000000000009 -8.32 9.97999999999999 -9 11 C-9 9.349999999999994 -9 7.699999999999989 -9 6 C-8.34 6 -7.68 6 -7 6 C-7 4.349999999999994 -7 2.700000000000003 -7 1 C-4.509351118638818 0.3129244465210519 -2.6211370842777555 0 0 0 Z " fill="#E8DC9C" transform="translate(35,122)"/>
<path d="M0 0 C0.5775000000000006 0.22687500000000682 1.1550000000000011 0.45374999999999943 1.75 0.6875 C1.1106249999999989 0.9350000000000023 0.4712499999999977 1.1825000000000045 -0.1875 1.4375 C-2.25 2.6875 -2.25 2.6875 -2.75 4.625 C-2.914999999999999 5.305625000000006 -3.0799999999999983 5.986249999999998 -3.25 6.6875 C-6.571428571428569 9.6875 -6.571428571428569 9.6875 -9.25 9.6875 C-9.579999999999998 11.337500000000006 -9.909999999999997 12.987499999999997 -10.25 14.6875 C-10.909999999999997 14.357500000000002 -11.57 14.027500000000003 -12.25 13.6875 C-10.395797454806171 8.433926121950833 -6.747104155123026 -0.9370977993226433 0 0 Z " fill="#F4EECD" transform="translate(51.25,64.3125)"/>
<path d="M0 0 C0.3299999999999983 0 0.6599999999999966 0 1 0 C1 1.980000000000004 1 3.9599999999999937 1 6 C1.990000000000002 6 2.979999999999997 6 4 6 C4 5.340000000000003 4 4.680000000000007 4 4 C5.32 3.6700000000000017 6.640000000000001 3.3400000000000034 8 3 C7.670000000000002 5.969999999999999 7.340000000000003 8.939999999999998 7 12 C4 12 4 12 0 10 C0 6.700000000000003 0 3.4000000000000057 0 0 Z " fill="#F0E9C2" transform="translate(32,95)"/>
<path d="M0 0 C0.3299999999999983 0.16499999999999204 0.3299999999999983 0.16499999999999204 2 1 C2 1.990000000000009 2 2.9799999999999898 2 4 C2.7837499999999977 4.226875000000007 3.5675000000000026 4.453750000000014 4.375 4.6875 C7 6 7 6 8.3125 8.4375 C9 11 9 11 9 14 C7.68 13.669999999999987 6.359999999999999 13.340000000000003 5 13 C4.670000000000002 13.659999999999997 4.340000000000003 14.319999999999993 4 15 C3.876249999999999 14.278124999999989 3.7524999999999977 13.556250000000006 3.625 12.8125 C3 10 3 10 2 7.5 C1.000798079881129 5.001995199702833 0.4535520405212594 2.645720236374018 0 0 Z " fill="#D8C65F" transform="translate(35,198)"/>
<path d="M0 0 C2.5 2.3125 2.5 2.3125 5 5 C5 5.990000000000009 5 6.97999999999999 5 8 C4.34 8 3.6799999999999997 8 3 8 C3.66 8.783749999999998 4.32 9.567499999999995 5 10.375 C7 13 7 13 7 15 C7.66 15.330000000000013 8.32 15.659999999999997 9 16 C7.02 16 5.039999999999999 16 3 16 C2.867226562500001 15.361914062500006 2.7344531250000017 14.723828125000011 2.59765625 14.06640625 C2.4210546875 13.240117187500005 2.2444531249999997 12.413828125000009 2.0625 11.5625 C1.8884765624999993 10.73878906249999 1.7144531249999986 9.915078125000008 1.53515625 9.06640625 C1 7 1 7 0 6 C-0.04080782932503979 4.0004163630731 -0.042543562981151695 1.9995474601141439 0 0 Z " fill="#F0E7B8" transform="translate(22,190)"/>
<path d="M0 0 C0.6600000000000001 0 1.3200000000000003 0 2 0 C2 1.9799999999999898 2 3.960000000000008 2 6 C2.66 6 3.3200000000000003 6 4 6 C4 6.659999999999997 4 7.319999999999993 4 8 C2.6799999999999997 7.6699999999999875 1.3599999999999994 7.340000000000003 0 7 C0.3299999999999983 7.4950000000000045 0.3299999999999983 7.4950000000000045 2 10 C2 10.990000000000009 2 11.97999999999999 2 13 C-0.9969313802226694 12.001022873259103 -2.0270941256262383 11.348697469492578 -4 9 C-4 8.340000000000003 -4 7.680000000000007 -4 7 C-3.0100000000000016 7 -2.0199999999999996 7 -1 7 C-1.3299999999999983 5.349999999999994 -1.6600000000000001 3.6999999999999886 -2 2 C-1.3399999999999999 2 -0.6799999999999997 2 0 2 C0 1.3400000000000034 0 0.6800000000000068 0 0 Z " fill="#EADE9D" transform="translate(24,180)"/>
<path d="M0 0 C0.9900000000000002 0.3300000000000125 1.9800000000000004 0.6599999999999966 3 1 C3.33 2.9799999999999898 3.66 4.960000000000008 4 7 C4.990000000000002 7.3300000000000125 5.98 7.659999999999997 7 8 C7.123750000000001 8.969375000000014 7.247499999999999 9.938749999999999 7.375 10.9375 C7.478124999999999 11.442812500000002 7.478124999999999 11.442812500000002 8 14 C8.66 14.330000000000013 9.32 14.659999999999997 10 15 C7.132753135680282 14.426550627136066 6.138548496131737 14.138548496131733 4 12 C4 11.009999999999991 4 10.02000000000001 4 9 C3.34 9 2.6799999999999997 9 2 9 C0.501789407496986 5.629026166868215 0 3.7955788085627375 0 0 Z " fill="#F3ECC8" transform="translate(12,175)"/>
<path d="M0 0 C1.6499999999999986 0.3300000000000125 3.3000000000000007 0.6599999999999966 5 1 C4.629528821333583 3.741486722131498 4.314120558490579 5.585931991080599 2.625 7.8125 C1 9 1 9 -2 9 C-2.3299999999999983 7.02000000000001 -2.66 5.039999999999992 -3 3 C-2.34 3 -1.6799999999999997 3 -1 3 C-0.6700000000000017 2.009999999999991 -0.33999999999999986 1.0200000000000102 0 0 Z " fill="#DBC85C" transform="translate(21,161)"/>
<path d="M0 0 C0.9899999999999984 0.3300000000000125 1.9800000000000004 0.6599999999999966 3 1 C3.2495400537987464 2.4341036826747313 3.4739264225032898 3.8726007194576653 3.6875 5.3125 C3.8151171875000003 6.113007812500001 3.9427343750000006 6.913515625000002 4.07421875 7.73828125 C4 10 4 10 2.64453125 11.79296875 C1 13 1 13 -1 13 C-0.6700000000000017 8.710000000000008 -0.33999999999999986 4.4199999999999875 0 0 Z " fill="#F3EDCB" transform="translate(27,129)"/>
<path d="M0 0 C0.6600000000000001 0 1.3200000000000003 0 2 0 C1.6700000000000017 1.6500000000000057 1.3399999999999999 3.3000000000000114 1 5 C1.990000000000002 5 2.9800000000000004 5 4 5 C4.329999999999998 7.310000000000002 4.66 9.620000000000005 5 12 C1.3058179856162724 10.768605995205434 -0.351097462910392 8.792086458013358 -3 6 C-1.125 1.125 -1.125 1.125 0 0 Z " fill="#DDCB65" transform="translate(17,129)"/>
<path d="M0 0 C3.672307049603745 3.079999460957964 4.568023654518065 5.248260199698677 5 10 C2.5090718940470964 11.245464052976445 1.5891926687883497 10.776757800636517 -1 10 C-0.9793749999999974 9.05125000000001 -0.958750000000002 8.102499999999992 -0.9375 7.125 C-1 4 -1 4 -2 2 C-1.3400000000000034 2 -0.6799999999999997 2 0 2 C0 1.3400000000000034 0 0.6800000000000068 0 0 Z " fill="#DECC68" transform="translate(34,200)"/>
<path d="M0 0 C2 1 2 1 3.4375 4.375 C5 8 5 8 6.75 9.625 C7.162500000000001 10.078750000000014 7.575000000000003 10.532499999999999 8 11 C7.6875 13.6875 7.6875 13.6875 7 16 C4.071303459480895 13.175899764499434 1.415720767987878 10.278478185126403 -1 7 C-1 6.340000000000003 -1 5.680000000000007 -1 5 C-0.33999999999999986 5 0.3200000000000003 5 1 5 C0.6700000000000017 3.3499999999999943 0.33999999999999986 1.6999999999999886 0 0 Z " fill="#E6D98E" transform="translate(26,193)"/>
<path d="M0 0 C0.3299999999999983 3.6299999999999955 0.6600000000000001 7.259999999999991 1 11 C0.33999999999999986 11 -0.3200000000000003 11 -1 11 C-1.6600000000000001 9.349999999999994 -2.3200000000000003 7.699999999999989 -3 6 C-4.32 6 -5.640000000000001 6 -7 6 C-6.75 4.125 -6.75 4.125 -6 2 C-3.8533150647759093 0.6150419772747853 -2.561285876219447 0 0 0 Z " fill="#E7DA91" transform="translate(31,140)"/>
<path d="M0 0 C1.3200000000000003 0 2.6400000000000006 0 4 0 C0.9816513761467895 10.018348623853214 0.9816513761467895 10.018348623853214 -2 13 C-2.66 13 -3.3200000000000003 13 -4 13 C-3.2799159420509376 8.391462029126004 -1.6870406078452085 4.327625907081185 0 0 Z " fill="#EFEBD4" transform="translate(17,95)"/>
<path d="M0 0 C0.33000000000000007 0 0.6600000000000001 0 1 0 C0.8595712267736619 1.6463032776108832 0.7125067088723736 3.292041793446117 0.5625 4.9375 C0.48128906250000014 5.85402343749999 0.4000781250000003 6.770546875000008 0.31640625 7.71484375 C0 10 0 10 -1 11 C-1.2336388090347654 12.848919464089931 -1.4130363471803546 14.70488031495583 -1.5625 16.5625 C-1.6462890625000002 17.57441406250001 -1.7300781250000004 18.586328124999994 -1.81640625 19.62890625 C-1.8769921875 20.41136718749999 -1.937578125 21.19382812500001 -2 22 C-2.33 22 -2.66 22 -3 22 C-3.053903571250963 19.06225536682254 -3.093625501532464 16.125497677924244 -3.125 13.1875 C-3.1417578125 12.354121093749995 -3.1585156249999997 11.520742187499991 -3.17578125 10.662109375 C-3.1822265625000004 9.859667968749989 -3.188671875 9.057226562500006 -3.1953125 8.23046875 C-3.2057861328125004 7.492077636718761 -3.216259765625 6.753686523437494 -3.22705078125 5.992919921875 C-2.9356018680234204 3.434750589973305 -1.8219246707443908 1.8219246707443801 0 0 Z " fill="#E4E1D3" transform="translate(9,137)"/>
<path d="M0 0 C-0.6393750000000011 0.5775000000000006 -1.2787500000000023 1.1550000000000011 -1.9375 1.75 C-3.982238678485519 3.980624012893287 -4.582051987766111 5.0743639143627775 -5 8 C-6.32 8.330000000000013 -7.640000000000001 8.659999999999997 -9 9 C-8.670000000000002 7.680000000000007 -8.34 6.359999999999999 -8 5 C-8.990000000000002 4.670000000000002 -9.98 4.340000000000003 -11 4 C-7.703335411285163 0.7033354112851669 -4.5810655516268 -1.527021850542269 0 0 Z " fill="#E3D482" transform="translate(29,121)"/>
<path d="M0 0 C1.9800000000000004 0.6599999999999966 3.960000000000001 1.3199999999999932 6 2 C5.8125 3.875 5.8125 3.875 5 6 C2.4375 7.25 2.4375 7.25 0 8 C0 7.340000000000003 0 6.680000000000007 0 6 C-0.990000000000002 5.6699999999999875 -1.9800000000000004 5.340000000000003 -3 5 C-3 4.340000000000003 -3 3.680000000000007 -3 3 C-1.6799999999999997 3.3300000000000125 -0.35999999999999943 3.6599999999999966 1 4 C0.6700000000000017 2.680000000000007 0.33999999999999986 1.3600000000000136 0 0 Z " fill="#DCCA61" transform="translate(27,184)"/>
<path d="M0 0 C0.6600000000000001 0 1.3200000000000003 0 2 0 C2 2.3100000000000023 2 4.6200000000000045 2 7 C1.3399999999999999 7 0.6799999999999997 7 0 7 C-0.6600000000000001 8.650000000000006 -1.3200000000000003 10.299999999999997 -2 12 C-2.3299999999999983 12 -2.66 12 -3 12 C-3.3299999999999983 9.36 -3.66 6.719999999999999 -4 4 C-3.0100000000000016 3.6700000000000017 -2.0199999999999996 3.3400000000000034 -1 3 C-0.6700000000000017 2.010000000000005 -0.33999999999999986 1.019999999999996 0 0 Z " fill="#EEE4AF" transform="translate(28,85)"/>
<path d="M0 0 C0.299062499999998 0.11343750000000341 0.299062499999998 0.11343750000000341 1.8125 0.6875 C1.8125 1.3474999999999966 1.8125 2.007499999999993 1.8125 2.6875 C1.1525000000000034 2.6875 0.4924999999999997 2.6875 -0.1875 2.6875 C-1.3937800753323444 5.019641478975856 -2.3529737950233383 7.183921385070008 -3.1875 9.6875 C-3.8474999999999966 9.6875 -4.5075 9.6875 -5.1875 9.6875 C-5.550821799307958 3.2688148788927265 -5.550821799307958 3.2688148788927265 -3.9375 0.6875 C-2.1875 -0.3125 -2.1875 -0.3125 0 0 Z " fill="#ECE1A6" transform="translate(36.1875,76.3125)"/>
<path d="M0 0 C-0.3299999999999983 0.990000000000002 -0.6599999999999966 1.9799999999999969 -1 3 C-1.6599999999999966 3 -2.3200000000000003 3 -3 3 C-3 3.6599999999999966 -3 4.32 -3 5 C-3.556874999999998 5.154687499999994 -3.556874999999998 5.154687499999994 -6.375 5.9375 C-10 7 -10 7 -12 8 C-11.5 5.6875 -11.5 5.6875 -10 3 C-6.882373635574652 1.3090840057354072 -3.5714649317335656 0 0 0 Z " fill="#F0E7BA" transform="translate(57,59)"/>
<path d="M0 0 C0.6599999999999966 0 1.3200000000000003 0 2 0 C2 0.9900000000000091 2 1.9799999999999898 2 3 C2.990000000000002 2.6699999999999875 3.980000000000004 2.3400000000000034 5 2 C5 4.639999999999986 5 7.280000000000001 5 10 C2.030000000000001 8.02000000000001 -0.9399999999999977 6.039999999999992 -4 4 C-3.6700000000000017 3.3400000000000034 -3.3400000000000034 2.680000000000007 -3 2 C-2.009999999999998 2.3300000000000125 -1.0200000000000031 2.6599999999999966 0 3 C0 2.009999999999991 0 1.0200000000000102 0 0 Z " fill="#F3EDCA" transform="translate(42,231)"/>
<path d="M0 0 C2 3 2 3 2 7 C2.6599999999999966 7 3.3200000000000003 7 4 7 C4.329999999999998 8.97999999999999 4.659999999999997 10.960000000000008 5 13 C3.125 12.3125 3.125 12.3125 1 11 C-0.125 8.5 -0.125 8.5 -1 6 C-1.6599999999999966 5.340000000000003 -2.3200000000000003 4.680000000000007 -3 4 C-2.3400000000000034 3.6699999999999875 -1.6799999999999997 3.3400000000000034 -1 3 C-0.6700000000000017 2.009999999999991 -0.3400000000000034 1.0200000000000102 0 0 Z " fill="#DCCA68" transform="translate(36,191)"/>
<path d="M0 0 C1.7971012929466532 3.0529906135001 2.2274337003302946 4.988097376914595 1.8125 8.5 C1.736445312499999 9.252812500000005 1.660390624999998 10.005625000000009 1.58203125 10.78125 C1 13 1 13 -2 17 C-2 12.710000000000008 -2 8.419999999999987 -2 4 C-1.3399999999999999 4 -0.6799999999999997 4 0 4 C0 2.680000000000007 0 1.3600000000000136 0 0 Z " fill="#E1D177" transform="translate(25,129)"/>
<path d="M0 0 C1.9375 0.3125 1.9375 0.3125 4 1 C4.329999999999998 1.990000000000009 4.659999999999997 2.9799999999999898 5 4 C5.659999999999997 4 6.32 4 7 4 C7 4.659999999999997 7 5.319999999999993 7 6 C6.340000000000003 6.329999999999984 6.340000000000003 6.329999999999984 3 8 C0.4345405957759141 5.4345405957759 0.45953912923101115 3.5231333241044354 0 0 Z " fill="#F7F4E1" transform="translate(52,250)"/>
<path d="M0 0 C0.3299999999999983 0.6599999999999966 0.6600000000000001 1.3199999999999932 1 2 C1.6600000000000001 2 2.3200000000000003 2 3 2 C3.3299999999999983 1.3400000000000034 3.6599999999999966 0.6800000000000068 4 0 C3.6700000000000017 4.289999999999992 3.3400000000000034 8.580000000000013 3 13 C0.48411582386369645 7.968231647727407 -0.10449868929898187 5.642929222144971 0 0 Z " fill="#EBE2AF" transform="translate(30,129)"/>
<path d="M0 0 C0.3299999999999983 0.6599999999999966 0.6600000000000001 1.3199999999999932 1 2 C1.6600000000000001 2.3299999999999983 2.3200000000000003 2.6599999999999966 3 3 C3 4.319999999999993 3 5.640000000000001 3 7 C2.009999999999998 7 1.0199999999999996 7 0 7 C0 6.010000000000005 0 5.019999999999996 0 4 C-0.6600000000000001 4 -1.3200000000000003 4 -2 4 C-2.3299999999999983 5.319999999999993 -2.66 6.640000000000001 -3 8 C-3.1875 5.125 -3.1875 5.125 -3 2 C-2.0100000000000016 1.3400000000000034 -1.0199999999999996 0.6800000000000068 0 0 Z " fill="#E4D686" transform="translate(29,109)"/>
<path d="M0 0 C1.9800000000000004 0.9900000000000091 3.960000000000001 1.9799999999999898 6 3 C6 3.990000000000009 6 4.97999999999999 6 6 C4.3338809484842 6.042721001320928 2.666171151071751 6.040638320757836 1 6 C0 5 0 5 -0.0625 2.4375 C-0.041875000000000995 1.6331250000000068 -0.021249999999998437 0.8287500000000136 0 0 Z " fill="#E6D88A" transform="translate(29,180)"/>
<path d="M0 0 C0.990000000000002 0.3300000000000125 1.9800000000000004 0.6599999999999966 3 1 C3 4 3 4 0.625 6.6875 C-2 9 -2 9 -4 9 C-3.625 6.5625 -3.625 6.5625 -3 4 C-2.34 3.6699999999999875 -1.6799999999999997 3.3400000000000034 -1 3 C-0.6700000000000017 2.009999999999991 -0.33999999999999986 1.0200000000000102 0 0 Z " fill="#DCCA62" transform="translate(28,161)"/>
<path d="M0 0 C3.254201500600999 2.834304532781516 4.520675303998015 4.686077735982138 5 9 C3.0625 8.4375 3.0625 8.4375 1 7 C0.25 3.375 0.25 3.375 0 0 Z " fill="#E9DD9B" transform="translate(27,212)"/>
<path d="M0 0 C0 0.6599999999999966 0 1.3199999999999932 0 2 C-0.6599999999999966 2 -1.3200000000000003 2 -2 2 C-1.6700000000000017 2.990000000000009 -1.3400000000000034 3.9799999999999898 -1 5 C-2.3200000000000003 4.6699999999999875 -3.6400000000000006 4.340000000000003 -5 4 C-5.66 4.990000000000009 -6.32 5.97999999999999 -7 7 C-7 5.02000000000001 -7 3.039999999999992 -7 1 C-2.25 0 -2.25 0 0 0 Z " fill="#E9DD9B" transform="translate(35,177)"/>
<path d="M0 0 C0.6600000000000001 0.6599999999999966 1.3200000000000003 1.3199999999999932 2 2 C1.699032008072372 6.138309889004887 1.3210198391451797 8.518470241282216 -1 12 C-1.026872791851691 10.187579482891493 -1.0463371545739388 8.375047665636828 -1.0625 6.5625 C-1.0741015624999992 5.553164062500002 -1.0857031250000002 4.5438281250000045 -1.09765625 3.50390625 C-1 1 -1 1 0 0 Z " fill="#EADE9D" transform="translate(11,129)"/>
<path d="M0 0 C0.990000000000002 0 1.9799999999999969 0 3 0 C3 1.980000000000004 3 3.9599999999999937 3 6 C1.6799999999999997 6 0.35999999999999943 6 -1 6 C-1.3299999999999983 5.340000000000003 -1.6599999999999966 4.680000000000007 -2 4 C-1.3400000000000034 4 -0.6799999999999997 4 0 4 C0 2.680000000000007 0 1.3599999999999994 0 0 Z " fill="#E3D689" transform="translate(34,108)"/>
<path d="M0 0 C0.33000000000000007 1.3199999999999932 0.6600000000000001 2.6399999999999864 1 4 C1.6600000000000001 4 2.3200000000000003 4 3 4 C3 4.990000000000009 3 5.97999999999999 3 7 C3.66 7 4.32 7 5 7 C5 7.659999999999997 5 8.319999999999993 5 9 C4.34 9 3.6799999999999997 9 3 9 C2.34 9.659999999999997 1.6799999999999997 10.319999999999993 1 11 C-0.17571451205979471 7.325892149813143 -0.07366746478526487 3.8307081688338087 0 0 Z " fill="#DECD6A" transform="translate(13,150)"/>
<path d="M0 0 C1.6499999999999986 0 3.299999999999997 0 5 0 C5 1.6500000000000057 5 3.3000000000000114 5 5 C3.6799999999999997 5 2.3599999999999994 5 1 5 C0.6700000000000017 3.3499999999999943 0.3400000000000034 1.6999999999999886 0 0 Z " fill="#DFD07D" transform="translate(40,211)"/>
<path d="M0 0 C1.6499999999999986 0.3300000000000125 3.3000000000000007 0.6599999999999966 5 1 C3.6799999999999997 2.6500000000000057 2.3599999999999994 4.300000000000011 1 6 C0.33999999999999986 5.340000000000003 -0.3200000000000003 4.680000000000007 -1 4 C-0.625 1.875 -0.625 1.875 0 0 Z " fill="#E8DB96" transform="translate(28,166)"/>
<path d="M0 0 C1.9799999999999969 0.6599999999999966 3.960000000000001 1.3199999999999932 6 2 C6 2.990000000000009 6 3.9799999999999898 6 5 C6.659999999999997 5.3300000000000125 7.32 5.659999999999997 8 6 C7.670000000000002 6.659999999999997 7.340000000000003 7.319999999999993 7 8 C5 6.625 5 6.625 3 5 C3 4.340000000000003 3 3.680000000000007 3 3 C2.3400000000000034 3 1.6799999999999997 3 1 3 C0.6700000000000017 2.009999999999991 0.3400000000000034 1.0200000000000102 0 0 Z " fill="#FCFBF5" transform="translate(45,246)"/>
<path d="M0 0 C1.3200000000000003 0.3300000000000125 2.6400000000000006 0.6599999999999966 4 1 C4 2.319999999999993 4 3.6399999999999864 4 5 C4.659999999999997 5.3300000000000125 5.32 5.659999999999997 6 6 C5.009999999999998 6.3300000000000125 4.019999999999996 6.659999999999997 3 7 C0.6404690585848556 4.64046905858487 0.508585867120452 3.2210438250961886 0 0 Z " fill="#F1E9BE" transform="translate(34,210)"/>
<path d="M0 0 C0.8249999999999993 0.16499999999999204 0.8249999999999993 0.16499999999999204 5 1 C4.670000000000002 2.6500000000000057 4.34 4.300000000000011 4 6 C2.6799999999999997 5.340000000000003 1.3599999999999994 4.680000000000007 0 4 C0 2.680000000000007 0 1.3600000000000136 0 0 Z " fill="#D6C044" transform="translate(21,161)"/>
<path d="M0 0 C0.990000000000002 0 1.9799999999999969 0 3 0 C3.3299999999999983 1.9799999999999898 3.6599999999999966 3.960000000000008 4 6 C3.3400000000000034 6 2.6799999999999997 6 2 6 C2 5.340000000000003 2 4.680000000000007 2 4 C1.3400000000000034 4 0.6799999999999997 4 0 4 C0 2.680000000000007 0 1.3600000000000136 0 0 Z " fill="#E6DB9C" transform="translate(45,219)"/>
<path d="M0 0 C1.9800000000000004 0.6599999999999966 3.960000000000001 1.3199999999999932 6 2 C5.670000000000002 3.319999999999993 5.340000000000003 4.639999999999986 5 6 C4.34 6 3.6799999999999997 6 3 6 C3 5.340000000000003 3 4.680000000000007 3 4 C2.34 4 1.6799999999999997 4 1 4 C0.6700000000000017 2.680000000000007 0.33999999999999986 1.3600000000000136 0 0 Z " fill="#DFCD6D" transform="translate(27,184)"/>
<path d="M0 0 C0.33000000000000007 0.16499999999999204 0.33000000000000007 0.16499999999999204 2 1 C2 2.319999999999993 2 3.6399999999999864 2 5 C2.66 5 3.3200000000000003 5 4 5 C4.33 6.650000000000006 4.66 8.300000000000011 5 10 C4.01 9.669999999999987 3.0199999999999996 9.340000000000003 2 9 C1.26953125 6.93359375 1.26953125 6.93359375 0.8125 4.4375 C0.6539453124999994 3.6112109375000045 0.49539062500000064 2.784921875000009 0.33203125 1.93359375 C0.27724609374999964 1.6145507812499886 0.27724609374999964 1.6145507812499886 0 0 Z " fill="#ECE1A7" transform="translate(10,166)"/>
<path d="M0 0 C0.3299999999999983 0.16499999999999204 0.3299999999999983 0.16499999999999204 2 1 C2 1.990000000000009 2 2.9799999999999898 2 4 C2.990000000000002 4.3300000000000125 3.979999999999997 4.659999999999997 5 5 C5 5.990000000000009 5 6.97999999999999 5 8 C4.340000000000003 8 3.6799999999999997 8 3 8 C0.2562432902813754 5.045185081841481 0 4.225280924630823 0 0 Z " fill="#D3BC38" transform="translate(35,198)"/>
<path d="M0 0 C0.990000000000002 0.3300000000000125 1.980000000000004 0.6599999999999966 3 1 C2.3400000000000034 2.6500000000000057 1.6799999999999997 4.300000000000011 1 6 C0.3400000000000034 6 -0.3200000000000003 6 -1 6 C-1.6600000000000001 4.680000000000007 -2.3200000000000003 3.3600000000000136 -3 2 C-2.34 2 -1.6799999999999997 2 -1 2 C-0.6700000000000017 1.3400000000000034 -0.3400000000000034 0.6800000000000068 0 0 Z " fill="#E4D684" transform="translate(33,196)"/>
<path d="M0 0 C0.6600000000000001 0.9900000000000091 1.3200000000000003 1.9799999999999898 2 3 C1.6700000000000017 3.990000000000009 1.3399999999999999 4.97999999999999 1 6 C0.00999999999999801 6.3300000000000125 -0.9800000000000004 6.659999999999997 -2 7 C-2.3299999999999983 6.009999999999991 -2.66 5.02000000000001 -3 4 C-1.5625 1.8125 -1.5625 1.8125 0 0 Z " fill="#E3D481" transform="translate(19,172)"/>
<path d="M0 0 C0.3299999999999983 0 0.6599999999999966 0 1 0 C1 1.980000000000004 1 3.9599999999999937 1 6 C0.3400000000000034 5.010000000000005 -0.3200000000000003 4.019999999999996 -1 3 C-0.6700000000000017 2.010000000000005 -0.3400000000000034 1.019999999999996 0 0 Z M-4 2 C-3.0100000000000016 2.3299999999999983 -2.020000000000003 2.6599999999999966 -1 3 C-1.3299999999999983 3.4950000000000045 -1.3299999999999983 3.4950000000000045 -3 6 C-3.66 5.670000000000002 -4.32 5.340000000000003 -5 5 C-4.670000000000002 4.010000000000005 -4.34 3.019999999999996 -4 2 Z " fill="#E6DCA2" transform="translate(35,115)"/>
<path d="M0 0 C0.30937500000000284 0.09281249999999375 0.30937500000000284 0.09281249999999375 1.875 0.5625 C4 1 4 1 6 0 C6 1.980000000000004 6 3.9599999999999937 6 6 C5.670000000000002 5.010000000000005 5.340000000000003 4.019999999999996 5 3 C3.6799999999999997 3.3299999999999983 2.3599999999999994 3.6599999999999966 1 4 C0.6700000000000017 2.680000000000007 0.3400000000000034 1.3599999999999994 0 0 Z " fill="#E7DDA3" transform="translate(32,105)"/>
<path d="M0 0 C0.990000000000002 0.3299999999999983 1.980000000000004 0.6599999999999966 3 1 C1.6875 3.5 1.6875 3.5 0 6 C-0.990000000000002 6 -1.9799999999999969 6 -3 6 C-1.125 1.125 -1.125 1.125 0 0 Z " fill="#F5EFD1" transform="translate(37,69)"/>
</svg>
