<?xml version="1.0" encoding="UTF-8"?>
<!-- Generator: visioncortex VTracer 0.6.12 -->
<svg version="1.1" xmlns="http://www.w3.org/2000/svg" width="300" height="303">
<path d="M0 0 C1.3419326628771273 5.245736773065158 1.3419326628771273 5.245736773065158 -0.0625 8.34375 C-2.5419333132048507 11.742973090684078 -5.444821776149183 14.161885011329957 -8.6875 16.8125 C-9.962630955548065 17.88601254093436 -11.236080566445864 18.96152548508175 -12.5078125 20.0390625 C-13.116572265624995 20.553720703124995 -13.725332031250005 21.068378906250004 -14.3525390625 21.5986328125 C-27.90387766208091 33.125705065255545 -37.97042496619897 48.261231978634385 -46 64 C-46.3166259765625 64.604892578125 -46.633251953125 65.20978515625 -46.95947265625 65.8330078125 C-64.65189324811536 99.88745287861784 -66.75837417895234 140.17414074502673 -55.53564453125 176.582763671875 C-45.448982456717125 207.59091972502605 -26.141295620873493 234.90878142215627 0.453125 253.9140625 C2.8907514747480008 255.91052344710954 4.044339166888292 257.03685037280457 5 260 C4.456521739130423 265.54347826086956 4.456521739130423 265.54347826086956 3 267 C-3.5861745606292175 267.8576261015472 -8.130010546201518 266.55505167484216 -13.6875 263.125 C-14.373200683593751 262.71789794921875 -15.058901367187502 262.3107958984375 -15.765380859375 261.891357421875 C-17.86433171594915 260.6244362026699 -19.935554065229766 259.3223020436855 -22 258 C-22.610693359375006 257.6098974609375 -23.221386718749997 257.219794921875 -23.8505859375 256.81787109375 C-55.924579271416896 235.94052054057855 -78.70301887686276 202.30911124492243 -86.734375 164.933349609375 C-94.6546813075157 125.1312499702592 -87.89491300075244 83.44671820369645 -65.62109375 49.2734375 C-52.381657355484116 29.74212421777301 -31.070075612417604 6.685697069324817 -7.96875 -0.64453125 C-5.174540486133793 -1.1490413011147318 -2.756524785261618 -0.5638346151671492 0 0 Z " fill="#FDFDFC" transform="translate(91,18)"/>
<path d="M0 0 C0.3299999999999983 0 0.6600000000000001 0 1 0 C0.6700000000000017 2.3100000000000023 0.33999999999999986 4.6200000000000045 0 7 C0.6600000000000001 7 1.3200000000000003 7 2 7 C2.3299999999999983 6.010000000000005 2.66 5.019999999999996 3 4 C3.66 4.329999999999998 4.32 4.659999999999997 5 5 C5.181476001093841 12.198548043389081 5.288021865803888 19.085238585039136 4 26.1875 C-2.0419086403867865 64.48189936820691 7.770086990333763 106.63212468147688 30.2666015625 138.21044921875 C31.54814443482131 139.95771453676392 32.854293050291574 141.68402576249144 34.1640625 143.41015625 C36 146 36 146 36 148 C35.34 148.33 34.68 148.66 34 149 C34.66 149.33 35.32 149.66 36 150 C36 150.99 36 151.98 36 153 C36.515625 153.1134375 36.515625 153.1134375 39.125 153.6875 C43.36777108615131 154.88861034821798 45.85903659996846 156.93564546338382 49 160 C49 160.65999999999997 49 161.32 49 162 C49.565898437499996 162.2487890625 50.131796875000006 162.49757812500002 50.71484375 162.75390625 C53.35561381352511 164.19391590857185 55.33761223721794 165.91590147442645 57.5625 167.9375 C58.326914062499995 168.6271484375 59.091328125000004 169.31679687500002 59.87890625 170.02734375 C61.62531146828789 171.65153276516645 63.32998737927669 173.29797435779318 65 175 C58.599999999999994 176.35384615384612 58.599999999999994 176.35384615384612 55.5625 174.5625 C55.046875 174.046875 54.53125 173.53125 54 173 C54.66 172.34000000000003 55.31999999999999 171.68 56 171 C53.99999999999997 171 53.99999999999997 171 51 172 C49.5312130619302 170.5312130619302 48.07458954248136 169.05023663570455 46.625 167.5625 C41.13063465713195 162.19895287958116 41.13063465713195 162.19895287958116 38.1796875 161.6796875 C35.15825804503326 160.7375213258706 33.49789482910933 159.02166606169214 31.1875 156.875 C30.3173828125 156.0693359375 29.447265625 155.263671875 28.55078125 154.43359375 C25.311024306095632 151.34267709448326 22.119407161901016 148.21236962699078 19 145 C19.33 144.01 19.659999999999997 143.02 20 142 C20.990000000000002 142.33 21.979999999999997 142.66 23 143 C21.68749999999995 141.49999999999994 21.68749999999995 141.49999999999994 20 140 C19.009999999999998 140 18.020000000000003 140 17 140 C16.896875 139.360625 16.793750000000003 138.72125 16.6875 138.0625 C16.460625 137.381875 16.23375 136.70125 16 136 C15.010000000000005 135.67 14.019999999999996 135.34 13 135 C13 134.01 13 133.02 13 132 C12.340000000000003 132 11.68 132 11 132 C11 131.01 11 130.02 11 129 C10.34 129 9.68 129 9 129 C9 128.01 9 127.01999999999998 9 126 C8.34 126 7.68 126 7 126 C2.570030181152582 118.32138564733114 -0.7312769614037649 111.88106127017363 -2 103 C-3.0625000000000036 100.0625 -3.0625000000000036 100.0625 -4 98 C-4.329999999999998 98.32999999999998 -4.329999999999998 98.32999999999998 -6 100 C-7 95.125 -7 95.125 -7 94 C-7.66 93.00999999999999 -8.32 92.01999999999998 -9 91 C-14.094197554624003 74.54335399346076 -15.357010608190933 58.136509193164756 -15 41 C-14.67 41 -14.34 41 -14 41 C-13.67 43.639999999999986 -13.34 46.28 -13 49 C-13 45.03999999999999 -13 41.079999999999984 -13 37 C-13.33 37 -13.66 37 -14 37 C-13.55761614875385 29.467832848519492 -12.860947720601981 22.319727701034466 -11 15 C-10.34 15 -9.68 15 -9 15 C-9 12.689999999999998 -9 10.379999999999995 -9 8 C-8.2575 7.9793750000000045 -7.515000000000001 7.958749999999995 -6.75 7.9375 C-3.5720875125432308 6.854120742912471 -3.2724876832775607 6.255255881382325 -1.6875 3.4375 C-1.130625000000002 2.3031249999999943 -0.5737500000000004 1.1687500000000028 0 0 Z " fill="#F6F4E5" transform="translate(21,101)"/>
<path d="M0 0 C0.3299999999999983 0 0.6600000000000001 0 1 0 C0.6700000000000017 2.3100000000000023 0.33999999999999986 4.6200000000000045 0 7 C0.6600000000000001 7 1.3200000000000003 7 2 7 C2.3299999999999983 6.010000000000005 2.66 5.019999999999996 3 4 C3.66 4.329999999999998 4.32 4.659999999999997 5 5 C5.055664491722041 7.208024838307651 5.093514228801695 9.416498048804513 5.125 11.625 C5.148203124999998 12.854765624999999 5.17140625 14.084531249999998 5.1953125 15.3515625 C5.138338015881825 19.107626624626548 4.618751541850333 22.697880395072104 4.03125 26.40625 C2.750906133032153 34.891510286054 2.5500934536221465 43.31183578379202 2.375 51.875 C2.336691070800317 53.44923726855305 2.2976326061056973 55.02345648157558 2.2578125 56.59765625 C2.1632679550955274 60.39828566209988 2.078747102210798 64.19901182255688 2 68 C1.1750000000000007 68.16499999999999 1.1750000000000007 68.16499999999999 -3 69 C-3 68.34 -3 67.68 -3 67 C-3.66 67 -4.32 67 -5 67 C-4.670000000000002 65.68 -4.34 64.36000000000001 -4 63 C-4.66 63 -5.32 63 -6 63 C-6 63.66 -6 64.32 -6 65 C-6.66 65 -7.32 65 -8 65 C-8.33 61.370000000000005 -8.66 57.74000000000001 -9 54 C-9 55.31999999999999 -9 56.639999999999986 -9 58 C-9.66 58 -10.32 58 -11 58 C-11.054492277662343 55.16640156155819 -11.093907325889516 52.33387515464122 -11.125 49.5 C-11.1417578125 48.70851562499999 -11.158515625 47.91703125000001 -11.17578125 47.1015625 C-11.220042349595868 41.701708349304 -10.46536029286384 37.19587676362789 -9 32 C-8.454854017819272 28.11583487696231 -8.023712712750775 24.239166930755147 -7.63671875 20.3359375 C-7.487532117592131 18.994730044833204 -7.3377869836154765 17.65358460271527 -7.1875 16.3125 C-7.0573046875 15.050507812500001 -6.927109375000001 13.788515625000002 -6.79296875 12.48828125 C-5.9175766794552 8.637418594844803 -4.63560990436541 6.877079037903769 -2 4 C-1.2911410577997984 2.6886109569296224 -0.6054354789153322 1.3622298275595028 0 0 Z " fill="#E5D78A" transform="translate(21,101)"/>
<path d="M0 0 C0.6599999999999966 0.3299999999999983 1.3200000000000003 0.6599999999999966 2 1 C1.8115148925781241 1.2458886718750009 1.8115148925781241 1.2458886718750009 0.857666015625 2.490234375 C-14.948577599844967 23.221943157293992 -26.761495087195726 44.13488199302893 -32 70 C-32.33 70 -32.66 70 -33 70 C-33.33 66.7 -33.66 63.400000000000006 -34 60 C-35.32 60.66 -36.64 61.31999999999999 -38 62 C-38 60.349999999999994 -38 58.7 -38 57 C-38.61875 57.969375 -39.2375 58.93875 -39.875 59.9375 C-42 63 -42 63 -44 64 C-43.835 62.906875 -43.67 61.81375 -43.5 60.6875 C-43 57 -43 57 -43 54 C-42.68911632206411 52.3290002310946 -42.35919667765333 50.661284634146625 -42 49 C-41.67 49.66 -41.34 50.31999999999999 -41 51 C-40.34 51 -39.68 51 -39 51 C-39.20625 49.88624999999999 -39.4125 48.77250000000001 -39.625 47.625 C-39.74875 46.42875000000001 -39.8725 45.2325 -40 44 C-39.34 43.34 -38.68 42.68000000000001 -38 42 C-37.34 42.33 -36.68 42.66 -36 43 C-33.609265546203225 39.17482487392516 -33.44033447619182 35.403344761918234 -33 31 C-32.34 31 -31.68 31 -31 31 C-30.938125 30.319375000000008 -30.87625 29.63875 -30.8125 28.9375 C-29.7146114522025 24.968210634885963 -27.509760248780704 22.213604451390793 -25 19 C-24.3928515625 19.198515625 -23.785703124999998 19.397031249999998 -23.16015625 19.6015625 C-21 20 -21 20 -18.4375 18.375 C-16 16 -16 16 -14.66015625 13.64453125 C-12.772160972758215 10.637065831899562 -10.66621987925285 8.649409983452273 -8 6.3125 C-7.566874999999996 5.929003906250003 -7.566874999999996 5.929003906250003 -5.375 3.98828125 C-2.999999999999993 1.999999999999993 -2.999999999999993 1.999999999999993 0 0 Z " fill="#F7F4E2" transform="translate(59,46)"/>
<path d="M0 0 C0.9900000000000002 0.3299999999999983 1.9800000000000004 0.6599999999999966 3 1 C1.7624345334708913 21.222346346688397 1.7624345334708913 21.222346346688397 0.00390625 27.62890625 C-1.168495407643924 32.240352770066096 -1.4397168012750257 36.759838165952715 -1.625 41.5 C-1.6443359374999993 41.911210937500016 -1.6443359374999993 41.911210937500016 -1.7421875 43.9921875 C-1.8353169232849993 45.994470100627495 -1.9186898497910931 47.99720261590696 -2 50 C-1.3399999999999999 50 -0.6799999999999997 50 0 50 C-0.33000000000000007 47.360000000000014 -0.6600000000000001 44.72 -1 42 C-0.6699999999999999 41.83500000000001 -0.6699999999999999 41.83500000000001 1 41 C1 46.28 1 51.56 1 57 C1.6600000000000001 57 2.3200000000000003 57 3 57 C3 56.34 3 55.68000000000001 3 55 C3.66 55 4.32 55 5 55 C4.670000000000002 56.31999999999999 4.34 57.639999999999986 4 59 C4.66 59 5.32 59 6 59 C6 59.66 6 60.31999999999999 6 61 C6.66 60.83500000000001 6.66 60.83500000000001 10 60 C10.329999999999998 58.02000000000001 10.66 56.03999999999999 11 54 C11.329999999999998 54 11.66 54 12 54 C12.170156250000002 55.26972656250001 12.3403125 56.539453124999994 12.515625 57.84765625 C14.521440393874435 72.3016578962949 17.391657399323314 85.75110732669287 23.046875 99.29296875 C24 102 24 102 24 106 C22.35 105.67000000000002 20.700000000000003 105.34 19 105 C18.67 103.68 18.34 102.36000000000001 18 101 C17.34 101 16.68 101 16 101 C16 100.34 16 99.68 16 99 C15.34 99 14.68 99 14 99 C13.670000000000002 99.66 13.34 100.32 13 101 C12.664249438017517 98.56281065275215 12.331307153057963 96.12529384919003 12 93.6875 C11.904609375 92.99720703125001 11.80921875 92.3069140625 11.7109375 91.595703125 C11.227811727870964 88.02402330961746 11 84.59970158388339 11 81 C10.505000000000003 80.83500000000001 10.505000000000003 80.83500000000001 8 80 C6.949523555221248 77.68895182148674 5.9499256206584015 75.35416349467516 5 73 C4.34 72.34 3.6799999999999997 71.68 3 71 C3 69.68 3 68.36000000000001 3 67 C2.01 66.67000000000002 1.0199999999999996 66.34 0 66 C0 65.00999999999999 0 64.01999999999998 0 63 C-0.6600000000000001 63 -1.3200000000000003 63 -2 63 C-2 65.97 -2 68.94 -2 72 C-2.33 72 -2.66 72 -3 72 C-5.197819341094968 58.89491765230076 -6.438104589001592 46.289172533048315 -6 33 C-5.67 33 -5.34 33 -5 33 C-4.67 35.639999999999986 -4.34 38.28 -4 41 C-4 37.03999999999999 -4 33.079999999999984 -4 29 C-4.33 29 -4.66 29 -5 29 C-4.55761614875385 21.467832848519492 -3.860947720601983 14.319727701034466 -2 7 C-1.3399999999999999 7 -0.6799999999999997 7 0 7 C0 4.689999999999998 0 2.3799999999999955 0 0 Z " fill="#F6F2DC" transform="translate(12,109)"/>
<path d="M0 0 C0.6600000000000001 0.3300000000000125 1.3200000000000003 0.6599999999999966 2 1 C2 2.319999999999993 2 3.6399999999999864 2 5 C3.3200000000000003 4.340000000000003 4.640000000000001 3.680000000000007 6 3 C6 15.210000000000008 6 27.420000000000016 6 40 C5.175000000000001 40.16499999999999 5.175000000000001 40.16499999999999 1 41 C1 40.34 1 39.68000000000001 1 39 C0.33999999999999986 39 -0.3200000000000003 39 -1 39 C-0.6700000000000017 37.68000000000001 -0.33999999999999986 36.360000000000014 0 35 C-0.6600000000000001 35 -1.3200000000000003 35 -2 35 C-2 35.66 -2 36.31999999999999 -2 37 C-2.66 37 -3.3200000000000003 37 -4 37 C-3.963906250000001 36.65646484375 -3.963906250000001 36.65646484375 -3.78125 34.91796875 C-3.688437499999999 34.01691406250001 -3.595625 33.115859375000014 -3.5 32.1875 C-3.4535937499999996 31.740839843749995 -3.4535937499999996 31.740839843749995 -3.21875 29.48046875 C-3 27 -3 27 -3 24 C-2.870815421105096 22.58171824021767 -2.7233006724695024 21.165045917731618 -2.5625 19.75 C-2.47484375 18.95722656250001 -2.3871874999999996 18.164453124999994 -2.296875 17.34765625 C-2.035995526827392 15.284648837148183 -1.6815283610455882 13.233930002161912 -1.3125 11.1875 C-0.9846362448752899 7.843289697727954 -1.3434886728449698 6.795362864574116 -3 4 C-2.67 3.3400000000000034 -2.34 2.680000000000007 -2 2 C-1.3399999999999999 2 -0.6799999999999997 2 0 2 C0 1.3400000000000034 0 0.6800000000000068 0 0 Z " fill="#DFD17E" transform="translate(17,129)"/>
<path d="M0 0 C0.9900000000000002 0.3299999999999983 1.9800000000000004 0.6599999999999966 3 1 C1.7624345334708913 21.222346346688397 1.7624345334708913 21.222346346688397 0.00390625 27.62890625 C-1.168495407643924 32.240352770066096 -1.4397168012750257 36.759838165952715 -1.625 41.5 C-1.6443359374999993 41.911210937500016 -1.6443359374999993 41.911210937500016 -1.7421875 43.9921875 C-1.8353169232849993 45.994470100627495 -1.9186898497910931 47.99720261590696 -2 50 C-1.3399999999999999 50 -0.6799999999999997 50 0 50 C-0.33000000000000007 47.360000000000014 -0.6600000000000001 44.72 -1 42 C-0.6699999999999999 41.83500000000001 -0.6699999999999999 41.83500000000001 1 41 C1.1033103066346222 48.42686315473338 0.9986269886321999 55.635125958837534 0 63 C-0.6600000000000001 63 -1.3200000000000003 63 -2 63 C-2 65.97 -2 68.94 -2 72 C-2.33 72 -2.66 72 -3 72 C-5.197819341094968 58.89491765230076 -6.438104589001592 46.289172533048315 -6 33 C-5.67 33 -5.34 33 -5 33 C-4.67 35.639999999999986 -4.34 38.28 -4 41 C-4 37.03999999999999 -4 33.079999999999984 -4 29 C-4.33 29 -4.66 29 -5 29 C-4.55761614875385 21.467832848519492 -3.860947720601983 14.319727701034466 -2 7 C-1.3399999999999999 7 -0.6799999999999997 7 0 7 C0 4.689999999999998 0 2.3799999999999955 0 0 Z " fill="#EEEAD1" transform="translate(12,109)"/>
<path d="M0 0 C0.3299999999999983 0.9899999999999949 0.6600000000000001 1.980000000000004 1 3 C1.3299999999999983 3.3299999999999983 1.6600000000000001 3.6599999999999966 2 4 C2.66 3.6700000000000017 3.3200000000000003 3.3400000000000034 4 3 C4.427712045734282 9.424591353633701 2.8568789522052604 14.819000209287623 1 20.9375 C0.7138281249999991 21.907519531250003 0.4276562499999983 22.877539062500006 0.1328125 23.876953125 C-0.5697441675148838 26.253936516758685 -1.2808440110893287 28.627996580902334 -2 31 C-2.3299999999999983 31 -2.66 31 -3 31 C-3.3299999999999983 27.700000000000003 -3.66 24.400000000000006 -4 21 C-4.66 21.33 -4.66 21.33 -8 23 C-8 21.349999999999994 -8 19.700000000000003 -8 18 C-8.618749999999999 18.969375 -9.2375 19.93875 -9.875 20.9375 C-12 24 -12 24 -14 25 C-13.835 23.906875 -13.67 22.81375 -13.5 21.6875 C-13 18 -13 18 -13 15 C-12.689116322064109 13.329000231094582 -12.359196677653326 11.661284634146625 -12 10 C-11.670000000000002 10.659999999999997 -11.34 11.319999999999993 -11 12 C-10.34 12 -9.68 12 -9 12 C-8.34 10.019999999999996 -7.68 8.039999999999992 -7 6 C-6.009999999999998 6 -5.02 6 -4 6 C-3.7112499999999997 5.381249999999994 -3.4224999999999994 4.762500000000003 -3.125 4.125 C-2 2 -2 2 0 0 Z " fill="#EEE5B7" transform="translate(29,85)"/>
<path d="M0 0 C0.6599999999999966 0.3299999999999983 1.3199999999999932 0.6599999999999966 2 1 C1.3400000000000034 1.6599999999999966 0.6800000000000068 2.3200000000000003 0 3 C0.9899999999999949 3.6599999999999966 1.980000000000004 4.32 3 5 C-1.0687165067245559 9.35405506693641 -4.723716945758881 13.05296681071426 -10.0703125 15.8125 C-16.281737258450093 19.634915235969288 -21.359966470813596 24.736238599348752 -25 31 C-27.6875 33.3125 -27.6875 33.3125 -30 35 C-30.41463037602071 31.6138519291642 -30.63042581112554 29.030107534518862 -28.8046875 26.046875 C-26.69436990293223 23.52297757235111 -24.922388549384195 21.460315809406964 -21.94921875 19.9765625 C-19.402718086452346 18.70076056435488 -18.02045990765435 16.759949884567938 -16.265625 14.56640625 C-11.641175865638715 8.842936796670138 -5.75948057394875 4.506933342332715 0 0 Z " fill="#F9F8F1" transform="translate(67,33)"/>
<path d="M0 0 C0.3299999999999983 0 0.6600000000000001 0 1 0 C0.6700000000000017 2.3100000000000023 0.33999999999999986 4.6200000000000045 0 7 C0.6600000000000001 7 1.3200000000000003 7 2 7 C2.3299999999999983 6.010000000000005 2.66 5.019999999999996 3 4 C3.66 4.329999999999998 4.32 4.659999999999997 5 5 C5.369020501138955 20.744874715261957 5.369020501138955 20.744874715261957 3 28 C1.6799999999999997 28.329999999999984 0.35999999999999943 28.659999999999997 -1 29 C-0.6700000000000017 27.680000000000007 -0.33999999999999986 26.36 0 25 C-1.3200000000000003 24.67 -2.6400000000000006 24.340000000000003 -4 24 C-2.7103482395616787 22.624371455532454 -1.373107074381533 21.292336070006144 0 20 C0.6600000000000001 20 1.3200000000000003 20 2 20 C2.3299999999999983 18.349999999999994 2.66 16.700000000000003 3 15 C2.34 14.670000000000002 1.6799999999999997 14.340000000000003 1 14 C0.6700000000000017 14.989999999999995 0.33999999999999986 15.980000000000004 0 17 C-0.6600000000000001 17 -1.3200000000000003 17 -2 17 C-2.134062499999999 17.402187499999997 -2.134062499999999 17.402187499999997 -2.8125 19.4375 C-3.204374999999999 20.283125 -3.5962500000000013 21.128749999999997 -4 22 C-4.990000000000002 22.33 -5.98 22.659999999999997 -7 23 C-7.36683035349745 13.829241162563761 -5.438329198988249 7.465859597217317 0 0 Z " fill="#E7DB98" transform="translate(21,101)"/>
<path d="M0 0 C0.33000000000000007 0.9900000000000091 0.6600000000000001 1.9799999999999898 1 3 C1.6600000000000001 3 2.3200000000000003 3 3 3 C3 2.3400000000000034 3 1.6800000000000068 3 1 C3.66 1 4.32 1 5 1 C4.670000000000002 2.319999999999993 4.34 3.6399999999999864 4 5 C4.66 5 5.32 5 6 5 C6 5.659999999999997 6 6.319999999999993 6 7 C7.32 6.6699999999999875 8.64 6.340000000000003 10 6 C10.329999999999998 4.02000000000001 10.66 2.039999999999992 11 0 C11.329999999999998 0 11.66 0 12 0 C12.222626375331863 2.7286773300810694 12.428523240375462 5.456919579309016 12.625 8.1875 C12.689453125 8.956425781250005 12.75390625 9.725351562500009 12.8203125 10.517578125 C13.123204631372719 14.9284447881152 13.003211281122727 17.940056525663465 11 22 C11 22.659999999999997 11 23.319999999999993 11 24 C9.1875 23.8125 9.1875 23.8125 7 23 C4.596100564893327 19.79480075319111 3.563753948927509 16.94627764249256 3 13 C2.01 12.669999999999987 1.0199999999999996 12.340000000000003 0 12 C0 8.039999999999992 0 4.0800000000000125 0 0 Z " fill="#E7D98E" transform="translate(12,163)"/>
<path d="M0 0 C0.3299999999999983 0.6599999999999966 0.6599999999999966 1.3200000000000003 1 2 C-0.34139189154431904 4.700589870144526 -1.7355043072812393 7.27411833925197 -3.25 9.875 C-3.6586328125000023 10.595585937500005 -4.067265624999997 11.316171874999995 -4.48828125 12.05859375 C-9.014280251580644 19.96090068845109 -9.014280251580644 19.96090068845109 -11 22 C-12.32 22 -13.64 22 -15 22 C-15 22.989999999999995 -15 23.980000000000004 -15 25 C-15.659999999999997 25 -16.32 25 -17 25 C-17.364764267990076 18.67741935483872 -17.364764267990076 18.67741935483872 -15.6875 15.5625 C-14 14 -14 14 -11 14 C-10.881406249999998 13.413476562499994 -10.762812500000003 12.826953125000003 -10.640625 12.22265625 C-9.269459694665606 7.4653815016142175 -6.21195198569086 3.834900256809263 -2.1875 1.0625 C-1.4656250000000028 0.7118749999999991 -0.7437499999999986 0.3612499999999983 0 0 Z " fill="#F2EDCC" transform="translate(48,61)"/>
<path d="M0 0 C0.33000000000000007 0.9900000000000091 0.6600000000000001 1.9799999999999898 1 3 C1.6600000000000001 3 2.3200000000000003 3 3 3 C3.33 3.990000000000009 3.66 4.97999999999999 4 6 C4.66 6.3300000000000125 5.32 6.659999999999997 6 7 C6.6904057445044245 8.656973786810624 7.35306349504129 10.32557610481274 8 12 C8.994145927098387 13.670165157525275 9.99357249512098 15.337206731069443 11 17 C11.329999999999998 17.99000000000001 11.66 18.97999999999999 12 20 C13.293558270483281 21.371955741421658 14.622987017050942 22.71182656433797 16 24 C15.670000000000002 24.99000000000001 15.34 25.97999999999999 15 27 C13.0625 26.25 13.0625 26.25 11 25 C10.65657551135105 23.669230106485315 10.323801263678561 22.335680212674077 10 21 C7.670436882091948 18.90339319388275 5.998748870909422 17.999582956969817 3 17 C2.67 17.99000000000001 2.34 18.97999999999999 2 20 C1.66131223390812 17.792481524579728 1.329283113955345 15.583940889450446 1 13.375 C0.8143750000000001 12.145234375000001 0.6287500000000001 10.915468750000002 0.4375 9.6484375 C0.045974837290417625 6.383397303832595 -0.08080924286652724 3.2828754914526996 0 0 Z " fill="#F4F0DC" transform="translate(9,169)"/>
<path d="M0 0 C0.6600000000000001 0 1.3200000000000003 0 2 0 C2 2.3100000000000023 2 4.6200000000000045 2 7 C2.66 7 3.3200000000000003 7 4 7 C4 6.010000000000005 4 5.019999999999996 4 4 C5.32 4 6.640000000000001 4 8 4 C7.010000000000005 7.299999999999997 6.019999999999996 10.599999999999994 5 14 C4.340000000000003 12.680000000000007 3.6799999999999997 11.36 3 10 C2.009999999999998 10.659999999999997 1.0199999999999996 11.319999999999993 0 12 C0 10.349999999999994 0 8.700000000000003 0 7 C-0.5981249999999996 7.825000000000003 -1.1962499999999991 8.650000000000006 -1.8125 9.5 C-2.5343750000000007 10.325000000000003 -3.2562500000000014 11.150000000000006 -4 12 C-4.990000000000002 12 -5.98 12 -7 12 C-7.329999999999998 12.659999999999997 -7.66 13.319999999999993 -8 14 C-8.66 14 -9.32 14 -10 14 C-9.670000000000002 12.349999999999994 -9.34 10.700000000000003 -9 9 C-8.010000000000002 9.329999999999998 -7.02 9.659999999999997 -6 10 C-5.752500000000001 9.463750000000005 -5.504999999999999 8.927499999999995 -5.25 8.375 C-3.693474634129476 5.417601804846001 -1.965643268010922 2.7027594935150177 0 0 Z " fill="#F4EECD" transform="translate(29,79)"/>
<path d="M0 0 C0.990000000000002 0.3300000000000125 1.980000000000004 0.6599999999999966 3 1 C3 1.6599999999999966 3 2.319999999999993 3 3 C2.6700000000000017 3.164999999999992 2.6700000000000017 3.164999999999992 1 4 C1.6599999999999966 4.3300000000000125 2.3200000000000003 4.659999999999997 3 5 C3 5.990000000000009 3 6.97999999999999 3 8 C3.990000000000002 8.330000000000013 4.980000000000004 8.659999999999997 6 9 C7.1875 12.0625 7.1875 12.0625 8 15 C3.679531023791604 13.583197560955114 0.9953880137049396 11.462362146124633 -2.3125 8.375 C-3.195507812499997 7.5577343749999955 -4.078515625000001 6.740468749999991 -4.98828125 5.8984375 C-5.320214843750001 5.585195312499991 -5.320214843750001 5.585195312499991 -7 4 C-6.670000000000002 3.009999999999991 -6.340000000000003 2.0200000000000102 -6 1 C-5.009999999999998 1 -4.020000000000003 1 -3 1 C-3 1.6599999999999966 -3 2.319999999999993 -3 3 C-2.3400000000000034 3 -1.6799999999999997 3 -1 3 C-0.6700000000000017 2.009999999999991 -0.3400000000000034 1.0200000000000102 0 0 Z " fill="#F9F6E6" transform="translate(54,246)"/>
<path d="M0 0 C1.3200000000000003 0.3300000000000125 2.6400000000000006 0.6599999999999966 4 1 C5.020751953125 2.81005859375 5.020751953125 2.81005859375 5.73828125 5.1484375 C6.000605468749999 5.988906250000014 6.262929687499998 6.829374999999999 6.533203125 7.6953125 C6.79037109375 8.57960937499999 7.0475390625 9.463906250000008 7.3125 10.375 C7.589003906249999 11.251562500000006 7.865507812499999 12.128125000000011 8.150390625 13.03125 C10.138977465986393 19.583067602040813 10.138977465986393 19.583067602040813 9 23 C8.340000000000003 21.349999999999994 7.68 19.69999999999999 7 18 C6.34 18 5.68 18 5 18 C1 13.529411764705884 1 13.529411764705884 1 11 C1.6600000000000001 11 2.3200000000000003 11 3 11 C2.504999999999999 9.185000000000002 2.504999999999999 9.185000000000002 0 0 Z " fill="#E8DEA7" transform="translate(24,187)"/>
<path d="M0 0 C0.990000000000002 0.6599999999999966 1.9800000000000004 1.3199999999999932 3 2 C3.29296875 4.3828125 3.29296875 4.3828125 3.1875 7.125 C3.160429687499999 8.035078125000013 3.1333593749999977 8.945156249999997 3.10546875 9.8828125 C3.0706640625000006 10.581484375000002 3.035859375000001 11.280156250000005 3 12 C1.0199999999999996 12.330000000000013 -0.9600000000000009 12.659999999999997 -3 13 C-4.857767654714767 9.865017082668828 -5.20140475972797 7.6252856751034415 -5 4 C-4.01 4 -3.0199999999999996 4 -2 4 C-1.3399999999999999 2.680000000000007 -0.6799999999999997 1.3600000000000136 0 0 Z " fill="#DCC95F" transform="translate(19,144)"/>
<path d="M0 0 C0.33000000000000007 0.9900000000000091 0.6600000000000001 1.9799999999999898 1 3 C1.6600000000000001 3 2.3200000000000003 3 3 3 C3 2.3400000000000034 3 1.6800000000000068 3 1 C3.66 1 4.32 1 5 1 C4.670000000000002 2.319999999999993 4.34 3.6399999999999864 4 5 C4.66 5 5.32 5 6 5 C6.329999999999998 5.990000000000009 6.66 6.97999999999999 7 8 C6.34 8.659999999999997 5.68 9.319999999999993 5 10 C4.747115959693961 13.203197843876495 5.08973203338229 15.927845612665237 6 19 C5.009999999999998 18.340000000000003 4.02 17.680000000000007 3 17 C3 15.680000000000007 3 14.360000000000014 3 13 C2.01 12.669999999999987 1.0199999999999996 12.340000000000003 0 12 C0 8.039999999999992 0 4.0800000000000125 0 0 Z " fill="#EDE3AD" transform="translate(12,163)"/>
<path d="M0 0 C0.3299999999999983 0 0.6600000000000001 0 1 0 C1.3299999999999983 3.3000000000000114 1.6600000000000001 6.599999999999994 2 10 C1.009999999999998 9.669999999999987 0.019999999999999574 9.340000000000003 -1 9 C-0.783437499999998 9.542695312500001 -0.5668749999999996 10.085390625000002 -0.34375 10.64453125 C-0.20453125000000227 11.002246093749989 -0.20453125000000227 11.002246093749989 0.5 12.8125 C0.778437499999999 13.520195312499993 1.056874999999998 14.227890624999986 1.34375 14.95703125 C2 17 2 17 2 20 C0.6799999999999997 19.670000000000016 -0.6400000000000006 19.340000000000003 -2 19 C-1.8143749999999983 18.40187499999999 -1.6287500000000001 17.803750000000008 -1.4375 17.1875 C-1 15 -1 15 -2 12 C-2.990000000000002 11.669999999999987 -3.9800000000000004 11.340000000000003 -5 11 C-4.670000000000002 10.009999999999991 -4.34 9.02000000000001 -4 8 C-3.34 8.330000000000013 -2.6799999999999997 8.659999999999997 -2 9 C-2.3299999999999983 8.009999999999991 -2.66 7.02000000000001 -3 6 C-1.5625 2.8125 -1.5625 2.8125 0 0 Z " fill="#EFE7BC" transform="translate(25,178)"/>
<path d="M0 0 C1.4672679783640064 3.8148967437464023 0.43336418790585896 6.290116219537765 -1 10 C-2.3200000000000003 10 -3.6400000000000006 10 -5 10 C-5 10.989999999999995 -5 11.980000000000004 -5 13 C-5.659999999999997 13 -6.32 13 -7 13 C-7.363007778738115 6.707865168539328 -7.363007778738115 6.707865168539328 -5.75 3.5625 C-4 2 -4 2 0 2 C0 1.3400000000000034 0 0.6800000000000068 0 0 Z " fill="#EFE6B6" transform="translate(38,73)"/>
<path d="M0 0 C0.3299999999999983 0 0.6600000000000001 0 1 0 C1 1.6500000000000057 1 3.299999999999997 1 5 C1.6600000000000001 5 2.3200000000000003 5 3 5 C2.609375 11.0546875 2.609375 11.0546875 2 13 C-0.04687499999999645 14.2578125 -0.04687499999999645 14.2578125 -2 15 C-2.2175566599329333 9.561083501676677 -2.104283839612922 5.12919185905649 0 0 Z " fill="#EADE9E" transform="translate(16,109)"/>
<path d="M0 0 C0.33000000000000007 0 0.6600000000000001 0 1 0 C1.33 2.6399999999999864 1.6600000000000001 5.280000000000001 2 8 C2.33 8 2.66 8 3 8 C3 13.939999999999998 3 19.879999999999995 3 26 C2.67 26 2.34 26 2 26 C0.25324197817221705 20.003255925063684 -0.25682842222137037 14.726357787993948 -0.125 8.5 C-0.11597656250000021 7.677578124999997 -0.10695312500000043 6.855156249999993 -0.09765625 6.0078125 C-0.07436865318824193 4.005079174188808 -0.038509585845941 2.0024984639889283 0 0 Z " fill="#E7E6DC" transform="translate(6,142)"/>
<path d="M0 0 C0.3299999999999983 0 0.6600000000000001 0 1 0 C1.1689045575199621 4.982684446838903 1.154249203050746 8.422220443517176 -1 13 C-1 13.659999999999997 -1 14.319999999999993 -1 15 C-2.3200000000000003 14.669999999999987 -3.6400000000000006 14.340000000000003 -5 14 C-5.934236445699291 10.989682563857826 -6.044499108152696 10.13349732445809 -5 7 C-4.34 7.164999999999992 -4.34 7.164999999999992 -1 8 C-0.6700000000000017 5.360000000000014 -0.33999999999999986 2.719999999999999 0 0 Z " fill="#E8DDA0" transform="translate(24,172)"/>
<path d="M0 0 C2 3 2 3 3 6 C4.293558270483281 7.371955741421658 5.622987017050942 8.711826564337969 7 10 C6.670000000000002 10.990000000000009 6.34 11.97999999999999 6 13 C4.0624999999999964 12.25 4.0624999999999964 12.25 2 11 C1.375 9 1.375 9 1 7 C0.33999999999999986 6.340000000000003 -0.3200000000000003 5.680000000000007 -1 5 C-0.625 2.375 -0.625 2.375 0 0 Z " fill="#F5F0D3" transform="translate(18,183)"/>
<path d="M0 0 C0.33000000000000007 0.9900000000000091 0.6600000000000001 1.9799999999999898 1 3 C1.6600000000000001 3 2.3200000000000003 3 3 3 C3.66 7.289999999999992 4.32 11.580000000000013 5 16 C4.67 15.340000000000003 4.34 14.680000000000007 4 14 C3.34 14 2.6799999999999997 14 2 14 C0.6641610115666321 9.157583666929042 -0.2532811914992976 5.065623829985924 0 0 Z " fill="#FCFBF4" transform="translate(9,169)"/>
<path d="M0 0 C0.33000000000000007 0.9900000000000091 0.6600000000000001 1.9799999999999898 1 3 C1.6600000000000001 3 2.3200000000000003 3 3 3 C3 2.3400000000000034 3 1.6800000000000068 3 1 C3.66 1 4.32 1 5 1 C5.125 6.75 5.125 6.75 4 9 C2.6799999999999997 9 1.3599999999999994 9 0 9 C0 6.030000000000001 0 3.0600000000000023 0 0 Z " fill="#E9DD9B" transform="translate(12,163)"/>
<path d="M0 0 C1.3200000000000003 0.3300000000000125 2.6400000000000006 0.6599999999999966 4 1 C5.292435355845761 5.11963769675836 6.262526252732364 8.668316829915995 6 13 C2.100144258883173 8.84015387614204 1.1083025265550752 5.449154088895796 0 0 Z " fill="#DCCD79" transform="translate(24,187)"/>
<path d="M0 0 C0.33000000000000007 0 0.6600000000000001 0 1 0 C1.0541832613790287 2.083045381904867 1.092875514930931 4.166497682663163 1.125 6.25 C1.1482031250000002 7.41015625 1.1714062500000004 8.5703125 1.1953125 9.765625 C1.0103948997242345 12.827860460566683 0.6082302259458814 14.44202751463726 -1 17 C-2 16 -2 16 -2.0625 12.4375 C-2.041874999999999 11.303124999999994 -2.02125 10.168749999999989 -2 9 C-1.3399999999999999 9 -0.6799999999999997 9 0 9 C-0.18562499999999993 7.700625000000002 -0.37124999999999986 6.4012500000000045 -0.5625 5.0625 C-0.87890625 2.84765625 -0.87890625 2.84765625 -1 1 C-0.6699999999999999 0.6699999999999875 -0.33999999999999986 0.3400000000000034 0 0 Z " fill="#EFE7B8" transform="translate(12,150)"/>
<path d="M0 0 C2.652698973431562 2.475852375202777 4.680101034508059 4.5902610058124935 6 8 C6 8.990000000000009 6 9.97999999999999 6 11 C3.5907126525299304 10.036285061011966 2.239929909457942 9.347898368714027 0.75 7.1875 C-0.11081610829948829 4.676786350793151 -0.1464729726523153 2.6365135077416824 0 0 Z " fill="#EFE6B5" transform="translate(26,210)"/>
<path d="M0 0 C0.6599999999999966 0 1.3200000000000003 0 2 0 C2.082500000000003 0.5852343749999989 2.164999999999999 1.1704687499999977 2.25 1.7734375 C3.2227388601474587 4.661255991062745 4.649382497478143 5.719320810455486 7 7.625 C10.912386706948638 10.824773413897276 10.912386706948638 10.824773413897276 12 13 C8.863403380523685 11.572989826274295 6.376194670775604 9.852402146694885 3.75 7.625 C3.0435937499999994 7.039765625000001 2.337187499999999 6.454531250000002 1.609375 5.8515625 C0 4 0 4 0 0 Z " fill="#FCFBF5" transform="translate(48,247)"/>
<path d="M0 0 C0.990000000000002 0 1.9800000000000004 0 3 0 C3 2.3100000000000023 3 4.6200000000000045 3 7 C1.6799999999999997 7.3300000000000125 0.35999999999999943 7.659999999999997 -1 8 C-1.3299999999999983 6.02000000000001 -1.6600000000000001 4.039999999999992 -2 2 C-1.3399999999999999 2 -0.6799999999999997 2 0 2 C0 1.3400000000000034 0 0.6800000000000068 0 0 Z " fill="#DDCB65" transform="translate(20,162)"/>
<path d="M0 0 C1.7088400528367202 1.6233980501948793 3.374467169686099 3.2931905281704132 5 5 C5 5.659999999999997 5 6.319999999999993 5 7 C5.66 7.3300000000000125 6.32 7.659999999999997 7 8 C5.350000000000001 8.330000000000013 3.6999999999999993 8.659999999999997 2 9 C0.501789407496986 5.629026166868215 0 3.7955788085627375 0 0 Z " fill="#F4EDCB" transform="translate(24,198)"/>
<path d="M0 0 C1.3200000000000003 0 2.6400000000000006 0 4 0 C3.009999999999998 3.299999999999997 2.020000000000003 6.599999999999994 1 10 C0.6700000000000017 10 0.3400000000000034 10 0 10 C0 6.700000000000003 0 3.4000000000000057 0 0 Z " fill="#F6F3E0" transform="translate(33,83)"/>
<path d="M0 0 C0.6600000000000001 0.6599999999999966 1.3200000000000003 1.3199999999999932 2 2 C1.699032008072372 6.138309889004887 1.3210198391451797 8.518470241282216 -1 12 C-1.026872791851691 10.187579482891493 -1.0463371545739388 8.375047665636828 -1.0625 6.5625 C-1.0741015624999992 5.553164062500002 -1.0857031250000002 4.5438281250000045 -1.09765625 3.50390625 C-1 1 -1 1 0 0 Z " fill="#F0E7B8" transform="translate(11,129)"/>
<path d="M0 0 C-0.3299999999999983 0.9900000000000091 -0.6600000000000001 1.9799999999999898 -1 3 C-1.6600000000000001 3 -2.3200000000000003 3 -3 3 C-4.6250000000000036 4.5 -4.6250000000000036 4.5 -6 6 C-6.33 4.349999999999994 -6.66 2.6999999999999886 -7 1 C-3.375 -1.125 -3.375 -1.125 0 0 Z " fill="#E3D47F" transform="translate(22,143)"/>
<path d="M0 0 C0.3299999999999983 0 0.6600000000000001 0 1 0 C1 3.6299999999999955 1 7.259999999999991 1 11 C0.33999999999999986 11 -0.3200000000000003 11 -1 11 C-1.3299999999999983 11.659999999999997 -1.6600000000000001 12.319999999999993 -2 13 C-1.3917496489349404 8.655354635249552 -0.7383260801738523 4.324481326732581 0 0 Z " fill="#DFD495" transform="translate(23,163)"/>
<path d="M0 0 C1.3756285444675456 1.2896517604383178 2.707663929993849 2.6268929256184776 4 4 C4 4.659999999999997 4 5.319999999999993 4 6 C2.3500000000000014 6 0.6999999999999993 6 -1 6 C-1.3299999999999983 6.990000000000009 -1.6600000000000001 7.97999999999999 -2 9 C-1.125 1.125 -1.125 1.125 0 0 Z " fill="#DDCB66" transform="translate(18,137)"/>
<path d="M0 0 C0.3299999999999983 0 0.6600000000000001 0 1 0 C1.3671637936710326 4.283577592828692 0.4570118134837102 6.5034831885039495 -2 10 C-2.66 10.659999999999997 -3.3200000000000003 11.319999999999993 -4 12 C-4.615287658088231 6.923876820772108 -2.616583491499256 4.17017993957694 0 0 Z " fill="#E6D88D" transform="translate(21,101)"/>
<path d="M0 0 C0.990000000000002 0 1.980000000000004 0 3 0 C3 0.9899999999999949 3 1.980000000000004 3 3 C2.009999999999998 3 1.019999999999996 3 0 3 C-0.2681249999999977 3.6187500000000057 -0.5362500000000026 4.237499999999997 -0.8125 4.875 C-2 7 -2 7 -5 9 C-3.760671712407323 5.568013972820282 -2.4969848915392525 2.6967436828623903 0 0 Z " fill="#F2F1E8" transform="translate(34,65)"/>
<path d="M0 0 C0 1.9799999999999898 0 3.960000000000008 0 6 C-0.990000000000002 6.3300000000000125 -1.9800000000000004 6.659999999999997 -3 7 C-3.6875 5.1875 -3.6875 5.1875 -4 3 C-1.6428571428571423 0 -1.6428571428571423 0 0 0 Z " fill="#DFCE6E" transform="translate(22,146)"/>
<path d="M0 0 C0.990000000000002 0.3299999999999983 1.980000000000004 0.6599999999999966 3 1 C0.7897284637746935 4.373572344764938 -1.4639953503824898 6.0886461353418895 -5 8 C-3.628454960733041 5.04590299234809 -2.0113627601104795 2.559916240140609 0 0 Z " fill="#FCFBF4" transform="translate(34,68)"/>
<path d="M0 0 C0.3299999999999983 0.6599999999999966 0.6600000000000001 1.3199999999999932 1 2 C0.6700000000000017 2.989999999999995 0.33999999999999986 3.980000000000004 0 5 C-0.6600000000000001 5 -1.3200000000000003 5 -2 5 C-2.3299999999999983 5.659999999999997 -2.66 6.319999999999993 -3 7 C-3.66 7 -4.32 7 -5 7 C-4.670000000000002 5.349999999999994 -4.34 3.700000000000003 -4 2 C-3.0100000000000016 2.3299999999999983 -2.0199999999999996 2.6599999999999966 -1 3 C-0.6700000000000017 2.010000000000005 -0.33999999999999986 1.019999999999996 0 0 Z " fill="#F3F0DD" transform="translate(24,86)"/>
<path d="M0 0 C0.3299999999999983 0.6599999999999966 0.6600000000000001 1.3199999999999932 1 2 C0.33999999999999986 2 -0.3200000000000003 2 -1 2 C-0.33999999999999986 3.319999999999993 0.3200000000000003 4.639999999999986 1 6 C0.33999999999999986 6.659999999999997 -0.3200000000000003 7.319999999999993 -1 8 C-1 7.340000000000003 -1 6.680000000000007 -1 6 C-1.6600000000000001 6 -2.3200000000000003 6 -3 6 C-2.6700000000000017 4.680000000000007 -2.34 3.3600000000000136 -2 2 C-2.66 1.6699999999999875 -3.3200000000000003 1.3400000000000034 -4 1 C-2.6799999999999997 0.6699999999999875 -1.3599999999999994 0.3400000000000034 0 0 Z " fill="#E4D684" transform="translate(19,162)"/>
<path d="M0 0 C0.6600000000000001 0.3300000000000125 1.3200000000000003 0.6599999999999966 2 1 C2 2.319999999999993 2 3.6399999999999864 2 5 C1.3399999999999999 5 0.6799999999999997 5 0 5 C0 5.990000000000009 0 6.97999999999999 0 8 C-0.6600000000000001 8 -1.3200000000000003 8 -2 8 C-1.4773153404287136 5.237238227980328 -0.8913041346874877 2.673912404062463 0 0 Z " fill="#DBC85C" transform="translate(15,158)"/>
<path d="M0 0 C0.9900000000000002 0.3300000000000125 1.9800000000000004 0.6599999999999966 3 1 C2.6700000000000017 1.990000000000009 2.34 2.9799999999999898 2 4 C2.66 4 3.3200000000000003 4 4 4 C3.6700000000000017 4.990000000000009 3.34 5.97999999999999 3 7 C2.009999999999998 6.340000000000003 1.0199999999999996 5.680000000000007 0 5 C-0.1875 2.375 -0.1875 2.375 0 0 Z " fill="#DFCD6C" transform="translate(14,148)"/>
</svg>
