<?xml version="1.0" encoding="UTF-8"?>
<!-- Generator: visioncortex VTracer 0.6.12 -->
<svg version="1.1" xmlns="http://www.w3.org/2000/svg" width="300" height="303">
<path d="M0 0 C5.080827256269856 0.07117903427729644 9.652540568825856 1.3381997672916084 14.49609375 2.78515625 C14.956208496093751 2.9210314941406246 14.956208496093751 2.9210314941406246 17.28466796875 3.608642578125 C37.575251738249506 9.758951763918843 56.70703097450013 18.93826580724809 72.55859375 33.22265625 C73.40550781249999 33.939375 74.25242187499998 34.65609375 75.125 35.39453125 C81.37868149953897 40.77938066334346 86.54235538874804 46.68330551360426 91.55859375 53.22265625 C92.22632812500001 54.0747265625 92.89406250000002 54.926796875 93.58203125 55.8046875 C117.46536071561172 87.28725815921548 127.4269886257199 126.42163225761485 122.73583984375 165.5263671875 C117.30088006573664 204.77157875725106 97.0853142160397 240.10034381644837 65.55859375 264.22265625 C45.50813023326111 279.3141600575285 22.21825331827253 288.1621113451282 -2.44140625 292.22265625 C-3.348906249999999 292.3889453125 -4.256406249999998 292.555234375 -5.19140625 292.7265625 C-8.904410535847774 293.3067194196637 -11.060065329317183 293.40165300868784 -14.50390625 291.78515625 C-15.143281250000001 291.26953125 -15.782656250000002 290.75390625 -16.44140625 290.22265625 C-14.135054427092257 284.40186355408997 -12.378334766424786 281.051379977787 -6.66796875 278.09375 C-5.932075195312507 277.7038891601562 -5.196181640625014 277.3140283203125 -4.43798828125 276.912353515625 C-3.655366210937501 276.49912841796873 -2.8727441406250023 276.0859033203125 -2.06640625 275.66015625 C31.14889466686543 257.62018297303206 57.30470024706062 225.87787801737207 68.743896484375 189.81201171875 C80.89153494855623 148.75048712794106 76.41203644199936 107.86363617679741 56.419677734375 70.12890625 C51.66631502618799 61.43895289203124 45.98429020661311 53.740990337329094 39.55859375 46.22265625 C39.112578125 45.6968798828125 38.6665625 45.171103515625 38.20703125 44.62939453125 C28.43262037452456 33.22234265793382 17.44503908561518 24.044041863020766 4.65234375 16.1953125 C-4.092176058486672 10.619577016053324 -4.092176058486672 10.619577016053324 -5.44140625 5.22265625 C-4.849130384504917 0.9582700184354351 -4.4358426143845975 0.28699549264463364 0 0 Z " fill="#F7F3DF" transform="translate(174.44140625,5.77734375)"/>
<path d="M0 0 C5.080827256269856 0.07117903427729644 9.652540568825856 1.3381997672916066 14.49609375 2.78515625 C15.416323242187502 3.056906738281249 16.336552734375005 3.3286572265625 17.28466796875 3.608642578125 C37.575251738249506 9.758951763918843 56.70703097450013 18.93826580724809 72.55859375 33.22265625 C73.40550781249999 33.939375 74.25242187499998 34.65609375 75.125 35.39453125 C81.37868149953897 40.779380663343474 86.54235538874804 46.68330551360425 91.55859375 53.22265625 C92.22632812500001 54.0747265625 92.89406250000002 54.926796875 93.58203125 55.8046875 C117.46536071561172 87.2872581592155 127.4269886257199 126.42163225761485 122.73583984375 165.5263671875 C117.30088006573664 204.77157875725106 97.0853142160397 240.10034381644837 65.55859375 264.22265625 C45.52421784498026 279.30205129738385 22.21091820234207 288.19778695165843 -2.44140625 292.22265625 C-3.3605078125000034 292.37734375 -4.279609375000007 292.53203125 -5.2265625 292.69140625 C-9.382854983933385 293.2861277761563 -11.814100507158145 293.3057431400134 -15.44140625 291.22265625 C-12.213490701947023 289.070712551298 -11.157398157975905 289.02179182254184 -7.44140625 289.22265625 C-7.44140625 288.56265625 -7.44140625 287.90265625 -7.44140625 287.22265625 C-6.765937500000007 287.173671875 -6.090468750000014 287.1246875 -5.39453125 287.07421875 C-4.948515624999999 287.0368359375 -4.948515624999999 287.0368359375 -2.69140625 286.84765625 C-1.8096874999999955 286.778046875 -0.9279687499999909 286.7084375 -0.01953125 286.63671875 C2.5649191437138654 286.2216403534338 4.263440878005895 285.42651042166426 6.55859375 284.22265625 C8.225260416666657 284.22265625 9.891927083333343 284.22265625 11.55859375 284.22265625 C12.548593750000009 283.56265625 13.53859374999999 282.90265625 14.55859375 282.22265625 C16.891927083333343 281.8893229166667 19.225260416666657 281.5559895833333 21.55859375 281.22265625 C22.54859375000001 280.56265625 23.53859374999999 279.90265625 24.55859375 279.22265625 C26.214740323573295 278.8404685791754 27.88316399368773 278.508705232785 29.55859375 278.22265625 C32.57583784392472 277.5881018219993 35.071389771640725 276.57437830548565 37.80859375 275.16015625 C38.514999999999986 274.7979296875 39.22140625 274.435703125 39.94921875 274.0625 C40.214765624999984 273.92392578125 40.214765624999984 273.92392578125 41.55859375 273.22265625 C41.55859375 272.56265625 41.55859375 271.90265625 41.55859375 271.22265625 C40.23859375000001 271.55265625 38.918593750000014 271.88265625 37.55859375 272.22265625 C40.13264346456381 268.36158167815427 42.16879634336601 268.27945932937484 46.55859375 267.22265625 C46.888593749999984 265.24265625 47.21859375 263.26265625 47.55859375 261.22265625 C49.86859375 261.55265625 52.178593750000005 261.88265625 54.55859375 262.22265625 C54.228593750000016 262.88265625 53.89859375 263.54265625 53.55859375 264.22265625 C52.91921875 264.34640625 52.27984375 264.47015625 51.62109375 264.59765625 C49.55859375 265.22265625 49.55859375 265.22265625 48.4296875 267.26171875 C48.142226562500014 267.908828125 47.854765625 268.5559375 47.55859375 269.22265625 C67.37706367051914 260.4567945543858 89.97882743596847 239.73453014793483 98.8046875 219.34375 C99.05347656250001 218.6437890625 99.30226562500002 217.943828125 99.55859375 217.22265625 C98.23859375 217.55265625 96.91859375000001 217.88265625 95.55859375 218.22265625 C95.95662936241843 215.33689805996667 96.34868444285036 214.40076111667244 98.62109375 212.47265625 C98.94078124999999 212.26640625 98.94078124999999 212.26640625 100.55859375 211.22265625 C101.21859374999997 211.88265625 101.87859375 212.54265625 102.55859375 213.22265625 C105.6745239186248 207.50820129130435 107.88944582552062 202.78030590989817 108.55859375 196.22265625 C109.21859374999997 195.23265625 109.87859375 194.24265625 110.55859375 193.22265625 C110.94078142082458 191.5665096764267 111.27254476721498 189.89808600631227 111.55859375 188.22265625 C112.01807442879613 186.05653304996116 112.45746743021732 184.39962730961972 113.55859375 182.47265625 C114.56882414580696 180.1996378594344 114.84545564229427 178.48964797099882 115.12109375 176.03515625 C115.55859375 172.22265625 115.55859375 172.22265625 116.55859375 171.22265625 C116.59923207075781 169.55648509892825 116.60131475132096 167.8887753015158 116.55859375 166.22265625 C115.89859375000003 167.54265625 115.23859375 168.86265625 114.55859375 170.22265625 C114.56383056640624 169.68898437500002 114.56383056640624 169.68898437500002 114.59033203125 166.98828125 C114.62711429122908 162.94762661865934 114.6497011126574 158.90698603908774 114.66845703125 154.8662109375 C114.67838429995186 153.13246149389485 114.69193055558856 151.39872818070126 114.70947265625 149.6650390625 C114.82128858607894 138.31243348104866 114.22507543938957 127.4572264614506 112.55859375 116.22265625 C112.21295036538788 113.55736981727397 111.8850821973623 110.89038637557907 111.55859375 108.22265625 C116.33500242231685 115.38726925847529 116.82878844008832 125.75691465502445 117.55859375 134.22265625 C117.55859375 133.56265625 117.55859375 132.90265625 117.55859375 132.22265625 C117.55859375 129.55598958333334 117.55859375 126.88932291666669 117.55859375 124.22265625 C117.22859374999996 124.22265625 116.89859375000003 124.22265625 116.55859375 124.22265625 C116.59984374999999 123.31515625 116.64109374999998 122.40765625 116.68359375 121.47265625 C116.559697593912 118.25135619171193 116.10161687734228 116.94563823942758 114.55859375 114.22265625 C114.20447030865438 112.89469334495392 113.8733782051238 111.56049018427633 113.55859375 110.22265625 C112.90349872103519 108.21883616140173 112.23885011890883 106.21807493213251 111.55859375 104.22265625 C110.89859375000003 104.22265625 110.23859375 104.22265625 109.55859375 104.22265625 C106.67258559952074 101.33664809952072 106.03643027996145 98.3497002702415 105.14453125 94.453125 C104.10291769956979 90.48804941802904 102.7152106563808 86.72067405004039 100.55859375 83.22265625 C98.05859375000006 81.84765625000001 98.05859375000006 81.84765625000001 95.55859375 81.22265625 C92.53994859389672 79.21022614593116 90.07472432843184 76.8286486348044 87.55859375 74.22265625 C87.88859374999998 73.56265625 88.21859374999997 72.90265625 88.55859375 72.22265625 C89.21859374999997 72.88265625 89.87859375 73.54265625 90.55859375 74.22265625 C90.88859374999998 73.56265625 91.21859374999997 72.90265625 91.55859375 72.22265625 C92.21859374999997 72.22265625 92.87859375 72.22265625 93.55859375 72.22265625 C90.85893751760926 66.59600431301718 87.52135537788308 61.586649566212685 83.62109375 56.72265625 C82.80769531250002 55.70171875 81.99429687500003 54.68078125 81.15625 53.62890625 C78.2071013453816 50.89706328572189 76.5121506264314 50.452848790112455 72.55859375 50.22265625 C72.72359374999999 50.88265625 72.72359374999999 50.88265625 73.55859375 54.22265625 C71.24859375 52.57265625 68.93859375 50.92265625 66.55859375 49.22265625 C66.39359375000001 49.55265625 66.39359375000001 49.55265625 65.55859375 51.22265625 C65.39359375000001 50.56265625 65.39359375000001 50.56265625 64.55859375 47.22265625 C64.06359375 47.38765625 64.06359375 47.38765625 61.55859375 48.22265625 C61.43484375 47.58328125 61.31109375 46.94390625 61.18359375 46.28515625 C61.080468749999994 45.944843750000004 61.080468749999994 45.944843750000004 60.55859375 44.22265625 C59.89859375 43.89265625 59.23859375000001 43.56265625 58.55859375 43.22265625 C58.55859375 43.88265625 58.55859375 44.54265625 58.55859375 45.22265625 C58.228593750000016 45.38765625 58.228593750000016 45.38765625 56.55859375 46.22265625 C56.55859375 46.88265625 56.55859375 47.54265625 56.55859375 48.22265625 C54.55859375 48.22265625 54.55859375 48.22265625 52.99609375 46.97265625 C51.41326264242372 45.04573142338541 50.97791124802893 43.6546977385679 50.55859375 41.22265625 C50.228593750000016 41.38765625 50.228593750000016 41.38765625 48.55859375 42.22265625 C48.888593749999984 43.21265625 49.21859375 44.20265625 49.55859375 45.22265625 C49.68363281249998 45.8581640625 49.808671875000016 46.493671875 49.9375 47.1484375 C50.69931605850468 49.69261565764765 51.899142653490514 51.28715067464031 53.49609375 53.41015625 C63.08921992860536 66.90356781538945 69.80869417535266 80.35479225645659 74.55859375 96.22265625 C74.8048046875 97.040888671875 75.05101562499999 97.85912109375 75.3046875 98.7021484375 C87.39210694611711 139.68503410007804 82.46925408473362 182.87174642212233 62.317138671875 220.41650390625 C58.01475718519606 228.2206514145011 53.09268126034647 235.23115711169856 47.55859375 242.22265625 C46.9514453125 243.045078125 46.344296875 243.8675 45.71875 244.71484375 C42.430622878029 249.14374966938954 39.01449093084213 252.82684822830203 34.7734375 256.3515625 C32.21650569090954 258.51165127699176 29.80751389961631 260.8026828434673 27.37109375 263.09765625 C18.63713916689011 271.0574098728342 8.784442736476706 277.3364452081229 -1.44140625 283.22265625 C0.8685937500000023 283.22265625 3.1785937500000045 283.22265625 5.55859375 283.22265625 C2.293512552791924 285.094009741925 -0.6711764972507694 285.72876300841466 -4.37890625 286.28515625 C-8.088097421925085 286.8525546467167 -11.767324213695531 287.4580682755941 -15.44140625 288.22265625 C-13.62499269144115 283.0528638141018 -11.503332070989018 280.5981806215248 -6.66796875 278.09375 C-5.932075195312507 277.7038891601562 -5.196181640625014 277.3140283203125 -4.43798828125 276.912353515625 C-3.655366210937501 276.49912841796873 -2.8727441406250023 276.0859033203125 -2.06640625 275.66015625 C31.14889466686543 257.62018297303206 57.30470024706062 225.87787801737207 68.743896484375 189.81201171875 C80.89153494855623 148.75048712794106 76.41203644199936 107.86363617679741 56.419677734375 70.12890625 C51.66631502618799 61.43895289203124 45.98429020661311 53.7409903373291 39.55859375 46.22265625 C39.112578125 45.6968798828125 38.6665625 45.171103515625 38.20703125 44.62939453125 C28.43262037452456 33.22234265793382 17.44503908561515 24.044041863020766 4.65234375 16.1953125 C-4.092176058486672 10.619577016053324 -4.092176058486672 10.619577016053324 -5.44140625 5.22265625 C-4.849130384504917 0.9582700184354351 -4.4358426143845975 0.28699549264463364 0 0 Z " fill="#FDFCFC" transform="translate(174.44140625,5.77734375)"/>
<path d="M0 0 C0.6599999999999966 0 1.3199999999999932 0 2 0 C3.545712781471906 2.318569172207873 4.796185519900803 4.5063842912230925 6 7 C6.659999999999997 7 7.319999999999993 7 8 7 C7.6699999999999875 5.68 7.340000000000003 4.359999999999999 7 3 C7.990000000000009 3.3299999999999983 8.97999999999999 3.6599999999999966 10 4 C10 3.3400000000000034 10 2.6799999999999997 10 2 C11.319999999999993 2.6599999999999966 12.639999999999986 3.3200000000000003 14 4 C14 4.659999999999997 14 5.32 14 6 C14.659999999999997 6 15.319999999999993 6 16 6 C16.329999999999984 6.990000000000002 16.659999999999997 7.980000000000004 17 9 C18.319999999999993 9 19.639999999999986 9 21 9 C21.99000000000001 9.659999999999997 22.97999999999999 10.32 24 11 C24 10.340000000000003 24 9.68 24 9 C27.682643314830102 8.62432805265383 29.392341823394503 8.514886222343279 32.34375 10.87109375 C45 25.934782608695656 45 25.934782608695656 45 31 C44.34000000000003 31 43.68000000000001 31 43 31 C42.670000000000016 31.989999999999995 42.34000000000003 32.97999999999999 42 34 C41.670000000000016 34 41.34000000000003 34 41 34 C47.32423878642368 39.795700098221104 47.32423878642368 39.795700098221104 50.6875 40.8125 C55.7781074423616 43.42659571364513 57.01331989029569 50.93361294704147 58.75 56.0625 C59.17131747175 57.37351447326462 59.589791225673196 58.68546733681646 60 60 C60.99000000000001 60 61.98000000000002 60 63 60 C63.204960937500005 60.554296875000006 63.40992187500001 61.10859375 63.62109375 61.6796875 C63.890507812500005 62.404140625 64.15992187500001 63.12859374999999 64.4375 63.875 C64.70433593749999 64.594296875 64.97117187499998 65.31359375 65.24609375 66.0546875 C66 68.00000000000003 66 68.00000000000003 67 70 C67.3415393699924 71.66500442871305 67.67449498008801 73.33178677295108 68 75 C68.32999999999998 75.99 68.65999999999997 76.98 69 78 C69.37086180635094 79.99338220913633 69.69737710518291 81.99512332183656 70 84 C70.18433593750001 85.13050781250001 70.36867187500002 86.261015625 70.55859375 87.42578125 C71.2644202401761 93.12280934927858 70.85993615279477 98.78375577617408 70.5625 104.5 C70.51029296874998 105.60859375000001 70.45808593750002 106.7171875 70.404296875 107.859375 C70.27562072252442 110.57327203402966 70.1407059362507 113.28670457624514 70 116 C69.67000000000002 116 69.34000000000003 116 69 116 C68.98541748046875 115.40276123046874 68.97083496093751 114.80552246093748 68.955810546875 114.190185546875 C68.60577834531068 101.25383644383311 67.66103584958148 88.724044729801 65.34765625 75.98828125 C64.82540156385312 73.00145388765421 64.41107039956819 70.00397599684449 64 67 C63.34000000000003 67 62.68000000000001 67 62 67 C62 68.27875 62 69.5575 62 70.875 C62 72.91666666666664 62 74.95833333333333 62 77 C62.31822976685123 79.21056034473435 62.65390290692932 81.41863103167438 63 83.625 C63.185625000000016 84.81351562499998 63.37125000000003 86.00203125000002 63.5625 87.2265625 C63.634687499999984 87.6841796875 63.634687499999984 87.6841796875 64 90 C63.34000000000003 90 62.68000000000001 90 62 90 C62.21656250000001 91.07636718750001 62.43312500000002 92.152734375 62.65625 93.26171875 C67.18501424069444 116.64465577910477 67.18501424069444 116.64465577910477 63 125 C60.875 126.3125 60.875 126.3125 59 127 C59 124.69 59 122.38 59 120 C59.65999999999997 120 60.31999999999999 120 61 120 C61 119.34 61 118.68 61 118 C60.00999999999999 117.67000000000002 59.01999999999998 117.34 58 117 C56.43053165878848 114.47141211693696 55.473784763851825 111.93746553588142 55 109 C55.16500000000002 108.505 55.16500000000002 108.505 56 106 C55.34000000000003 106 54.68000000000001 106 54 106 C53.670000000000016 105.00999999999999 53.34000000000003 104.01999999999998 53 103 C52.34000000000003 103.32999999999998 52.34000000000003 103.32999999999998 49 105 C48.670000000000016 103.68 48.34000000000003 102.36000000000001 48 101 C47.34000000000003 101 46.68000000000001 101 46 101 C46 100.34 46 99.68 46 99 C45.00999999999999 99.66 44.01999999999998 100.32 43 101 C42.00999999999999 101 41.01999999999998 101 40 101 C40 101.66 40 102.32 40 103 C39.67794256640241 105.33491639358246 39.3454185067672 107.66842507932122 39 110 C38.17500000000001 110.16499999999999 38.17500000000001 110.16499999999999 34 111 C33.97292860651601 108.75006640821721 33.953571707502306 106.50003905032685 33.9375 104.25 C33.925898437499995 102.99703125000002 33.91429687499999 101.74406249999998 33.90234375 100.453125 C34 97 34 97 34.609375 94.89453125 C35.19186092007686 92.06947453762729 34.260198821018776 90.13967470528405 33.3125 87.4375 C31.50829374030576 81.93251571274178 30.22837735231755 76.49602162129798 29.125 70.8125 C27.80563201077254 64.18365921329526 26.147322798312075 57.785251182013354 24 51.375 C23.762973632812503 50.66577392578125 23.525947265625007 49.956547851562505 23.28173828125 49.225830078125 C20.351017988684504 40.7609628108338 16.53609981282986 32.82107102268702 12.1875 25 C11.754616699218758 24.214719238281248 11.321733398437487 23.429438476562495 10.875732421875 22.620361328125 C8.04966984264101 17.591317422110578 5.023931557072672 13.068657681091786 1.08203125 8.82421875 C0 7 0 7 0.32421875 4.26953125 C0.5472265624999864 3.5205859375000017 0.7702343750000011 2.7716406250000034 1 2 C0.3400000000000034 1.6700000000000017 -0.3199999999999932 1.3400000000000034 -1 1 C-0.6699999999999875 0.6700000000000017 -0.3400000000000034 0.3400000000000034 0 0 Z " fill="#F3ECC8" transform="translate(223,47)"/>
<path d="M0 0 C6.538049293727909 12.228067089106148 5.139522614028181 27.743420709911334 5.0625 41.1875 C5.057471971519135 42.72721207640541 5.052911382854461 44.26692575324472 5.048828125 45.806640625 C5.037932636412165 49.5377942827983 5.020740817147157 53.268886539972954 5 57 C5.329999999999984 55.349999999999994 5.659999999999968 53.69999999999999 6 52 C6.329999999999984 52 6.659999999999968 52 7 52 C8.125 59.625 8.125 59.625 7 63 C6.855625000000032 64.299375 6.711250000000007 65.59875 6.5625 66.9375 C6.2039903346041 70.05027439637394 5.567054761673148 72.25765416707193 4 75 C3.3665974207085583 77.1817199953372 2.9450795725093712 79.32167678958783 2.5625 81.5625 C2 84 2 84 0 87 C-0.3730989887994838 88.65821772799765 -0.7070097748785429 90.32577014216321 -1 92 C-2.0839118561337386 95.25173556840127 -3.516669657497573 98.12872932228248 -5.0625 101.1875 C-5.6103515625 102.27417968750001 -6.158203125 103.36085937500002 -6.72265625 104.48046875 C-7.144179687500014 105.3119140625 -7.565703125000027 106.14335937499999 -8 107 C-8.990000000000009 106.00999999999999 -9.980000000000018 105.01999999999998 -11 104 C-12.901639859158365 105.64232533290951 -13.929166711758512 106.80929499319598 -14.8125 109.1875 C-17.42079750882226 115.36504673142119 -21.677890905920094 120.00841817944007 -27 124 C-27.660000000000025 124.99000000000001 -28.319999999999993 125.98000000000002 -29 127 C-29.99000000000001 126.67000000000002 -30.97999999999999 126.34 -32 126 C-30.349999999999994 123.36000000000001 -28.69999999999999 120.72 -27 118 C-29.629012878190167 119.52206008737323 -31.843659638126184 120.84365963812621 -34 123 C-34.99000000000001 122.67000000000002 -35.97999999999999 122.34 -37 122 C-36.83500000000001 121.67000000000002 -36.83500000000001 121.67000000000002 -36 120 C-38.639999999999986 120.32999999999998 -41.28 120.66 -44 121 C-43.30058404088942 117.85262818400244 -42.23921301667377 114.97411124001707 -41 112 C-41.66 112 -42.31999999999999 112 -43 112 C-43.16499999999999 112.32999999999998 -43.16499999999999 112.32999999999998 -44 114 C-44.6875 112.25 -44.6875 112.25 -45 110 C-43.9375 107.75 -43.9375 107.75 -42 106 C-41.05125000000001 106.020625 -40.10249999999999 106.04124999999999 -39.125 106.0625 C-36 106 -36 106 -33.3125 103.75 C-31.458015363163668 101.54466691835682 -29.657789698929065 99.35580641426765 -28 97 C-28.660000000000025 97 -29.319999999999993 97 -30 97 C-29.41673472719671 93.03806393961673 -28.20102022356764 90.22605564123933 -26.125 86.8125 C-25.611953125000014 85.9526953125 -25.098906250000027 85.092890625 -24.5703125 84.20703125 C-23 82 -23 82 -20 80 C-19.83499999999998 80.32999999999998 -19.83499999999998 80.32999999999998 -19 82 C-18.17500000000001 81.67000000000002 -18.17500000000001 81.67000000000002 -14 80 C-14 79.34 -14 78.68 -14 78 C-14.660000000000025 78 -15.319999999999993 78 -16 78 C-17.032680204268445 75.21176344847521 -17.04509293221679 74.13227260116918 -16.0625 71.25 C-15.71187500000002 70.5075 -15.361249999999984 69.76499999999999 -15 69 C-14.339999999999975 69 -13.680000000000007 69 -13 69 C-13 68.34 -13 67.68 -13 67 C-11.680000000000007 67 -10.360000000000014 67 -9 67 C-9.226875000000007 66.46375 -9.453750000000014 65.92750000000001 -9.6875 65.375 C-10.138464785557176 61.94766762976553 -8.616266173502368 59.973929759244356 -7 57 C-7 56.34 -7 55.68000000000001 -7 55 C-8.319999999999993 57.31 -9.639999999999986 59.620000000000005 -11 62 C-11.329999999999984 62 -11.659999999999968 62 -12 62 C-12.16500000000002 60.514999999999986 -12.16500000000002 60.514999999999986 -13 53 C-14.649999999999977 52.670000000000016 -16.30000000000001 52.34 -18 52 C-18.329999999999984 53.31999999999999 -18.660000000000025 54.639999999999986 -19 56 C-21.375 55.3125 -21.375 55.3125 -24 54 C-25.3125 51.375 -25.3125 51.375 -26 49 C-26.660000000000025 49 -27.319999999999993 49 -28 49 C-28.329999999999984 50.31999999999999 -28.660000000000025 51.639999999999986 -29 53 C-29.164999999999992 47.224999999999994 -29.164999999999992 47.224999999999994 -30 18 C-27.478749095618184 21.781876356572724 -25.62449264028237 25.684371281741136 -26.375 30.3125 C-26.478124999999977 30.755937500000016 -26.478124999999977 30.755937500000016 -27 33 C-27.09778163238758 36.33486830458659 -27.058289758427236 39.66453048999665 -27 43 C-25.680000000000007 43 -24.360000000000014 43 -23 43 C-22.857142857142833 35.571428571428555 -22.857142857142833 35.571428571428555 -24 32 C-23.339999999999975 31.670000000000016 -22.680000000000007 31.340000000000003 -22 31 C-22 31.99000000000001 -22 32.97999999999999 -22 34 C-20.019999999999982 33.34 -18.04000000000002 32.68000000000001 -16 32 C-16 32.66 -16 33.31999999999999 -16 34 C-15.339999999999975 34 -14.680000000000007 34 -14 34 C-13.670000000000016 35.31999999999999 -13.339999999999975 36.639999999999986 -13 38 C-11.680000000000007 37.00999999999999 -10.360000000000014 36.02000000000001 -9 35 C-8.83499999999998 35.66 -8.83499999999998 35.66 -8 39 C-7.340000000000032 39 -6.680000000000007 39 -6 39 C-5.670000000000016 39.99000000000001 -5.340000000000032 40.97999999999999 -5 42 C-5.659999999999968 42 -6.319999999999993 42 -7 42 C-6.525624999999991 42.577499999999986 -6.051249999999982 43.155 -5.5625 43.75 C-4.034426647368662 45.950425627789116 -3.61499961194545 47.45214446479753 -3 50 C-2.670000000000016 50.16499999999999 -2.670000000000016 50.16499999999999 -1 51 C-1 51.66 -1 52.31999999999999 -1 53 C-1.6599999999999682 53 -2.319999999999993 53 -3 53 C-2.814374999999984 53.78375 -2.628749999999968 54.567499999999995 -2.4375 55.375 C-2 58 -2 58 -3 60 C-1.0625 59 -1.0625 59 1 57 C1.5798256152158956 54.19750952645663 1.8863968969491225 51.825259780222154 2 49 C2.039960937499984 48.283281250000016 2.079921874999968 47.5665625 2.12109375 46.828125 C2.272766165869257 41.79616955586721 1.5278753327974073 37.274773676050586 0.44921875 32.37109375 C-0.16087924803127862 29.150837360391392 -0.20856975907452124 26.26759289216747 0 23 C0.16500000000002046 22.835000000000008 0.16500000000002046 22.835000000000008 1 22 C0.7716895337795222 20.012528120978033 0.4671818264332046 18.03356106870075 0.125 16.0625 C-0.058046875000002274 14.98097656249999 -0.24109375000000455 13.899453125000008 -0.4296875 12.78515625 C-1 9.999999999999986 -1 9.999999999999986 -2 8 C-1.3400000000000318 8 -0.6800000000000068 8 0 8 C0 5.359999999999999 0 2.719999999999999 0 0 Z M-9 39 C-8 41 -8 41 -8 41 Z " fill="#F5F0D6" transform="translate(285,114)"/>
<path d="M0 0 C4.289999999999992 1.3200000000000003 8.579999999999984 2.6400000000000006 13 4 C13 4.99 13 5.98 13 7 C14.94921875 8.437499999999996 14.94921875 8.437499999999996 17.6875 10 C24.76611793712334 14.3323679563956 30.869667105529373 19.438628467273112 37 25 C37.539150390625 25.4871044921875 38.07830078124999 25.974208984374997 38.6337890625 26.47607421875 C48.22320899548271 35.26685635214275 55.820776213637316 45.18122795312925 63 56 C63.470991210937484 56.706728515625 63.941982421875 57.413457031250005 64.42724609375 58.1416015625 C71.62172965062496 69.12495686741813 76.2432188089137 80.44982034739434 80 93 C80.2462109375 93.818232421875 80.49242187499999 94.63646484375 80.74609375 95.4794921875 C92.83351319611711 136.46237785007807 87.91066033473362 179.64909017212233 67.758544921875 217.19384765625 C63.45616343519609 224.99799516450108 58.53408751034647 232.00850086169856 53 239 C52.3928515625 239.822421875 51.785703125 240.64484375 51.16015625 241.4921875 C47.87202912802897 245.92109341938954 44.45589718084213 249.60419197830203 40.21484375 253.12890625 C37.65791194090957 255.28899502699176 35.24892014961631 257.5800265934674 32.8125 259.875 C24.07854541689008 267.8347536228342 14.225848986476706 274.1137889581229 4 280 C6.310000000000002 280 8.620000000000005 280 11 280 C7.734918802791867 281.87135349192505 4.770229752749287 282.50610675841466 1.0625 283.0625 C-2.6466911719250845 283.6298983967167 -6.325917963695531 284.2354120255941 -10 285 C-8.183586441441179 279.8302075641018 -6.061925820989046 277.3755243715248 -1.2265625 274.87109375 C-0.4906689453125068 274.4812329101562 0.24522460937498636 274.0913720703125 1.00341796875 273.689697265625 C1.7860400390624989 273.27647216796873 2.5686621093749977 272.8632470703125 3.375 272.4375 C36.59030091686543 254.39752672303206 62.74610649706062 222.6552217673721 74.185302734375 186.58935546875 C86.33294119855623 145.52783087794106 81.85344269199936 104.64097992679741 61.861083984375 66.90625 C57.10772127618799 58.21629664203124 51.42569645661311 50.518334087329094 45 43 C44.553984375 42.4742236328125 44.10796875 41.948447265625 43.6484375 41.40673828125 C33.87402662452456 29.999686407933822 22.88644533561515 20.821385613020766 10.09375 12.97265625 C2.3657862657456405 8.045103616416093 2.3657862657456405 8.045103616416093 0.6875 3.25 C0.5740624999999966 2.713750000000001 0.5740624999999966 2.713750000000001 0 0 Z " fill="#FEFEFE" transform="translate(169,9)"/>
<path d="M0 0 C0.9900000000000091 0.33000000000000007 1.9799999999999898 0.6600000000000001 3 1 C2.6699999999999875 1.6600000000000001 2.3400000000000034 2.3200000000000003 2 3 C3.319999999999993 3 4.639999999999986 3 6 3 C5.340000000000003 2.34 4.680000000000007 1.6799999999999997 4 1 C10.715391726030617 2.299753237296251 16.720191126649382 4.299288877014142 23 7 C22.670000000000016 7.164999999999999 22.670000000000016 7.164999999999999 21 8 C21 8.66 21 9.32 21 10 C21.99000000000001 10 22.97999999999999 10 24 10 C24.329999999999984 9.34 24.659999999999997 8.68 25 8 C26.97999999999999 8.990000000000002 28.960000000000008 9.98 31 11 C30.670000000000016 11.990000000000002 30.340000000000003 12.98 30 14 C30.659999999999997 14 31.319999999999993 14 32 14 C32.329999999999984 13.34 32.66 12.68 33 12 C33.66 12.66 34.31999999999999 13.32 35 14 C34.670000000000016 14.66 34.34 15.32 34 16 C34.66 16 35.31999999999999 16 36 16 C36.329999999999984 15.34 36.66 14.68 37 14 C38.67427614681617 14.9238416595825 40.33928003330226 15.864505685676715 42 16.8125 C42.928124999999994 17.3345703125 43.85624999999999 17.856640625 44.8125 18.39453125 C45.53437500000001 18.9243359375 46.256249999999994 19.454140625 47 20 C47 20.989999999999995 47 21.980000000000004 47 23 C48.31999999999999 23 49.639999999999986 23 51 23 C53.50000000000003 24.375000000000014 53.50000000000003 24.375000000000014 56 26 C56.68062499999999 26.268124999999998 57.361249999999984 26.536249999999995 58.0625 26.8125 C60.93071182664721 28.570436280848284 62.15345368621877 31.203801296274115 64 34 C66.18266199477767 36.49804664081207 68.38634087535112 38.95030908554218 71 41 C71.99000000000001 41 72.98000000000002 41 74 41 C75.625 43.43749999999994 75.625 43.43749999999994 77 46 C77.32999999999998 46.33 77.65999999999997 46.66 78 47 C80.02447408244348 49.55259775612443 81.62773596742335 52.04435439137339 83 55 C83.65999999999997 55 84.32 55 85 55 C86.45507174917032 57.84400387337837 87.86202525222052 60.63781628707895 89 63.625 C90.04597653315403 66.10919426624082 91.3220958246252 67.90261978078149 93 70 C95 72.99999999999999 95 72.99999999999999 95.9375 75.4375 C97 78 97 78 98.5625 79.875 C100.538678035293 82.79630666086793 100.61521525877231 85.5369373289509 101 89 C101.32999999999998 89.66 101.65999999999997 90.32 102 91 C102.03999200239923 92.99960011996001 102.04346799081844 95.00047242235216 102 97 C98.40266760250034 94.12213408200029 97.5087614375077 91.67049866253554 96.55078125 87.23046875 C95.56847199682858 83.25246461127043 94.15430100276342 79.49426142028975 92 76 C89.50000000000006 74.62500000000001 89.50000000000006 74.62500000000001 87 74 C83.98135484389672 71.98756989593114 81.51613057843184 69.6059923848044 79 67 C79.32999999999998 66.34 79.65999999999997 65.68 80 65 C80.65999999999997 65.66 81.32 66.32 82 67 C82.32999999999998 66.34 82.65999999999997 65.68 83 65 C83.65999999999997 65 84.32 65 85 65 C82.30034376760926 59.373348063017175 78.96276162788308 54.363993316212685 75.0625 49.5 C74.24910156250002 48.4790625 73.43570312500003 47.458125 72.59765625 46.40625 C69.6485075953816 43.67440703572192 67.95355687643138 43.230192540112455 64 43 C64.16499999999999 43.66 64.16499999999999 43.66 65 47 C62.69 45.35 60.379999999999995 43.7 58 42 C57.83500000000001 42.33 57.83500000000001 42.33 57 44 C56.83500000000001 43.34 56.83500000000001 43.34 56 40 C55.00999999999999 40.33 54.02000000000001 40.66 53 41 C52.87625 40.360625 52.7525 39.72125 52.625 39.0625 C52.41874999999999 38.381875 52.212500000000006 37.70125 52 37 C51.670000000000016 36.835 51.670000000000016 36.835 50 36 C50 36.66 50 37.32 50 38 C49.670000000000016 38.165 49.670000000000016 38.165 48 39 C48 39.66 48 40.32 48 41 C46 41 46 41 44.4375 39.75 C42.85466889242372 37.8230751733854 42.41931749802896 36.432041488567904 42 34 C41.670000000000016 34.165 41.670000000000016 34.165 40 35 C40 36.32 40 37.64 40 39 C37.15540348461303 36.17715948090664 34.34771566245246 33.32638085223535 31.57421875 30.43359375 C21.41375944268586 19.934758490538314 10.722156707654477 10.321929577445502 -2 3 C-1.3400000000000034 2.67 -0.6800000000000068 2.34 0 2 C0 1.3399999999999999 0 0.6799999999999997 0 0 Z " fill="#F5F2E1" transform="translate(183,13)"/>
<path d="M0 0 C0.6599999999999966 0 1.3199999999999932 0 2 0 C3.545712781471906 2.318569172207873 4.796185519900803 4.5063842912230925 6 7 C6.659999999999997 7 7.319999999999993 7 8 7 C7.6699999999999875 5.68 7.340000000000003 4.359999999999999 7 3 C7.990000000000009 3.3299999999999983 8.97999999999999 3.6599999999999966 10 4 C10 3.3400000000000034 10 2.6799999999999997 10 2 C11.319999999999993 2.6599999999999966 12.639999999999986 3.3200000000000003 14 4 C14 4.659999999999997 14 5.32 14 6 C14.659999999999997 6 15.319999999999993 6 16 6 C16.329999999999984 6.990000000000002 16.659999999999997 7.980000000000004 17 9 C18.319999999999993 9 19.639999999999986 9 21 9 C22.75 10.1875 22.75 10.1875 24 12 C24 13.666666666666664 24 15.333333333333336 24 17 C25.5 19.187499999999986 25.5 19.187499999999986 27 21 C27 21.659999999999997 27 22.319999999999993 27 23 C27.659999999999997 23 28.319999999999993 23 29 23 C29.6875 24.6875 29.6875 24.6875 30 27 C29.049067034816062 28.695141372719178 28.048922384737637 30.363681079809282 27 32 C27 32.99000000000001 27 33.97999999999999 27 35 C28.319999999999993 35.66 29.639999999999986 36.31999999999999 31 37 C31 35.02000000000001 31 33.03999999999999 31 31 C31.99000000000001 31 32.97999999999999 31 34 31 C34.99000000000001 32.97999999999999 35.98000000000002 34.96000000000001 37 37 C36.670000000000016 36.00999999999999 36.34000000000003 35.02000000000001 36 34 C37.31999999999999 34.66 38.639999999999986 35.31999999999999 40 36 C40 38.31 40 40.620000000000005 40 43 C40.65999999999997 43 41.31999999999999 43 42 43 C42 43.66 42 44.31999999999999 42 45 C41.34000000000003 45 40.68000000000001 45 40 45 C40.16500000000002 45.989999999999995 40.16500000000002 45.989999999999995 41 51 C41.65999999999997 51 42.31999999999999 51 43 51 C43 51.99000000000001 43 52.97999999999999 43 54 C42.670000000000016 54.16499999999999 42.670000000000016 54.16499999999999 41 55 C41.329999999999984 55.99000000000001 41.65999999999997 56.97999999999999 42 58 C40.35000000000002 57.34 38.69999999999999 56.68000000000001 37 56 C37.16500000000002 56.66 37.16500000000002 56.66 38 60 C38.65999999999997 60 39.31999999999999 60 40 60 C41.228020523260625 64.09340174420211 41.06042313684412 66.4485648817983 39.1875 70.1875 C37.8930172511466 72.55682402046457 36.50137805061655 74.74793292407517 35 77 C34.00999999999999 77 33.01999999999998 77 32 77 C32 76.01 32 75.02 32 74 C31.340000000000003 74 30.680000000000007 74 30 74 C29.69707031249999 72.790859375 29.394140625000006 71.58171875 29.08203125 70.3359375 C26.539566065865188 60.34028840445342 23.763434047175593 50.61626626101054 20 41 C19.707382812499986 40.24203125 19.414765625 39.48406249999999 19.11328125 38.703125 C14.720719667879592 28.129175852090242 8.866146633943288 17.349506660591445 1.1171875 8.89453125 C0 7 0 7 0.3203125 4.26171875 C0.5446093749999932 3.515351562500001 0.7689062499999864 2.7689843750000023 1 2 C0.3400000000000034 1.6700000000000017 -0.3199999999999932 1.3400000000000034 -1 1 C-0.6699999999999875 0.6700000000000017 -0.3400000000000034 0.3400000000000034 0 0 Z " fill="#F2EAC2" transform="translate(223,47)"/>
<path d="M0 0 C1.94140625 0.34375 1.94140625 0.34375 4 1 C4.154687500000023 1.4124999999999943 4.154687500000023 1.4124999999999943 4.9375 3.5 C5.2881249999999795 4.324999999999989 5.638750000000016 5.150000000000006 6 6 C8.625 6.8125 8.625 6.8125 11 7 C11.329999999999984 6.009999999999991 11.660000000000025 5.02000000000001 12 4 C12.824999999999989 4.164999999999992 12.824999999999989 4.164999999999992 17 5 C17.659999999999968 7.639999999999986 18.319999999999993 10.280000000000001 19 13 C20.319999999999993 10.689999999999998 21.639999999999986 8.379999999999995 23 6 C24.39353608709473 10.180608261284249 22.75228293479796 12.07488622605257 21 16 C21 16.99000000000001 21 17.97999999999999 21 19 C19.680000000000007 19 18.360000000000014 19 17 19 C17 19.659999999999997 17 20.319999999999993 17 21 C16.340000000000032 21 15.680000000000007 21 15 21 C14.670000000000016 23.97 14.340000000000032 26.939999999999998 14 30 C14.659999999999968 30 15.319999999999993 30 16 30 C16 30.659999999999997 16 31.319999999999993 16 32 C14.019999999999982 32.99000000000001 12.04000000000002 33.97999999999999 10 35 C9.670000000000016 34.34 9.339999999999975 33.68000000000001 9 33 C5.378412552147438 38.16867334790609 2.2609995571334025 43.096278934151684 0 49 C0.6599999999999966 49 1.3199999999999932 49 2 49 C0.43903238792492516 52.83146595691153 -1.9141130510561197 55.281480544977995 -5 58 C-7.0504470604329015 58.7456171128847 -8.776687363824607 58.97838909972495 -10.9375 59.1875 C-14.28664660654539 60.50686078439668 -15.835904930809335 63.17465365966774 -18 66 C-18.330000000000013 65.34 -18.659999999999997 64.68 -19 64 C-18.382568359375 62.34619140625 -18.382568359375 62.34619140625 -17.33984375 60.3515625 C-16.961020507812492 59.60358398437501 -16.582197265625013 58.855605468750014 -16.19189453125 58.0849609375 C-15.777944335937491 57.27317382812501 -15.36399414062501 56.46138671874999 -14.9375 55.625 C-6.454413924920573 38.35503496587569 -1.3115406834100725 19.22085484307874 0 0 Z " fill="#FAF7E9" transform="translate(255,162)"/>
<path d="M0 0 C0.16500000000002046 0.3300000000000125 0.16500000000002046 0.3300000000000125 1 2 C1.990000000000009 2.3300000000000125 2.980000000000018 2.6599999999999966 4 3 C3.670000000000016 6.300000000000011 3.340000000000032 9.599999999999994 3 13 C2.009999999999991 13.330000000000013 1.0199999999999818 13.659999999999997 0 14 C-0.80859375 16.07421875 -0.80859375 16.07421875 -1.4375 18.6875 C-2.323849713569132 21.960530973544394 -3.0200165032277937 24.029701908015454 -4.9375 26.875 C-6.9689051445982955 29.952886582724716 -7.778379536167165 32.30798065034432 -8.8125 35.8125 C-11.425587145180884 44.094134456183525 -16.060901057235867 49.84524078537521 -23 55 C-23.660000000000025 55.99000000000001 -24.319999999999993 56.97999999999999 -25 58 C-25.99000000000001 57.670000000000016 -26.97999999999999 57.34 -28 57 C-26.349999999999994 54.360000000000014 -24.69999999999999 51.72 -23 49 C-25.629012878190167 50.522060087373234 -27.843659638126212 51.84365963812621 -30 54 C-30.99000000000001 53.670000000000016 -31.97999999999999 53.34 -33 53 C-32.00999999999999 52.00999999999999 -31.02000000000001 51.02000000000001 -30 50 C-30.99000000000001 50 -31.97999999999999 50 -33 50 C-33 48.02000000000001 -33 46.03999999999999 -33 44 C-31.02000000000001 43.00999999999999 -29.039999999999992 42.02000000000001 -27 41 C-27 41.66 -27 42.31999999999999 -27 43 C-27.659999999999997 43 -28.319999999999993 43 -29 43 C-29 43.66 -29 44.31999999999999 -29 45 C-22.064735364127955 41.070016706339175 -17.929983293660825 36.935264635872045 -14 30 C-13.009999999999991 30.329999999999984 -12.019999999999982 30.659999999999997 -11 31 C-11 30.340000000000003 -11 29.680000000000007 -11 29 C-10.009999999999991 29 -9.019999999999982 29 -8 29 C-8 27.349999999999994 -8 25.69999999999999 -8 24 C-8.329999999999984 24 -8.660000000000025 24 -9 24 C-9.284442886999898 19.915691878976077 -8.528098793872118 17.563691864244106 -6.5625 14 C-4.704796734372167 10.612734786319578 -3.710213108551841 7.7856895161200725 -3 4 C-1.4375 1.6875 -1.4375 1.6875 0 0 Z " fill="#F4EFCF" transform="translate(281,183)"/>
<path d="M0 0 C3.947275880873349 -0.17942163094878794 6.598051297107361 -0.09350689408777413 10 2 C10 2.990000000000002 10 3.979999999999997 10 5 C10.990000000000009 4.670000000000002 11.97999999999999 4.340000000000003 13 4 C17 8.625 17 8.625 17 12 C16.340000000000003 12 15.680000000000007 12 15 12 C15.330000000000013 12.495000000000005 15.330000000000013 12.495000000000005 17 15 C17.4375 18 17.4375 18 17 21 C14.5 22.875 14.5 22.875 12 24 C8.757686840083096 20.92198734522175 6.6258396792682674 17.48403354061729 4.3125 13.6875 C3.8967773437499886 13.035878906250005 3.4810546875000057 12.384257812499996 3.052734375 11.712890625 C0.574992515926823 7.6484175261262735 -0.5246663392983351 4.9044896934408655 0 0 Z " fill="#E2D380" transform="translate(229,56)"/>
<path d="M0 0 C1.6500000000000057 0 3.3000000000000114 0 5 0 C5.659999999999997 1.980000000000004 6.319999999999993 3.9599999999999937 7 6 C7.660000000000025 5.670000000000002 8.319999999999993 5.340000000000003 9 5 C9 5.659999999999997 9 6.319999999999993 9 7 C9.990000000000009 7.329999999999998 10.980000000000018 7.659999999999997 12 8 C12 8.659999999999997 12 9.319999999999993 12 10 C12.660000000000025 10 13.319999999999993 10 14 10 C15.228020523260625 14.093401744202097 15.060423136844122 16.44856488179832 13.1875 20.1875 C11.893017251146603 22.556824020464546 10.501378050616552 24.7479329240752 9 27 C8.009999999999991 27 7.019999999999982 27 6 27 C6 26.010000000000005 6 25.019999999999996 6 24 C5.340000000000003 24 4.680000000000007 24 4 24 C3.3211401313227498 21.50276548308007 2.6568257291651207 19.003038589521168 2 16.5 C1.8092187500000136 15.803906249999997 1.6184374999999989 15.107812499999994 1.421875 14.390625 C0.14322987896943573 9.458708104596454 -0.18357474185532396 5.0941990864852045 0 0 Z " fill="#ECE1A8" transform="translate(249,97)"/>
<path d="M0 0 C0.3300000000000125 0.9899999999999949 0.6599999999999966 1.980000000000004 1 3 C1.990000000000009 3 2.980000000000018 3 4 3 C4.329999999999984 2.3400000000000034 4.660000000000025 1.6800000000000068 5 1 C6.125 5.75 6.125 5.75 5 8 C7.310000000000002 8.330000000000013 9.620000000000005 8.659999999999997 12 9 C11.670000000000016 10.650000000000006 11.339999999999975 12.300000000000011 11 14 C10.339999999999975 13.340000000000003 9.680000000000007 12.680000000000007 9 12 C9.13277343750002 12.663867187499989 9.265546874999984 13.327734375000006 9.40234375 14.01171875 C10.268229166666686 18.341145833333343 11.134114583333314 22.670572916666657 12 27 C11.009999999999991 27 10.019999999999982 27 9 27 C9 27.659999999999997 9 28.319999999999993 9 29 C8.677942566402407 31.33491639358246 8.345418506767203 33.668425079321224 8 36 C7.175000000000011 36.16499999999999 7.175000000000011 36.16499999999999 3 37 C2.9729286065160068 34.75006640821721 2.9535717075023626 32.50003905032685 2.9375 30.25 C2.9258984374999955 28.997031249999992 2.914296874999991 27.744062499999984 2.90234375 26.453125 C3 23 3 23 3.625 20.9453125 C4.21612521198773 17.878850462813745 3.0707111512114125 15.537609992388468 2.0625 12.625 C0.5370874866623012 8.209060046134283 -0.23335789460867318 4.681300794877032 0 0 Z " fill="#EEE5B4" transform="translate(254,121)"/>
<path d="M0 0 C0.3299999999999841 0.6599999999999966 0.660000000000025 1.3199999999999932 1 2 C1.990000000000009 2.3300000000000125 2.980000000000018 2.6599999999999966 4 3 C3.670000000000016 6.300000000000011 3.339999999999975 9.599999999999994 3 13 C2.009999999999991 13.330000000000013 1.0199999999999818 13.659999999999997 0 14 C-0.80859375 16.07421875 -0.80859375 16.07421875 -1.4375 18.6875 C-2.323849713569132 21.960530973544394 -3.0200165032277937 24.029701908015454 -4.9375 26.875 C-7.532708926690248 30.807134737409456 -8.65405082513945 34.793864403372794 -9.97265625 39.29296875 C-10.986880807228829 41.96543117646229 -11.73939208847753 43.29133272142067 -14 45 C-14.660000000000025 45 -15.319999999999993 45 -16 45 C-15.611842633254241 41.603623040974384 -15.066314339212795 40.08191771314523 -12.875 37.375 C-12.256250000000023 36.59125 -11.637499999999989 35.807500000000005 -11 35 C-11.16500000000002 34.504999999999995 -11.16500000000002 34.504999999999995 -12 32 C-11.339999999999975 32 -10.680000000000007 32 -10 32 C-10 31.00999999999999 -10 30.02000000000001 -10 29 C-9.339999999999975 29 -8.680000000000007 29 -8 29 C-8 27.349999999999994 -8 25.69999999999999 -8 24 C-8.329999999999984 24 -8.660000000000025 24 -9 24 C-9.284442886999898 19.915691878976077 -8.528098793872118 17.563691864244106 -6.5625 14 C-4.704796734372167 10.612734786319578 -3.710213108551841 7.7856895161200725 -3 4 C-1.4375 1.6875 -1.4375 1.6875 0 0 Z " fill="#F1E9C0" transform="translate(281,183)"/>
<path d="M0 0 C0.6599999999999966 0.9900000000000091 1.3199999999999932 1.9800000000000182 2 3 C1.4341015624999898 3.265546874999984 0.868203125000008 3.531093750000025 0.28515625 3.8046875 C-0.08158203125000796 3.981289062500025 -0.08158203125000796 3.981289062500025 -1.9375 4.875 C-2.6683984375000023 5.223046875000023 -3.3992968750000045 5.571093749999989 -4.15234375 5.9296875 C-6 7 -6 7 -7 9 C-5.02000000000001 8.670000000000016 -3.039999999999992 8.339999999999975 -1 8 C-1 8.660000000000025 -1 9.319999999999993 -1 10 C-17.064044135284234 16.481170544495058 -17.064044135284234 16.481170544495058 -25 15 C-25.99000000000001 14.339999999999975 -26.97999999999999 13.680000000000007 -28 13 C-26.272783159285837 11.726517881014615 -24.543137624895166 10.456329434368342 -22.8125 9.1875 C-21.849570312499992 8.479804687500007 -20.886640625000013 7.772109375000014 -19.89453125 7.04296875 C-12.613668607210997 1.9041142801232809 -12.613668607210997 1.9041142801232809 -10 2.3125 C-9.670000000000016 2.425937499999975 -9.670000000000016 2.425937499999975 -8 3 C-5.4375 3.25 -5.4375 3.25 -3 3 C-1.1875 1.5 -1.1875 1.5 0 0 Z " fill="#F9F6E6" transform="translate(207,272)"/>
<path d="M0 0 C0.3300000000000125 1.980000000000004 0.6599999999999966 3.9599999999999937 1 6 C2.319999999999993 6.329999999999998 3.6399999999999864 6.659999999999997 5 7 C5 7.659999999999997 5 8.319999999999993 5 9 C4.340000000000003 9 3.680000000000007 9 3 9 C3.3300000000000125 10.650000000000006 3.6599999999999966 12.299999999999997 4 14 C4.659999999999997 14 5.319999999999993 14 6 14 C5.6699999999999875 12.680000000000007 5.340000000000003 11.36 5 10 C5.659999999999997 9.670000000000002 6.319999999999993 9.340000000000003 7 9 C9.339368184854322 11.126698349867581 10.806538476199137 13.062248556797897 12 16 C12 16.989999999999995 12 17.980000000000004 12 19 C11.339999999999975 19 10.680000000000007 19 10 19 C10 21.310000000000002 10 23.620000000000005 10 26 C7.434540595775928 23.434540595775914 7.459539129231018 21.523133324104435 7 18 C5.349999999999994 18 3.6999999999999886 18 2 18 C2 19.650000000000006 2 21.299999999999997 2 23 C-0.4433296724827187 19.335005491275936 -1.6814140250401124 15.637358846894642 -3.125 11.5 C-3.4021484374999886 10.727851562500007 -3.6792968750000057 9.955703125 -3.96484375 9.16015625 C-4.226523437499992 8.4163671875 -4.4882031250000125 7.672578125000001 -4.7578125 6.90625 C-4.8771313476562455 6.567548828124998 -4.8771313476562455 6.567548828124998 -5.48095703125 4.853515625 C-6 3 -6 3 -6 0 C-3 -1 -3 -1 0 0 Z " fill="#F3EDCC" transform="translate(247,79)"/>
<path d="M0 0 C3.0516330890354766 -0.29342625856110516 5.955563966844011 -0.4129843662368131 9 0 C11.1875 2.0625 11.1875 2.0625 13 5 C14.001817189469278 6.224145603175032 15.023913137782301 7.431891677793807 16.0625 8.625 C16.305488281250007 8.909882812500001 16.305488281250007 8.909882812500001 17.53515625 10.3515625 C18.0185546875 10.895546875 18.501953125 11.439531250000002 19 12 C19.493710937499998 12.564609375000003 19.987421874999995 13.12921875 20.49609375 13.7109375 C22 15 22 15 25 15 C26.75 17.250000000000007 26.75 17.250000000000007 28 20 C27.6875 22.3125 27.6875 22.3125 27 24 C26.31937499999998 23.236874999999998 25.638750000000016 22.473749999999995 24.9375 21.6875 C21.6410147516807 18.671566687707873 19.13693164500711 17.54120982853206 15 16 C15 15.009999999999998 15 14.019999999999996 15 13 C14.113124999999997 12.958750000000002 13.226249999999993 12.917500000000004 12.3125 12.875 C7.933615263640974 11.718313465867432 6.680327791026741 9.549623290819198 4 6 C3.009999999999991 5.340000000000003 2.0200000000000102 4.68 1 4 C0.3125 1.875 0.3125 1.875 0 0 Z " fill="#F8F6EB" transform="translate(232,39)"/>
<path d="M0 0 C5.514024235179221 0.3553482284893299 10.344162556134819 0.7409137892943818 15 4 C15.875 6.6875 15.875 6.6875 16 9 C15.009999999999991 8.835 15.009999999999991 8.835 10 8 C10 8.659999999999997 10 9.32 10 10 C10.763125000000002 10.123750000000001 11.526250000000005 10.247500000000002 12.3125 10.375 C15 11 15 11 18 13 C17.670000000000016 13.659999999999997 17.340000000000003 14.32 17 15 C16.00999999999999 15 15.02000000000001 15 14 15 C14.659999999999997 15.659999999999997 15.319999999999993 16.32 16 17 C11.655088859884302 16.54590002336083 9.228684334138535 13.70867178801339 6.3125 10.75 C5.814277343750007 10.271757812499999 5.316054687500014 9.793515624999998 4.802734375 9.30078125 C1.8491445523492303 6.3431838427866225 0.33008358686618067 4.206646641922635 0 0 Z " fill="#F5EFD2" transform="translate(201,26)"/>
<path d="M0 0 C1.6500000000000057 0 3.3000000000000114 0 5 0 C5.659999999999997 1.980000000000004 6.319999999999993 3.9599999999999937 7 6 C7.660000000000025 5.670000000000002 8.319999999999993 5.340000000000003 9 5 C9.329999999999984 6.980000000000004 9.660000000000025 8.960000000000008 10 11 C10.660000000000025 11 11.319999999999993 11 12 11 C11.670000000000016 11.989999999999995 11.339999999999975 12.980000000000004 11 14 C10.009999999999991 12.680000000000007 9.019999999999982 11.36 8 10 C7.009999999999991 10.329999999999998 6.02000000000001 10.659999999999997 5 11 C5.659999999999997 14.960000000000008 6.319999999999993 18.92 7 23 C6.340000000000003 23 5.680000000000007 23 5 23 C1.9834483262807794 15.18438884536387 -0.29650342881348024 8.450347721184485 0 0 Z " fill="#E7DA94" transform="translate(249,97)"/>
<path d="M0 0 C0.9900000000000091 0 1.9800000000000182 0 3 0 C3.660000000000025 2.6399999999999864 4.319999999999993 5.280000000000001 5 8 C6.319999999999993 5.689999999999998 7.639999999999986 3.3799999999999955 9 1 C10.39353608709473 5.180608261284249 8.752282934797961 7.07488622605257 7 11 C7 11.990000000000009 7 12.97999999999999 7 14 C5.680000000000007 14 4.360000000000014 14 3 14 C2.670000000000016 14.659999999999997 2.339999999999975 15.319999999999993 2 16 C1.670000000000016 13.689999999999998 1.339999999999975 11.379999999999995 1 9 C-0.3199999999999932 9 -1.6399999999999864 9 -3 9 C-2.009999999999991 6.030000000000001 -1.0199999999999818 3.0600000000000023 0 0 Z " fill="#F9F6E6" transform="translate(269,167)"/>
<path d="M0 0 C0 1.3199999999999932 0 2.6399999999999864 0 4 C-3 5 -3 5 -6.4375 5.4375 C-10 6 -10 6 -12 7.125 C-15.103621006874619 8.482834190507617 -17.75732526478251 7.623591295234121 -21 7 C-21 7.660000000000025 -21 8.319999999999993 -21 9 C-22.485000000000014 9.16500000000002 -22.485000000000014 9.16500000000002 -30 10 C-29 8 -29 8 -27.0625 7 C-22.782834635648555 5.602558248375033 -18.423882669227964 4.80746596292704 -14 4 C-14.990000000000009 3.670000000000016 -15.97999999999999 3.339999999999975 -17 3 C-11.04268145887437 -1.273728518633618 -7.121629597595046 -1.3182895834582382 0 0 Z " fill="#FAF7EB" transform="translate(188,286)"/>
<path d="M0 0 C0.660000000000025 0.9900000000000091 1.3199999999999932 1.9799999999999898 2 3 C-1.645403063790127 9.308357074927557 -5.489813589961386 15.274302358887155 -10 21 C-10.329999999999984 20.00999999999999 -10.660000000000025 19.02000000000001 -11 18 C-11.651297973545866 16.65909240740561 -12.315132748651251 15.324076685940895 -13 14 C-12.278124999999989 13.298750000000013 -11.556249999999977 12.597499999999997 -10.8125 11.875 C-8.88665978490917 9.954615422912298 -7.1025050276466 7.975310064008056 -5.375 5.875 C-3.6491286808883387 3.7857873505490716 -1.9609262591860102 1.8577196139656849 0 0 Z " fill="#F1F0E8" transform="translate(273,221)"/>
<path d="M0 0 C1.7853543883038014 2.678031582455688 2.854699488577296 5.022218670301001 4 8 C4.329999999999984 8.659999999999997 4.660000000000025 9.319999999999993 5 10 C5.341539369992404 11.665004428713047 5.674494980088014 13.331786772951077 6 15 C6.329999999999984 15.989999999999995 6.660000000000025 16.980000000000004 7 18 C7.370861806350945 19.99338220913633 7.697377105182852 21.99512332183656 8 24 C8.184335937500009 25.130507812500014 8.368671875000018 26.261015625 8.55859375 27.42578125 C9.264420240176094 33.12280934927861 8.859936152794774 38.78375577617405 8.5625 44.5 C8.51029296874998 45.60859375000001 8.458085937500016 46.717187499999994 8.404296875 47.859375 C8.27562072252448 50.57327203402966 8.140705936250697 53.28670457624514 8 56 C7.670000000000016 56 7.339999999999975 56 7 56 C6.9854174804687545 55.40276123046874 6.970834960937509 54.80552246093751 6.955810546875 54.190185546875 C6.605778345310739 41.25383644383311 5.661035849581424 28.724044729801022 3.34765625 15.98828125 C2.825401563853063 13.001453887654165 2.411070399568189 10.003975996844531 2 7 C1.339999999999975 7 0.6800000000000068 7 0 7 C-0.9342364456992982 3.9896825638578406 -1.0444991081527064 3.133497324458091 0 0 Z " fill="#DBD7BE" transform="translate(285,107)"/>
<path d="M0 0 C0.660000000000025 0 1.3199999999999932 0 2 0 C2 4.289999999999992 2 8.580000000000013 2 13 C2.329999999999984 11.349999999999994 2.660000000000025 9.699999999999989 3 8 C3.329999999999984 8 3.660000000000025 8 4 8 C5.125 15.625 5.125 15.625 4 19 C3.855624999999975 20.299374999999998 3.711250000000007 21.598749999999995 3.5625 22.9375 C3.2025999327306067 25.996650571789644 2.766904169280565 28.401611515763904 1 31 C0.339999999999975 31.329999999999984 -0.3199999999999932 31.659999999999997 -1 32 C-0.9581054687499773 31.611992187499993 -0.9581054687499773 31.611992187499993 -0.74609375 29.6484375 C-0.055469074022880704 22.322570683939006 -0.10487153737068411 15.415363856963324 -0.84375 8.09375 C-0.9918919452347268 5.1605394843522845 -0.7188390317488143 2.8330714780688027 0 0 Z " fill="#EBE8D4" transform="translate(288,158)"/>
<path d="M0 0 C2.5625 -0.5 2.5625 -0.5 6 0 C8.854428777789622 2.300333779748115 11.238688368362034 4.77561800342319 13 8 C12.69140625 10.76953125 12.69140625 10.76953125 12 13 C8.385228252032675 11.50198648282435 6.313795373485988 9.424625833458109 3.75 6.5 C3.0435937500000136 5.705937499999997 2.337187499999999 4.911875000000002 1.609375 4.09375 C0 2 0 2 0 0 Z " fill="#F4EECE" transform="translate(247,56)"/>
<path d="M0 0 C0.660000000000025 0 1.3199999999999932 0 2 0 C1.6917018180557761 3.853727274303111 1.3724161529466414 6.447796738734269 -0.8125 9.6875 C-3.468533703248511 13.709493893490617 -4.624331194648448 17.69246051392932 -5.97265625 22.29296875 C-6.986880807228829 24.96543117646229 -7.73939208847753 26.291332721420673 -10 28 C-10.660000000000025 28 -11.319999999999993 28 -12 28 C-11.611842633254241 24.603623040974384 -11.066314339212795 23.08191771314523 -8.875 20.375 C-8.256250000000023 19.591250000000002 -7.637499999999989 18.807500000000005 -7 18 C-7.329999999999984 17.00999999999999 -7.660000000000025 16.02000000000001 -8 15 C-7.339999999999975 15 -6.680000000000007 15 -6 15 C-6 14.009999999999991 -6 13.02000000000001 -6 12 C-5.339999999999975 12 -4.680000000000007 12 -4 12 C-3.7950390624999955 11.301328124999998 -3.590078124999991 10.602656249999995 -3.37890625 9.8828125 C-3.1094921874999955 8.972734374999987 -2.840078124999991 8.062656250000003 -2.5625 7.125 C-2.295664062500009 6.220078124999986 -2.028828125000018 5.315156250000001 -1.75390625 4.3828125 C-1 2 -1 2 0 0 Z " fill="#E8DB96" transform="translate(277,200)"/>
<path d="M0 0 C0 0.9899999999999949 0 1.980000000000004 0 3 C-0.660000000000025 3 -1.3199999999999932 3 -2 3 C-2.329999999999984 3.989999999999995 -2.660000000000025 4.980000000000004 -3 6 C-3.329999999999984 6 -3.660000000000025 6 -4 6 C-2.3500000000000227 7.650000000000006 -0.6999999999999886 9.299999999999997 1 11 C0.009999999999990905 11.329999999999998 -0.9800000000000182 11.659999999999997 -2 12 C-3.6499999999999773 10.349999999999994 -5.300000000000011 8.700000000000003 -7 7 C-7.329999999999984 7.989999999999995 -7.660000000000025 8.980000000000004 -8 10 C-10.190976515683303 6.665905302221034 -11.434541630376316 3.958208587365874 -12 0 C-11.339999999999975 0 -10.680000000000007 0 -10 0 C-10 0.6599999999999966 -10 1.3199999999999932 -10 2 C-9.445703125000023 1.7718359375000006 -8.891406249999989 1.5436718750000011 -8.3203125 1.30859375 C-7.595859374999975 1.0211328124999994 -6.871406250000007 0.7336718749999989 -6.125 0.4375 C-5.405703125000002 0.1474609375 -4.6864062500000045 -0.142578125 -3.9453125 -0.44140625 C-2 -1 -2 -1 0 0 Z " fill="#F3ECC6" transform="translate(268,75)"/>
<path d="M0 0 C0.660000000000025 0.3299999999999983 1.3199999999999932 0.6599999999999966 2 1 C2 2.319999999999993 2 3.6400000000000006 2 5 C2.660000000000025 5 3.319999999999993 5 4 5 C4 5.989999999999995 4 6.980000000000004 4 8 C3.670000000000016 8.164999999999992 3.670000000000016 8.164999999999992 2 9 C2.329999999999984 9.989999999999995 2.660000000000025 10.980000000000004 3 12 C2.2162500000000023 11.649374999999992 1.4325000000000045 11.298749999999998 0.625 10.9375 C-0.24124999999997954 10.628124999999997 -1.107500000000016 10.318749999999994 -2 10 C-2.329999999999984 10.164999999999992 -2.329999999999984 10.164999999999992 -4 11 C-5.429449452689312 8.645612666158812 -6.086612612169972 7.51967567301989 -5.625 4.75 C-5.418749999999989 4.172499999999999 -5.212499999999977 3.594999999999999 -5 3 C-5 3.6599999999999966 -5 4.319999999999993 -5 5 C-4.339999999999975 5 -3.680000000000007 5 -3 5 C-3 3.680000000000007 -3 2.3599999999999994 -3 1 C-2.009999999999991 0.6700000000000017 -1.0199999999999818 0.3400000000000034 0 0 Z " fill="#EBDFA2" transform="translate(262,93)"/>
<path d="M0 0 C0.3299999999999841 0.9900000000000091 0.660000000000025 1.9799999999999898 1 3 C0.339999999999975 3 -0.3199999999999932 3 -1 3 C-0.339999999999975 4.319999999999993 0.3199999999999932 5.639999999999986 1 7 C0.009999999999990905 7.3300000000000125 -0.9800000000000182 7.659999999999997 -2 8 C-3.125 10.375 -3.125 10.375 -4 13 C-4.329999999999984 13.990000000000009 -4.660000000000025 14.97999999999999 -5 16 C-6.319999999999993 15.669999999999987 -7.639999999999986 15.340000000000003 -9 15 C-7.431817280932648 9.547000999606723 -5.961897833387127 5.235132166724213 -2 1 C-1.339999999999975 1.3300000000000125 -0.6800000000000068 1.6599999999999966 0 2 C0 1.3400000000000034 0 0.6800000000000068 0 0 Z " fill="#F1EAC0" transform="translate(270,212)"/>
<path d="M0 0 C0 0.990000000000002 0 1.9799999999999969 0 3 C0.9900000000000091 2.6700000000000017 1.9799999999999898 2.3400000000000034 3 2 C3.6599999999999966 3.3200000000000003 4.319999999999993 4.640000000000001 5 6 C3.680000000000007 6 2.3600000000000136 6 1 6 C1.6599999999999966 7.319999999999993 2.319999999999993 8.64 3 10 C2.3400000000000034 9.670000000000002 1.6800000000000068 9.340000000000003 1 9 C0.6699999999999875 9.659999999999997 0.3400000000000034 10.319999999999993 0 11 C-0.6599999999999966 11 -1.3199999999999932 11 -2 11 C-2.1443749999999966 10.54625 -2.1443749999999966 10.54625 -2.875 8.25 C-3.7653177573742482 5.677970923141096 -4.71494412506911 3.3865323391573767 -6 1 C-4 0 -4 0 0 0 Z " fill="#DFCD6C" transform="translate(239,58)"/>
<path d="M0 0 C2.521250904381816 3.781876356572724 4.375507359717631 7.684371281741136 3.625 12.3125 C3.4187499999999886 13.199375000000003 3.2124999999999773 14.086250000000007 3 15 C2.5918367346938567 24.18367346938777 2.5918367346938567 24.18367346938777 4 27 C4.660000000000025 27.329999999999984 5.319999999999993 27.659999999999997 6 28 C5.339999999999975 28 4.680000000000007 28 4 28 C3.670000000000016 28.659999999999997 3.339999999999975 29.319999999999993 3 30 C3 29.340000000000003 3 28.680000000000007 3 28 C2.339999999999975 28 1.6800000000000068 28 1 28 C0.6699999999999875 18.75999999999999 0.3400000000000034 9.52000000000001 0 0 Z " fill="#F2EDD0" transform="translate(255,132)"/>
<path d="M0 0 C1.6499999999999773 0 3.3000000000000114 0 5 0 C5.329999999999984 2.969999999999999 5.660000000000025 5.939999999999998 6 9 C5.009999999999991 9.659999999999997 4.019999999999982 10.319999999999993 3 11 C0 9 0 9 -0.75 5.5 C-1 2 -1 2 0 0 Z " fill="#F8F4DF" transform="translate(262,117)"/>
<path d="M0 0 C1.6500000000000057 0 3.3000000000000114 0 5 0 C5.3300000000000125 2.3100000000000023 5.659999999999997 4.6200000000000045 6 7 C5.340000000000003 7 4.680000000000007 7 4 7 C3.6699999999999875 8.650000000000006 3.3400000000000034 10.299999999999997 3 12 C2.3400000000000034 11.670000000000002 1.6800000000000068 11.340000000000003 1 11 C-0.28317892164054115 7.150463235078377 -0.06643637132381741 4.0526186507521516 0 0 Z " fill="#E4D78E" transform="translate(249,97)"/>
<path d="M0 0 C0.3299999999999841 0.660000000000025 0.6599999999999966 1.3199999999999932 1 2 C-7.0790516638750205 5.259559749113862 -14.155686929240233 7.917037069548826 -23 7 C-23 6.339999999999975 -23 5.680000000000007 -23 5 C-21.680000000000007 5 -20.360000000000014 5 -19 5 C-19 4.339999999999975 -19 3.680000000000007 -19 3 C-17.349999999999994 2.670000000000016 -15.699999999999989 2.339999999999975 -14 2 C-14 2.660000000000025 -14 3.319999999999993 -14 4 C-8.947440364162787 3.3684300455203697 -4.704067986350594 1.865406270449398 0 0 Z " fill="#FCFAF2" transform="translate(205,280)"/>
<path d="M0 0 C4 1 4 1 5.375 3.1875 C6.170607716789732 6.767734725553794 5.50178262441716 8.69607822628231 4 12 C3.670000000000016 12.164999999999992 3.670000000000016 12.164999999999992 2 13 C1.339999999999975 12.669999999999987 0.6800000000000068 12.340000000000003 0 12 C0 8.039999999999992 0 4.0800000000000125 0 0 Z " fill="#F9F6E8" transform="translate(255,162)"/>
<path d="M0 0 C-6.1503416856492095 7.482915717539868 -6.1503416856492095 7.482915717539868 -10 10 C-10.659999999999997 9.670000000000016 -11.319999999999993 9.339999999999975 -12 9 C-11.715392404962898 5.584708859554894 -11.203393287127398 4.215015760677545 -8.8125 1.6875 C-5.57283877575972 -0.2562967345441791 -3.7119816325556485 -0.34530061698191616 0 0 Z " fill="#EFEEE8" transform="translate(251,254)"/>
<path d="M0 0 C0.9900000000000091 0 1.9799999999999898 0 3 0 C3.990000000000009 1.980000000000004 4.980000000000018 3.9599999999999937 6 6 C5.670000000000016 5.010000000000005 5.339999999999975 4.019999999999996 5 3 C6.319999999999993 3.6599999999999966 7.639999999999986 4.319999999999993 9 5 C8.670000000000016 6.650000000000006 8.339999999999975 8.299999999999997 8 10 C7.339999999999975 10 6.680000000000007 10 6 10 C6 9.340000000000003 6 8.680000000000007 6 8 C5.339999999999975 8 4.680000000000007 8 4 8 C4.660000000000025 9.319999999999993 5.319999999999993 10.64 6 12 C3 11 3 11 1 8 C0.46083854021637194 5.339797703143063 0.26629902007292117 2.707373370741408 0 0 Z " fill="#E8DB94" transform="translate(254,78)"/>
<path d="M0 0 C0.3299999999999841 0 0.660000000000025 0 1 0 C1.024492187500016 0.41572265625001137 1.024492187500016 0.41572265625001137 1.1484375 2.51953125 C1.2232031249999977 3.606210937500009 1.2979687499999955 4.69289062499999 1.375 5.8125 C1.4446093750000273 6.891445312499997 1.5142187499999977 7.970390624999993 1.5859375 9.08203125 C2 12 2 12 4 15 C4.125 18.1875 4.125 18.1875 4 21 C3.339999999999975 20.340000000000003 2.680000000000007 19.680000000000007 2 19 C1.339999999999975 22.30000000000001 0.6800000000000068 25.599999999999994 0 29 C-0.3299999999999841 29 -0.660000000000025 29 -1 29 C-0.6700000000000159 19.430000000000007 -0.339999999999975 9.860000000000014 0 0 Z " fill="#F9F8F0" transform="translate(290,147)"/>
<path d="M0 0 C0.660000000000025 0.3299999999999983 1.3199999999999932 0.6599999999999966 2 1 C2 2.319999999999993 2 3.6400000000000006 2 5 C1.339999999999975 5 0.6800000000000068 5 0 5 C0 5.659999999999997 0 6.319999999999993 0 7 C0.9900000000000091 6.670000000000002 1.9800000000000182 6.340000000000003 3 6 C3.990000000000009 6.989999999999995 4.980000000000018 7.980000000000004 6 9 C5.670000000000016 9.659999999999997 5.339999999999975 10.319999999999993 5 11 C0.6486165616950075 8.899332133232079 -2.640193282489463 6.475662121562621 -6 3 C-5.670000000000016 2.3400000000000034 -5.339999999999975 1.6800000000000068 -5 1 C-4.339999999999975 1.6599999999999966 -3.680000000000007 2.319999999999993 -3 3 C-2.009999999999991 2.010000000000005 -1.0199999999999818 1.019999999999996 0 0 Z " fill="#F6F0D4" transform="translate(268,77)"/>
<path d="M0 0 C-1.373106612195329 1.9738407550307784 -2.5319010302610536 2.8859008761261293 -4.875 3.45703125 C-8.400318372645302 3.943058599169831 -10.560198427771866 4.146600524076064 -14 3 C-14 3.660000000000025 -14 4.319999999999993 -14 5 C-15.485000000000014 5.1650000000000205 -15.485000000000014 5.1650000000000205 -23 6 C-21.574806033501233 3.149612067002465 -19.981427166097006 3.002090797493736 -17 2 C-15.010781950668758 1.571471643628115 -13.009071747886736 1.1978865309103526 -11 0.875 C-9.989374999999995 0.7074218750000227 -8.978749999999991 0.5398437499999886 -7.9375 0.3671875 C-5.2508422850602585 0.03135528563251455 -2.7031659670910244 -0.06956677121189614 0 0 Z " fill="#AEAC9A" transform="translate(181,290)"/>
<path d="M0 0 C0.660000000000025 0 1.3199999999999932 0 2 0 C1.4235751605485234 3.890867666297339 -0.28168186828514763 6.206173031293048 -3 9 C-5.75 9.8125 -5.75 9.8125 -8 10 C-7.6699999999999875 8.349999999999994 -7.340000000000003 6.699999999999989 -7 5 C-6.030624999999986 4.731875000000002 -5.061249999999973 4.4637500000000045 -4.0625 4.1875 C-3.0518749999999955 3.795625000000001 -2.041249999999991 3.4037500000000023 -1 3 C-0.6700000000000159 2.009999999999991 -0.339999999999975 1.0200000000000102 0 0 Z " fill="#F8F4DF" transform="translate(263,215)"/>
<path d="M0 0 C3 1 3 1 4.5625 2.9375 C6.539858656546585 7.15013365959922 7.245710955810637 11.429895791087944 8 16 C4.505863953709252 13.133016577402472 2.711631264745222 11.15849851593282 2.1875 6.6875 C2.1256250000000136 5.470624999999998 2.0637500000000273 4.253749999999997 2 3 C1.339999999999975 3 0.6800000000000068 3 0 3 C0 2.010000000000005 0 1.019999999999996 0 0 Z " fill="#EFE7B8" transform="translate(275,94)"/>
<path d="M0 0 C2.034345900026608 1.4151971478445944 2.9041039305387812 2.549821229473821 3.421875 4.98046875 C3.6627395194122414 6.981769536292816 3.835327410015509 8.990994402189045 4 11 C3.670000000000016 11.164999999999992 3.670000000000016 11.164999999999992 2 12 C1.670000000000016 11.010000000000005 1.339999999999975 10.019999999999996 1 9 C0.339999999999975 9 -0.3199999999999932 9 -1 9 C-1 8.340000000000003 -1 7.680000000000007 -1 7 C-1.660000000000025 7 -2.319999999999993 7 -3 7 C-3 5.349999999999994 -3 3.700000000000003 -3 2 C-2.339999999999975 2 -1.6800000000000068 2 -1 2 C-1 2.6599999999999966 -1 3.319999999999993 -1 4 C-0.339999999999975 4 0.3199999999999932 4 1 4 C0.6700000000000159 2.680000000000007 0.339999999999975 1.3599999999999994 0 0 Z " fill="#EFE6B6" transform="translate(269,86)"/>
<path d="M0 0 C-0.1875 1.8750000000000036 -0.1875 1.8750000000000036 -1 4 C-3.5625 5.25 -3.5625 5.25 -6 6 C-6.3300000000000125 5.009999999999998 -6.659999999999997 4.02 -7 3 C-7.659999999999997 2.6700000000000017 -8.319999999999993 2.34 -9 2 C-9 1.009999999999998 -9 0.019999999999999574 -9 -1 C-5.233753288831338 -2.2554155703895518 -3.628110662498699 -1.370619583610619 0 0 Z " fill="#FAF7E9" transform="translate(200,19)"/>
<path d="M0 0 C0 0.6599999999999966 0 1.3199999999999932 0 2 C-0.6599999999999966 2 -1.3199999999999932 2 -2 2 C-2 2.6599999999999966 -2 3.319999999999993 -2 4 C-2.6599999999999966 4 -3.319999999999993 4 -4 4 C-3.6699999999999875 4.989999999999995 -3.3400000000000034 5.980000000000004 -3 7 C-3.4950000000000045 7.329999999999998 -3.4950000000000045 7.329999999999998 -6 9 C-6.659999999999997 6.689999999999998 -7.319999999999993 4.3799999999999955 -8 2 C-7.340000000000003 2 -6.680000000000007 2 -6 2 C-6 1.3400000000000034 -6 0.6800000000000068 -6 0 C-3 -1 -3 -1 0 0 Z " fill="#F5F1D6" transform="translate(252,86)"/>
<path d="M0 0 C0.3299999999999841 0.6599999999999966 0.660000000000025 1.3199999999999932 1 2 C1.990000000000009 2.3300000000000125 2.980000000000018 2.6599999999999966 4 3 C3.339999999999975 5.639999999999986 2.680000000000007 8.280000000000001 2 11 C1.670000000000016 10.340000000000003 1.339999999999975 9.680000000000007 1 9 C0.339999999999975 9 -0.3199999999999932 9 -1 9 C-1 7.680000000000007 -1 6.360000000000014 -1 5 C-1.660000000000025 4.6699999999999875 -2.319999999999993 4.340000000000003 -3 4 C-2.009999999999991 2.680000000000007 -1.0199999999999818 1.3600000000000136 0 0 Z " fill="#F0E7B9" transform="translate(281,183)"/>
<path d="M0 0 C2.727272727272748 4.0909090909090935 2.727272727272748 4.0909090909090935 3 7 C1.5625 8.75 1.5625 8.75 0 10 C-1.3199999999999932 9.340000000000003 -2.6399999999999864 8.680000000000007 -4 8 C-2.25 2.25 -2.25 2.25 0 0 Z " fill="#F0E7BA" transform="translate(272,135)"/>
<path d="M0 0 C-2.586098031411069 3.3044585956919263 -4.977116366314988 3.4133294700876036 -9 4 C-9.990000000000009 4.660000000000025 -10.97999999999999 5.319999999999993 -12 6 C-14.6875 5.625 -14.6875 5.625 -17 5 C-14.158193779162872 3.1054625194419145 -11.684351852948083 1.9980718592292988 -8.5 0.8125 C-7.5409375000000125 0.4476953125000023 -6.581874999999997 0.08289062500000455 -5.59375 -0.29296875 C-3 -1 -3 -1 0 0 Z " fill="#E4E1D0" transform="translate(206,283)"/>
<path d="M0 0 C1 2 1 2 0.44140625 4.1640625 C0.1513671875 4.976171875000006 -0.138671875 5.788281250000011 -0.4375 6.625 C-0.7249609374999864 7.4422656250000045 -1.0124218749999727 8.259531250000009 -1.30859375 9.1015625 C-1.4226757812500068 9.414804687500009 -1.4226757812500068 9.414804687500009 -2 11 C-2.660000000000025 11 -3.319999999999993 11 -4 11 C-4 10.009999999999991 -4 9.02000000000001 -4 8 C-4.660000000000025 8 -5.319999999999993 8 -6 8 C-6 7.340000000000003 -6 6.680000000000007 -6 6 C-5.339999999999975 6 -4.680000000000007 6 -4 6 C-3.711250000000007 5.381249999999994 -3.4225000000000136 4.762499999999989 -3.125 4.125 C-2 2 -2 2 0 0 Z " fill="#FEFDFA" transform="translate(262,176)"/>
<path d="M0 0 C0.660000000000025 1.3199999999999932 1.3199999999999932 2.6400000000000006 2 4 C2.660000000000025 4 3.319999999999993 4 4 4 C5.802301675393778 7.829891060211807 6.196222414878605 10.781218080110392 6 15 C2.173540529764125 12.321478370834882 1.5318035395756056 9.651893842392994 0.75 5.25 C0.4846368862800432 3.5022636303272634 0.22967505579424596 1.752783320535059 0 0 Z " fill="#F4F2E5" transform="translate(279,95)"/>
<path d="M0 0 C2.6875 0.3125 2.6875 0.3125 5 1 C5 4.299999999999997 5 7.599999999999994 5 11 C2.4345405957759 8.434540595775914 2.4595391292310183 6.523133324104435 2 3 C0.3499999999999943 3 -1.3000000000000114 3 -3 3 C-1.8125 1.4375 -1.8125 1.4375 0 0 Z " fill="#F0E7B8" transform="translate(252,94)"/>
<path d="M0 0 C1.3199999999999932 0.3299999999999983 2.6399999999999864 0.6599999999999966 4 1 C4 1.6599999999999966 4 2.3200000000000003 4 3 C5.97999999999999 3 7.960000000000008 3 10 3 C9.381249999999994 3.2475000000000023 8.762499999999989 3.4949999999999974 8.125 3.75 C5.625197971441963 5.22047178150472 5.1668397779338875 6.414030762416786 4 9 C3.330922402889712 7.688727387806189 2.6648019392059723 6.37594549794516 2 5.0625 C1.6287499999999966 4.331601562499998 1.2574999999999932 3.6007031250000026 0.875 2.84765625 C0 1 0 1 0 0 Z " fill="#EADFA4" transform="translate(224,52)"/>
<path d="M0 0 C1.3199999999999932 0 2.6399999999999864 0 4 0 C4 3 4 3 2.6875 4.38671875 C1.125 5.591145833333343 -0.4375 6.795572916666657 -2 8 C-2.6599999999999966 7.340000000000003 -3.319999999999993 6.680000000000007 -4 6 C-2.848266447983491 3.5319995313931827 -1.9521643451747082 1.9521643451747082 0 0 Z " fill="#EFEEE5" transform="translate(253,246)"/>
<path d="M0 0 C0.6599999999999966 0.3299999999999983 1.3199999999999932 0.6599999999999966 2 1 C1.8143750000000125 1.556874999999998 1.6287499999999966 2.113750000000003 1.4375 2.6875 C0.9244883513786419 5.399132999855716 1.335927598065183 7.343710392260732 2 10 C0 10 0 10 -1.5625 8.625 C-3 7 -3 7 -4 5 C-2.680000000000007 3.3500000000000014 -1.3600000000000136 1.7000000000000028 0 0 Z " fill="#F5F0D2" transform="translate(229,44)"/>
<path d="M0 0 C0.45375000000001364 0.12374999999997272 0.45375000000001364 0.12374999999997272 2.75 0.75 C0.061581414391469025 3.002458814969316 -1.8964187472208494 4.632139582406921 -5.25 5.75 C-5.909999999999997 5.089999999999975 -6.569999999999993 4.430000000000007 -7.25 3.75 C-4.050000000000011 -0.31153846153847553 -4.050000000000011 -0.31153846153847553 0 0 Z " fill="#EBE9E0" transform="translate(227.25,270.25)"/>
<path d="M0 0 C2.8125 0.0625 2.8125 0.0625 6 1 C7.4926041009860285 3.2744443443596722 8.142420105142577 5.37961698793567 9 8 C8.009999999999991 8.329999999999998 7.02000000000001 8.659999999999997 6 9 C6 8.009999999999998 6 7.019999999999996 6 6 C5.009999999999991 5.670000000000002 4.02000000000001 5.340000000000003 3 5 C1.3125 2.4375 1.3125 2.4375 0 0 Z " fill="#ECE1A6" transform="translate(233,52)"/>
<path d="M0 0 C2.6399999999999864 0.3299999999999983 5.279999999999973 0.6599999999999966 8 1 C8 3 8 5 8 7 C4.204786899512413 5.509023424808447 2.3895726919165554 3.2429915104581966 0 0 Z " fill="#EEE5B3" transform="translate(251,62)"/>
<path d="M0 0 C-0.3300000000000125 1.3199999999999932 -0.6599999999999966 2.6399999999999864 -1 4 C-7.15234375 3.4140625 -7.15234375 3.4140625 -9 3 C-9.330000000000013 2.339999999999975 -9.659999999999997 1.6800000000000068 -10 1 C-8.71073008467775 0.6372054424325597 -7.418467279499453 0.2850330234954299 -6.125 -0.0625 C-5.405703125000002 -0.25972656250002046 -4.6864062500000045 -0.4569531249999841 -3.9453125 -0.66015625 C-2 -1 -2 -1 0 0 Z " fill="#EFEDE1" transform="translate(189,287)"/>
<path d="M0 0 C0.660000000000025 0.9900000000000091 1.3199999999999932 1.9799999999999898 2 3 C0.6800000000000068 5.310000000000002 -0.6399999999999864 7.6200000000000045 -2 10 C-2.6666666666666856 8 -3.3333333333333144 6 -4 4 C-2.680000000000007 2.680000000000007 -1.3600000000000136 1.3600000000000136 0 0 Z " fill="#E9E8E0" transform="translate(273,221)"/>
<path d="M0 0 C2 2 2 2 2 6 C0.01999999999998181 6.3300000000000125 -1.9599999999999795 6.659999999999997 -4 7 C-3.4362858578248847 3.7304579753842404 -2.5003773418247874 2.1742411668041655 0 0 Z " fill="#F7F5ED" transform="translate(274,217)"/>
<path d="M0 0 C1.3199999999999932 0 2.6399999999999864 0 4 0 C4 1.3199999999999932 4 2.6400000000000006 4 4 C4.990000000000009 4 5.97999999999999 4 7 4 C7 5.319999999999993 7 6.640000000000001 7 8 C6.340000000000003 8 5.680000000000007 8 5 8 C0 2.5238095238095184 0 2.5238095238095184 0 0 Z " fill="#F6F0D4" transform="translate(244,68)"/>
<path d="M0 0 C0.648454087779669 2.408543754610264 1.097151828943197 4.707820468014518 1.4375 7.1875 C1.623125000000016 8.115624999999994 1.808749999999975 9.043749999999989 2 10 C2.660000000000025 10.330000000000013 3.319999999999993 10.659999999999997 4 11 C3.339999999999975 11 2.680000000000007 11 2 11 C1.670000000000016 11.659999999999997 1.339999999999975 12.319999999999993 1 13 C1 12.340000000000003 1 11.680000000000007 1 11 C0.339999999999975 11 -0.3199999999999932 11 -1 11 C-1.026881508038258 9.354254341213533 -1.0463412327344201 7.708385865766331 -1.0625 6.0625 C-1.0741015625000045 5.14597656250001 -1.085703125000009 4.229453124999992 -1.09765625 3.28515625 C-1 1 -1 1 0 0 Z " fill="#F0EAC3" transform="translate(257,149)"/>
<path d="M0 0 C0.660000000000025 0 1.3199999999999932 0 2 0 C2.329999999999984 2.3100000000000023 2.660000000000025 4.6200000000000045 3 7 C2.339999999999975 7.3300000000000125 2.339999999999975 7.3300000000000125 -1 9 C-0.6700000000000159 6.030000000000001 -0.339999999999975 3.0600000000000023 0 0 Z " fill="#EDE3AC" transform="translate(258,149)"/>
<path d="M0 0 C1.3199999999999932 0.3299999999999983 2.6399999999999864 0.6599999999999966 4 1 C3.6699999999999875 3.3100000000000023 3.3400000000000034 5.6200000000000045 3 8 C2.009999999999991 7.670000000000002 1.0200000000000102 7.340000000000003 0 7 C0 4.689999999999998 0 2.3799999999999955 0 0 Z " fill="#E0D076" transform="translate(249,97)"/>
<path d="M0 0 C0.45375000000001364 0.041249999999990905 0.45375000000001364 0.041249999999990905 2.75 0.25 C3.0800000000000125 0.910000000000025 3.4099999999999966 1.5699999999999932 3.75 2.25 C2.430000000000007 1.920000000000016 1.1100000000000136 1.589999999999975 -0.25 1.25 C-0.25 1.910000000000025 -0.25 2.569999999999993 -0.25 3.25 C-2.5600000000000023 3.579999999999984 -4.8700000000000045 3.910000000000025 -7.25 4.25 C-4.839231941165451 1.2829008506651576 -3.903220609548953 0.30024773919609515 0 0 Z " fill="#F6F1D7" transform="translate(186.25,281.75)"/>
<path d="M0 0 C0.6599999999999966 0.3299999999999841 1.3199999999999932 0.660000000000025 2 1 C2 2.319999999999993 2 3.6399999999999864 2 5 C0.3499999999999943 5.329999999999984 -1.3000000000000114 5.660000000000025 -3 6 C-3.3300000000000125 5.009999999999991 -3.6599999999999966 4.019999999999982 -4 3 C-3 1 -3 1 0 0 Z " fill="#F5F4EF" transform="translate(238,260)"/>
<path d="M0 0 C2 0 2 0 3.6875 1.25 C4.120625000000018 1.8275000000000006 4.5537499999999795 2.405000000000001 5 3 C4.6875 5 4.6875 5 4 7 C4 7.989999999999995 4 8.980000000000004 4 10 C1.8090234843166968 6.665905302221034 0.5654583696236841 3.958208587365874 0 0 Z " fill="#F0E7B9" transform="translate(256,75)"/>
<path d="M0 0 C1.9799999999999898 0 3.960000000000008 0 6 0 C6.3300000000000125 1.6500000000000057 6.659999999999997 3.299999999999997 7 5 C6.340000000000003 5 5.680000000000007 5 5 5 C4.6699999999999875 5.659999999999997 4.340000000000003 6.319999999999993 4 7 C1.125 2.25 1.125 2.25 0 0 Z " fill="#E4D685" transform="translate(239,63)"/>
<path d="M0 0 C0.9900000000000091 0.3299999999999983 1.9799999999999898 0.6599999999999966 3 1 C3 1.9899999999999949 3 2.980000000000004 3 4 C4.5 5.6875 4.5 5.6875 6 7 C4.349999999999994 7 2.6999999999999886 7 1 7 C0.6699999999999875 4.689999999999998 0.3400000000000034 2.3799999999999955 0 0 Z " fill="#EDE4AE" transform="translate(247,78)"/>
<path d="M0 0 C0.9900000000000091 0 1.9800000000000182 0 3 0 C1.375 5.75 1.375 5.75 -2 8 C-1.125 2.25 -1.125 2.25 0 0 Z " fill="#F2EBC4" transform="translate(274,211)"/>
<path d="M0 0 C1.7853543883038014 2.678031582455688 2.854699488577296 5.022218670301001 4 8 C4.329999999999984 8.659999999999997 4.660000000000025 9.319999999999993 5 10 C4.009999999999991 10 3.019999999999982 10 2 10 C2 9.010000000000005 2 8.019999999999996 2 7 C1.339999999999975 7 0.6800000000000068 7 0 7 C-0.9342364456992982 3.9896825638578406 -1.0444991081527064 3.133497324458091 0 0 Z " fill="#E9E6D5" transform="translate(285,107)"/>
<path d="M0 0 C0.8249999999999886 0.3299999999999983 0.8249999999999886 0.3299999999999983 5 2 C4.6699999999999875 2.6599999999999966 4.340000000000003 3.3200000000000003 4 4 C3.009999999999991 4 2.0200000000000102 4 1 4 C1.6599999999999966 4.659999999999997 2.319999999999993 5.32 3 6 C1.6800000000000068 5.670000000000002 0.36000000000001364 5.340000000000003 -1 5 C-0.6699999999999875 3.3500000000000014 -0.3400000000000034 1.7000000000000028 0 0 Z " fill="#F3ECC9" transform="translate(214,37)"/>
<path d="M0 0 C1.3199999999999932 0.3299999999999841 2.6399999999999864 0.660000000000025 4 1 C3.6699999999999875 1.990000000000009 3.3400000000000034 2.980000000000018 3 4 C2.009999999999991 4.329999999999984 1.0200000000000102 4.660000000000025 0 5 C-0.6599999999999966 4.339999999999975 -1.3199999999999932 3.680000000000007 -2 3 C-1.3400000000000034 2.009999999999991 -0.6800000000000068 1.0199999999999818 0 0 Z " fill="#ECEAE0" transform="translate(233,264)"/>
<path d="M0 0 C0.9900000000000091 0 1.9800000000000182 0 3 0 C3 0.6599999999999966 3 1.3199999999999932 3 2 C3.660000000000025 2.3299999999999983 4.319999999999993 2.6599999999999966 5 3 C4.339999999999975 3 3.680000000000007 3 3 3 C3.329999999999984 4.319999999999993 3.660000000000025 5.640000000000001 4 7 C3.009999999999991 6.670000000000002 2.019999999999982 6.340000000000003 1 6 C1 5.340000000000003 1 4.680000000000007 1 4 C0.339999999999975 3.6700000000000017 -0.3199999999999932 3.3400000000000034 -1 3 C-0.009999999999990905 3 0.9800000000000182 3 2 3 C2 2.3400000000000034 2 1.6800000000000068 2 1 C1.339999999999975 0.6700000000000017 0.6800000000000068 0.3400000000000034 0 0 Z " fill="#F6F0D5" transform="translate(263,102)"/>
<path d="M0 0 C0.8249999999999886 0.16500000000000625 0.8249999999999886 0.16500000000000625 5 1 C5 1.9899999999999949 5 2.980000000000004 5 4 C4.6699999999999875 3.6700000000000017 4.340000000000003 3.3400000000000034 4 3 C3.6699999999999875 3.6599999999999966 3.3400000000000034 4.319999999999993 3 5 C2.3400000000000034 5 1.6800000000000068 5 1 5 C0.6699999999999875 3.3499999999999943 0.3400000000000034 1.7000000000000028 0 0 Z " fill="#DCC95E" transform="translate(236,64)"/>
<path d="M0 0 C3.1611577555191275 1.3698350273916233 3.992709197315321 1.9890637959729744 6 5 C3 5 3 5 0.8125 3 C0.21437499999998977 2.3400000000000034 -0.38374999999999204 1.6799999999999997 -1 1 C-0.6699999999999875 0.6700000000000017 -0.3400000000000034 0.3400000000000034 0 0 Z " fill="#EFEDE3" transform="translate(239,39)"/>
<path d="M0 0 C3 1 3 1 4 3 C4.039992002399174 4.999600119960007 4.043467990818442 7.000472422352175 4 9 C2 6 2 6 2 3 C1.339999999999975 3 0.6800000000000068 3 0 3 C0 2.010000000000005 0 1.019999999999996 0 0 Z " fill="#EDE2AB" transform="translate(275,94)"/>
<path d="M0 0 C-0.3300000000000125 1.3199999999999932 -0.6599999999999966 2.6400000000000006 -1 4 C-2.319999999999993 4 -3.6399999999999864 4 -5 4 C-5.3300000000000125 3.010000000000005 -5.659999999999997 2.019999999999996 -6 1 C-4 0 -4 0 0 0 Z " fill="#DECC6A" transform="translate(245,70)"/>
</svg>
